<?xml version="1.0" standalone="no"?>
<!DOCTYPE svg PUBLIC "-//W3C//DTD SVG 1.1//EN" "http://www.w3.org/Graphics/SVG/1.1/DTD/svg11.dtd" >
<svg xmlns="http://www.w3.org/2000/svg" xmlns:xlink="http://www.w3.org/1999/xlink" version="1.1">
<metadata>
Created by FontForge 20201107 at Wed May 17 13:47:21 2017
 By 
Oliver Jeschke / ogj type design
</metadata>
<defs>
<font id="SequelSans-HeavyDisp" horiz-adv-x="585" >
  <font-face 
    font-family="Sequel Sans Heavy Disp"
    font-weight="430"
    font-stretch="normal"
    units-per-em="1000"
    panose-1="2 11 7 3 5 0 0 2 0 4"
    ascent="800"
    descent="-200"
    x-height="531"
    cap-height="714"
    bbox="-103 -439 1258 1069"
    underline-thickness="50"
    underline-position="-100"
    unicode-range="U+000D-FB02"
  />
<missing-glyph horiz-adv-x="687" 
d="M50 -439v1508h587v-1508h-587zM562 -373v1377h-437v-1377h437zM217 508q45 35 123 35q76 0 124 -35.5t48 -100.5q0 -39 -18 -60t-51 -39q-30 -16 -40 -25.5t-10 -25.5v-3h-114v16q0 37 15 57.5t56 46.5q15 10 22.5 19t7.5 22q0 14 -10.5 23t-30.5 9q-21 0 -33.5 -14.5
t-13.5 -41.5l-127 10q7 72 52 107zM404 216v-123h-135v123h135z" />
    <glyph glyph-name=".notdef" horiz-adv-x="687" 
d="M50 -439v1508h587v-1508h-587zM562 -373v1377h-437v-1377h437zM217 508q45 35 123 35q76 0 124 -35.5t48 -100.5q0 -39 -18 -60t-51 -39q-30 -16 -40 -25.5t-10 -25.5v-3h-114v16q0 37 15 57.5t56 46.5q15 10 22.5 19t7.5 22q0 14 -10.5 23t-30.5 9q-21 0 -33.5 -14.5
t-13.5 -41.5l-127 10q7 72 52 107zM404 216v-123h-135v123h135z" />
    <glyph glyph-name=".null" horiz-adv-x="0" 
 />
    <glyph glyph-name="nonmarkingreturn" unicode="&#xd;" horiz-adv-x="168" 
 />
    <glyph glyph-name="space" unicode=" " horiz-adv-x="190" 
 />
    <glyph glyph-name="exclam" unicode="!" horiz-adv-x="278" 
d="M44 558v156h190v-156l-29 -312h-132zM235 179v-179h-192v179h192z" />
    <glyph glyph-name="quotedbl" unicode="&#x22;" horiz-adv-x="458" 
d="M40 714h152v-316h-152v316zM266 714h152v-316h-152v316z" />
    <glyph glyph-name="numbersign" unicode="#" horiz-adv-x="655" 
d="M490 289h104l-24 -110h-102l-36 -179h-118l36 179h-114l-36 -179h-118l36 179h-102l23 110h101l25 121h-104l22 112h104l36 178h119l-37 -178h115l36 178h117l-36 -178h102l-23 -112h-101zM283 410l-25 -121h114l25 121h-114z" />
    <glyph glyph-name="dollar" unicode="$" horiz-adv-x="637" 
d="M538 42.5q-79 -53.5 -202 -56.5v-103h-51v104q-121 8 -195.5 68t-84.5 164l180 18q4 -48 30.5 -76t69.5 -37v161l-52 14q-65 17 -107.5 36t-71.5 58.5t-29 106.5q0 98 72 153t188 60v81h51v-81q110 -7 176.5 -61.5t82.5 -153.5l-175 -12q-9 77 -84 92v-141l57 -15
q72 -18 116.5 -37.5t76 -63.5t31.5 -120q0 -105 -79 -158.5zM224.5 473q20.5 -14 60.5 -23v131q-36 -4 -58.5 -23t-22.5 -45t20.5 -40zM404.5 142.5q26.5 19.5 26.5 51.5t-22 48t-73 30v-151q42 2 68.5 21.5z" />
    <glyph glyph-name="percent" unicode="%" horiz-adv-x="957" 
d="M381 510q0 -101 -45.5 -152.5t-134.5 -51.5q-181 0 -181 204t181 204q180 0 180 -204zM331 0h-100l395 700h100zM245 414q16 26 16 96t-16 96t-44 26q-29 0 -44.5 -25.5t-15.5 -96.5t15.5 -96.5t44.5 -25.5q28 0 44 26zM937 191q0 -205 -180 -205t-180 205q0 204 180 204
t180 -204zM801.5 94.5q15.5 25.5 15.5 96.5q0 70 -16 95.5t-44 25.5t-44 -25.5t-16 -95.5q0 -71 15.5 -96.5t44.5 -25.5t44.5 25.5z" />
    <glyph glyph-name="ampersand" unicode="&#x26;" horiz-adv-x="783" 
d="M523 55q-45 -34 -99 -52t-111 -18q-78 0 -145 23.5t-107.5 72t-40.5 118.5q0 69 34 113t105 79l25 12q-42 48 -57.5 82.5t-15.5 70.5q0 49 30 89t82.5 62.5t118.5 22.5t118.5 -22.5t82.5 -62.5t30 -89q0 -50 -30 -83t-86 -64l-48 -26l99 -100q12 45 12 93h149
q0 -118 -50 -207l166 -169h-208zM286 516.5q11 -17.5 38 -46.5l19 10q35 16 50.5 32t15.5 39q0 24 -17.5 43t-49.5 19q-33 0 -50 -19t-17 -43q0 -17 11 -34.5zM427 154l-152 155l-7 -4q-36 -20 -54 -44t-18 -56q0 -40 30.5 -65t86.5 -25q64 0 114 39z" />
    <glyph glyph-name="quotesingle" unicode="'" horiz-adv-x="232" 
d="M40 714h152v-316h-152v316z" />
    <glyph glyph-name="parenleft" unicode="(" horiz-adv-x="332" 
d="M243.5 99q32.5 -98 88.5 -176l-70 -70q-228 181 -228 474q0 292 228 475l70 -70q-56 -78 -88.5 -176t-32.5 -229q0 -130 32.5 -228z" />
    <glyph glyph-name="parenright" unicode=")" horiz-adv-x="332" 
d="M88.5 556q-32.5 98 -88.5 176l70 70q228 -183 228 -475q0 -293 -228 -474l-70 70q56 78 88.5 176t32.5 228q0 131 -32.5 229z" />
    <glyph glyph-name="asterisk" unicode="*" horiz-adv-x="433" 
d="M406 451l-56 -81l-87 67l4 -114h-101l3 114l-86 -67l-57 81l109 67l-109 68l57 81l86 -67l-3 114h101l-4 -114l87 67l56 -81l-109 -68z" />
    <glyph glyph-name="plus" unicode="+" horiz-adv-x="483" 
d="M301 268v-168h-119v168h-156v114h156v168h119v-168h156v-114h-156z" />
    <glyph glyph-name="comma" unicode="," horiz-adv-x="260" 
d="M182.5 -113.5q-43.5 -54.5 -146.5 -59.5v84q33 3 48.5 24.5t15.5 64.5h-66v179h192v-122q0 -116 -43.5 -170.5z" />
    <glyph glyph-name="hyphen" unicode="-" horiz-adv-x="403" 
d="M44 357h315v-147h-315v147z" />
    <glyph glyph-name="period" unicode="." horiz-adv-x="260" 
d="M226 179v-179h-192v179h192z" />
    <glyph glyph-name="slash" unicode="/" horiz-adv-x="432" 
d="M166 0h-160l259 714h161z" />
    <glyph glyph-name="zero" unicode="0" horiz-adv-x="641" 
d="M618 350q0 -364 -297 -364q-145 0 -221.5 88t-76.5 276t76.5 276t221.5 88q297 0 297 -364zM374.5 135.5q23.5 16.5 39 67t15.5 147.5t-15.5 148t-38.5 67t-54 16t-54.5 -16t-39 -67t-15.5 -148t15.5 -147.5t39 -67t54.5 -16.5q30 0 53.5 16.5z" />
    <glyph glyph-name="one" unicode="1" horiz-adv-x="392" 
d="M343 0h-182v454h-141v121h21q63 0 101.5 36.5t49.5 88.5h151v-700z" />
    <glyph glyph-name="two" unicode="2" horiz-adv-x="581" 
d="M556 0h-540v22q0 85 26 143.5t69 97t110 78.5l62 37q45 27 68 53.5t23 61.5q0 39 -20 60t-59 21q-42 0 -66.5 -28t-27.5 -87l-180 4q6 122 81.5 186t192.5 64t189 -53.5t72 -155.5q0 -70 -23 -115t-57.5 -70.5t-101.5 -64.5l-49 -30q-37 -23 -63 -44t-27 -32h321v-148z
" />
    <glyph glyph-name="three" unicode="3" horiz-adv-x="598" 
d="M358.5 441.5q25.5 22.5 25.5 58.5t-23.5 57t-60.5 21q-38 0 -62.5 -22t-28.5 -67l-178 9q6 106 77 161t192 55q120 0 191 -53.5t71 -149.5q0 -52 -29.5 -88t-78.5 -53v-4q55 -15 88 -54t33 -104q0 -116 -73.5 -168.5t-202.5 -52.5q-127 0 -203.5 56t-83.5 173l183 9
q7 -103 104 -103q41 0 66.5 24t26.5 66q0 43 -26.5 64.5t-75.5 21.5h-64v122l64 -1q43 0 68.5 22.5z" />
    <glyph glyph-name="four" unicode="4" horiz-adv-x="609" 
d="M591 283v-132h-80v-151h-183v151h-310v148l237 401h256v-417h80zM156 283h172v287h-4l-168 -283v-4z" />
    <glyph glyph-name="five" unicode="5" horiz-adv-x="589" 
d="M440.5 453q53.5 -25 89 -80.5t35.5 -139.5q0 -126 -79 -186.5t-198 -60.5q-113 0 -187.5 51t-90.5 151l181 19q5 -39 30.5 -62t66.5 -23q43 0 68.5 28t25.5 84t-26 84t-69 28q-30 0 -52.5 -12.5t-37.5 -33.5h-171l34 400h457v-142h-311l-10 -125h4q26 24 56 34.5t75 10.5
q56 0 109.5 -25z" />
    <glyph glyph-name="six" unicode="6" horiz-adv-x="615" 
d="M468 435q54 -27 88.5 -78.5t34.5 -122.5q0 -85 -40.5 -140.5t-103 -81.5t-130.5 -26q-146 0 -221 90q-73 86 -73 275q0 219 87.5 290.5t206.5 71.5q102 0 171 -48.5t90 -134.5l-171 -22q-20 80 -90 80q-50 0 -84 -39.5t-34 -135.5v-7h4q59 56 153 56q58 0 112 -27z
M386 140.5q30 29.5 30 85.5t-30 85.5t-75 29.5q-44 0 -76 -31t-32 -84t32 -84t76 -31q45 0 75 29.5z" />
    <glyph glyph-name="seven" unicode="7" horiz-adv-x="568" 
d="M550 628q0 -58 -22 -103.5t-68 -111.5q-44 -63 -71 -111t-46.5 -118.5t-19.5 -162.5v-21h-194v32q0 105 33.5 197t78.5 160t113 155v4h-336v152h532v-72z" />
    <glyph glyph-name="eight" unicode="8" horiz-adv-x="607" 
d="M507.5 39q79.5 53 79.5 156q0 129 -120 178v4q102 42 102 142q0 95 -76 144.5t-190 49.5t-190 -49.5t-76 -144.5q0 -100 102 -142v-4q-119 -49 -119 -178q0 -103 79 -156t204 -53t204.5 53zM374 572q30 -23 30 -66t-29.5 -66.5t-71.5 -23.5q-41 0 -70.5 23.5t-29.5 66.5
t30 66t70 23q41 0 71 -23zM379.5 286q31.5 -25 31.5 -74q0 -50 -31 -75.5t-77 -25.5q-45 0 -76 26t-31 75q0 48 31.5 73.5t75.5 25.5q45 0 76.5 -25z" />
    <glyph glyph-name="nine" unicode="9" horiz-adv-x="615" 
d="M146.5 264q-54.5 27 -89 78.5t-34.5 122.5q0 85 41 140.5t103.5 81.5t130.5 26q145 0 220 -89q73 -84 73 -276q0 -219 -87 -290.5t-206 -71.5q-102 0 -171 48.5t-91 134.5l172 22q19 -80 90 -80q49 0 83 40t34 136v6h-4q-29 -28 -68 -42t-84 -14q-58 0 -112.5 27z
M228.5 558.5q-30.5 -29.5 -30.5 -85.5q0 -55 30.5 -85t75.5 -30q44 0 76 31t32 84q0 54 -31.5 84.5t-76.5 30.5t-75.5 -29.5z" />
    <glyph glyph-name="colon" unicode=":" horiz-adv-x="277" 
d="M235 521v-180h-193v180h193zM235 179v-179h-193v179h193z" />
    <glyph glyph-name="semicolon" unicode=";" horiz-adv-x="277" 
d="M235 521v-180h-193v180h193zM191 -113.5q-44 -54.5 -147 -59.5v84q33 3 49 24.5t16 64.5h-67v179h193v-122q0 -116 -44 -170.5z" />
    <glyph glyph-name="less" unicode="&#x3c;" horiz-adv-x="521" 
d="M473 577v-138l-269 -115v-4l269 -115v-138l-430 195v120z" />
    <glyph glyph-name="equal" unicode="=" horiz-adv-x="483" 
d="M26 479h430v-114h-430v114zM26 285h430v-115h-430v115z" />
    <glyph glyph-name="greater" unicode="&#x3e;" horiz-adv-x="524" 
d="M51 67v138l268 115v4l-268 115v138l430 -195v-120z" />
    <glyph glyph-name="question" unicode="?" horiz-adv-x="595" 
d="M107 674q71 56 191 56q77 0 137.5 -24.5t95 -72t34.5 -115.5q0 -46 -15 -77t-37.5 -50t-57.5 -38q-48 -28 -65 -48.5t-17 -53.5v-5h-160v29q0 62 24.5 98.5t86.5 73.5q28 17 41.5 35t13.5 45q0 30 -21.5 48t-60.5 18q-41 0 -67 -27t-32 -78l-175 18q13 112 84 168z
M389 179v-179h-192v179h192z" />
    <glyph glyph-name="at" unicode="@" horiz-adv-x="961" 
d="M634.5 -138q-72.5 -19 -145.5 -19q-130 0 -237 49.5t-169.5 144t-62.5 223.5q0 130 63 237.5t170.5 169.5t235.5 62t231.5 -50.5t161.5 -135t58 -184.5q0 -107 -44.5 -175t-108 -98t-124.5 -30q-46 0 -76 16.5t-34 47.5h-4q-44 -64 -145 -64q-55 0 -95.5 25.5t-62 67.5
t-21.5 92q0 68 26 129.5t79.5 100.5t131.5 39q36 0 68 -16.5t48 -46.5h4l9 45h137l-64 -300q-2 -7 -2 -19q0 -22 11.5 -29.5t32.5 -7.5q29 0 61 24t54.5 72t22.5 116q0 86 -44 154t-125.5 106.5t-190.5 38.5q-96 0 -180.5 -51.5t-135.5 -141t-51 -199.5q0 -104 50 -179
t135.5 -114t191.5 -39q60 0 121 15.5t112 46.5l41 -67q-61 -37 -133.5 -56zM504 185.5q27 23.5 40.5 58.5t13.5 67q0 45 -19.5 69t-56.5 24t-63.5 -23.5t-40 -58.5t-13.5 -67q0 -45 19 -69t56 -24t64 23.5z" />
    <glyph glyph-name="A" unicode="A" horiz-adv-x="760" 
d="M245 150l-47 -150h-200l254 714h256l254 -714h-203l-48 150h-266zM379 558h-4l-87 -274h179z" />
    <glyph glyph-name="B" unicode="B" horiz-adv-x="676" 
d="M577 662q62 -52 62 -139q0 -50 -24.5 -85t-67.5 -56v-4q52 -23 83.5 -64t31.5 -101q0 -101 -63 -157t-177 -56h-390v714h374q109 0 171 -52zM364 426q42 0 64 19.5t22 54.5t-22 54.5t-64 19.5h-142v-148h142zM444.5 164q23.5 21 23.5 58t-23.5 58.5t-67.5 21.5h-155v-159
h155q44 0 67.5 21z" />
    <glyph glyph-name="C" unicode="C" horiz-adv-x="733" 
d="M661.5 118q-44.5 -62 -117.5 -98t-166 -36q-105 0 -186 44t-126.5 128t-45.5 201t45.5 201t126.5 128t186 44q88 0 158.5 -32.5t115.5 -86.5t61 -118l-190 -24q-15 50 -52.5 80.5t-92.5 30.5q-70 0 -117 -54t-47 -169t47 -169t117 -54q60 0 98.5 37.5t50.5 102.5l192 -17
q-13 -77 -57.5 -139z" />
    <glyph glyph-name="D" unicode="D" horiz-adv-x="721" 
d="M600.5 625.5q100.5 -88.5 100.5 -268.5t-100.5 -268.5t-273.5 -88.5h-295v714h295q173 0 273.5 -88.5zM454 192.5q53 47.5 53 164.5t-53 164.5t-158 47.5h-74v-424h74q105 0 158 47.5z" />
    <glyph glyph-name="E" unicode="E" horiz-adv-x="598" 
d="M558 435v-140h-336v-145h355v-150h-545v714h545v-145h-355v-134h336z" />
    <glyph glyph-name="F" unicode="F" horiz-adv-x="593" 
d="M222 414h336v-140h-336v-274h-190v714h545v-145h-355v-155z" />
    <glyph glyph-name="G" unicode="G" horiz-adv-x="756" 
d="M604 0v82q-82 -98 -222 -98q-105 0 -187 44.5t-128.5 129t-46.5 199.5q0 116 46.5 200t128.5 128.5t187 44.5q129 0 218 -63.5t120 -165.5l-191 -23q-19 48 -55.5 75t-91.5 27q-75 0 -121.5 -54t-46.5 -169t46.5 -169t121.5 -54q58 0 102 30t65 91h-155v133h334v-388
h-124z" />
    <glyph glyph-name="H" unicode="H" horiz-adv-x="712" 
d="M681 0h-190v285h-269v-285h-190v714h190v-275h269v275h190v-714z" />
    <glyph glyph-name="I" unicode="I" horiz-adv-x="254" 
d="M32 714h190v-714h-190v714z" />
    <glyph glyph-name="J" unicode="J" horiz-adv-x="623" 
d="M513.5 44.5q-78.5 -60.5 -212.5 -60.5q-124 0 -200 62t-89 187q-3 28 -2 41l186 17q-1 -5 -1 -19q0 -15 1 -22q7 -59 32 -87t73 -28q97 0 97 115v464h194v-477q0 -132 -78.5 -192.5z" />
    <glyph glyph-name="K" unicode="K" horiz-adv-x="695" 
d="M222 228v-228h-190v714h190v-267l230 267h216l-248 -273l283 -441h-225l-189 302z" />
    <glyph glyph-name="L" unicode="L" horiz-adv-x="595" 
d="M32 714h190v-557h361v-157h-551v714z" />
    <glyph glyph-name="M" unicode="M" horiz-adv-x="853" 
d="M821 0h-177v500h-4l-149 -500h-133l-149 500h-4v-500h-173v714h279l114 -431h4l115 431h277v-714z" />
    <glyph glyph-name="N" unicode="N" horiz-adv-x="716" 
d="M471 0l-262 465h-4v-465h-173v714h217l258 -455h4v455h173v-714h-213z" />
    <glyph glyph-name="O" unicode="O" horiz-adv-x="768" 
d="M572.5 686q82.5 -44 129 -128t46.5 -201t-46.5 -201t-129 -128t-188.5 -44t-188.5 44t-129 128t-46.5 201t46.5 201t129 128t188.5 44t188.5 -44zM506.5 188q47.5 54 47.5 169t-47.5 169t-122.5 54t-122.5 -54t-47.5 -169t47.5 -169t122.5 -54t122.5 54z" />
    <glyph glyph-name="P" unicode="P" horiz-adv-x="672" 
d="M582 650.5q71 -63.5 71 -176.5t-71 -176.5t-198 -63.5h-162v-234h-190v714h352q127 0 198 -63.5zM431.5 404q28.5 25 28.5 70t-28.5 70t-81.5 25h-128v-190h128q53 0 81.5 25z" />
    <glyph glyph-name="Q" unicode="Q" horiz-adv-x="768" 
d="M557 27q-71 -43 -173 -43q-106 0 -188.5 44t-129 128t-46.5 201t46.5 201t129 128t188.5 44t188.5 -44t129 -128t46.5 -201q0 -136 -65 -224l127 -168h-210zM506.5 188q47.5 54 47.5 169t-47.5 169t-122.5 54t-122.5 -54t-47.5 -169t47.5 -169t122.5 -54t122.5 54z" />
    <glyph glyph-name="R" unicode="R" horiz-adv-x="687" 
d="M333 241h-111v-241h-190v714h366q128 0 199 -62t71 -174q0 -79 -36 -134t-103 -81l159 -263h-220zM446.5 410q27.5 24 27.5 68q0 43 -27.5 67t-81.5 24h-143v-183h143q54 0 81.5 24z" />
    <glyph glyph-name="S" unicode="S" horiz-adv-x="664" 
d="M401.5 568q-31.5 25 -86.5 25q-46 0 -74 -19.5t-28 -49.5q0 -26 21 -40t64 -24l113 -28q75 -19 121.5 -39t79 -65t32.5 -123q0 -111 -87 -166t-222 -55q-89 0 -161 27.5t-116.5 81t-52.5 129.5l188 19q5 -59 44 -88t100 -29q50 0 82 19.5t32 54.5q0 33 -24 48.5t-82 30.5
l-102 27q-68 18 -112 37.5t-74.5 60.5t-30.5 110q0 105 82.5 161.5t214.5 56.5q122 0 201.5 -57.5t96.5 -163.5l-182 -12q-6 46 -37.5 71z" />
    <glyph glyph-name="T" unicode="T" horiz-adv-x="658" 
d="M424 557v-557h-190v557h-222v157h634v-157h-222z" />
    <glyph glyph-name="U" unicode="U" horiz-adv-x="706" 
d="M633.5 108.5q-41.5 -62.5 -114 -93.5t-166.5 -31t-166 31t-113.5 93.5t-41.5 154.5v451h190v-433q0 -146 131 -146q132 0 132 146v433h190v-451q0 -92 -41.5 -154.5z" />
    <glyph glyph-name="V" unicode="V" horiz-adv-x="724" 
d="M476 0h-231l-247 714h202l161 -521h4l162 521h199z" />
    <glyph glyph-name="W" unicode="W" horiz-adv-x="959" 
d="M481 481h-4l-80 -481h-239l-159 714h194l91 -501h4l83 501h214l82 -501h4l92 501h197l-160 -714h-238z" />
    <glyph glyph-name="X" unicode="X" horiz-adv-x="681" 
d="M337 233l-130 -233h-209l233 371l-215 343h214l113 -204l113 204h208l-215 -342l233 -372h-214z" />
    <glyph glyph-name="Y" unicode="Y" horiz-adv-x="697" 
d="M444 266v-266h-190v266l-256 448h208l144 -282l145 282h204z" />
    <glyph glyph-name="Z" unicode="Z" horiz-adv-x="627" 
d="M611 157v-157h-598v157l349 400h-328v157h578v-157l-348 -400h347z" />
    <glyph glyph-name="bracketleft" unicode="[" horiz-adv-x="369" 
d="M349 -14v-133h-290v901h290v-133h-121v-635h121z" />
    <glyph glyph-name="backslash" unicode="\" horiz-adv-x="432" 
d="M266 0l-260 714h161l259 -714h-160z" />
    <glyph glyph-name="bracketright" unicode="]" horiz-adv-x="369" 
d="M20 754h290v-901h-290v133h121v635h-121v133z" />
    <glyph glyph-name="asciicircum" unicode="^" horiz-adv-x="523" 
d="M263 562h-4l-95 -209h-132l163 347h133l163 -347h-132z" />
    <glyph glyph-name="underscore" unicode="_" horiz-adv-x="512" 
d="M-19 -110h549v-50h-549v50z" />
    <glyph glyph-name="grave" unicode="`" horiz-adv-x="318" 
d="M293 589h-123l-141 167h177z" />
    <glyph glyph-name="a" unicode="a" horiz-adv-x="568" 
d="M365 77q-19 -42 -65.5 -66t-106.5 -24q-46 0 -87 19t-66 54t-25 83q0 81 53 121t161 54q55 8 84 15.5t40.5 17t11.5 25.5q0 25 -19.5 38.5t-54.5 13.5q-32 0 -56 -18t-34 -51l-165 17q17 79 86 123.5t172 44.5q123 0 186 -47.5t63 -134.5v-263q0 -43 2.5 -64.5
t11.5 -34.5h-177q-15 18 -15 77zM329 237.5q-25 -5.5 -55 -10.5q-78 -15 -78 -70q0 -27 17.5 -42.5t46.5 -15.5q24 0 48 11t40.5 34.5t16.5 59.5v46q-11 -7 -36 -12.5z" />
    <glyph glyph-name="b" unicode="b" horiz-adv-x="608" 
d="M482.5 510q50.5 -34 79.5 -97t29 -148t-29.5 -148t-80.5 -96.5t-116 -33.5q-115 0 -162 84h-4v-71h-170v724h178v-257h4q50 77 159 77q62 0 112.5 -34zM382 154q28 36 28 111t-28 111t-78 36t-78 -36t-28 -111q0 -74 28.5 -110.5t77.5 -36.5q50 0 78 36z" />
    <glyph glyph-name="c" unicode="c" horiz-adv-x="580" 
d="M392 206l181 -17q-21 -88 -86.5 -145t-188.5 -57q-132 0 -206.5 74t-74.5 204q0 131 74.5 205t206.5 74q120 0 185 -54.5t85 -130.5l-177 -28q-23 85 -93 85q-47 0 -73.5 -36.5t-26.5 -114.5t26.5 -114.5t73.5 -36.5q75 0 94 92z" />
    <glyph glyph-name="d" unicode="d" horiz-adv-x="604" 
d="M397 467h4v257h178v-724h-171v71h-4q-46 -84 -161 -84q-65 0 -116 33.5t-80.5 96.5t-29.5 148t29 148t79.5 97t112.5 34q109 0 159 -77zM381.5 154.5q28.5 36.5 28.5 110.5q0 75 -28 111t-78 36t-78 -36t-28 -111t28 -111t78 -36q49 0 77.5 36.5z" />
    <glyph glyph-name="e" unicode="e" horiz-adv-x="598" 
d="M532 79.5q-32 -39.5 -90 -66t-142 -26.5q-133 0 -208 74t-75 203q0 131 74.5 205.5t207.5 74.5q131 0 206.5 -73t75.5 -210l-1 -31h-380q0 -59 27.5 -93.5t72.5 -34.5q41 0 63 20t29 49l182 -11q-10 -41 -42 -80.5zM229 404.5q-26 -27.5 -28 -72.5h197q-2 45 -28.5 72.5
t-70.5 27.5t-70 -27.5z" />
    <glyph glyph-name="f" unicode="f" horiz-adv-x="390" 
d="M281.5 599.5q-16.5 -12.5 -16.5 -40.5v-28h106v-111h-106v-420h-177v420h-81v111h81v50q0 89 53.5 122.5t154.5 33.5q40 0 91 -7v-120q-32 2 -56 2q-33 0 -49.5 -12.5z" />
    <glyph glyph-name="g" unicode="g" horiz-adv-x="603" 
d="M578 43q0 -128 -76 -184t-205 -56q-108 0 -180.5 43t-96.5 136l178 12q11 -34 35 -50t64 -16q48 0 75.5 28t27.5 90v51h-4q-48 -70 -158 -70q-62 0 -112 31.5t-78.5 90t-28.5 137.5t29 137.5t80 89.5t115 31q114 0 160 -80h4v67h171v-488zM380 191.5q28 34.5 28 94.5
q0 59 -28 93t-76 34t-76 -34t-28 -93q0 -60 28 -94.5t76 -34.5t76 34.5z" />
    <glyph glyph-name="h" unicode="h" 
d="M211 459q63 85 167 85q82 0 132 -50t50 -147v-347h-178v306q0 51 -20.5 74t-60.5 23t-67 -30.5t-27 -88.5v-284h-178v724h178v-265h4z" />
    <glyph glyph-name="i" unicode="i" horiz-adv-x="234" 
d="M207 531v-531h-177v531h177zM208 724v-129h-178v129h178z" />
    <glyph glyph-name="j" unicode="j" horiz-adv-x="234" 
d="M18.5 -49q11.5 8 11.5 32v548h177v-580q0 -60 -16.5 -92t-49 -44t-88.5 -12q-68 0 -100 2v138h30q24 0 35.5 8zM208 724v-129h-178v129h178z" />
    <glyph glyph-name="k" unicode="k" 
d="M207 0h-178v724h178v-391l169 198h194l-189 -205l210 -326h-202l-127 207l-55 -61v-146z" />
    <glyph glyph-name="l" unicode="l" horiz-adv-x="234" 
d="M207 724v-724h-177v724h177z" />
    <glyph glyph-name="m" unicode="m" horiz-adv-x="909" 
d="M835.5 494.5q48.5 -49.5 48.5 -147.5v-347h-178v306q0 51 -19 74t-56 23t-61.5 -29.5t-24.5 -87.5v-286h-177v306q0 51 -19 74t-56 23t-61.5 -29.5t-24.5 -87.5v-286h-178v531h171v-72h4q59 85 164 85q54 0 94 -22.5t62 -67.5q35 41 77 65.5t105 24.5q81 0 129.5 -49.5z
" />
    <glyph glyph-name="n" unicode="n" 
d="M204 459q59 85 170 85q85 0 135.5 -49.5t50.5 -147.5v-347h-178v306q0 51 -20.5 74t-60.5 23q-41 0 -67.5 -29.5t-26.5 -87.5v-286h-178v531h171v-72h4z" />
    <glyph glyph-name="o" unicode="o" horiz-adv-x="605" 
d="M512 470q75 -74 75 -205q0 -130 -75 -204t-209 -74q-135 0 -210.5 74t-75.5 204q0 131 75.5 205t210.5 74q134 0 209 -74zM406 265q0 151 -103 151q-105 0 -105 -151q0 -150 105 -150q103 0 103 150z" />
    <glyph glyph-name="p" unicode="p" horiz-adv-x="608" 
d="M211 64h-4v-248h-178v715h170v-71h4q48 84 162 84q65 0 116 -33.5t80.5 -96.5t29.5 -148t-29 -148t-79.5 -97t-112.5 -34q-110 0 -159 77zM226 376q-28 -36 -28 -111q0 -74 28.5 -110.5t77.5 -36.5q50 0 77.5 36t27.5 111t-27.5 111t-77.5 36t-78 -36z" />
    <glyph glyph-name="q" unicode="q" horiz-adv-x="604" 
d="M125.5 21q-50.5 34 -79.5 97t-29 148t29.5 148t80.5 96.5t116 33.5q114 0 161 -84h4v71h171v-715h-178v248h-4q-49 -77 -159 -77q-62 0 -112.5 34zM226 376q-28 -36 -28 -111t28 -111t78 -36q49 0 77.5 36.5t28.5 110.5q0 75 -28 111t-78 36t-78 -36z" />
    <glyph glyph-name="r" unicode="r" horiz-adv-x="397" 
d="M199 448h4q50 96 163 96q13 0 27 -4v-164q-24 4 -59 4q-60 0 -93.5 -28.5t-33.5 -98.5v-253h-178v531h170v-83z" />
    <glyph glyph-name="s" unicode="s" horiz-adv-x="545" 
d="M321.5 418q-22.5 18 -56.5 18q-31 0 -51 -13t-20 -36q0 -21 20 -31.5t64 -17.5l56 -8q59 -10 101 -26t69 -50.5t27 -92.5q0 -88 -72 -131t-191 -43q-109 0 -181.5 43.5t-85.5 124.5l168 17q6 -37 32 -56.5t68 -19.5q38 0 59.5 15t21.5 41q0 20 -22.5 32.5t-65.5 19.5
l-63 9q-81 13 -131 48.5t-50 114.5q0 54 34 92t90 57t121 19q101 0 169 -41.5t82 -118.5l-165 -15q-5 31 -27.5 49z" />
    <glyph glyph-name="t" unicode="t" horiz-adv-x="381" 
d="M369 131v-131q-16 -2 -108 -2q-65 0 -101.5 11.5t-54 41.5t-17.5 88v281h-81v111h81v146h177v-146h106v-111h-106v-239q0 -32 13.5 -41t51.5 -9h39z" />
    <glyph glyph-name="u" unicode="u" 
d="M385 72q-61 -85 -170 -85q-85 0 -135.5 49.5t-50.5 147.5v347h178v-306q0 -52 20.5 -74.5t60.5 -22.5t67 29.5t27 87.5v286h178v-531h-171v72h-4z" />
    <glyph glyph-name="v" unicode="v" horiz-adv-x="579" 
d="M183 0l-189 531h192l104 -340h4l103 340h188l-189 -531h-213z" />
    <glyph glyph-name="w" unicode="w" horiz-adv-x="901" 
d="M735 0h-197l-87 334h-4l-86 -334h-195l-172 531h195l85 -337h4l79 337h194l79 -337h4l85 337h188z" />
    <glyph glyph-name="x" unicode="x" horiz-adv-x="569" 
d="M286 154l-94 -154h-198l180 267l-165 264h195l81 -142l83 142h192l-166 -260l181 -271h-200z" />
    <glyph glyph-name="y" unicode="y" horiz-adv-x="579" 
d="M398 0q-30 -85 -65 -127.5t-75.5 -56t-99.5 -13.5q-63 0 -105 5v141q38 -4 75 -4q32 0 48 9.5t25 33.5l5 14l-212 529h194l109 -325h4l93 325h191z" />
    <glyph glyph-name="z" unicode="z" horiz-adv-x="505" 
d="M14 131l248 266h-235v134h464v-131l-248 -267h248v-133h-477v131z" />
    <glyph glyph-name="braceleft" unicode="{" horiz-adv-x="403" 
d="M263.5 346.5q-26.5 -31.5 -84.5 -40.5v-4q58 -10 84.5 -41.5t26.5 -89.5v-127q0 -29 8.5 -43.5t40.5 -14.5h44v-133h-115q-73 0 -107.5 33t-34.5 92v161q0 56 -20.5 76t-64.5 20v137q44 0 64.5 19.5t20.5 75.5v162q0 59 34.5 92t107.5 33h115v-133h-44q-32 0 -40.5 -14.5
t-8.5 -44.5v-127q0 -57 -26.5 -88.5z" />
    <glyph glyph-name="bar" unicode="|" horiz-adv-x="346" 
d="M83 -226v1024h181v-1024h-181z" />
    <glyph glyph-name="braceright" unicode="}" horiz-adv-x="403" 
d="M104.5 606.5q-8.5 14.5 -40.5 14.5h-44v133h115q73 0 107.5 -33t34.5 -92v-162q0 -56 20.5 -75.5t64.5 -19.5v-138q-44 0 -64.5 -19.5t-20.5 -75.5v-161q0 -59 -34 -92t-108 -33h-115v133h44q32 0 40.5 14.5t8.5 43.5v127q0 58 26.5 89.5t84.5 41.5v4q-58 9 -84.5 40.5
t-26.5 88.5v127q0 30 -8.5 44.5z" />
    <glyph glyph-name="asciitilde" unicode="~" horiz-adv-x="483" 
d="M406 355.5q28 18.5 50 46.5v-129q-51 -51 -105 -51q-19 0 -37.5 6t-42.5 17l-70 33q-22 11 -37.5 16t-32.5 5q-27 0 -55 -18.5t-50 -46.5v129q51 51 105 51q20 0 39 -6t41 -17l70 -33q22 -11 37.5 -16t32.5 -5q27 0 55 18.5z" />
    <glyph glyph-name="uni00A0" unicode="&#xa0;" horiz-adv-x="168" 
 />
    <glyph glyph-name="exclamdown" unicode="&#xa1;" horiz-adv-x="277" 
d="M234 356h-191v177h191v-177zM234 -181h-190v156l29 312h131l30 -312v-156z" />
    <glyph glyph-name="cent" unicode="&#xa2;" horiz-adv-x="581" 
d="M494 50q-60 -56 -171 -62v-89h-51v89q-121 8 -188 80.5t-67 196.5t67 197.5t188 80.5v73h51v-73q108 -6 167 -59t78 -125l-177 -28q-18 69 -68 82v-296q51 13 70 90l181 -17q-20 -84 -80 -140zM272 117v296q-74 -18 -74 -148t74 -148z" />
    <glyph glyph-name="sterling" unicode="&#xa3;" horiz-adv-x="661" 
d="M597 3q-36 -17 -75 -17q-55 0 -103.5 20t-96.5 54q-24 -36 -65 -55t-91 -19q-70 0 -112 35.5t-42 97.5q0 61 39 94t96 33q26 0 63 -13q-4 28 -24 58h-135v87h79q-46 64 -46 126q0 104 75 156.5t193 52.5q115 0 194 -59.5t91 -188.5h-173q-7 56 -35 83t-68 27
q-38 0 -61.5 -23t-23.5 -64q0 -26 12 -49t38 -61h143v-87h-94q16 -30 16 -63q0 -35 -10 -55q34 -18 60.5 -27t51.5 -9q65 0 108 62l48 -144q-16 -35 -52 -52zM193.5 91.5q13.5 14.5 16.5 44.5q-28 20 -46 20q-17 0 -27.5 -11t-10.5 -29t10.5 -28.5t26.5 -10.5
q17 0 30.5 14.5z" />
    <glyph glyph-name="currency" unicode="&#xa4;" horiz-adv-x="582" 
d="M496 225l68 -69l-67 -61l-67 66q-62 -43 -139 -43q-76 0 -140 43l-66 -66l-68 61l69 69q-45 62 -45 143t45 143l-69 69l68 61l66 -66q64 43 140 43q77 0 139 -43l67 66l67 -61l-68 -69q45 -64 45 -143t-45 -143zM379 272.5q36 39.5 36 95.5t-36 95.5t-88 39.5
q-34 0 -63 -18t-45.5 -49t-16.5 -68t16.5 -68t45.5 -49t63 -18q52 0 88 39.5z" />
    <glyph glyph-name="yen" unicode="&#xa5;" horiz-adv-x="704" 
d="M629 405v-87h-155l-34 -55h189v-86h-189v-177h-176v177h-195v86h194l-33 55h-161v87h108l-179 295h193l163 -287l164 287h188l-179 -295h102z" />
    <glyph glyph-name="brokenbar" unicode="&#xa6;" horiz-adv-x="346" 
d="M83 361v437h181v-437h-181zM83 -226v436h181v-436h-181z" />
    <glyph glyph-name="section" unicode="&#xa7;" horiz-adv-x="685" 
d="M623.5 165.5q-29.5 -36.5 -78.5 -56.5q50 -50 50 -120q0 -100 -70 -145.5t-183 -45.5t-186 50t-76 145l183 18q1 -43 23 -64.5t56 -21.5q32 0 50 15.5t18 44.5q0 25 -15.5 40t-40.5 26l-161 67q-62 26 -97 50.5t-49.5 54.5t-14.5 73q0 100 112 139q-46 46 -46 113
q0 93 65.5 137.5t173.5 44.5q106 0 171.5 -47t69.5 -132l-174 -11q-7 65 -67 65q-28 0 -44.5 -14.5t-16.5 -37.5q0 -33 43 -50l157 -66q69 -29 106.5 -54t54 -55.5t16.5 -74.5q0 -51 -29.5 -87.5zM453 205q15 15 15 34q0 22 -13 37t-42 27l-135 56q-35 0 -52 -15t-17 -34
q0 -36 43 -54l155 -67q31 1 46 16z" />
    <glyph glyph-name="dieresis" unicode="&#xa8;" horiz-adv-x="426" 
d="M181 722v-127h-152v127h152zM401 722v-127h-152v127h152z" />
    <glyph glyph-name="copyright" unicode="&#xa9;" horiz-adv-x="808" 
d="M217.5 34q-85.5 50 -135.5 136t-50 187t50 186.5t135.5 135.5t186.5 50t187 -50t136 -135.5t50 -186.5t-50 -187t-136 -136t-187 -50t-186.5 50zM552.5 100q68.5 40 108.5 108t40 149q0 80 -40 148t-108.5 108t-148.5 40q-81 0 -149 -40t-107.5 -108t-39.5 -148
q0 -81 39.5 -149t107.5 -108t149 -40q80 0 148.5 40zM522 209q-47 -39 -117 -39q-81 0 -131 49.5t-50 137.5t50 137.5t131 49.5q67 0 113 -35.5t58 -86.5l-105 -12q-7 24 -24 39t-42 15q-32 0 -53.5 -25.5t-21.5 -81.5t21.5 -81.5t53.5 -25.5q27 0 45 17.5t24 48.5l106 -8
q-11 -60 -58 -99z" />
    <glyph glyph-name="ordfeminine" unicode="&#xaa;" horiz-adv-x="403" 
d="M239 429q-11 -27 -39.5 -42.5t-68.5 -15.5q-45 0 -78.5 26.5t-33.5 71.5q0 51 32.5 75.5t100.5 34.5q52 7 69.5 14.5t17.5 21.5t-11.5 21.5t-30.5 7.5q-40 0 -52 -40l-113 9q11 51 55.5 79.5t111.5 28.5q78 0 119 -30t41 -86v-165q0 -27 1.5 -40t7.5 -21h-120
q-9 11 -9 50zM208 525l-21 -4q-45 -11 -45 -42q0 -16 10 -25.5t27 -9.5q21 0 40.5 16t19.5 47v26q-6 -3 -31 -8zM13 0v118h368v-118h-368z" />
    <glyph glyph-name="guillemotleft" unicode="&#xab;" horiz-adv-x="480" 
d="M216 352l-87 -78v-4l87 -78v-171l-179 149v204l179 149v-171zM443 352l-87 -78v-4l87 -78v-171l-179 149v204l179 149v-171z" />
    <glyph glyph-name="logicalnot" unicode="&#xac;" horiz-adv-x="483" 
d="M333 137v171h-307v114h431v-285h-124z" />
    <glyph glyph-name="registered" unicode="&#xae;" horiz-adv-x="808" 
d="M591 679q86 -50 136 -135.5t50 -186.5t-50 -187t-136 -136t-187 -50t-186.5 50t-135.5 136t-50 187t50 186.5t135.5 135.5t186.5 50t187 -50zM552.5 100q68.5 40 108.5 108t40 149q0 80 -40 148t-108.5 108t-148.5 40t-148 -40t-108 -108t-40 -148q0 -81 40 -149
t108 -108t148 -40t148.5 40zM552.5 348.5q-17.5 -27.5 -50.5 -41.5l79 -129h-119l-64 117h-50v-117h-103v358h187q65 0 101.5 -31.5t36.5 -88.5q0 -40 -17.5 -67.5zM413 373q24 0 37 11.5t13 31.5t-13 31t-37 11h-65v-85h65z" />
    <glyph glyph-name="macron" unicode="&#xaf;" horiz-adv-x="377" 
d="M29 730h323v-104h-323v104z" />
    <glyph glyph-name="degree" unicode="&#xb0;" horiz-adv-x="369" 
d="M108.5 437q-35.5 19 -56 53t-20.5 76t20.5 76t56 53t76.5 19t76 -19t56 -53t21 -76t-21 -76t-56 -53t-76 -19t-76.5 19zM234.5 514.5q19.5 21.5 19.5 51.5t-19.5 51.5t-49.5 21.5t-49.5 -21t-19.5 -52t19.5 -52t49.5 -21t49.5 21.5z" />
    <glyph glyph-name="plusminus" unicode="&#xb1;" horiz-adv-x="483" 
d="M301 288v-149h-119v149h-156v114h156v148h119v-148h156v-114h-156zM457 0h-431v114h431v-114z" />
    <glyph glyph-name="twosuperior" unicode="&#xb2;" horiz-adv-x="395" 
d="M7 306q0 51 17 86t44.5 57.5t73.5 49.5l44 26q39 23 54 35.5t15 29.5q0 18 -13.5 28.5t-39.5 10.5q-28 0 -45 -16t-20 -46l-126 1q4 75 58 114.5t136 39.5q83 0 131 -34t48 -99q0 -49 -30.5 -79.5t-90.5 -59.5l-40 -20q-17 -9 -33.5 -19.5t-17.5 -16.5h210v-100h-375v12z
" />
    <glyph glyph-name="threesuperior" unicode="&#xb3;" horiz-adv-x="400" 
d="M240.5 562q16.5 12 16.5 30t-15.5 29t-39.5 11t-40.5 -13t-19.5 -36l-124 5q3 62 52.5 98t131.5 36t131 -32t49 -90q0 -60 -75 -83v-4q38 -7 60 -30t22 -62q0 -70 -51 -102.5t-137 -32.5q-87 0 -139.5 34t-56.5 106l129 6q4 -55 67 -55q26 0 43 12t17 34q0 45 -65 45h-44
v82h44q28 0 44.5 12z" />
    <glyph glyph-name="acute" unicode="&#xb4;" horiz-adv-x="318" 
d="M29 589l87 167h177l-140 -167h-124z" />
    <glyph glyph-name="paragraph" unicode="&#xb6;" horiz-adv-x="662" 
d="M508 -184v795h-92v-795h-122v481q-137 0 -207 54.5t-70 153.5t70 153.5t207 54.5h336v-897h-122z" />
    <glyph glyph-name="periodcentered" unicode="&#xb7;" horiz-adv-x="316" 
d="M77.5 235q-33.5 33 -33.5 80t33.5 81t80.5 34t80.5 -34t33.5 -81t-33.5 -80t-80.5 -33t-80.5 33z" />
    <glyph glyph-name="cedilla" unicode="&#xb8;" horiz-adv-x="341" 
d="M147 -163q19 0 31.5 9t12.5 25q0 29 -44 29q-14 0 -42 -8v66l76 81l97 5l-42 -44l-30 -33v-5q110 -9 110 -92q0 -52 -41 -78.5t-122 -26.5q-35 0 -67.5 7t-56.5 20l22 69q48 -24 96 -24z" />
    <glyph glyph-name="onesuperior" unicode="&#xb9;" horiz-adv-x="288" 
d="M242 294h-127v256h-98v81h15q44 0 70 24.5t34 58.5h106v-420z" />
    <glyph glyph-name="ordmasculine" unicode="&#xba;" horiz-adv-x="403" 
d="M332.5 675q48.5 -46 48.5 -129t-48.5 -129t-135.5 -46q-88 0 -136 46t-48 129t48 129t136 46q87 0 135.5 -46zM241.5 476q15.5 21 15.5 70q0 48 -15.5 69t-44.5 21t-44.5 -21t-15.5 -69q0 -49 15.5 -70t44.5 -21t44.5 21zM13 0v118h368v-118h-368z" />
    <glyph glyph-name="guillemotright" unicode="&#xbb;" horiz-adv-x="480" 
d="M37 21v171l87 78v4l-87 78v171l179 -149v-204zM264 21v171l87 78v4l-87 78v171l179 -149v-204z" />
    <glyph glyph-name="questiondown" unicode="&#xbf;" horiz-adv-x="595" 
d="M206 354v179h192v-179h-192zM488 -140.5q-72 -56.5 -192 -56.5q-77 0 -137 24.5t-94.5 72.5t-34.5 116q0 65 28.5 100t81.5 65q47 27 64 47.5t17 53.5v5h161v-29q0 -62 -24 -97.5t-87 -74.5q-28 -17 -41.5 -35t-13.5 -45q0 -30 21 -48t61 -18t66 27t32 78l176 -17
q-12 -112 -84 -168.5z" />
    <glyph glyph-name="Agrave" unicode="&#xc0;" horiz-adv-x="760" 
d="M245 150l-47 -150h-200l254 714h256l254 -714h-203l-48 150h-266zM379 558h-4l-87 -274h179zM441 769h-123l-141 167h177z" />
    <glyph glyph-name="Aacute" unicode="&#xc1;" horiz-adv-x="760" 
d="M245 150l-47 -150h-200l254 714h256l254 -714h-203l-48 150h-266zM379 558h-4l-87 -274h179zM318 769l87 167h177l-140 -167h-124z" />
    <glyph glyph-name="Acircumflex" unicode="&#xc2;" horiz-adv-x="760" 
d="M245 150l-47 -150h-200l254 714h256l254 -714h-203l-48 150h-266zM379 558h-4l-87 -274h179zM378 851l-64 -89h-155l140 166h162l140 -166h-155l-64 89h-4z" />
    <glyph glyph-name="Atilde" unicode="&#xc3;" horiz-adv-x="760" 
d="M245 150l-47 -150h-200l254 714h256l254 -714h-203l-48 150h-266zM379 558h-4l-87 -274h179zM454 875q-10 0 -19.5 4t-22.5 13l-34 21q-32 17 -59 17q-54 0 -89 -34.5t-43 -104.5l81 -7q9 39 38 39q17 0 42 -16l35 -21q26 -17 58 -17q55 0 90 34t43 104l-81 7
q-9 -39 -39 -39z" />
    <glyph glyph-name="Adieresis" unicode="&#xc4;" horiz-adv-x="760" 
d="M245 150l-47 -150h-200l254 714h256l254 -714h-203l-48 150h-266zM379 558h-4l-87 -274h179zM346 902v-126h-152v126h152zM566 902v-126h-152v126h152z" />
    <glyph glyph-name="Aring" unicode="&#xc5;" horiz-adv-x="760" 
d="M245 150l-47 -150h-200l254 714h256l254 -714h-203l-48 150h-266zM379 558h-4l-87 -274h179zM292.5 784q-35.5 34 -35.5 85t35.5 85t87.5 34q51 0 87 -34t36 -85t-36 -85t-87 -34q-52 0 -87.5 34zM415.5 831.5q14.5 14.5 14.5 37.5q0 24 -14.5 38.5t-35.5 14.5
t-35.5 -14.5t-14.5 -38.5q0 -23 14.5 -37.5t35.5 -14.5t35.5 14.5z" />
    <glyph glyph-name="AE" unicode="&#xc6;" horiz-adv-x="1090" 
d="M727 437h323v-147h-323v-136h342v-154h-525v172h-253l-88 -172h-205l380 713h691v-154h-342v-122zM544 559h-55l-132 -257h187v257z" />
    <glyph glyph-name="Ccedilla" unicode="&#xc7;" horiz-adv-x="735" 
d="M409 -38q110 -9 110 -92q0 -52 -41 -78.5t-123 -26.5q-35 0 -67.5 7t-56.5 20l23 69q19 -10 44 -17t51 -7q19 0 32 9t13 25q0 29 -45 29q-14 0 -42 -8v66l26 28q-93 9 -163.5 55.5t-110 127t-39.5 188.5q0 117 45.5 201t126.5 128t186 44q88 0 158.5 -32.5t115.5 -86.5
t61 -118l-190 -24q-15 49 -52.5 80t-92.5 31q-70 0 -117 -54t-47 -169t47 -169t117 -54q60 0 99.5 37.5t53.5 102.5l192 -17q-13 -70 -52 -128t-102 -95.5t-143 -46.5l-17 -20v-5z" />
    <glyph glyph-name="Egrave" unicode="&#xc8;" horiz-adv-x="598" 
d="M558 435v-140h-336v-145h355v-150h-545v714h545v-145h-355v-134h336zM365 769h-123l-141 167h177z" />
    <glyph glyph-name="Eacute" unicode="&#xc9;" horiz-adv-x="598" 
d="M558 435v-140h-336v-145h355v-150h-545v714h545v-145h-355v-134h336zM242 769l87 167h177l-140 -167h-124z" />
    <glyph glyph-name="Ecircumflex" unicode="&#xca;" horiz-adv-x="598" 
d="M558 435v-140h-336v-145h355v-150h-545v714h545v-145h-355v-134h336zM303 851l-64 -89h-155l140 166h162l140 -166h-155l-64 89h-4z" />
    <glyph glyph-name="Edieresis" unicode="&#xcb;" horiz-adv-x="598" 
d="M558 435v-140h-336v-145h355v-150h-545v714h545v-145h-355v-134h336zM270 902v-126h-152v126h152zM490 902v-126h-152v126h152z" />
    <glyph glyph-name="Igrave" unicode="&#xcc;" horiz-adv-x="254" 
d="M32 714h190v-714h-190v714zM188 769h-123l-141 167h177z" />
    <glyph glyph-name="Iacute" unicode="&#xcd;" horiz-adv-x="254" 
d="M32 714h190v-714h-190v714zM65 769l87 167h177l-140 -167h-124z" />
    <glyph glyph-name="Icircumflex" unicode="&#xce;" horiz-adv-x="254" 
d="M32 714h190v-714h-190v714zM125 851l-64 -89h-155l140 166h162l140 -166h-155l-64 89h-4z" />
    <glyph glyph-name="Idieresis" unicode="&#xcf;" horiz-adv-x="254" 
d="M32 714h190v-714h-190v714zM93 902v-126h-152v126h152zM313 902v-126h-152v126h152z" />
    <glyph glyph-name="Eth" unicode="&#xd0;" horiz-adv-x="735" 
d="M613.5 625.5q100.5 -88.5 100.5 -268.5t-100.5 -268.5t-273.5 -88.5h-295v298h-47v119h47v297h295q173 0 273.5 -88.5zM468 192.5q53 47.5 53 164.5t-53 164.5t-158 47.5h-75v-152h142v-119h-142v-153h75q105 0 158 47.5z" />
    <glyph glyph-name="Ntilde" unicode="&#xd1;" horiz-adv-x="716" 
d="M471 0l-262 465h-4v-465h-173v714h217l258 -455h4v455h173v-714h-213zM432 874q-10 0 -19.5 4t-22.5 13l-34 21q-32 17 -59 17q-54 0 -89 -34.5t-43 -104.5l81 -7q9 39 38 39q17 0 42 -16l35 -21q26 -17 58 -17q55 0 90 34t43 104l-81 7q-9 -39 -39 -39z" />
    <glyph glyph-name="Ograve" unicode="&#xd2;" horiz-adv-x="768" 
d="M572.5 686q82.5 -44 129 -128t46.5 -201t-46.5 -201t-129 -128t-188.5 -44t-188.5 44t-129 128t-46.5 201t46.5 201t129 128t188.5 44t188.5 -44zM506.5 188q47.5 54 47.5 169t-47.5 169t-122.5 54t-122.5 -54t-47.5 -169t47.5 -169t122.5 -54t122.5 54zM445 769h-123
l-141 167h177z" />
    <glyph glyph-name="Oacute" unicode="&#xd3;" horiz-adv-x="768" 
d="M572.5 686q82.5 -44 129 -128t46.5 -201t-46.5 -201t-129 -128t-188.5 -44t-188.5 44t-129 128t-46.5 201t46.5 201t129 128t188.5 44t188.5 -44zM506.5 188q47.5 54 47.5 169t-47.5 169t-122.5 54t-122.5 -54t-47.5 -169t47.5 -169t122.5 -54t122.5 54zM322 769l87 167
h177l-140 -167h-124z" />
    <glyph glyph-name="Ocircumflex" unicode="&#xd4;" horiz-adv-x="768" 
d="M572.5 686q82.5 -44 129 -128t46.5 -201t-46.5 -201t-129 -128t-188.5 -44t-188.5 44t-129 128t-46.5 201t46.5 201t129 128t188.5 44t188.5 -44zM506.5 188q47.5 54 47.5 169t-47.5 169t-122.5 54t-122.5 -54t-47.5 -169t47.5 -169t122.5 -54t122.5 54zM382 851l-64 -89
h-155l140 166h162l140 -166h-155l-64 89h-4z" />
    <glyph glyph-name="Otilde" unicode="&#xd5;" horiz-adv-x="768" 
d="M572.5 686q82.5 -44 129 -128t46.5 -201t-46.5 -201t-129 -128t-188.5 -44t-188.5 44t-129 128t-46.5 201t46.5 201t129 128t188.5 44t188.5 -44zM506.5 188q47.5 54 47.5 169t-47.5 169t-122.5 54t-122.5 -54t-47.5 -169t47.5 -169t122.5 -54t122.5 54zM458 875
q-10 0 -19.5 4t-22.5 13l-34 21q-32 17 -59 17q-54 0 -89 -34.5t-43 -104.5l81 -7q9 39 38 39q17 0 42 -16l35 -21q26 -17 58 -17q55 0 90 34t43 104l-81 7q-9 -39 -39 -39z" />
    <glyph glyph-name="Odieresis" unicode="&#xd6;" horiz-adv-x="768" 
d="M572.5 686q82.5 -44 129 -128t46.5 -201t-46.5 -201t-129 -128t-188.5 -44t-188.5 44t-129 128t-46.5 201t46.5 201t129 128t188.5 44t188.5 -44zM506.5 188q47.5 54 47.5 169t-47.5 169t-122.5 54t-122.5 -54t-47.5 -169t47.5 -169t122.5 -54t122.5 54zM350 902v-126
h-152v126h152zM570 902v-126h-152v126h152z" />
    <glyph glyph-name="multiply" unicode="&#xd7;" horiz-adv-x="618" 
d="M395 325l143 -138l-88 -80l-142 136l-141 -136l-87 80l142 138l-142 138l88 80l140 -135l141 135l89 -80z" />
    <glyph glyph-name="Oslash" unicode="&#xd8;" horiz-adv-x="768" 
d="M726.5 499q21.5 -64 21.5 -142q0 -117 -46.5 -201t-129 -128t-188.5 -44q-124 0 -213 59l-72 -83l-64 59l70 81q-85 101 -85 257q0 117 46.5 201t129 128t188.5 44q124 0 215 -60l71 81l64 -60l-69 -80q40 -48 61.5 -112zM230 245l259 299q-42 36 -105 36
q-75 0 -122.5 -54t-47.5 -169q0 -64 16 -112zM506.5 188q47.5 54 47.5 169q0 66 -15 109l-259 -297q44 -35 104 -35q75 0 122.5 54z" />
    <glyph glyph-name="Ugrave" unicode="&#xd9;" horiz-adv-x="706" 
d="M633.5 108.5q-41.5 -62.5 -114 -93.5t-166.5 -31t-166 31t-113.5 93.5t-41.5 154.5v451h190v-433q0 -146 131 -146q132 0 132 146v433h190v-451q0 -92 -41.5 -154.5zM414 768h-123l-141 167h177z" />
    <glyph glyph-name="Uacute" unicode="&#xda;" horiz-adv-x="706" 
d="M633.5 108.5q-41.5 -62.5 -114 -93.5t-166.5 -31t-166 31t-113.5 93.5t-41.5 154.5v451h190v-433q0 -146 131 -146q132 0 132 146v433h190v-451q0 -92 -41.5 -154.5zM291 768l87 167h177l-140 -167h-124z" />
    <glyph glyph-name="Ucircumflex" unicode="&#xdb;" horiz-adv-x="706" 
d="M633.5 108.5q-41.5 -62.5 -114 -93.5t-166.5 -31t-166 31t-113.5 93.5t-41.5 154.5v451h190v-433q0 -146 131 -146q132 0 132 146v433h190v-451q0 -92 -41.5 -154.5zM351 850l-64 -89h-155l140 166h162l140 -166h-155l-64 89h-4z" />
    <glyph glyph-name="Udieresis" unicode="&#xdc;" horiz-adv-x="706" 
d="M633.5 108.5q-41.5 -62.5 -114 -93.5t-166.5 -31t-166 31t-113.5 93.5t-41.5 154.5v451h190v-433q0 -146 131 -146q132 0 132 146v433h190v-451q0 -92 -41.5 -154.5zM319 901v-126h-152v126h152zM539 901v-126h-152v126h152z" />
    <glyph glyph-name="Yacute" unicode="&#xdd;" horiz-adv-x="697" 
d="M444 266v-266h-190v266l-256 448h208l144 -282l145 282h204zM289 769l87 167h177l-140 -167h-124z" />
    <glyph glyph-name="Thorn" unicode="&#xde;" horiz-adv-x="672" 
d="M582.5 535q70.5 -63 70.5 -177q0 -113 -71 -176.5t-198 -63.5h-162v-118h-190v714h190v-116h162q128 0 198.5 -63zM431.5 289q28.5 25 28.5 69q0 45 -28.5 70t-81.5 25h-128v-189h128q53 0 81.5 25z" />
    <glyph glyph-name="germandbls" unicode="&#xdf;" horiz-adv-x="660" 
d="M592.5 249q21.5 -16 35.5 -42.5t14 -67.5q0 -78 -57 -115t-160 -37q-83 0 -131 32t-62 96l139 14q15 -42 54 -42q23 0 34.5 10.5t11.5 28.5q0 16 -13.5 27t-44.5 28l-48 25q-53 26 -74 52.5t-21 62.5q0 41 18.5 63t56.5 45q34 21 51.5 40.5t17.5 56.5q0 35 -26 58t-68 23
q-48 0 -80 -29.5t-32 -92.5l-1 -485h-178v498q0 87 44.5 140.5t111.5 76t139 22.5q84 0 145 -29t92.5 -76.5t31.5 -103.5q0 -42 -18.5 -70.5t-43 -44t-60.5 -31.5q-26 -12 -36 -18t-10 -15q0 -10 31 -25l81 -41q34 -18 55.5 -34z" />
    <glyph glyph-name="agrave" unicode="&#xe0;" horiz-adv-x="568" 
d="M365 77q-19 -42 -65.5 -66t-106.5 -24q-46 0 -87 19t-66 54t-25 83q0 81 53 121t161 54q55 8 84 15.5t40.5 17t11.5 25.5q0 25 -19.5 38.5t-54.5 13.5q-32 0 -56 -18t-34 -51l-165 17q17 79 86 123.5t172 44.5q123 0 186 -47.5t63 -134.5v-263q0 -43 2.5 -64.5
t11.5 -34.5h-177q-15 18 -15 77zM329 237.5q-25 -5.5 -55 -10.5q-78 -15 -78 -70q0 -27 17.5 -42.5t46.5 -15.5q24 0 48 11t40.5 34.5t16.5 59.5v46q-11 -7 -36 -12.5zM356 589h-123l-141 167h177z" />
    <glyph glyph-name="aacute" unicode="&#xe1;" horiz-adv-x="568" 
d="M365 77q-19 -42 -65.5 -66t-106.5 -24q-46 0 -87 19t-66 54t-25 83q0 81 53 121t161 54q55 8 84 15.5t40.5 17t11.5 25.5q0 25 -19.5 38.5t-54.5 13.5q-32 0 -56 -18t-34 -51l-165 17q17 79 86 123.5t172 44.5q123 0 186 -47.5t63 -134.5v-263q0 -43 2.5 -64.5
t11.5 -34.5h-177q-15 18 -15 77zM329 237.5q-25 -5.5 -55 -10.5q-78 -15 -78 -70q0 -27 17.5 -42.5t46.5 -15.5q24 0 48 11t40.5 34.5t16.5 59.5v46q-11 -7 -36 -12.5zM232 589l87 167h177l-140 -167h-124z" />
    <glyph glyph-name="acircumflex" unicode="&#xe2;" horiz-adv-x="568" 
d="M365 77q-19 -42 -65.5 -66t-106.5 -24q-46 0 -87 19t-66 54t-25 83q0 81 53 121t161 54q55 8 84 15.5t40.5 17t11.5 25.5q0 25 -19.5 38.5t-54.5 13.5q-32 0 -56 -18t-34 -51l-165 17q17 79 86 123.5t172 44.5q123 0 186 -47.5t63 -134.5v-263q0 -43 2.5 -64.5
t11.5 -34.5h-177q-15 18 -15 77zM329 237.5q-25 -5.5 -55 -10.5q-78 -15 -78 -70q0 -27 17.5 -42.5t46.5 -15.5q24 0 48 11t40.5 34.5t16.5 59.5v46q-11 -7 -36 -12.5zM293 679l-64 -90h-155l140 167h162l140 -167h-155l-64 90h-4z" />
    <glyph glyph-name="atilde" unicode="&#xe3;" horiz-adv-x="568" 
d="M365 77q-19 -42 -65.5 -66t-106.5 -24q-46 0 -87 19t-66 54t-25 83q0 81 53 121t161 54q55 8 84 15.5t40.5 17t11.5 25.5q0 25 -19.5 38.5t-54.5 13.5q-32 0 -56 -18t-34 -51l-165 17q17 79 86 123.5t172 44.5q123 0 186 -47.5t63 -134.5v-263q0 -43 2.5 -64.5
t11.5 -34.5h-177q-15 18 -15 77zM329 237.5q-25 -5.5 -55 -10.5q-78 -15 -78 -70q0 -27 17.5 -42.5t46.5 -15.5q24 0 48 11t40.5 34.5t16.5 59.5v46q-11 -7 -36 -12.5zM368 712q-10 0 -21 5t-21 11l-34 22q-30 16 -59 16q-54 0 -89 -34t-43 -104l81 -7q9 39 38 39
q17 0 42 -16l35 -21q26 -17 58 -17q55 0 90 34t43 104l-81 7q-9 -39 -39 -39z" />
    <glyph glyph-name="adieresis" unicode="&#xe4;" horiz-adv-x="568" 
d="M365 77q-19 -42 -65.5 -66t-106.5 -24q-46 0 -87 19t-66 54t-25 83q0 81 53 121t161 54q55 8 84 15.5t40.5 17t11.5 25.5q0 25 -19.5 38.5t-54.5 13.5q-32 0 -56 -18t-34 -51l-165 17q17 79 86 123.5t172 44.5q123 0 186 -47.5t63 -134.5v-263q0 -43 2.5 -64.5
t11.5 -34.5h-177q-15 18 -15 77zM329 237.5q-25 -5.5 -55 -10.5q-78 -15 -78 -70q0 -27 17.5 -42.5t46.5 -15.5q24 0 48 11t40.5 34.5t16.5 59.5v46q-11 -7 -36 -12.5zM260 722v-127h-152v127h152zM480 722v-127h-152v127h152z" />
    <glyph glyph-name="aring" unicode="&#xe5;" horiz-adv-x="568" 
d="M365 77q-19 -42 -65.5 -66t-106.5 -24q-46 0 -87 19t-66 54t-25 83q0 81 53 121t161 54q55 8 84 15.5t40.5 17t11.5 25.5q0 25 -19.5 38.5t-54.5 13.5q-32 0 -56 -18t-34 -51l-165 17q17 79 86 123.5t172 44.5q123 0 186 -47.5t63 -134.5v-263q0 -43 2.5 -64.5
t11.5 -34.5h-177q-15 18 -15 77zM329 237.5q-25 -5.5 -55 -10.5q-78 -15 -78 -70q0 -27 17.5 -42.5t46.5 -15.5q24 0 48 11t40.5 34.5t16.5 59.5v46q-11 -7 -36 -12.5zM207.5 621q-35.5 34 -35.5 85t35.5 85t87.5 34q51 0 87 -34t36 -85t-36 -85t-87 -34q-52 0 -87.5 34z
M330.5 667.5q14.5 14.5 14.5 38.5t-14.5 38.5t-35.5 14.5t-35.5 -14.5t-14.5 -38.5t14.5 -38.5t35.5 -14.5t35.5 14.5z" />
    <glyph glyph-name="ae" unicode="&#xe6;" horiz-adv-x="946" 
d="M852.5 471q75.5 -73 75.5 -210v-31h-381q1 -59 28 -93.5t72 -34.5q42 0 64 20t28 49l183 -10q-10 -42 -42 -81.5t-90.5 -66t-142.5 -26.5q-67 0 -118 25.5t-84 73.5q-28 -47 -85.5 -73t-135.5 -26q-93 0 -151 41.5t-58 114.5q0 81 53 121t161 54q55 8 84 15.5t40.5 17
t11.5 25.5q0 25 -19.5 38.5t-54.5 13.5q-32 0 -56 -18t-34 -51l-165 17q17 79 86 123.5t172 44.5q126 0 191 -54q63 54 162 54q130 0 205.5 -73zM717 404.5q-26 27.5 -70 27.5t-70 -27.5t-28 -72.5h196q-2 45 -28 72.5zM329 237.5q-25 -5.5 -55 -10.5q-78 -15 -78 -70
q0 -27 17.5 -42.5t46.5 -15.5q24 0 48 11t40.5 34.5t16.5 59.5v46q-11 -7 -36 -12.5z" />
    <glyph glyph-name="ccedilla" unicode="&#xe7;" horiz-adv-x="580" 
d="M330 -38q110 -9 110 -92q0 -52 -41 -78.5t-123 -26.5q-34 0 -67 7t-56 20l22 69q48 -24 95 -24q19 0 32 9t13 25q0 17 -12 23t-33 6q-12 0 -42 -8v66l30 31q-115 11 -178 83.5t-63 192.5q0 131 74.5 205t206.5 74q121 0 185.5 -54.5t84.5 -130.5l-177 -28q-23 85 -93 85
q-47 0 -73.5 -36.5t-26.5 -114.5t26.5 -114.5t73.5 -36.5q74 0 95 92l180 -17q-18 -77 -71.5 -131.5t-150.5 -67.5l-21 -23v-5z" />
    <glyph glyph-name="egrave" unicode="&#xe8;" horiz-adv-x="598" 
d="M532 79.5q-32 -39.5 -90 -66t-142 -26.5q-133 0 -208 74t-75 203q0 131 74.5 205.5t207.5 74.5q131 0 206.5 -73t75.5 -210l-1 -31h-380q0 -59 27.5 -93.5t72.5 -34.5q41 0 63 20t29 49l182 -11q-10 -41 -42 -80.5zM229 404.5q-26 -27.5 -28 -72.5h197q-2 45 -28.5 72.5
t-70.5 27.5t-70 -27.5zM360 589h-123l-141 167h177z" />
    <glyph glyph-name="eacute" unicode="&#xe9;" horiz-adv-x="598" 
d="M532 79.5q-32 -39.5 -90 -66t-142 -26.5q-133 0 -208 74t-75 203q0 131 74.5 205.5t207.5 74.5q131 0 206.5 -73t75.5 -210l-1 -31h-380q0 -59 27.5 -93.5t72.5 -34.5q41 0 63 20t29 49l182 -11q-10 -41 -42 -80.5zM229 404.5q-26 -27.5 -28 -72.5h197q-2 45 -28.5 72.5
t-70.5 27.5t-70 -27.5zM237 589l87 167h177l-140 -167h-124z" />
    <glyph glyph-name="ecircumflex" unicode="&#xea;" horiz-adv-x="598" 
d="M532 79.5q-32 -39.5 -90 -66t-142 -26.5q-133 0 -208 74t-75 203q0 131 74.5 205.5t207.5 74.5q131 0 206.5 -73t75.5 -210l-1 -31h-380q0 -59 27.5 -93.5t72.5 -34.5q41 0 63 20t29 49l182 -11q-10 -41 -42 -80.5zM229 404.5q-26 -27.5 -28 -72.5h197q-2 45 -28.5 72.5
t-70.5 27.5t-70 -27.5zM297 679l-64 -90h-155l140 167h162l140 -167h-155l-64 90h-4z" />
    <glyph glyph-name="edieresis" unicode="&#xeb;" horiz-adv-x="598" 
d="M532 79.5q-32 -39.5 -90 -66t-142 -26.5q-133 0 -208 74t-75 203q0 131 74.5 205.5t207.5 74.5q131 0 206.5 -73t75.5 -210l-1 -31h-380q0 -59 27.5 -93.5t72.5 -34.5q41 0 63 20t29 49l182 -11q-10 -41 -42 -80.5zM229 404.5q-26 -27.5 -28 -72.5h197q-2 45 -28.5 72.5
t-70.5 27.5t-70 -27.5zM265 722v-127h-152v127h152zM485 722v-127h-152v127h152z" />
    <glyph glyph-name="igrave" unicode="&#xec;" horiz-adv-x="234" 
d="M207 531v-531h-177v531h177zM179 589h-123l-141 167h177z" />
    <glyph glyph-name="iacute" unicode="&#xed;" horiz-adv-x="234" 
d="M207 531v-531h-177v531h177zM56 589l87 167h177l-140 -167h-124z" />
    <glyph glyph-name="icircumflex" unicode="&#xee;" horiz-adv-x="234" 
d="M207 531v-531h-177v531h177zM116 679l-64 -90h-155l140 167h162l140 -167h-155l-64 90h-4z" />
    <glyph glyph-name="idieresis" unicode="&#xef;" horiz-adv-x="234" 
d="M207 531v-531h-177v531h177zM84 722v-127h-152v127h152zM304 722v-127h-152v127h152z" />
    <glyph glyph-name="eth" unicode="&#xf0;" horiz-adv-x="622" 
d="M565 506q40 -99 40 -226q0 -144 -76.5 -218t-217.5 -74q-91 0 -157.5 30.5t-101.5 87t-35 132.5q0 78 34.5 135t94 86.5t132.5 29.5q31 0 63.5 -10.5t58.5 -33.5q-26 82 -109 139l-112 -71l-71 71l82 52q-54 20 -115 30l55 112q114 -18 198 -53l129 84l70 -71l-100 -66
q98 -67 138 -166zM392 142.5q30 34.5 30 95.5t-30 96t-81 35t-81.5 -35t-30.5 -96t30.5 -95.5t81.5 -34.5t81 34.5z" />
    <glyph glyph-name="ntilde" unicode="&#xf1;" 
d="M204 459q59 85 170 85q85 0 135.5 -49.5t50.5 -147.5v-347h-178v306q0 51 -20.5 74t-60.5 23q-41 0 -67.5 -29.5t-26.5 -87.5v-286h-178v531h171v-72h4zM368 712q-10 0 -21 5t-21 11l-34 22q-30 16 -59 16q-54 0 -89 -34t-43 -104l81 -7q9 39 38 39q17 0 42 -16l35 -21
q26 -17 58 -17q55 0 90 34t43 104l-81 7q-9 -39 -39 -39z" />
    <glyph glyph-name="ograve" unicode="&#xf2;" horiz-adv-x="605" 
d="M512 470q75 -74 75 -205q0 -130 -75 -204t-209 -74q-135 0 -210.5 74t-75.5 204q0 131 75.5 205t210.5 74q134 0 209 -74zM406 265q0 151 -103 151q-105 0 -105 -151q0 -150 105 -150q103 0 103 150zM364 589h-123l-141 167h177z" />
    <glyph glyph-name="oacute" unicode="&#xf3;" horiz-adv-x="605" 
d="M512 470q75 -74 75 -205q0 -130 -75 -204t-209 -74q-135 0 -210.5 74t-75.5 204q0 131 75.5 205t210.5 74q134 0 209 -74zM406 265q0 151 -103 151q-105 0 -105 -151q0 -150 105 -150q103 0 103 150zM240 589l87 167h177l-140 -167h-124z" />
    <glyph glyph-name="ocircumflex" unicode="&#xf4;" horiz-adv-x="605" 
d="M512 470q75 -74 75 -205q0 -130 -75 -204t-209 -74q-135 0 -210.5 74t-75.5 204q0 131 75.5 205t210.5 74q134 0 209 -74zM406 265q0 151 -103 151q-105 0 -105 -151q0 -150 105 -150q103 0 103 150zM301 679l-64 -90h-155l140 167h162l140 -167h-155l-64 90h-4z" />
    <glyph glyph-name="otilde" unicode="&#xf5;" horiz-adv-x="605" 
d="M512 470q75 -74 75 -205q0 -130 -75 -204t-209 -74q-135 0 -210.5 74t-75.5 204q0 131 75.5 205t210.5 74q134 0 209 -74zM406 265q0 151 -103 151q-105 0 -105 -151q0 -150 105 -150q103 0 103 150zM376 712q-10 0 -21 5t-21 11l-34 22q-30 16 -59 16q-54 0 -89 -34
t-43 -104l81 -7q9 39 38 39q17 0 42 -16l35 -21q26 -17 58 -17q55 0 90 34t43 104l-81 7q-9 -39 -39 -39z" />
    <glyph glyph-name="odieresis" unicode="&#xf6;" horiz-adv-x="605" 
d="M512 470q75 -74 75 -205q0 -130 -75 -204t-209 -74q-135 0 -210.5 74t-75.5 204q0 131 75.5 205t210.5 74q134 0 209 -74zM406 265q0 151 -103 151q-105 0 -105 -151q0 -150 105 -150q103 0 103 150zM268 722v-127h-152v127h152zM488 722v-127h-152v127h152z" />
    <glyph glyph-name="divide" unicode="&#xf7;" horiz-adv-x="543" 
d="M213.5 469.5q-24.5 24.5 -24.5 58.5q0 35 24.5 59t58.5 24q35 0 59 -24t24 -59q0 -34 -24 -58.5t-59 -24.5q-34 0 -58.5 24.5zM517 268h-491v114h491v-114zM213.5 63.5q-24.5 24.5 -24.5 58.5q0 35 24 59t59 24t59 -24t24 -59q0 -34 -24 -58.5t-59 -24.5
q-34 0 -58.5 24.5z" />
    <glyph glyph-name="oslash" unicode="&#xf8;" horiz-adv-x="605" 
d="M587 265q0 -130 -75 -204t-210 -74q-94 0 -160 37l-50 -56l-49 44l46 52q-72 74 -72 201q0 131 75 205t210 74q102 0 173 -45l38 44l49 -45l-37 -42v0q62 -71 62 -191zM198 265q0 -39 8 -69l168 190q-26 30 -72 30q-104 0 -104 -151zM406 265q0 32 -4 53l-162 -183
q24 -21 62 -21q104 0 104 151z" />
    <glyph glyph-name="ugrave" unicode="&#xf9;" 
d="M385 72q-61 -85 -170 -85q-85 0 -135.5 49.5t-50.5 147.5v347h178v-306q0 -52 20.5 -74.5t60.5 -22.5t67 29.5t27 87.5v286h178v-531h-171v72h-4zM355 589h-123l-141 167h177z" />
    <glyph glyph-name="uacute" unicode="&#xfa;" 
d="M385 72q-61 -85 -170 -85q-85 0 -135.5 49.5t-50.5 147.5v347h178v-306q0 -52 20.5 -74.5t60.5 -22.5t67 29.5t27 87.5v286h178v-531h-171v72h-4zM232 589l87 167h177l-140 -167h-124z" />
    <glyph glyph-name="ucircumflex" unicode="&#xfb;" 
d="M385 72q-61 -85 -170 -85q-85 0 -135.5 49.5t-50.5 147.5v347h178v-306q0 -52 20.5 -74.5t60.5 -22.5t67 29.5t27 87.5v286h178v-531h-171v72h-4zM292 679l-64 -90h-155l140 167h162l140 -167h-155l-64 90h-4z" />
    <glyph glyph-name="udieresis" unicode="&#xfc;" 
d="M385 72q-61 -85 -170 -85q-85 0 -135.5 49.5t-50.5 147.5v347h178v-306q0 -52 20.5 -74.5t60.5 -22.5t67 29.5t27 87.5v286h178v-531h-171v72h-4zM260 722v-127h-152v127h152zM480 722v-127h-152v127h152z" />
    <glyph glyph-name="yacute" unicode="&#xfd;" horiz-adv-x="579" 
d="M398 0q-30 -85 -65 -127.5t-75.5 -56t-99.5 -13.5q-63 0 -105 5v141q38 -4 75 -4q32 0 48 9.5t25 33.5l5 14l-212 529h194l109 -325h4l93 325h191zM229 589l87 167h177l-140 -167h-124z" />
    <glyph glyph-name="thorn" unicode="&#xfe;" horiz-adv-x="608" 
d="M482.5 510q50.5 -34 79.5 -97t29 -147q0 -85 -29 -148t-79.5 -97t-112.5 -34q-110 0 -159 77h-4v-248h-178v908h178v-257h4q50 77 159 77q62 0 112.5 -34zM381.5 154q27.5 36 27.5 112q0 75 -27.5 110.5t-77.5 35.5t-78 -36t-28 -110q0 -75 28.5 -111.5t77.5 -36.5
q50 0 77.5 36z" />
    <glyph glyph-name="ydieresis" unicode="&#xff;" horiz-adv-x="579" 
d="M398 0q-30 -85 -65 -127.5t-75.5 -56t-99.5 -13.5q-63 0 -105 5v141q38 -4 75 -4q32 0 48 9.5t25 33.5l5 14l-212 529h194l109 -325h4l93 325h191zM257 722v-127h-152v127h152zM477 722v-127h-152v127h152z" />
    <glyph glyph-name="Amacron" unicode="&#x100;" horiz-adv-x="760" 
d="M245 150l-47 -150h-200l254 714h256l254 -714h-203l-48 150h-266zM379 558h-4l-87 -274h179zM219 896h323v-104h-323v104z" />
    <glyph glyph-name="amacron" unicode="&#x101;" horiz-adv-x="568" 
d="M365 77q-19 -42 -65.5 -66t-106.5 -24q-46 0 -87 19t-66 54t-25 83q0 81 53 121t161 54q55 8 84 15.5t40.5 17t11.5 25.5q0 25 -19.5 38.5t-54.5 13.5q-32 0 -56 -18t-34 -51l-165 17q17 79 86 123.5t172 44.5q123 0 186 -47.5t63 -134.5v-263q0 -43 2.5 -64.5
t11.5 -34.5h-177q-15 18 -15 77zM329 237.5q-25 -5.5 -55 -10.5q-78 -15 -78 -70q0 -27 17.5 -42.5t46.5 -15.5q24 0 48 11t40.5 34.5t16.5 59.5v46q-11 -7 -36 -12.5zM133 730h323v-104h-323v104z" />
    <glyph glyph-name="Abreve" unicode="&#x102;" horiz-adv-x="760" 
d="M245 150l-47 -150h-200l254 714h256l254 -714h-203l-48 150h-266zM379 558h-4l-87 -274h179zM544 838q-27 -38 -70 -58t-94 -20t-93.5 20t-69.5 58t-30 92h113q5 -31 27 -49t53 -18t53.5 18t27.5 49h113q-3 -54 -30 -92z" />
    <glyph glyph-name="abreve" unicode="&#x103;" horiz-adv-x="568" 
d="M365 77q-19 -42 -65.5 -66t-106.5 -24q-46 0 -87 19t-66 54t-25 83q0 81 53 121t161 54q55 8 84 15.5t40.5 17t11.5 25.5q0 25 -19.5 38.5t-54.5 13.5q-32 0 -56 -18t-34 -51l-165 17q17 79 86 123.5t172 44.5q123 0 186 -47.5t63 -134.5v-263q0 -43 2.5 -64.5
t11.5 -34.5h-177q-15 18 -15 77zM329 237.5q-25 -5.5 -55 -10.5q-78 -15 -78 -70q0 -27 17.5 -42.5t46.5 -15.5q24 0 48 11t40.5 34.5t16.5 59.5v46q-11 -7 -36 -12.5zM458 664.5q-27 -38.5 -70.5 -58.5t-93.5 -20t-93 20t-70 58.5t-30 92.5h113q5 -31 27 -49t53 -18
t53.5 18t27.5 49h113q-3 -54 -30 -92.5z" />
    <glyph glyph-name="Aogonek" unicode="&#x104;" horiz-adv-x="760" 
d="M773 -131v-96q-28 -8 -77 -8q-76 0 -116 27t-40 78q0 42 24 76t67 54h-72l-48 150h-266l-47 -150h-200l254 714h256l254 -714q-49 -26 -73 -52.5t-24 -49.5q0 -17 15 -26.5t35 -9.5q36 0 58 7zM379 558h-4l-87 -274h179z" />
    <glyph glyph-name="aogonek" unicode="&#x105;" horiz-adv-x="568" 
d="M568 -130v-97q-28 -8 -77 -8q-76 0 -116 27t-40 78q0 42 24 76t67 54h-46q-13 16 -15 77q-19 -42 -65.5 -66t-106.5 -24q-46 0 -87 19t-66 54t-25 83q0 81 53 121t161 54q55 8 84 15.5t40.5 17t11.5 25.5q0 25 -19.5 38.5t-54.5 13.5q-32 0 -56 -18t-34 -51l-165 17
q17 79 86 123.5t172 44.5q123 0 186 -47.5t63 -134.5v-263q0 -43 2.5 -64.5t11.5 -34.5q-49 -26 -72.5 -52.5t-23.5 -49.5q0 -17 14.5 -26.5t34.5 -9.5q37 0 58 8zM329 237.5q-25 -5.5 -55 -10.5q-78 -15 -78 -70q0 -27 17.5 -42.5t46.5 -15.5q24 0 48 11t40.5 34.5
t16.5 59.5v46q-11 -7 -36 -12.5z" />
    <glyph glyph-name="Cacute" unicode="&#x106;" horiz-adv-x="733" 
d="M661.5 118q-44.5 -62 -117.5 -98t-166 -36q-105 0 -186 44t-126.5 128t-45.5 201t45.5 201t126.5 128t186 44q88 0 158.5 -32.5t115.5 -86.5t61 -118l-190 -24q-15 50 -52.5 80.5t-92.5 30.5q-70 0 -117 -54t-47 -169t47 -169t117 -54q60 0 98.5 37.5t50.5 102.5l192 -17
q-13 -77 -57.5 -139zM316 769l87 167h177l-140 -167h-124z" />
    <glyph glyph-name="cacute" unicode="&#x107;" horiz-adv-x="580" 
d="M392 206l181 -17q-21 -88 -86.5 -145t-188.5 -57q-132 0 -206.5 74t-74.5 204q0 131 74.5 205t206.5 74q120 0 185 -54.5t85 -130.5l-177 -28q-23 85 -93 85q-47 0 -73.5 -36.5t-26.5 -114.5t26.5 -114.5t73.5 -36.5q75 0 94 92zM235 589l87 167h177l-140 -167h-124z" />
    <glyph glyph-name="Ccircumflex" unicode="&#x108;" horiz-adv-x="733" 
d="M661.5 118q-44.5 -62 -117.5 -98t-166 -36q-105 0 -186 44t-126.5 128t-45.5 201t45.5 201t126.5 128t186 44q88 0 158.5 -32.5t115.5 -86.5t61 -118l-190 -24q-15 50 -52.5 80.5t-92.5 30.5q-70 0 -117 -54t-47 -169t47 -169t117 -54q60 0 98.5 37.5t50.5 102.5l192 -17
q-13 -77 -57.5 -139zM377 851l-64 -89h-155l140 166h162l140 -166h-155l-64 89h-4z" />
    <glyph glyph-name="ccircumflex" unicode="&#x109;" horiz-adv-x="580" 
d="M392 206l181 -17q-21 -88 -86.5 -145t-188.5 -57q-132 0 -206.5 74t-74.5 204q0 131 74.5 205t206.5 74q120 0 185 -54.5t85 -130.5l-177 -28q-23 85 -93 85q-47 0 -73.5 -36.5t-26.5 -114.5t26.5 -114.5t73.5 -36.5q75 0 94 92zM296 679l-64 -90h-155l140 167h162
l140 -167h-155l-64 90h-4z" />
    <glyph glyph-name="Cdotaccent" unicode="&#x10a;" horiz-adv-x="733" 
d="M661.5 118q-44.5 -62 -117.5 -98t-166 -36q-105 0 -186 44t-126.5 128t-45.5 201t45.5 201t126.5 128t186 44q88 0 158.5 -32.5t115.5 -86.5t61 -118l-190 -24q-15 50 -52.5 80.5t-92.5 30.5q-70 0 -117 -54t-47 -169t47 -169t117 -54q60 0 98.5 37.5t50.5 102.5l192 -17
q-13 -77 -57.5 -139zM468 904v-128h-178v128h178z" />
    <glyph glyph-name="cdotaccent" unicode="&#x10b;" horiz-adv-x="580" 
d="M392 206l181 -17q-21 -88 -86.5 -145t-188.5 -57q-132 0 -206.5 74t-74.5 204q0 131 74.5 205t206.5 74q120 0 185 -54.5t85 -130.5l-177 -28q-23 85 -93 85q-47 0 -73.5 -36.5t-26.5 -114.5t26.5 -114.5t73.5 -36.5q75 0 94 92zM387 724v-129h-178v129h178z" />
    <glyph glyph-name="Ccaron" unicode="&#x10c;" horiz-adv-x="733" 
d="M661.5 118q-44.5 -62 -117.5 -98t-166 -36q-105 0 -186 44t-126.5 128t-45.5 201t45.5 201t126.5 128t186 44q88 0 158.5 -32.5t115.5 -86.5t61 -118l-190 -24q-15 50 -52.5 80.5t-92.5 30.5q-70 0 -117 -54t-47 -169t47 -169t117 -54q60 0 98.5 37.5t50.5 102.5l192 -17
q-13 -77 -57.5 -139zM460 762h-162l-140 167h155l64 -90h4l64 90h155z" />
    <glyph glyph-name="ccaron" unicode="&#x10d;" horiz-adv-x="580" 
d="M392 206l181 -17q-21 -88 -86.5 -145t-188.5 -57q-132 0 -206.5 74t-74.5 204q0 131 74.5 205t206.5 74q120 0 185 -54.5t85 -130.5l-177 -28q-23 85 -93 85q-47 0 -73.5 -36.5t-26.5 -114.5t26.5 -114.5t73.5 -36.5q75 0 94 92zM379 589h-162l-140 167h155l64 -90h4
l64 90h155z" />
    <glyph glyph-name="Dcaron" unicode="&#x10e;" horiz-adv-x="721" 
d="M600.5 625.5q100.5 -88.5 100.5 -268.5t-100.5 -268.5t-273.5 -88.5h-295v714h295q173 0 273.5 -88.5zM454 192.5q53 47.5 53 164.5t-53 164.5t-158 47.5h-74v-424h74q105 0 158 47.5zM405 761h-162l-140 167h155l64 -90h4l64 90h155z" />
    <glyph glyph-name="dcaron" unicode="&#x10f;" horiz-adv-x="784" 
d="M397 467h4v257h178v-724h-171v71h-4q-46 -84 -161 -84q-65 0 -116 33.5t-80.5 96.5t-29.5 148t29 148t79.5 97t112.5 34q109 0 159 -77zM736 508q-37 -47 -118 -52v76q27 2 42 19t15 44h-57v129h155v-77q0 -92 -37 -139zM381.5 154.5q28.5 36.5 28.5 110.5q0 75 -28 111
t-78 36t-78 -36t-28 -111t28 -111t78 -36q49 0 77.5 36.5z" />
    <glyph glyph-name="Dcroat" unicode="&#x110;" horiz-adv-x="735" 
d="M613.5 625.5q100.5 -88.5 100.5 -268.5t-100.5 -268.5t-273.5 -88.5h-295v298h-47v119h47v297h295q173 0 273.5 -88.5zM468 192.5q53 47.5 53 164.5t-53 164.5t-158 47.5h-75v-152h142v-119h-142v-153h75q105 0 158 47.5z" />
    <glyph glyph-name="dcroat" unicode="&#x111;" horiz-adv-x="620" 
d="M622 580h-43v-580h-171v71h-4q-46 -84 -161 -84q-65 0 -116 33.5t-80.5 96.5t-29.5 148t29 148t79.5 97t112.5 34q109 0 159 -77h4v113h-88v92h88v52h178v-52h43v-92zM381.5 154.5q28.5 36.5 28.5 110.5q0 75 -28 111t-78 36t-78 -36t-28 -111t28 -111t78 -36
q49 0 77.5 36.5z" />
    <glyph glyph-name="Emacron" unicode="&#x112;" horiz-adv-x="598" 
d="M558 435v-140h-336v-145h355v-150h-545v714h545v-145h-355v-134h336zM143 896h323v-104h-323v104z" />
    <glyph glyph-name="emacron" unicode="&#x113;" horiz-adv-x="598" 
d="M532 79.5q-32 -39.5 -90 -66t-142 -26.5q-133 0 -208 74t-75 203q0 131 74.5 205.5t207.5 74.5q131 0 206.5 -73t75.5 -210l-1 -31h-380q0 -59 27.5 -93.5t72.5 -34.5q41 0 63 20t29 49l182 -11q-10 -41 -42 -80.5zM229 404.5q-26 -27.5 -28 -72.5h197q-2 45 -28.5 72.5
t-70.5 27.5t-70 -27.5zM138 730h323v-104h-323v104z" />
    <glyph glyph-name="Ebreve" unicode="&#x114;" horiz-adv-x="598" 
d="M558 435v-140h-336v-145h355v-150h-545v714h545v-145h-355v-134h336zM468 838q-27 -38 -70 -58t-94 -20t-93.5 20t-69.5 58t-30 92h113q5 -31 27 -49t53 -18t53.5 18t27.5 49h113q-3 -54 -30 -92z" />
    <glyph glyph-name="ebreve" unicode="&#x115;" horiz-adv-x="598" 
d="M532 79.5q-32 -39.5 -90 -66t-142 -26.5q-133 0 -208 74t-75 203q0 131 74.5 205.5t207.5 74.5q131 0 206.5 -73t75.5 -210l-1 -31h-380q0 -59 27.5 -93.5t72.5 -34.5q41 0 63 20t29 49l182 -11q-10 -41 -42 -80.5zM229 404.5q-26 -27.5 -28 -72.5h197q-2 45 -28.5 72.5
t-70.5 27.5t-70 -27.5zM463 664.5q-27 -38.5 -70.5 -58.5t-93.5 -20t-93 20t-70 58.5t-30 92.5h113q5 -31 27 -49t53 -18t53.5 18t27.5 49h113q-3 -54 -30 -92.5z" />
    <glyph glyph-name="Edotaccent" unicode="&#x116;" horiz-adv-x="598" 
d="M558 435v-140h-336v-145h355v-150h-545v714h545v-145h-355v-134h336zM394 904v-128h-178v128h178z" />
    <glyph glyph-name="edotaccent" unicode="&#x117;" horiz-adv-x="598" 
d="M532 79.5q-32 -39.5 -90 -66t-142 -26.5q-133 0 -208 74t-75 203q0 131 74.5 205.5t207.5 74.5q131 0 206.5 -73t75.5 -210l-1 -31h-380q0 -59 27.5 -93.5t72.5 -34.5q41 0 63 20t29 49l182 -11q-10 -41 -42 -80.5zM229 404.5q-26 -27.5 -28 -72.5h197q-2 45 -28.5 72.5
t-70.5 27.5t-70 -27.5zM388 724v-129h-178v129h178z" />
    <glyph glyph-name="Eogonek" unicode="&#x118;" horiz-adv-x="595" 
d="M588 -130v-97q-29 -8 -78 -8q-76 0 -115.5 27t-39.5 78q0 42 24 76t66 54h-413v714h545v-145h-355v-134h336v-140h-336v-145h355v-150q-49 -26 -73 -52.5t-24 -49.5q0 -17 15 -26.5t35 -9.5q35 0 58 8z" />
    <glyph glyph-name="eogonek" unicode="&#x119;" horiz-adv-x="598" 
d="M505.5 471q75.5 -73 75.5 -210l-1 -31h-380q0 -59 27.5 -93.5t72.5 -34.5q41 0 63 20t29 49l182 -10q-8 -36 -32 -69.5t-64 -58.5q-54 -34 -79 -51.5t-44 -39t-19 -44.5q0 -16 15.5 -26t34.5 -10q37 0 58 8v-97q-29 -8 -78 -8q-76 0 -115.5 27t-39.5 78q0 36 18 66.5
t51 51.5q-124 5 -193.5 78t-69.5 198q0 131 74.5 205.5t207.5 74.5q131 0 206.5 -73zM369 404.5q-26 27.5 -70 27.5t-70 -27.5t-28 -72.5h196q-2 45 -28 72.5z" />
    <glyph glyph-name="Ecaron" unicode="&#x11a;" horiz-adv-x="598" 
d="M558 435v-140h-336v-145h355v-150h-545v714h545v-145h-355v-134h336zM386 762h-162l-140 167h155l64 -90h4l64 90h155z" />
    <glyph glyph-name="ecaron" unicode="&#x11b;" horiz-adv-x="598" 
d="M532 79.5q-32 -39.5 -90 -66t-142 -26.5q-133 0 -208 74t-75 203q0 131 74.5 205.5t207.5 74.5q131 0 206.5 -73t75.5 -210l-1 -31h-380q0 -59 27.5 -93.5t72.5 -34.5q41 0 63 20t29 49l182 -11q-10 -41 -42 -80.5zM229 404.5q-26 -27.5 -28 -72.5h197q-2 45 -28.5 72.5
t-70.5 27.5t-70 -27.5zM380 589h-162l-140 167h155l64 -90h4l64 90h155z" />
    <glyph glyph-name="Gcircumflex" unicode="&#x11c;" horiz-adv-x="756" 
d="M604 0v82q-82 -98 -222 -98q-105 0 -187 44.5t-128.5 129t-46.5 199.5q0 116 46.5 200t128.5 128.5t187 44.5q129 0 218 -63.5t120 -165.5l-191 -23q-19 48 -55.5 75t-91.5 27q-75 0 -121.5 -54t-46.5 -169t46.5 -169t121.5 -54q58 0 102 30t65 91h-155v133h334v-388
h-124zM381 851l-64 -89h-155l140 166h162l140 -166h-155l-64 89h-4z" />
    <glyph glyph-name="gcircumflex" unicode="&#x11d;" horiz-adv-x="603" 
d="M578 43q0 -128 -76 -184t-205 -56q-108 0 -180.5 43t-96.5 136l178 12q11 -34 35 -50t64 -16q48 0 75.5 28t27.5 90v51h-4q-48 -70 -158 -70q-62 0 -112 31.5t-78.5 90t-28.5 137.5t29 137.5t80 89.5t115 31q114 0 160 -80h4v67h171v-488zM380 191.5q28 34.5 28 94.5
q0 59 -28 93t-76 34t-76 -34t-28 -93q0 -60 28 -94.5t76 -34.5t76 34.5zM297 679l-64 -90h-155l140 167h162l140 -167h-155l-64 90h-4z" />
    <glyph glyph-name="Gbreve" unicode="&#x11e;" horiz-adv-x="756" 
d="M604 0v82q-82 -98 -222 -98q-105 0 -187 44.5t-128.5 129t-46.5 199.5q0 116 46.5 200t128.5 128.5t187 44.5q129 0 218 -63.5t120 -165.5l-191 -23q-19 48 -55.5 75t-91.5 27q-75 0 -121.5 -54t-46.5 -169t46.5 -169t121.5 -54q58 0 102 30t65 91h-155v133h334v-388
h-124zM546 838q-27 -38 -70 -58t-94 -20t-93.5 20t-69.5 58t-30 92h113q5 -31 27 -49t53 -18t53.5 18t27.5 49h113q-3 -54 -30 -92z" />
    <glyph glyph-name="gbreve" unicode="&#x11f;" horiz-adv-x="603" 
d="M578 43q0 -128 -76 -184t-205 -56q-108 0 -180.5 43t-96.5 136l178 12q11 -34 35 -50t64 -16q48 0 75.5 28t27.5 90v51h-4q-48 -70 -158 -70q-62 0 -112 31.5t-78.5 90t-28.5 137.5t29 137.5t80 89.5t115 31q114 0 160 -80h4v67h171v-488zM380 191.5q28 34.5 28 94.5
q0 59 -28 93t-76 34t-76 -34t-28 -93q0 -60 28 -94.5t76 -34.5t76 34.5zM462 664.5q-27 -38.5 -70.5 -58.5t-93.5 -20t-93 20t-70 58.5t-30 92.5h113q5 -31 27 -49t53 -18t53.5 18t27.5 49h113q-3 -54 -30 -92.5z" />
    <glyph glyph-name="Gdotaccent" unicode="&#x120;" horiz-adv-x="756" 
d="M604 0v82q-82 -98 -222 -98q-105 0 -187 44.5t-128.5 129t-46.5 199.5q0 116 46.5 200t128.5 128.5t187 44.5q129 0 218 -63.5t120 -165.5l-191 -23q-19 48 -55.5 75t-91.5 27q-75 0 -121.5 -54t-46.5 -169t46.5 -169t121.5 -54q58 0 102 30t65 91h-155v133h334v-388
h-124zM472 904v-128h-178v128h178z" />
    <glyph glyph-name="gdotaccent" unicode="&#x121;" horiz-adv-x="603" 
d="M578 43q0 -128 -76 -184t-205 -56q-108 0 -180.5 43t-96.5 136l178 12q11 -34 35 -50t64 -16q48 0 75.5 28t27.5 90v51h-4q-48 -70 -158 -70q-62 0 -112 31.5t-78.5 90t-28.5 137.5t29 137.5t80 89.5t115 31q114 0 160 -80h4v67h171v-488zM380 191.5q28 34.5 28 94.5
q0 59 -28 93t-76 34t-76 -34t-28 -93q0 -60 28 -94.5t76 -34.5t76 34.5zM388 724v-129h-178v129h178z" />
    <glyph glyph-name="Gcommaaccent" unicode="&#x122;" horiz-adv-x="756" 
d="M604 0v82q-82 -98 -222 -98q-105 0 -187 44.5t-128.5 129t-46.5 199.5q0 116 46.5 200t128.5 128.5t187 44.5q129 0 218 -63.5t120 -165.5l-191 -23q-19 48 -55.5 75t-91.5 27q-75 0 -121.5 -54t-46.5 -169t46.5 -169t121.5 -54q58 0 102 30t65 91h-155v133h334v-388
h-124zM422.5 -274q-37.5 -47 -118.5 -52v76q27 2 42 19t15 44h-57v129h156v-77q0 -92 -37.5 -139z" />
    <glyph glyph-name="gcommaaccent" unicode="&#x123;" horiz-adv-x="603" 
d="M578 43q0 -128 -76 -184t-205 -56q-108 0 -180.5 43t-96.5 136l178 12q11 -34 35 -50t64 -16q48 0 75.5 28t27.5 90v51h-4q-48 -70 -158 -70q-62 0 -112 31.5t-78.5 90t-28.5 137.5t29 137.5t80 89.5t115 31q114 0 160 -80h4v67h171v-488zM380 191.5q28 34.5 28 94.5
q0 59 -28 93t-76 34t-76 -34t-28 -93q0 -60 28 -94.5t76 -34.5t76 34.5zM258.5 805q37.5 47 118.5 52v-76q-27 -2 -42 -19t-15 -44h57v-129h-156v77q0 92 37.5 139z" />
    <glyph glyph-name="Hcircumflex" unicode="&#x124;" horiz-adv-x="712" 
d="M681 0h-190v285h-269v-285h-190v714h190v-275h269v275h190v-714zM356 851l-64 -89h-155l140 166h162l140 -166h-155l-64 89h-4z" />
    <glyph glyph-name="hcircumflex" unicode="&#x125;" 
d="M211 459q63 85 167 85q82 0 132 -50t50 -147v-347h-178v306q0 51 -20.5 74t-60.5 23t-67 -30.5t-27 -88.5v-284h-178v724h178v-265h4zM292 861l-64 -89h-155l140 166h162l140 -166h-155l-64 89h-4z" />
    <glyph glyph-name="Hbar" unicode="&#x126;" horiz-adv-x="726" 
d="M688 502v-502h-190v285h-269v-285h-190v502h-42v110h42v102h190v-102h269v102h190v-102h41v-110h-41zM229 502v-63h269v63h-269z" />
    <glyph glyph-name="hbar" unicode="&#x127;" horiz-adv-x="596" 
d="M521.5 494q49.5 -50 49.5 -147v-347h-177v306q0 52 -20.5 74.5t-61.5 22.5q-39 0 -66 -30.5t-27 -88.5v-284h-178v580h-43v92h43v52h178v-52h88v-92h-88v-121h4q61 85 167 85q82 0 131.5 -50z" />
    <glyph glyph-name="Itilde" unicode="&#x128;" horiz-adv-x="254" 
d="M32 714h190v-714h-190v714zM201 875q-10 0 -19.5 4t-22.5 13l-34 21q-32 17 -59 17q-54 0 -89 -34.5t-43 -104.5l81 -7q9 39 38 39q17 0 42 -16l35 -21q26 -17 58 -17q55 0 90 34t43 104l-81 7q-9 -39 -39 -39z" />
    <glyph glyph-name="itilde" unicode="&#x129;" horiz-adv-x="234" 
d="M207 531v-531h-177v531h177zM192 712q-10 0 -21 5t-21 11l-34 22q-30 16 -59 16q-54 0 -89 -34t-43 -104l81 -7q9 39 38 39q17 0 42 -16l35 -21q26 -17 58 -17q55 0 90 34t43 104l-81 7q-9 -39 -39 -39z" />
    <glyph glyph-name="Imacron" unicode="&#x12a;" horiz-adv-x="254" 
d="M32 714h190v-714h-190v714zM-34 896h323v-104h-323v104z" />
    <glyph glyph-name="imacron" unicode="&#x12b;" horiz-adv-x="234" 
d="M207 531v-531h-177v531h177zM-43 730h323v-104h-323v104z" />
    <glyph glyph-name="Ibreve" unicode="&#x12c;" horiz-adv-x="254" 
d="M32 714h190v-714h-190v714zM291 838q-27 -38 -70 -58t-94 -20t-93.5 20t-69.5 58t-30 92h113q5 -31 27 -49t53 -18t53.5 18t27.5 49h113q-3 -54 -30 -92z" />
    <glyph glyph-name="ibreve" unicode="&#x12d;" horiz-adv-x="234" 
d="M207 531v-531h-177v531h177zM282 664.5q-27 -38.5 -70.5 -58.5t-93.5 -20t-93 20t-70 58.5t-30 92.5h113q5 -31 27 -49t53 -18t53.5 18t27.5 49h113q-3 -54 -30 -92.5z" />
    <glyph glyph-name="Iogonek" unicode="&#x12e;" horiz-adv-x="254" 
d="M149.5 -52.5q-23.5 -26.5 -23.5 -49.5q0 -17 14.5 -26.5t34.5 -9.5q36 0 58 7v-96q-28 -8 -77 -8q-76 0 -116 27t-40 78q0 41 24 75t67 55h-59v714h190v-714q-49 -26 -72.5 -52.5z" />
    <glyph glyph-name="iogonek" unicode="&#x12f;" horiz-adv-x="234" 
d="M30 595v129h177v-129h-177zM141 -235q-76 0 -116 27t-40 78q0 41 24 75t67 55h-46v531h177v-531q-49 -26 -72.5 -52.5t-23.5 -49.5q0 -17 14.5 -26.5t34.5 -9.5q36 0 58 7v-96q-28 -8 -77 -8z" />
    <glyph glyph-name="Idotaccent" unicode="&#x130;" horiz-adv-x="254" 
d="M32 714h190v-714h-190v714zM216 904v-128h-178v128h178z" />
    <glyph glyph-name="dotlessi" unicode="&#x131;" horiz-adv-x="234" 
d="M207 531v-531h-177v531h177z" />
    <glyph glyph-name="IJ" unicode="&#x132;" horiz-adv-x="877" 
d="M32 714h190v-714h-190v714zM767.5 44.5q-78.5 -60.5 -212.5 -60.5q-124 0 -200 62t-89 187q-3 28 -2 41l186 17q-1 -5 -1 -19q0 -15 1 -22q7 -59 32 -87t73 -28q97 0 97 115v464h194v-477q0 -132 -78.5 -192.5z" />
    <glyph glyph-name="ij" unicode="&#x133;" horiz-adv-x="468" 
d="M207 724v-129h-177v129h177zM441 724v-129h-178v129h178zM207 531v-531h-177v531h177zM252 -49q11 8 11 32v548h178v-580q0 -60 -16.5 -92t-49 -44t-88.5 -12q-68 0 -100 2v138h30q24 0 35 8z" />
    <glyph glyph-name="Jcircumflex" unicode="&#x134;" horiz-adv-x="623" 
d="M513.5 44.5q-78.5 -60.5 -212.5 -60.5q-124 0 -200 62t-89 187q-3 28 -2 41l186 17q-1 -5 -1 -19q0 -15 1 -22q7 -59 32 -87t73 -28q97 0 97 115v464h194v-477q0 -132 -78.5 -192.5zM492 851l-64 -89h-155l140 166h162l140 -166h-155l-64 89h-4z" />
    <glyph glyph-name="jcircumflex" unicode="&#x135;" horiz-adv-x="234" 
d="M18.5 -49q11.5 8 11.5 32v548h177v-580q0 -60 -16.5 -92t-49 -44t-88.5 -12q-68 0 -100 2v138h30q24 0 35.5 8zM116 679l-64 -90h-155l140 167h162l140 -167h-155l-64 90h-4z" />
    <glyph glyph-name="Kcommaaccent" unicode="&#x136;" horiz-adv-x="695" 
d="M222 228v-228h-190v714h190v-267l230 267h216l-248 -273l283 -441h-225l-189 302zM390.5 -274q-37.5 -47 -118.5 -52v76q27 2 42 19t15 44h-57v129h156v-77q0 -92 -37.5 -139z" />
    <glyph glyph-name="kcommaaccent" unicode="&#x137;" 
d="M207 0h-178v724h178v-391l169 198h194l-189 -205l210 -326h-202l-127 207l-55 -61v-146zM338.5 -274q-37.5 -47 -118.5 -52v76q27 2 42 19t15 44h-57v129h156v-77q0 -92 -37.5 -139z" />
    <glyph glyph-name="kgreenlandic" unicode="&#x138;" 
d="M207 0h-178v531h178v-198l169 198h194l-189 -205l210 -326h-202l-127 207l-55 -61v-146z" />
    <glyph glyph-name="Lacute" unicode="&#x139;" horiz-adv-x="595" 
d="M32 714h190v-557h361v-157h-551v714zM65 769l87 167h177l-140 -167h-124z" />
    <glyph glyph-name="lacute" unicode="&#x13a;" horiz-adv-x="234" 
d="M207 724v-724h-177v724h177zM56 779l87 167h177l-140 -167h-124z" />
    <glyph glyph-name="Lcommaaccent" unicode="&#x13b;" horiz-adv-x="595" 
d="M32 714h190v-557h361v-157h-551v714zM348.5 -274q-37.5 -47 -118.5 -52v76q27 2 42 19t15 44h-57v129h156v-77q0 -92 -37.5 -139z" />
    <glyph glyph-name="lcommaaccent" unicode="&#x13c;" horiz-adv-x="234" 
d="M207 724v-724h-177v724h177zM158.5 -274q-37.5 -47 -118.5 -52v76q27 2 42 19t15 44h-57v129h156v-77q0 -92 -37.5 -139z" />
    <glyph glyph-name="Lcaron" unicode="&#x13d;" horiz-adv-x="595" 
d="M32 714h190v-557h361v-157h-551v714zM208 762h-162l-140 167h155l64 -90h4l64 90h155z" />
    <glyph glyph-name="lcaron" unicode="&#x13e;" horiz-adv-x="234" 
d="M207 724v-724h-177v724h177zM199 782h-162l-140 167h155l64 -90h4l64 90h155z" />
    <glyph glyph-name="Ldot" unicode="&#x13f;" horiz-adv-x="595" 
d="M32 714h190v-557h361v-157h-551v714zM361.899 326.018q-31.0791 30.6152 -31.0791 74.2188t31.0791 75.1465t74.6826 31.543t74.6826 -31.543t31.0791 -75.1465t-31.0791 -74.2188t-74.6826 -30.6152t-74.6826 30.6152z" />
    <glyph glyph-name="ldot" unicode="&#x140;" horiz-adv-x="470" 
d="M207 724v-724h-177v724h177zM277 289q-31 31 -31 74q0 44 31 74.5t74 30.5t74 -31t31 -74t-31 -74t-74 -31t-74 31z" />
    <glyph glyph-name="Lslash" unicode="&#x141;" horiz-adv-x="603" 
d="M591 0h-552v212l-42 -24v124l42 24v378h191v-269l148 84v-123l-148 -85v-164h361v-157z" />
    <glyph glyph-name="lslash" unicode="&#x142;" horiz-adv-x="267" 
d="M274 383l-51 -30v-353h-178v252l-52 -30v124l52 30v348h178v-248l51 30v-123z" />
    <glyph glyph-name="Nacute" unicode="&#x143;" horiz-adv-x="716" 
d="M471 0l-262 465h-4v-465h-173v714h217l258 -455h4v455h173v-714h-213zM296 768l87 167h177l-140 -167h-124z" />
    <glyph glyph-name="nacute" unicode="&#x144;" 
d="M204 459q59 85 170 85q85 0 135.5 -49.5t50.5 -147.5v-347h-178v306q0 51 -20.5 74t-60.5 23q-41 0 -67.5 -29.5t-26.5 -87.5v-286h-178v531h171v-72h4zM232 589l87 167h177l-140 -167h-124z" />
    <glyph glyph-name="Ncommaaccent" unicode="&#x145;" horiz-adv-x="716" 
d="M471 0l-262 465h-4v-465h-173v714h217l258 -455h4v455h173v-714h-213zM398.5 -274q-37.5 -47 -118.5 -52v76q27 2 42 19t15 44h-57v129h156v-77q0 -92 -37.5 -139z" />
    <glyph glyph-name="ncommaaccent" unicode="&#x146;" 
d="M204 459q59 85 170 85q85 0 135.5 -49.5t50.5 -147.5v-347h-178v306q0 51 -20.5 74t-60.5 23q-41 0 -67.5 -29.5t-26.5 -87.5v-286h-178v531h171v-72h4zM334.5 -274q-37.5 -47 -118.5 -52v76q27 2 42 19t15 44h-57v129h156v-77q0 -92 -37.5 -139z" />
    <glyph glyph-name="Ncaron" unicode="&#x147;" horiz-adv-x="716" 
d="M471 0l-262 465h-4v-465h-173v714h217l258 -455h4v455h173v-714h-213zM439 761h-162l-140 167h155l64 -90h4l64 90h155z" />
    <glyph glyph-name="ncaron" unicode="&#x148;" 
d="M204 459q59 85 170 85q85 0 135.5 -49.5t50.5 -147.5v-347h-178v306q0 51 -20.5 74t-60.5 23q-41 0 -67.5 -29.5t-26.5 -87.5v-286h-178v531h171v-72h4zM375 589h-162l-140 167h155l64 -90h4l64 90h155z" />
    <glyph glyph-name="napostrophe" unicode="&#x149;" horiz-adv-x="739" 
d="M129.5 508q-37.5 -47 -118.5 -52v76q27 2 42 19t15 44h-57v129h156v-77q0 -92 -37.5 -139zM358 459q61 85 170 85q85 0 135.5 -49.5t50.5 -147.5v-347h-178v307q0 51 -20.5 74t-60.5 23t-67 -29.5t-27 -87.5v-287h-178v531h171v-72h4z" />
    <glyph glyph-name="Eng" unicode="&#x14a;" horiz-adv-x="716" 
d="M684 -20q0 -91 -65 -134t-173 -43q-97 0 -159.5 46.5t-66.5 131.5l166 1q2 -25 17 -40.5t45 -15.5q31 0 46.5 16.5t15.5 43.5v14l-301 465h-4v-465h-173v714h206l269 -416h4v416h173v-734z" />
    <glyph glyph-name="eng" unicode="&#x14b;" 
d="M509.5 494.5q50.5 -49.5 50.5 -147.5v-396q0 -60 -16.5 -92t-49.5 -44t-89 -12q-68 0 -100 2v138h31q24 0 35 8t11 32v323q0 51 -20.5 74t-60.5 23q-41 0 -67.5 -29.5t-26.5 -87.5v-286h-178v531h171v-72h4q59 85 170 85q85 0 135.5 -49.5z" />
    <glyph glyph-name="Omacron" unicode="&#x14c;" horiz-adv-x="768" 
d="M572.5 686q82.5 -44 129 -128t46.5 -201t-46.5 -201t-129 -128t-188.5 -44t-188.5 44t-129 128t-46.5 201t46.5 201t129 128t188.5 44t188.5 -44zM506.5 188q47.5 54 47.5 169t-47.5 169t-122.5 54t-122.5 -54t-47.5 -169t47.5 -169t122.5 -54t122.5 54zM223 896h323
v-104h-323v104z" />
    <glyph glyph-name="omacron" unicode="&#x14d;" horiz-adv-x="605" 
d="M512 470q75 -74 75 -205q0 -130 -75 -204t-209 -74q-135 0 -210.5 74t-75.5 204q0 131 75.5 205t210.5 74q134 0 209 -74zM406 265q0 151 -103 151q-105 0 -105 -151q0 -150 105 -150q103 0 103 150zM141 730h323v-104h-323v104z" />
    <glyph glyph-name="Obreve" unicode="&#x14e;" horiz-adv-x="768" 
d="M572.5 686q82.5 -44 129 -128t46.5 -201t-46.5 -201t-129 -128t-188.5 -44t-188.5 44t-129 128t-46.5 201t46.5 201t129 128t188.5 44t188.5 -44zM506.5 188q47.5 54 47.5 169t-47.5 169t-122.5 54t-122.5 -54t-47.5 -169t47.5 -169t122.5 -54t122.5 54zM548 838
q-27 -38 -70 -58t-94 -20t-93.5 20t-69.5 58t-30 92h113q5 -31 27 -49t53 -18t53.5 18t27.5 49h113q-3 -54 -30 -92z" />
    <glyph glyph-name="obreve" unicode="&#x14f;" horiz-adv-x="605" 
d="M512 470q75 -74 75 -205q0 -130 -75 -204t-209 -74q-135 0 -210.5 74t-75.5 204q0 131 75.5 205t210.5 74q134 0 209 -74zM406 265q0 151 -103 151q-105 0 -105 -151q0 -150 105 -150q103 0 103 150zM466 664.5q-27 -38.5 -70.5 -58.5t-93.5 -20t-93 20t-70 58.5
t-30 92.5h113q5 -31 27 -49t53 -18t53.5 18t27.5 49h113q-3 -54 -30 -92.5z" />
    <glyph glyph-name="Ohungarumlaut" unicode="&#x150;" horiz-adv-x="768" 
d="M572.5 686q82.5 -44 129 -128t46.5 -201t-46.5 -201t-129 -128t-188.5 -44t-188.5 44t-129 128t-46.5 201t46.5 201t129 128t188.5 44t188.5 -44zM506.5 188q47.5 54 47.5 169t-47.5 169t-122.5 54t-122.5 -54t-47.5 -169t47.5 -169t122.5 -54t122.5 54zM229 769l58 167
h150l-98 -167h-110zM428 769l59 167h150l-99 -167h-110z" />
    <glyph glyph-name="ohungarumlaut" unicode="&#x151;" horiz-adv-x="605" 
d="M512 470q75 -74 75 -205q0 -130 -75 -204t-209 -74q-135 0 -210.5 74t-75.5 204q0 131 75.5 205t210.5 74q134 0 209 -74zM406 265q0 151 -103 151q-105 0 -105 -151q0 -150 105 -150q103 0 103 150zM148 589l58 167h150l-98 -167h-110zM347 589l59 167h150l-99 -167
h-110z" />
    <glyph glyph-name="OE" unicode="&#x152;" horiz-adv-x="1085" 
d="M744 437h301v-147h-301v-136h320v-154h-502v74h-4q-33 -42 -87.5 -66t-128.5 -24q-95 0 -167.5 44t-113.5 128t-41 201t41 201t113.5 128t167.5 44q74 0 128.5 -24t87.5 -66h4v73h502v-154h-320v-122zM513.5 187.5q48.5 53.5 48.5 169.5t-48.5 169.5t-125.5 53.5
t-125.5 -53.5t-48.5 -169.5t48.5 -169.5t125.5 -53.5t125.5 53.5z" />
    <glyph glyph-name="oe" unicode="&#x153;" horiz-adv-x="984" 
d="M918 79.5q-32 -39.5 -90 -66t-142 -26.5q-127 0 -191 75q-62 -75 -192 -75q-135 0 -210.5 74t-75.5 204q0 131 75.5 205t210.5 74q128 0 192 -75q64 75 190 75q131 0 206.5 -73t75.5 -210l-1 -31h-380q1 -59 28 -93.5t72 -34.5q41 0 63 20t29 49l182 -10
q-10 -42 -42 -81.5zM755.5 404.5q-26.5 27.5 -70.5 27.5t-70 -27.5t-28 -72.5h197q-2 45 -28.5 72.5zM406 265q0 151 -103 151q-105 0 -105 -151t105 -151q103 0 103 151z" />
    <glyph glyph-name="Racute" unicode="&#x154;" horiz-adv-x="687" 
d="M333 241h-111v-241h-190v714h366q128 0 199 -62t71 -174q0 -79 -36 -134t-103 -81l159 -263h-220zM446.5 410q27.5 24 27.5 68q0 43 -27.5 67t-81.5 24h-143v-183h143q54 0 81.5 24zM261 768l87 167h177l-140 -167h-124z" />
    <glyph glyph-name="racute" unicode="&#x155;" horiz-adv-x="397" 
d="M199 448h4q50 96 163 96q13 0 27 -4v-164q-24 4 -59 4q-60 0 -93.5 -28.5t-33.5 -98.5v-253h-178v531h170v-83zM149 589l87 167h177l-140 -167h-124z" />
    <glyph glyph-name="Rcommaaccent" unicode="&#x156;" horiz-adv-x="687" 
d="M333 241h-111v-241h-190v714h366q128 0 199 -62t71 -174q0 -79 -36 -134t-103 -81l159 -263h-220zM446.5 410q27.5 24 27.5 68q0 43 -27.5 67t-81.5 24h-143v-183h143q54 0 81.5 24zM385.5 -274q-37.5 -47 -118.5 -52v76q27 2 42 19t15 44h-57v129h156v-77
q0 -92 -37.5 -139z" />
    <glyph glyph-name="rcommaaccent" unicode="&#x157;" horiz-adv-x="397" 
d="M199 448h4q50 96 163 96q13 0 27 -4v-164q-24 4 -59 4q-60 0 -93.5 -28.5t-33.5 -98.5v-253h-178v531h170v-83zM158.5 -274q-37.5 -47 -118.5 -52v76q27 2 42 19t15 44h-57v129h156v-77q0 -92 -37.5 -139z" />
    <glyph glyph-name="Rcaron" unicode="&#x158;" horiz-adv-x="687" 
d="M333 241h-111v-241h-190v714h366q128 0 199 -62t71 -174q0 -79 -36 -134t-103 -81l159 -263h-220zM446.5 410q27.5 24 27.5 68q0 43 -27.5 67t-81.5 24h-143v-183h143q54 0 81.5 24zM405 761h-162l-140 167h155l64 -90h4l64 90h155z" />
    <glyph glyph-name="rcaron" unicode="&#x159;" horiz-adv-x="397" 
d="M199 448h4q50 96 163 96q13 0 27 -4v-164q-24 4 -59 4q-60 0 -93.5 -28.5t-33.5 -98.5v-253h-178v531h170v-83zM292 589h-162l-140 167h155l64 -90h4l64 90h155z" />
    <glyph glyph-name="Sacute" unicode="&#x15a;" horiz-adv-x="664" 
d="M401.5 568q-31.5 25 -86.5 25q-46 0 -74 -19.5t-28 -49.5q0 -26 21 -40t64 -24l113 -28q75 -19 121.5 -39t79 -65t32.5 -123q0 -111 -87 -166t-222 -55q-89 0 -161 27.5t-116.5 81t-52.5 129.5l188 19q5 -59 44 -88t100 -29q50 0 82 19.5t32 54.5q0 33 -24 48.5t-82 30.5
l-102 27q-68 18 -112 37.5t-74.5 60.5t-30.5 110q0 105 82.5 161.5t214.5 56.5q122 0 201.5 -57.5t96.5 -163.5l-182 -12q-6 46 -37.5 71zM261 769l87 167h177l-140 -167h-124z" />
    <glyph glyph-name="sacute" unicode="&#x15b;" horiz-adv-x="545" 
d="M321.5 418q-22.5 18 -56.5 18q-31 0 -51 -13t-20 -36q0 -21 20 -31.5t64 -17.5l56 -8q59 -10 101 -26t69 -50.5t27 -92.5q0 -88 -72 -131t-191 -43q-109 0 -181.5 43.5t-85.5 124.5l168 17q6 -37 32 -56.5t68 -19.5q38 0 59.5 15t21.5 41q0 20 -22.5 32.5t-65.5 19.5
l-63 9q-81 13 -131 48.5t-50 114.5q0 54 34 92t90 57t121 19q101 0 169 -41.5t82 -118.5l-165 -15q-5 31 -27.5 49zM200 589l87 167h177l-140 -167h-124z" />
    <glyph glyph-name="Scircumflex" unicode="&#x15c;" horiz-adv-x="664" 
d="M401.5 568q-31.5 25 -86.5 25q-46 0 -74 -19.5t-28 -49.5q0 -26 21 -40t64 -24l113 -28q75 -19 121.5 -39t79 -65t32.5 -123q0 -111 -87 -166t-222 -55q-89 0 -161 27.5t-116.5 81t-52.5 129.5l188 19q5 -59 44 -88t100 -29q50 0 82 19.5t32 54.5q0 33 -24 48.5t-82 30.5
l-102 27q-68 18 -112 37.5t-74.5 60.5t-30.5 110q0 105 82.5 161.5t214.5 56.5q122 0 201.5 -57.5t96.5 -163.5l-182 -12q-6 46 -37.5 71zM321 851l-64 -89h-155l140 166h162l140 -166h-155l-64 89h-4z" />
    <glyph glyph-name="scircumflex" unicode="&#x15d;" horiz-adv-x="545" 
d="M321.5 418q-22.5 18 -56.5 18q-31 0 -51 -13t-20 -36q0 -21 20 -31.5t64 -17.5l56 -8q59 -10 101 -26t69 -50.5t27 -92.5q0 -88 -72 -131t-191 -43q-109 0 -181.5 43.5t-85.5 124.5l168 17q6 -37 32 -56.5t68 -19.5q38 0 59.5 15t21.5 41q0 20 -22.5 32.5t-65.5 19.5
l-63 9q-81 13 -131 48.5t-50 114.5q0 54 34 92t90 57t121 19q101 0 169 -41.5t82 -118.5l-165 -15q-5 31 -27.5 49zM261 679l-64 -90h-155l140 167h162l140 -167h-155l-64 90h-4z" />
    <glyph glyph-name="Scedilla" unicode="&#x15e;" horiz-adv-x="664" 
d="M363 -38q110 -9 110 -92q0 -52 -41 -78.5t-122 -26.5q-35 0 -67.5 7t-56.5 20l22 69q48 -24 96 -24q19 0 31.5 9t12.5 25q0 29 -44 29q-13 0 -43 -8v66l26 28q-121 10 -196.5 71t-85.5 165l187 19q6 -59 45.5 -88t101.5 -29q48 0 80 19.5t32 54.5q0 33 -24 48.5t-82 30.5
l-102 27q-68 18 -112 37.5t-74.5 60.5t-30.5 110q0 105 82.5 161.5t214.5 56.5q126 0 203.5 -57t94.5 -164l-182 -12q-6 46 -37.5 71t-86.5 25q-46 0 -74 -19.5t-28 -49.5q0 -26 21 -40t64 -24l113 -28q75 -19 121.5 -39t79 -65t32.5 -123q0 -101 -73.5 -156t-190.5 -63
l-17 -19v-5z" />
    <glyph glyph-name="scedilla" unicode="&#x15f;" horiz-adv-x="545" 
d="M294 -38q110 -9 110 -92q0 -52 -41 -78.5t-122 -26.5q-35 0 -67.5 7t-56.5 20l23 69q19 -10 44 -17t51 -7q19 0 31.5 9t12.5 25q0 17 -11.5 23t-32.5 6q-14 0 -42 -8v66l29 31q-91 8 -150 51t-71 115l168 17q6 -37 32 -56.5t68 -19.5q38 0 59.5 15t21.5 41
q0 20 -22.5 32.5t-65.5 19.5l-63 9q-81 13 -131 48.5t-50 114.5q0 54 34 92t90 57t121 19q101 0 169 -41.5t82 -118.5l-165 -15q-5 31 -27.5 49t-56.5 18q-31 0 -51 -13t-20 -36q0 -21 20 -31.5t64 -17.5l56 -8q59 -10 101 -26t69 -50.5t27 -92.5q0 -79 -58 -121.5
t-158 -50.5l-21 -22v-5z" />
    <glyph glyph-name="Scaron" unicode="&#x160;" horiz-adv-x="664" 
d="M401.5 568q-31.5 25 -86.5 25q-46 0 -74 -19.5t-28 -49.5q0 -26 21 -40t64 -24l113 -28q75 -19 121.5 -39t79 -65t32.5 -123q0 -111 -87 -166t-222 -55q-89 0 -161 27.5t-116.5 81t-52.5 129.5l188 19q5 -59 44 -88t100 -29q50 0 82 19.5t32 54.5q0 33 -24 48.5t-82 30.5
l-102 27q-68 18 -112 37.5t-74.5 60.5t-30.5 110q0 105 82.5 161.5t214.5 56.5q122 0 201.5 -57.5t96.5 -163.5l-182 -12q-6 46 -37.5 71zM404 762h-162l-140 167h155l64 -90h4l64 90h155z" />
    <glyph glyph-name="scaron" unicode="&#x161;" horiz-adv-x="545" 
d="M321.5 418q-22.5 18 -56.5 18q-31 0 -51 -13t-20 -36q0 -21 20 -31.5t64 -17.5l56 -8q59 -10 101 -26t69 -50.5t27 -92.5q0 -88 -72 -131t-191 -43q-109 0 -181.5 43.5t-85.5 124.5l168 17q6 -37 32 -56.5t68 -19.5q38 0 59.5 15t21.5 41q0 20 -22.5 32.5t-65.5 19.5
l-63 9q-81 13 -131 48.5t-50 114.5q0 54 34 92t90 57t121 19q101 0 169 -41.5t82 -118.5l-165 -15q-5 31 -27.5 49zM344 589h-162l-140 167h155l64 -90h4l64 90h155z" />
    <glyph glyph-name="Tcedilla" unicode="&#x162;" horiz-adv-x="672" 
d="M362 -38q109 -9 109 -92q0 -105 -163 -105q-35 0 -67.5 7t-56.5 20l23 69q19 -10 44 -17t51 -7q19 0 32 9t13 25q0 17 -12 23t-33 6q-14 0 -42 -8v66l39 42h-58v557h-232v157h655v-157h-233v-557h-40l-29 -33v-5z" />
    <glyph glyph-name="tcedilla" unicode="&#x163;" horiz-adv-x="381" 
d="M7 531h81v146h177v-146h106v-111h-106v-239q0 -32 13.5 -41t51.5 -9h39v-131q-12 -2 -76 -2l-28 -31v-5q110 -9 110 -92q0 -52 -41 -78.5t-122 -26.5q-35 0 -68 7t-56 20l22 69q48 -24 95 -24q19 0 32 9t13 25q0 17 -12 23t-33 6q-12 0 -42 -8v66l40 43q-62 6 -88.5 36.5
t-26.5 101.5v281h-81v111z" />
    <glyph glyph-name="Tcaron" unicode="&#x164;" horiz-adv-x="658" 
d="M424 557v-557h-190v557h-222v157h634v-157h-222zM410 761h-162l-140 167h155l64 -90h4l64 90h155z" />
    <glyph glyph-name="tcaron" unicode="&#x165;" horiz-adv-x="559" 
d="M510.5 508q-37.5 -47 -118.5 -52v76q28 2 43 19t15 44h-58v129h156v-77q0 -92 -37.5 -139zM369 131v-131q-16 -2 -108 -2q-65 0 -101.5 11.5t-54 41.5t-17.5 88v281h-81v111h81v146h177v-146h106v-111h-106v-239q0 -32 13.5 -41t51.5 -9h39z" />
    <glyph glyph-name="Tbar" unicode="&#x166;" horiz-adv-x="678" 
d="M434 386h96v-110h-96v-276h-190v276h-96v110h96v171h-232v157h654v-157h-232v-171z" />
    <glyph glyph-name="tbar" unicode="&#x167;" horiz-adv-x="381" 
d="M265 358h106v-92h-106v-85q0 -32 13.5 -41t51.5 -9h39v-131q-16 -2 -108 -2q-65 0 -101.5 11.5t-54 41.5t-17.5 88v127h-81v92h81v62h-81v111h81v146h177v-146h106v-111h-106v-62z" />
    <glyph glyph-name="Utilde" unicode="&#x168;" horiz-adv-x="706" 
d="M633.5 108.5q-41.5 -62.5 -114 -93.5t-166.5 -31t-166 31t-113.5 93.5t-41.5 154.5v451h190v-433q0 -146 131 -146q132 0 132 146v433h190v-451q0 -92 -41.5 -154.5zM427 874q-10 0 -19.5 4t-22.5 13l-34 21q-32 17 -59 17q-54 0 -89 -34.5t-43 -104.5l81 -7q9 39 38 39
q17 0 42 -16l35 -21q26 -17 58 -17q55 0 90 34t43 104l-81 7q-9 -39 -39 -39z" />
    <glyph glyph-name="utilde" unicode="&#x169;" 
d="M385 72q-61 -85 -170 -85q-85 0 -135.5 49.5t-50.5 147.5v347h178v-306q0 -52 20.5 -74.5t60.5 -22.5t67 29.5t27 87.5v286h178v-531h-171v72h-4zM368 712q-10 0 -21 5t-21 11l-34 22q-30 16 -59 16q-54 0 -89 -34t-43 -104l81 -7q9 39 38 39q17 0 42 -16l35 -21
q26 -17 58 -17q55 0 90 34t43 104l-81 7q-9 -39 -39 -39z" />
    <glyph glyph-name="Umacron" unicode="&#x16a;" horiz-adv-x="706" 
d="M633.5 108.5q-41.5 -62.5 -114 -93.5t-166.5 -31t-166 31t-113.5 93.5t-41.5 154.5v451h190v-433q0 -146 131 -146q132 0 132 146v433h190v-451q0 -92 -41.5 -154.5zM192 895h323v-104h-323v104z" />
    <glyph glyph-name="umacron" unicode="&#x16b;" 
d="M385 72q-61 -85 -170 -85q-85 0 -135.5 49.5t-50.5 147.5v347h178v-306q0 -52 20.5 -74.5t60.5 -22.5t67 29.5t27 87.5v286h178v-531h-171v72h-4zM133 730h323v-104h-323v104z" />
    <glyph glyph-name="Ubreve" unicode="&#x16c;" horiz-adv-x="706" 
d="M633.5 108.5q-41.5 -62.5 -114 -93.5t-166.5 -31t-166 31t-113.5 93.5t-41.5 154.5v451h190v-433q0 -146 131 -146q132 0 132 146v433h190v-451q0 -92 -41.5 -154.5zM517 837q-27 -38 -70 -58t-94 -20t-93.5 20t-69.5 58t-30 92h113q5 -31 27 -49t53 -18t53.5 18t27.5 49
h113q-3 -54 -30 -92z" />
    <glyph glyph-name="ubreve" unicode="&#x16d;" 
d="M385 72q-61 -85 -170 -85q-85 0 -135.5 49.5t-50.5 147.5v347h178v-306q0 -52 20.5 -74.5t60.5 -22.5t67 29.5t27 87.5v286h178v-531h-171v72h-4zM458 664.5q-27 -38.5 -70.5 -58.5t-93.5 -20t-93 20t-70 58.5t-30 92.5h113q5 -31 27 -49t53 -18t53.5 18t27.5 49h113
q-3 -54 -30 -92.5z" />
    <glyph glyph-name="Uring" unicode="&#x16e;" horiz-adv-x="706" 
d="M633.5 108.5q-41.5 -62.5 -114 -93.5t-166.5 -31t-166 31t-113.5 93.5t-41.5 154.5v451h190v-433q0 -146 131 -146q132 0 132 146v433h190v-451q0 -92 -41.5 -154.5zM265.5 783q-35.5 34 -35.5 85t35.5 85t87.5 34q51 0 87 -34t36 -85t-36 -85t-87 -34q-52 0 -87.5 34z
M388.5 830.5q14.5 14.5 14.5 37.5q0 24 -14.5 38.5t-35.5 14.5t-35.5 -14.5t-14.5 -38.5q0 -23 14.5 -37.5t35.5 -14.5t35.5 14.5z" />
    <glyph glyph-name="uring" unicode="&#x16f;" 
d="M385 72q-61 -85 -170 -85q-85 0 -135.5 49.5t-50.5 147.5v347h178v-306q0 -52 20.5 -74.5t60.5 -22.5t67 29.5t27 87.5v286h178v-531h-171v72h-4zM206.5 621q-35.5 34 -35.5 85t35.5 85t87.5 34q51 0 87 -34t36 -85t-36 -85t-87 -34q-52 0 -87.5 34zM329.5 667.5
q14.5 14.5 14.5 38.5t-14.5 38.5t-35.5 14.5t-35.5 -14.5t-14.5 -38.5t14.5 -38.5t35.5 -14.5t35.5 14.5z" />
    <glyph glyph-name="Uhungarumlaut" unicode="&#x170;" horiz-adv-x="706" 
d="M633.5 108.5q-41.5 -62.5 -114 -93.5t-166.5 -31t-166 31t-113.5 93.5t-41.5 154.5v451h190v-433q0 -146 131 -146q132 0 132 146v433h190v-451q0 -92 -41.5 -154.5zM198 768l58 167h150l-98 -167h-110zM397 768l59 167h150l-99 -167h-110z" />
    <glyph glyph-name="uhungarumlaut" unicode="&#x171;" 
d="M385 72q-61 -85 -170 -85q-85 0 -135.5 49.5t-50.5 147.5v347h178v-306q0 -52 20.5 -74.5t60.5 -22.5t67 29.5t27 87.5v286h178v-531h-171v72h-4zM140 589l58 167h150l-98 -167h-110zM339 589l59 167h150l-99 -167h-110z" />
    <glyph glyph-name="Uogonek" unicode="&#x172;" horiz-adv-x="706" 
d="M675 263q0 -92 -40.5 -154t-112.5 -94q-63 -28 -97.5 -58.5t-34.5 -58.5q0 -17 14.5 -26.5t34.5 -9.5q36 0 58 7v-96q-28 -8 -77 -8q-76 0 -116 27t-40 78q0 35 17 64.5t48 50.5q-134 6 -215.5 76.5t-81.5 201.5v451h190v-433q0 -146 131 -146q132 0 132 146v433h190
v-451z" />
    <glyph glyph-name="uogonek" unicode="&#x173;" 
d="M487 -52.5q-24 -26.5 -24 -49.5q0 -17 15 -26.5t35 -9.5q34 0 58 7v-96q-29 -8 -78 -8q-76 0 -115.5 27t-39.5 78q0 42 24 76t66 54h-39v72h-4q-61 -85 -170 -85q-85 0 -135.5 49.5t-50.5 147.5v347h178v-306q0 -52 20.5 -74.5t60.5 -22.5t67 29.5t27 87.5v286h178v-531
q-49 -26 -73 -52.5z" />
    <glyph glyph-name="Wcircumflex" unicode="&#x174;" horiz-adv-x="959" 
d="M481 481h-4l-80 -481h-239l-159 714h194l91 -501h4l83 501h214l82 -501h4l92 501h197l-160 -714h-238zM476 851l-64 -89h-155l140 166h162l140 -166h-155l-64 89h-4z" />
    <glyph glyph-name="wcircumflex" unicode="&#x175;" horiz-adv-x="901" 
d="M735 0h-197l-87 334h-4l-86 -334h-195l-172 531h195l85 -337h4l79 337h194l79 -337h4l85 337h188zM452 679l-64 -90h-155l140 167h162l140 -167h-155l-64 90h-4z" />
    <glyph glyph-name="Ycircumflex" unicode="&#x176;" horiz-adv-x="697" 
d="M444 266v-266h-190v266l-256 448h208l144 -282l145 282h204zM349 851l-64 -89h-155l140 166h162l140 -166h-155l-64 89h-4z" />
    <glyph glyph-name="ycircumflex" unicode="&#x177;" horiz-adv-x="579" 
d="M398 0q-30 -85 -65 -127.5t-75.5 -56t-99.5 -13.5q-63 0 -105 5v141q38 -4 75 -4q32 0 48 9.5t25 33.5l5 14l-212 529h194l109 -325h4l93 325h191zM289 679l-64 -90h-155l140 167h162l140 -167h-155l-64 90h-4z" />
    <glyph glyph-name="Ydieresis" unicode="&#x178;" horiz-adv-x="697" 
d="M444 266v-266h-190v266l-256 448h208l144 -282l145 282h204zM317 902v-126h-152v126h152zM537 902v-126h-152v126h152z" />
    <glyph glyph-name="Zacute" unicode="&#x179;" horiz-adv-x="627" 
d="M611 157v-157h-598v157l349 400h-328v157h578v-157l-348 -400h347zM261 769l87 167h177l-140 -167h-124z" />
    <glyph glyph-name="zacute" unicode="&#x17a;" horiz-adv-x="505" 
d="M14 131l248 266h-235v134h464v-131l-248 -267h248v-133h-477v131zM198 589l87 167h177l-140 -167h-124z" />
    <glyph glyph-name="Zdotaccent" unicode="&#x17b;" horiz-adv-x="627" 
d="M611 157v-157h-598v157l349 400h-328v157h578v-157l-348 -400h347zM413 904v-128h-178v128h178z" />
    <glyph glyph-name="zdotaccent" unicode="&#x17c;" horiz-adv-x="505" 
d="M14 131l248 266h-235v134h464v-131l-248 -267h248v-133h-477v131zM349 724v-129h-178v129h178z" />
    <glyph glyph-name="Zcaron" unicode="&#x17d;" horiz-adv-x="627" 
d="M611 157v-157h-598v157l349 400h-328v157h578v-157l-348 -400h347zM404 762h-162l-140 167h155l64 -90h4l64 90h155z" />
    <glyph glyph-name="zcaron" unicode="&#x17e;" horiz-adv-x="505" 
d="M14 131l248 266h-235v134h464v-131l-248 -267h248v-133h-477v131zM341 589h-162l-140 167h155l64 -90h4l64 90h155z" />
    <glyph glyph-name="florin" unicode="&#x192;" horiz-adv-x="523" 
d="M408.5 598q-18.5 -12 -22.5 -40l-19 -105h106v-112h-125l-36 -199q-15 -90 -74.5 -122.5t-161.5 -32.5q-18 0 -76 5v123q27 -4 64 -4q32 0 50.5 12.5t23.5 41.5l31 176h-89v112h109l23 127q15 89 74.5 122t161.5 33q18 0 75 -5v-122q-38 2 -63 2q-33 0 -51.5 -12z" />
    <glyph glyph-name="Oslashacute" unicode="&#x1fe;" horiz-adv-x="768" 
d="M311 769l87 167h177l-140 -167h-124zM726.5 499q21.5 -64 21.5 -142q0 -117 -46.5 -201t-129 -128t-188.5 -44q-124 0 -213 59l-72 -83l-64 59l70 81q-85 101 -85 257q0 117 46.5 201t129 128t188.5 44q124 0 215 -60l71 81l64 -60l-69 -80q40 -48 61.5 -112zM230 245
l259 299q-42 36 -105 36q-75 0 -122.5 -54t-47.5 -169q0 -64 16 -112zM506.5 188q47.5 54 47.5 169q0 66 -15 109l-259 -297q44 -35 104 -35q75 0 122.5 54z" />
    <glyph glyph-name="oslashacute" unicode="&#x1ff;" horiz-adv-x="605" 
d="M224 589l87 167h177l-141 -167h-123zM587 265q0 -130 -75 -204t-210 -74q-94 0 -160 37l-50 -56l-49 44l46 52q-72 74 -72 201q0 131 75 205t210 74q102 0 173 -45l38 44l49 -45l-37 -42v0q62 -71 62 -191zM198 265q0 -39 8 -69l168 190q-26 30 -72 30q-104 0 -104 -151z
M406 265q0 32 -4 53l-162 -183q24 -21 62 -21q104 0 104 151z" />
    <glyph glyph-name="Scommaaccent" unicode="&#x218;" horiz-adv-x="664" 
d="M401.5 568q-31.5 25 -86.5 25q-46 0 -74 -19.5t-28 -49.5q0 -26 21 -40t64 -24l113 -28q75 -19 121.5 -39t79 -65t32.5 -123q0 -111 -87 -166t-222 -55q-89 0 -161 27.5t-116.5 81t-52.5 129.5l188 19q5 -59 44 -88t100 -29q50 0 82 19.5t32 54.5q0 33 -24 48.5t-82 30.5
l-102 27q-68 18 -112 37.5t-74.5 60.5t-30.5 110q0 105 82.5 161.5t214.5 56.5q122 0 201.5 -57.5t96.5 -163.5l-182 -12q-6 46 -37.5 71zM375.5 -274q-37.5 -47 -118.5 -52v76q27 2 42 19t15 44h-57v129h156v-77q0 -92 -37.5 -139z" />
    <glyph glyph-name="scommaaccent" unicode="&#x219;" horiz-adv-x="545" 
d="M321.5 418q-22.5 18 -56.5 18q-31 0 -51 -13t-20 -36q0 -21 20 -31.5t64 -17.5l56 -8q59 -10 101 -26t69 -50.5t27 -92.5q0 -88 -72 -131t-191 -43q-109 0 -181.5 43.5t-85.5 124.5l168 17q6 -37 32 -56.5t68 -19.5q38 0 59.5 15t21.5 41q0 20 -22.5 32.5t-65.5 19.5
l-63 9q-81 13 -131 48.5t-50 114.5q0 54 34 92t90 57t121 19q101 0 169 -41.5t82 -118.5l-165 -15q-5 31 -27.5 49zM308.5 -274q-37.5 -47 -118.5 -52v76q27 2 42 19t15 44h-57v129h156v-77q0 -92 -37.5 -139z" />
    <glyph glyph-name="uni021A" unicode="&#x21a;" horiz-adv-x="658" 
d="M424 557v-557h-190v557h-222v157h634v-157h-222zM369.5 -274q-37.5 -47 -118.5 -52v76q27 2 42 19t15 44h-57v129h156v-77q0 -92 -37.5 -139z" />
    <glyph glyph-name="uni021B" unicode="&#x21b;" horiz-adv-x="381" 
d="M369 131v-131q-16 -2 -108 -2q-65 0 -101.5 11.5t-54 41.5t-17.5 88v281h-81v111h81v146h177v-146h106v-111h-106v-239q0 -32 13.5 -41t51.5 -9h39zM269.5 -274q-37.5 -47 -118.5 -52v76q27 2 42 19t15 44h-57v129h156v-77q0 -92 -37.5 -139z" />
    <glyph glyph-name="dotlessj" unicode="&#x237;" horiz-adv-x="234" 
d="M18.5 -49q11.5 8 11.5 32v548h177v-580q0 -60 -16.5 -92t-49 -44t-88.5 -12q-68 0 -100 2v138h30q24 0 35.5 8z" />
    <glyph glyph-name="uni02BC" unicode="&#x2bc;" horiz-adv-x="210" 
d="M147.5 508q-37.5 -47 -118.5 -52v76q27 2 42 19t15 44h-57v129h156v-77q0 -92 -37.5 -139z" />
    <glyph glyph-name="circumflex" unicode="&#x2c6;" horiz-adv-x="496" 
d="M248 679l-64 -90h-155l140 167h162l140 -167h-155l-64 90h-4z" />
    <glyph glyph-name="caron" unicode="&#x2c7;" horiz-adv-x="496" 
d="M331 589h-162l-140 167h155l64 -90h4l64 90h155z" />
    <glyph glyph-name="breve" unicode="&#x2d8;" horiz-adv-x="441" 
d="M386 664.5q-27 -38.5 -70.5 -58.5t-93.5 -20t-93 20t-70 58.5t-30 92.5h113q5 -31 27 -49t53 -18t53.5 18t27.5 49h113q-3 -54 -30 -92.5z" />
    <glyph glyph-name="dotaccent" unicode="&#x2d9;" horiz-adv-x="232" 
d="M207 724v-129h-178v129h178z" />
    <glyph glyph-name="ring" unicode="&#x2da;" horiz-adv-x="300" 
d="M64.5 621q-35.5 34 -35.5 85t35.5 85t87.5 34q51 0 87 -34t36 -85t-36 -85t-87 -34q-52 0 -87.5 34zM187.5 667.5q14.5 14.5 14.5 38.5t-14.5 38.5t-35.5 14.5t-35.5 -14.5t-14.5 -38.5t14.5 -38.5t35.5 -14.5t35.5 14.5z" />
    <glyph glyph-name="ogonek" unicode="&#x2db;" horiz-adv-x="287" 
d="M262 -131v-96q-28 -8 -77 -8q-76 0 -116 27t-40 78q0 42 24.5 76.5t68.5 54.5h131q-50 -27 -74.5 -53.5t-24.5 -49.5q0 -17 15 -26.5t35 -9.5q36 0 58 7z" />
    <glyph glyph-name="tilde" unicode="&#x2dc;" horiz-adv-x="441" 
d="M296 712q-10 0 -21 5t-21 11l-34 22q-30 16 -59 16q-54 0 -89 -34t-43 -104l81 -7q9 39 38 39q17 0 42 -16l35 -21q26 -17 58 -17q55 0 90 34t43 104l-81 7q-9 -39 -39 -39z" />
    <glyph glyph-name="hungarumlaut" unicode="&#x2dd;" horiz-adv-x="462" 
d="M29 589l58 167h150l-98 -167h-110zM228 589l59 167h150l-99 -167h-110z" />
    <glyph glyph-name="uni0326" unicode="&#x326;" horiz-adv-x="0" 
d="M147.5 -274q-37.5 -47 -118.5 -52v76q27 2 42 19t15 44h-57v129h156v-77q0 -92 -37.5 -139z" />
    <glyph glyph-name="Wgrave" unicode="&#x1e80;" horiz-adv-x="959" 
d="M481 481h-4l-80 -481h-239l-159 714h194l91 -501h4l83 501h214l82 -501h4l92 501h197l-160 -714h-238zM539 769h-123l-141 167h177z" />
    <glyph glyph-name="wgrave" unicode="&#x1e81;" horiz-adv-x="901" 
d="M735 0h-197l-87 334h-4l-86 -334h-195l-172 531h195l85 -337h4l79 337h194l79 -337h4l85 337h188zM515 589h-123l-141 167h177z" />
    <glyph glyph-name="Wacute" unicode="&#x1e82;" horiz-adv-x="959" 
d="M481 481h-4l-80 -481h-239l-159 714h194l91 -501h4l83 501h214l82 -501h4l92 501h197l-160 -714h-238zM416 769l87 167h177l-140 -167h-124z" />
    <glyph glyph-name="wacute" unicode="&#x1e83;" horiz-adv-x="901" 
d="M735 0h-197l-87 334h-4l-86 -334h-195l-172 531h195l85 -337h4l79 337h194l79 -337h4l85 337h188zM392 589l87 167h177l-140 -167h-124z" />
    <glyph glyph-name="Wdieresis" unicode="&#x1e84;" horiz-adv-x="959" 
d="M481 481h-4l-80 -481h-239l-159 714h194l91 -501h4l83 501h214l82 -501h4l92 501h197l-160 -714h-238zM444 902v-126h-152v126h152zM664 902v-126h-152v126h152z" />
    <glyph glyph-name="wdieresis" unicode="&#x1e85;" horiz-adv-x="901" 
d="M735 0h-197l-87 334h-4l-86 -334h-195l-172 531h195l85 -337h4l79 337h194l79 -337h4l85 337h188zM420 722v-127h-152v127h152zM640 722v-127h-152v127h152z" />
    <glyph glyph-name="Ygrave" unicode="&#x1ef2;" horiz-adv-x="697" 
d="M444 266v-266h-190v266l-256 448h208l144 -282l145 282h204zM412 769h-123l-141 167h177z" />
    <glyph glyph-name="ygrave" unicode="&#x1ef3;" horiz-adv-x="579" 
d="M398 0q-30 -85 -65 -127.5t-75.5 -56t-99.5 -13.5q-63 0 -105 5v141q38 -4 75 -4q32 0 48 9.5t25 33.5l5 14l-212 529h194l109 -325h4l93 325h191zM352 589h-123l-141 167h177z" />
    <glyph glyph-name="uni2007" unicode="&#x2007;" horiz-adv-x="335" 
 />
    <glyph glyph-name="uni2008" unicode="&#x2008;" horiz-adv-x="289" 
 />
    <glyph glyph-name="zerowidthspace" unicode="&#x200b;" horiz-adv-x="0" 
 />
    <glyph glyph-name="endash" unicode="&#x2013;" horiz-adv-x="639" 
d="M51 347h536v-147h-536v147z" />
    <glyph glyph-name="emdash" unicode="&#x2014;" horiz-adv-x="836" 
d="M51 347h734v-147h-734v147z" />
    <glyph glyph-name="quoteleft" unicode="&#x2018;" horiz-adv-x="254" 
d="M80.5 654q40.5 55 131.5 60v-85q-33 -2 -48.5 -23.5t-15.5 -64.5h66v-179h-174v122q0 115 40.5 170z" />
    <glyph glyph-name="quoteright" unicode="&#x2019;" horiz-adv-x="254" 
d="M173 421.5q-41 -55.5 -132 -59.5v85q33 2 49 23.5t16 64.5h-66v179h174v-122q0 -115 -41 -170.5z" />
    <glyph glyph-name="quotesinglbase" unicode="&#x201a;" horiz-adv-x="254" 
d="M173 -113.5q-41 -55.5 -132 -59.5v84q33 3 49 24.5t16 64.5h-66v179h174v-122q0 -115 -41 -170.5z" />
    <glyph glyph-name="quotedblleft" unicode="&#x201c;" horiz-adv-x="488" 
d="M80.5 654q40.5 55 131.5 60v-85q-33 -2 -48.5 -23.5t-15.5 -65.5h66v-178h-174v122q0 115 40.5 170zM315.5 654q40.5 55 131.5 60v-85q-33 -2 -49 -23.5t-16 -64.5h66v-179h-173v122q0 115 40.5 170z" />
    <glyph glyph-name="quotedblright" unicode="&#x201d;" horiz-adv-x="488" 
d="M407.5 421.5q-40.5 -55.5 -131.5 -59.5v85q33 2 48.5 23.5t15.5 64.5h-65v179h173v-122q0 -115 -40.5 -170.5zM173 421.5q-41 -55.5 -132 -59.5v85q33 2 49 23.5t16 64.5h-66v179h174v-122q0 -115 -41 -170.5z" />
    <glyph glyph-name="quotedblbase" unicode="&#x201e;" horiz-adv-x="488" 
d="M407.5 -113.5q-40.5 -55.5 -131.5 -59.5v84q33 3 48.5 24.5t15.5 64.5h-65v179h173v-122q0 -115 -40.5 -170.5zM173 -113.5q-41 -55.5 -132 -59.5v84q33 3 49 24.5t16 64.5h-66v179h174v-122q0 -115 -41 -170.5z" />
    <glyph glyph-name="dagger" unicode="&#x2020;" horiz-adv-x="597" 
d="M388 385v-563h-179v563h-183v142h183v187h179v-187h182v-142h-182z" />
    <glyph glyph-name="daggerdbl" unicode="&#x2021;" horiz-adv-x="597" 
d="M388 150h182v-141h-182v-187h-179v187h-183v141h183v235h-183v142h183v187h179v-187h182v-142h-182v-235z" />
    <glyph glyph-name="bullet" unicode="&#x2022;" horiz-adv-x="459" 
d="M128.5 182q-46.5 27 -73.5 73.5t-27 101.5t27 101t73.5 73t100.5 27q55 0 101.5 -27t73.5 -73t27 -101t-27 -101.5t-73.5 -73.5t-101.5 -27q-54 0 -100.5 27z" />
    <glyph glyph-name="ellipsis" unicode="&#x2026;" horiz-adv-x="773" 
d="M226 179v-179h-192v179h192zM483 179v-179h-193v179h193zM739 179v-179h-192v179h192z" />
    <glyph glyph-name="perthousand" unicode="&#x2030;" horiz-adv-x="1278" 
d="M357 520q0 -194 -168 -194q-169 0 -169 194t169 194q168 0 168 -194zM293 0h-100l395 700h101zM231.5 427q15.5 25 15.5 93q0 67 -15.5 92.5t-42.5 25.5t-42.5 -25.5t-15.5 -92.5q0 -68 15.5 -93t42.5 -25t42.5 25zM1258 180q0 -194 -169 -194q-168 0 -168 194
q0 195 168 195q169 0 169 -195zM862 180q0 -194 -169 -194q-168 0 -168 194q0 195 168 195q169 0 169 -195zM736.5 88q15.5 25 15.5 92q0 68 -15.5 93.5t-43.5 25.5q-27 0 -42.5 -25.5t-15.5 -93.5q0 -67 15.5 -92t42.5 -25q28 0 43.5 25zM1132.5 88q15.5 25 15.5 92
q0 68 -15.5 93.5t-43.5 25.5q-27 0 -42.5 -25.5t-15.5 -93.5q0 -67 15.5 -92t42.5 -25q28 0 43.5 25z" />
    <glyph glyph-name="guilsinglleft" unicode="&#x2039;" horiz-adv-x="253" 
d="M216 352l-87 -78v-4l87 -78v-171l-179 149v204l179 149v-171z" />
    <glyph glyph-name="guilsinglright" unicode="&#x203a;" horiz-adv-x="253" 
d="M37 21v171l87 78v4l-87 78v171l179 -149v-204z" />
    <glyph glyph-name="zerosuperior" unicode="&#x2070;" horiz-adv-x="453" 
d="M429 504q0 -218 -203 -218q-202 0 -202 218t202 218q203 0 203 -218zM260.5 385q14.5 8 25 35.5t10.5 83.5t-10.5 83.5t-25 35t-34.5 7.5t-34.5 -7.5t-24.5 -35t-10 -83.5t10 -83.5t24.5 -35.5t34.5 -8t34.5 8z" />
    <glyph glyph-name="foursuperior" unicode="&#x2074;" horiz-adv-x="430" 
d="M411 379h-49v-85h-127v85h-214v102l172 233h169v-246h49v-89zM235 468v152h-4l-109 -148v-4h113z" />
    <glyph glyph-name="fivesuperior" unicode="&#x2075;" horiz-adv-x="413" 
d="M310 564.5q36 -14.5 60 -47t24 -83.5q0 -78 -53.5 -113t-137.5 -35q-77 0 -128 30.5t-62 92.5l127 13q3 -18 20 -31.5t43 -13.5q29 0 46 14.5t17 43.5q0 30 -17 44.5t-46 14.5q-18 0 -33.5 -8t-25.5 -20h-120l23 248h315v-95h-212l-8 -71h4q32 31 91 31q37 0 73 -14.5z
" />
    <glyph glyph-name="sixsuperior" unicode="&#x2076;" horiz-adv-x="435" 
d="M329.5 554.5q36.5 -16.5 59.5 -47t23 -71.5q0 -51 -28 -85t-70.5 -49.5t-89.5 -15.5q-52 0 -89 11.5t-62 37.5q-26 26 -37.5 68t-11.5 102q0 128 60.5 172.5t138.5 44.5q71 0 119.5 -30t63.5 -82l-124 -10q-13 37 -62 37q-29 0 -51 -24.5t-22 -66.5v-4h4q18 14 45 21.5
t57 7.5q40 0 76.5 -16.5zM269.5 385q19.5 15 19.5 46q0 29 -20 44.5t-50 15.5q-31 0 -51.5 -15.5t-20.5 -44.5q0 -30 20.5 -45.5t51.5 -15.5t50.5 15z" />
    <glyph glyph-name="sevensuperior" unicode="&#x2077;" horiz-adv-x="395" 
d="M379 666q0 -37 -15 -64.5t-47 -67.5q-29 -36 -47.5 -64.5t-31.5 -70.5t-13 -97v-8h-137v17q0 60 18.5 110.5t43.5 86.5t61 77q24 27 22 25v4h-219v100h365v-48z" />
    <glyph glyph-name="eightsuperior" unicode="&#x2078;" horiz-adv-x="437" 
d="M350.5 692.5q51.5 -29.5 51.5 -88.5q0 -58 -69 -83v-4q81 -31 81 -106q0 -62 -54 -93.5t-142 -31.5t-141.5 31.5t-53.5 93.5q0 75 80 106v4q-68 25 -68 83t51.5 88t131.5 30q81 0 132.5 -29.5zM266.5 557.5q19.5 12.5 19.5 36.5q0 23 -20 36t-48 13q-27 0 -47 -13
t-20 -36t19.5 -36t47.5 -13q29 0 48.5 12.5zM271 384.5q21 13.5 21 40.5q0 26 -22 40t-52 14t-51.5 -14t-21.5 -40q0 -27 21 -40.5t52 -13.5q32 0 53 13.5z" />
    <glyph glyph-name="ninesuperior" unicode="&#x2079;" horiz-adv-x="435" 
d="M105.5 453.5q-36.5 16.5 -59.5 47t-23 71.5q0 51 28 85t70.5 49.5t89.5 15.5q52 0 89 -11.5t62 -37.5q26 -26 37.5 -68t11.5 -102q0 -128 -60.5 -172.5t-138.5 -44.5q-71 0 -119.5 30t-63.5 82l123 10q15 -37 63 -37q29 0 50.5 24t21.5 67v4h-4q-17 -14 -43.5 -21.5
t-57.5 -7.5q-40 0 -76.5 16.5zM165 622.5q-20 -15.5 -20 -45.5q0 -29 20.5 -44.5t50.5 -15.5q31 0 51.5 15.5t20.5 44.5q0 30 -20.5 45.5t-51.5 15.5t-51 -15.5z" />
    <glyph glyph-name="franc" unicode="&#x20a3;" horiz-adv-x="746" 
d="M582 0l-78 137h-33v-137h-144v289h-119v-289h-176v700h543v-143h-367v-132h350q82 0 129.5 -38.5t47.5 -107.5q0 -45 -22.5 -77.5t-63.5 -49.5l99 -152h-166zM575 245.5q13 11.5 13 30.5q0 20 -13 31.5t-37 11.5h-67v-85h67q24 0 37 11.5z" />
    <glyph glyph-name="Euro" unicode="&#x20ac;" horiz-adv-x="687" 
d="M349.5 162.5q40.5 -29.5 99.5 -29.5q46 0 92.5 17t87.5 58v-181q-85 -41 -182 -41q-140 0 -230.5 69t-117.5 192h-87l46 76h31v28v25h-77l45 77h43q27 122 117.5 191t225.5 69q136 0 232 -68l-82 -133q-65 55 -146 55q-58 0 -98 -29.5t-59 -84.5h270l-48 -77h-237v-25
q0 -19 1 -28h205l-46 -76h-145q19 -55 59.5 -84.5z" />
    <glyph glyph-name="uni2116" unicode="&#x2116;" horiz-adv-x="1119" 
d="M471 0l-262 465h-4v-465h-173v714h217l258 -455h4v455h173v-714h-213zM1048.5 675q48.5 -46 48.5 -129t-48.5 -129t-135.5 -46q-88 0 -136 46t-48 129t48 129t136 46q87 0 135.5 -46zM957.5 476q15.5 21 15.5 70q0 48 -15.5 69t-44.5 21t-44.5 -21t-15.5 -69
q0 -49 15.5 -70t44.5 -21t44.5 21zM729 0v118h368v-118h-368z" />
    <glyph glyph-name="trademark" unicode="&#x2122;" horiz-adv-x="857" 
d="M249 630v-274h-103v274h-114v84h332v-84h-115zM825 356h-95v239h-4l-68 -239h-71l-69 239h-4v-239h-93v358h151l50 -201h4l49 201h150v-358z" />
    <glyph glyph-name="Ohm" unicode="&#x2126;" horiz-adv-x="723" 
d="M703 0h-310v209q53 19 81.5 70t28.5 120q0 86 -39 134t-103 48t-102.5 -48t-38.5 -134q0 -69 29 -120.5t81 -69.5v-209h-310v138h200v28q-90 28 -140.5 93.5t-50.5 165.5q0 91 44 160t120 107t168 38q93 0 169 -38t120 -107t44 -160q0 -101 -50.5 -165.5t-139.5 -92.5
v-29h199v-138z" />
    <glyph glyph-name="partialdiff" unicode="&#x2202;" horiz-adv-x="616" 
d="M433.5 696.5q70.5 -33.5 116 -117t45.5 -222.5q0 -187 -77.5 -278.5t-225.5 -91.5q-75 0 -136.5 25.5t-98.5 77t-37 126.5q0 87 37 141.5t94 77.5t121 23q81 0 131 -38q-9 96 -46.5 134.5t-94.5 38.5q-85 0 -165 -58l-46 125q91 70 230 70q82 0 152.5 -33.5zM372.5 164.5
q26.5 49.5 31.5 135.5q-31 37 -88 37q-49 0 -82.5 -30t-33.5 -91q0 -46 26 -73.5t63 -27.5q57 0 83.5 49.5z" />
    <glyph glyph-name="emptyset" unicode="&#x2205;" horiz-adv-x="793" 
d="M731 504.5q31 -69.5 31 -147.5q0 -99 -49 -183t-133 -133t-183 -49q-102 0 -189 52l-40 -52h-93l73 97q-55 51 -85.5 120.5t-30.5 147.5q0 99 49 183t133 133t183 49q103 0 189 -53l40 53h93l-74 -98q55 -50 86 -119.5zM139 247q21 -52 59 -92l339 450q-64 39 -140 39
t-140 -38.5t-101.5 -104.5t-37.5 -144q0 -58 21 -110zM536.5 108.5q63.5 38.5 101 104.5t37.5 144q0 58 -21 109.5t-59 91.5l-339 -449q64 -39 141 -39q76 0 139.5 38.5z" />
    <glyph glyph-name="increment" unicode="&#x2206;" horiz-adv-x="762" 
d="M-2 0l255 714h256l254 -714h-765zM378 558h-4l-132 -410h270z" />
    <glyph glyph-name="product" unicode="&#x220f;" horiz-adv-x="675" 
d="M464 563h-253v-711h-179v862h611v-862h-179v711z" />
    <glyph glyph-name="summation" unicode="&#x2211;" horiz-adv-x="662" 
d="M32 -148v126l269 306l-255 305v125h580v-152h-334l220 -265l-258 -293h387v-152h-609z" />
    <glyph glyph-name="minus" unicode="&#x2212;" horiz-adv-x="483" 
d="M457 268h-431v114h431v-114z" />
    <glyph glyph-name="bulletoperator" unicode="&#x2219;" horiz-adv-x="282" 
d="M65.5 244q-31.5 32 -31.5 76t31.5 75.5t75.5 31.5t75.5 -31.5t31.5 -75.5t-31.5 -76t-75.5 -32t-75.5 32z" />
    <glyph glyph-name="radical" unicode="&#x221a;" horiz-adv-x="540" 
d="M193 -148l-96 336l-63 -32l-29 59l167 85l93 -322h2l181 722h87l-212 -848h-130z" />
    <glyph glyph-name="infinity" unicode="&#x221e;" horiz-adv-x="725" 
d="M613 452q38 -24 58 -63t20 -81q0 -44 -20 -83.5t-57.5 -64t-87.5 -24.5q-97 0 -169 90q-74 -90 -159 -90q-49 0 -86.5 24.5t-57.5 64t-20 83.5q0 42 20 81t57.5 63t86.5 24q96 0 168 -91q74 91 160 91q49 0 87 -24zM259.5 237q25.5 20 52.5 61q-29 50 -54 73t-58 23
q-39 0 -59.5 -24t-20.5 -62q0 -39 21.5 -65t58.5 -26q34 0 59.5 20zM582.5 243q21.5 26 21.5 65q0 38 -20.5 62t-59.5 24q-35 0 -61 -19.5t-52 -60.5q28 -50 54 -73.5t59 -23.5q37 0 58.5 26z" />
    <glyph glyph-name="integral" unicode="&#x222b;" horiz-adv-x="442" 
d="M432 735l-1 -120q-32 6 -56 6q-33 0 -49 -12.5t-16 -41.5v-609q0 -89 -53.5 -122t-154.5 -33q-46 0 -92 10l1 120q40 -5 56 -5q33 0 49 12.5t16 40.5v609q0 89 53 122t155 33q44 0 92 -10z" />
    <glyph glyph-name="approxequal" unicode="&#x2248;" horiz-adv-x="483" 
d="M406 452.5q28 18.5 50 45.5v-112q-51 -50 -105 -50q-13 0 -27 4.5t-28.5 10t-21.5 8.5l-73 31q-6 2 -20 8t-26 9t-24 3q-27 0 -54.5 -18t-50.5 -45v112q51 50 105 50q15 0 30.5 -5t29.5 -11t18 -8l73 -30q8 -3 21.5 -9t24.5 -9t23 -3q27 0 55 18.5zM406 272.5
q28 18.5 50 45.5v-112q-51 -50 -105 -50q-16 0 -32.5 5.5t-44.5 17.5l-73 31q-6 2 -20 8t-26 9t-24 3q-27 0 -54.5 -18t-50.5 -45v112q52 49 105 49q17 0 33.5 -5.5t44.5 -17.5l73 -30q8 -3 21.5 -9t24.5 -9t23 -3q27 0 55 18.5z" />
    <glyph glyph-name="notequal" unicode="&#x2260;" horiz-adv-x="483" 
d="M257 274h199v-89h-251l-57 -100l-69 39l35 61h-88v89h140l60 104h-200v89h252l58 99l69 -38l-36 -61h87v-89h-139z" />
    <glyph glyph-name="lessequal" unicode="&#x2264;" horiz-adv-x="521" 
d="M473 481l-307 -121v-4l307 -122v-96l-430 179v82l430 177v-95zM473 89v-89h-421v89h421z" />
    <glyph glyph-name="greaterequal" unicode="&#x2265;" horiz-adv-x="524" 
d="M51 138v96l307 122v4l-307 121v95l430 -177v-82zM51 89h421v-89h-421v89z" />
    <glyph glyph-name="lozenge" unicode="&#x25ca;" horiz-adv-x="545" 
d="M326 -30h-106l-222 388l222 388h106l221 -388zM273 643l-157 -285l157 -285l157 285z" />
    <glyph glyph-name="fi" unicode="&#xfb01;" horiz-adv-x="624" 
d="M281.5 599.5q-16.5 -12.5 -16.5 -40.5v-28h106v-111h-106v-420h-177v420h-81v111h81v50q0 89 53.5 122.5t154.5 33.5q40 0 91 -7v-120q-32 2 -56 2q-33 0 -49.5 -12.5zM597 724v-129h-178v129h178zM597 531v-531h-178v531h178z" />
    <glyph glyph-name="fl" unicode="&#xfb02;" horiz-adv-x="624" 
d="M281.5 599.5q-16.5 -12.5 -16.5 -40.5v-28h106v-111h-106v-420h-177v420h-81v111h81v50q0 89 53.5 122.5t154.5 33.5q40 0 91 -7v-120q-32 2 -56 2q-33 0 -49.5 -12.5zM597 724v-724h-177v724h177z" />
    <glyph glyph-name="i.loclTRK" horiz-adv-x="234" 
d="M207 531v-531h-177v531h177zM208 724v-129h-178v129h178z" />
    <glyph glyph-name="f_i" horiz-adv-x="624" 
d="M281.5 599.5q-16.5 -12.5 -16.5 -40.5v-28h106v-111h-106v-420h-177v420h-81v111h81v50q0 89 53.5 122.5t154.5 33.5q40 0 91 -7v-120q-32 2 -56 2q-33 0 -49.5 -12.5zM597 724v-129h-178v129h178zM597 531v-531h-178v531h178z" />
    <glyph glyph-name="f_l" horiz-adv-x="624" 
d="M281.5 599.5q-16.5 -12.5 -16.5 -40.5v-28h106v-111h-106v-420h-177v420h-81v111h81v50q0 89 53.5 122.5t154.5 33.5q40 0 91 -7v-120q-32 2 -56 2q-33 0 -49.5 -12.5zM597 724v-724h-177v724h177z" />
    <glyph glyph-name="zero.tf" horiz-adv-x="600" 
d="M509.5 626.5q70.5 -87.5 70.5 -276.5t-70.5 -276.5t-208.5 -87.5q-139 0 -209.5 87.5t-70.5 276.5t70.5 276.5t209.5 87.5q138 0 208.5 -87.5zM347 134q19 15 31.5 66t12.5 150t-12.5 150t-31.5 66t-46 15t-46.5 -15t-32 -66t-12.5 -150t12.5 -150t32 -66t46.5 -15t46 15
z" />
    <glyph glyph-name="one.tf" horiz-adv-x="600" 
d="M570 0h-510v142h164v312h-141v121h21q63 0 101.5 36.5t49.5 88.5h151v-558h164v-142z" />
    <glyph glyph-name="two.tf" horiz-adv-x="600" 
d="M572 0h-544v22q0 85 26.5 143.5t69.5 97t111 78.5l62 37q46 28 70 54.5t24 60.5q0 39 -21 60t-61 21q-42 0 -67.5 -28.5t-28.5 -86.5l-180 4q3 82 40.5 138t98.5 84t137 28q117 0 190 -54t73 -155q0 -70 -23.5 -115t-58 -70.5t-102.5 -64.5l-49 -30q-38 -23 -64.5 -44
t-27.5 -32h325v-148z" />
    <glyph glyph-name="three.tf" horiz-adv-x="600" 
d="M368.5 441.5q25.5 22.5 25.5 58.5t-23.5 57t-61.5 21t-62 -22t-28 -67l-178 9q6 106 76.5 161t191.5 55t192 -53.5t71 -149.5q0 -52 -30 -88t-79 -53v-4q55 -16 88.5 -54.5t33.5 -103.5q0 -116 -73.5 -168.5t-202.5 -52.5q-127 0 -203.5 56t-83.5 173l183 9
q7 -103 104 -103q41 0 67 24t26 66q0 43 -26.5 64.5t-75.5 21.5h-65v122l64 -1q44 0 69.5 22.5z" />
    <glyph glyph-name="four.tf" horiz-adv-x="600" 
d="M591 283v-132h-80v-151h-182v151h-311v148l237 401h256v-417h80zM157 283h172v287h-4l-168 -283v-4z" />
    <glyph glyph-name="five.tf" horiz-adv-x="600" 
d="M453.5 453q53.5 -25 89 -80.5t35.5 -139.5q0 -126 -79 -186.5t-198 -60.5q-112 0 -186.5 51t-91.5 151l181 19q5 -39 31 -62t66 -23q43 0 68.5 28t25.5 84t-25.5 84t-69.5 28q-30 0 -52.5 -12.5t-37.5 -33.5h-171l34 400h457v-142h-311l-11 -131h4q26 26 58 38.5t75 12.5
q55 0 108.5 -25z" />
    <glyph glyph-name="six.tf" horiz-adv-x="600" 
d="M461.5 435q54.5 -27 89 -78.5t34.5 -122.5q0 -85 -40.5 -140.5t-103 -81.5t-130.5 -26q-146 0 -221 90q-73 86 -73 275q0 219 87.5 290.5t206.5 71.5q102 0 171 -48.5t90 -134.5l-171 -22q-20 80 -90 80q-50 0 -84 -39.5t-34 -135.5v-7h4q29 28 68 42t84 14
q58 0 112.5 -27zM380 140.5q30 29.5 30 85.5t-30 85.5t-75 29.5t-77 -31t-32 -84t32 -84t77 -31t75 29.5z" />
    <glyph glyph-name="seven.tf" horiz-adv-x="600" 
d="M566 628q0 -41 -12 -76.5t-29.5 -64.5t-49.5 -74q-43 -62 -70 -110.5t-46.5 -119t-19.5 -162.5v-21h-194v32q0 105 33 197t78 160.5t113 154.5v4h-335v152h532v-72z" />
    <glyph glyph-name="eight.tf" horiz-adv-x="600" 
d="M506 39q79 53 79 156q0 129 -119 178v4q102 42 102 142q0 95 -76 144.5t-190 49.5t-190 -49.5t-76 -144.5q0 -100 102 -142v-4q-119 -49 -119 -178q0 -103 79 -156t204 -53t204 53zM372 572q30 -23 30 -66t-29 -66.5t-71 -23.5t-71.5 23.5t-29.5 66.5t30 66t71 23
q40 0 70 -23zM378.5 286q31.5 -25 31.5 -74t-31.5 -75t-76.5 -26q-46 0 -77 25.5t-31 75.5q0 49 31.5 74t76.5 25t76.5 -25z" />
    <glyph glyph-name="nine.tf" horiz-adv-x="600" 
d="M139 264q-54 27 -88.5 78.5t-34.5 122.5q0 85 40.5 140.5t103 81.5t130.5 26q146 0 221 -90q73 -86 73 -275q0 -219 -87.5 -290.5t-206.5 -71.5q-102 0 -171 48.5t-90 134.5l171 22q20 -80 90 -80q50 0 84 39.5t34 135.5v7h-4q-59 -56 -153 -56q-58 0 -112 27zM221 558.5
q-30 -29.5 -30 -85.5t30 -85.5t75 -29.5t76.5 31t31.5 84t-31.5 84t-76.5 31t-75 -29.5z" />
    <glyph glyph-name="caron.alt" horiz-adv-x="219" 
d="M150.5 508q-37.5 -47 -118.5 -52v76q27 2 42 19t15 44h-57v129h156v-77q0 -92 -37.5 -139z" />
    <glyph glyph-name="acute.case" horiz-adv-x="318" 
d="M29 769l87 167h177l-140 -167h-124z" />
    <glyph glyph-name="breve.case" horiz-adv-x="441" 
d="M386 838q-27 -38 -70 -58t-94 -20t-93.5 20t-69.5 58t-30 92h113q5 -31 27 -49t53 -18t53.5 18t27.5 49h113q-3 -54 -30 -92z" />
    <glyph glyph-name="caron.case" horiz-adv-x="496" 
d="M331 762h-162l-140 167h155l64 -90h4l64 90h155z" />
    <glyph glyph-name="cedilla.case" horiz-adv-x="341" 
d="M147 -163q19 0 31.5 9t12.5 25q0 29 -44 29q-14 0 -42 -8v66l76 81l97 5l-42 -44l-30 -33v-5q110 -9 110 -92q0 -52 -41 -78.5t-122 -26.5q-35 0 -67.5 7t-56.5 20l22 69q48 -24 96 -24z" />
    <glyph glyph-name="circumflex.case" horiz-adv-x="496" 
d="M248 851l-64 -89h-155l140 166h162l140 -166h-155l-64 89h-4z" />
    <glyph glyph-name="dieresis.case" horiz-adv-x="426" 
d="M181 902v-126h-152v126h152zM401 902v-126h-152v126h152z" />
    <glyph glyph-name="dotaccent.case" horiz-adv-x="232" 
d="M207 904v-128h-178v128h178z" />
    <glyph glyph-name="grave.case" horiz-adv-x="318" 
d="M293 769h-123l-141 167h177z" />
    <glyph glyph-name="hungarumlaut.case" horiz-adv-x="462" 
d="M29 769l58 167h150l-98 -167h-110zM228 769l59 167h150l-99 -167h-110z" />
    <glyph glyph-name="macron.case" horiz-adv-x="377" 
d="M29 896h323v-104h-323v104z" />
    <glyph glyph-name="ogonek.case" horiz-adv-x="287" 
d="M262 -131v-96q-28 -8 -77 -8q-76 0 -116 27t-40 78q0 42 24.5 76.5t68.5 54.5h131q-50 -27 -74.5 -53.5t-24.5 -49.5q0 -17 15 -26.5t35 -9.5q36 0 58 7z" />
    <glyph glyph-name="ring.case" horiz-adv-x="300" 
d="M64.5 784q-35.5 34 -35.5 85t35.5 85t87.5 34q51 0 87 -34t36 -85t-36 -85t-87 -34q-52 0 -87.5 34zM187.5 831.5q14.5 14.5 14.5 37.5q0 24 -14.5 38.5t-35.5 14.5t-35.5 -14.5t-14.5 -38.5q0 -23 14.5 -37.5t35.5 -14.5t35.5 14.5z" />
    <glyph glyph-name="tilde.case" horiz-adv-x="441" 
d="M296 875q-10 0 -19.5 4t-22.5 13l-34 21q-32 17 -59 17q-54 0 -89 -34.5t-43 -104.5l81 -7q9 39 38 39q17 0 42 -16l35 -21q26 -17 58 -17q55 0 90 34t43 104l-81 7q-9 -39 -39 -39z" />
    <glyph glyph-name="uni0326.case" horiz-adv-x="0" 
d="M147.5 -274q-37.5 -47 -118.5 -52v76q27 2 42 19t15 44h-57v129h156v-77q0 -92 -37.5 -139z" />
    </font>
</defs>
</svg>
