<?xml version="1.0" standalone="no"?>
<!DOCTYPE svg PUBLIC "-//W3C//DTD SVG 1.1//EN" "http://www.w3.org/Graphics/SVG/1.1/DTD/svg11.dtd" >
<svg xmlns="http://www.w3.org/2000/svg" xmlns:xlink="http://www.w3.org/1999/xlink" version="1.1">
<metadata>
Created by FontForge 20201107 at Wed May 17 13:47:45 2017
 By 
Oliver Jeschke / ogj type design
</metadata>
<defs>
<font id="SequelSans-SemiBoldHead" horiz-adv-x="593" >
  <font-face 
    font-family="Sequel Sans Semi Bold Head"
    font-weight="370"
    font-stretch="normal"
    units-per-em="1000"
    panose-1="2 11 6 3 5 0 0 2 0 4"
    ascent="800"
    descent="-200"
    x-height="529"
    cap-height="714"
    bbox="-76 -439 1204 1069"
    underline-thickness="50"
    underline-position="-100"
    unicode-range="U+000D-FB02"
  />
<missing-glyph horiz-adv-x="687" 
d="M50 -439v1508h587v-1508h-587zM562 -373v1377h-437v-1377h437zM217 508q45 35 123 35q76 0 124 -35.5t48 -100.5q0 -39 -18 -60t-51 -39q-30 -16 -40 -25.5t-10 -25.5v-3h-114v16q0 37 15 57.5t56 46.5q15 10 22.5 19t7.5 22q0 14 -10.5 23t-30.5 9q-21 0 -33.5 -14.5
t-13.5 -41.5l-127 10q7 72 52 107zM404 216v-123h-135v123h135z" />
    <glyph glyph-name=".notdef" horiz-adv-x="687" 
d="M50 -439v1508h587v-1508h-587zM562 -373v1377h-437v-1377h437zM217 508q45 35 123 35q76 0 124 -35.5t48 -100.5q0 -39 -18 -60t-51 -39q-30 -16 -40 -25.5t-10 -25.5v-3h-114v16q0 37 15 57.5t56 46.5q15 10 22.5 19t7.5 22q0 14 -10.5 23t-30.5 9q-21 0 -33.5 -14.5
t-13.5 -41.5l-127 10q7 72 52 107zM404 216v-123h-135v123h135z" />
    <glyph glyph-name=".null" horiz-adv-x="0" 
 />
    <glyph glyph-name="nonmarkingreturn" unicode="&#xd;" horiz-adv-x="168" 
 />
    <glyph glyph-name="space" unicode=" " horiz-adv-x="210" 
 />
    <glyph glyph-name="exclam" unicode="!" horiz-adv-x="293" 
d="M72 540v174h150v-174l-23 -314h-104zM226 152v-152h-159v152h159z" />
    <glyph glyph-name="quotedbl" unicode="&#x22;" horiz-adv-x="445" 
d="M54 714h127v-289h-127v289zM264 714h126v-289h-126v289z" />
    <glyph glyph-name="numbersign" unicode="#" horiz-adv-x="642" 
d="M471 283h105l-21 -95h-104l-37 -188h-102l38 188h-126l-38 -188h-100l37 188h-103l20 95h103l27 133h-105l19 97h105l38 187h101l-38 -187h126l38 187h101l-38 -187h104l-20 -97h-104zM270 416l-27 -133h127l27 133h-127z" />
    <glyph glyph-name="dollar" unicode="$" horiz-adv-x="621" 
d="M513.5 42q-72.5 -54 -185.5 -56v-100h-49v102q-110 8 -177.5 67t-79.5 162l140 15q6 -59 37 -91.5t80 -41.5v203l-50 14q-56 14 -95 33.5t-65 58t-26 101.5q0 91 66 145t170 59v78h49v-78q100 -7 160 -61t80 -150l-139 -10q-7 47 -33 75t-68 36v-181l51 -13
q68 -18 109 -37t69.5 -61t28.5 -115q0 -100 -72.5 -154zM279 605q-43 -4 -68.5 -28.5t-25.5 -60.5q0 -34 22.5 -51.5t66.5 -28.5l5 -1v170zM410 122.5q31 25.5 31 68.5q0 42 -25.5 61t-81.5 35l-6 2v-194q51 2 82 27.5z" />
    <glyph glyph-name="percent" unicode="%" horiz-adv-x="951" 
d="M338.5 663.5q45.5 -51.5 45.5 -151.5t-45.5 -151.5t-127.5 -51.5q-83 0 -127.5 51t-44.5 152t44.5 152t127.5 51q82 0 127.5 -51.5zM320 0h-86l397 700h87zM263.5 413q17.5 29 17.5 99t-17.5 99t-52.5 29t-52 -29t-17 -99t17 -99t52 -29t52.5 29zM867.5 340.5
q44.5 -51.5 44.5 -151.5q0 -101 -44.5 -152t-127.5 -51q-82 0 -126.5 51t-44.5 152q0 100 44.5 151.5t126.5 51.5q83 0 127.5 -51.5zM793 90.5q17 28.5 17 98.5t-17.5 99t-52.5 29t-52 -29t-17 -99t17 -98.5t52 -28.5q36 0 53 28.5z" />
    <glyph glyph-name="ampersand" unicode="&#x26;" horiz-adv-x="762" 
d="M525 68q-45 -39 -99.5 -60t-115.5 -21q-73 0 -135 23.5t-99 70t-37 114.5q0 69 37 117.5t108 82.5l22 11q-44 50 -60.5 85t-16.5 72q0 47 27 85t75 60t109 22q60 0 108 -22t75 -60t27 -85q0 -52 -32.5 -88t-93.5 -69l-35 -20l119 -125q16 49 16 109h121q0 -115 -46 -205
l157 -165h-167zM273.5 516q12.5 -20 45.5 -56l21 10q40 20 59 39t19 47q0 30 -20.5 52.5t-57.5 22.5t-58 -22.5t-21 -52.5q0 -20 12.5 -40zM445 152l-165 175l-13 -7q-44 -25 -66.5 -54.5t-22.5 -66.5q0 -48 35.5 -76.5t96.5 -28.5q80 0 135 58z" />
    <glyph glyph-name="quotesingle" unicode="'" horiz-adv-x="235" 
d="M54 714h127v-289h-127v289z" />
    <glyph glyph-name="parenleft" unicode="(" horiz-adv-x="321" 
d="M221.5 93.5q36.5 -97.5 99.5 -177.5l-56 -55q-101 85 -161.5 196.5t-60.5 267.5t60.5 267.5t161.5 197.5l56 -56q-63 -78 -99.5 -176.5t-36.5 -232.5t36.5 -231.5z" />
    <glyph glyph-name="parenright" unicode=")" horiz-adv-x="321" 
d="M99.5 557.5q-36.5 98.5 -99.5 176.5l56 56q101 -86 161 -197.5t60 -267.5t-60 -267t-161 -197l-56 55q63 80 99.5 177.5t36.5 231.5t-36.5 232.5z" />
    <glyph glyph-name="asterisk" unicode="*" horiz-adv-x="437" 
d="M393 462l-48 -69l-87 66l3 -114h-86l4 114l-88 -66l-48 69l108 67l-108 68l48 69l88 -66l-4 114h86l-3 -114l87 66l48 -69l-108 -68z" />
    <glyph glyph-name="plus" unicode="+" horiz-adv-x="487" 
d="M295 275v-175h-103v175h-164v100h164v175h103v-175h164v-100h-164z" />
    <glyph glyph-name="comma" unicode="," horiz-adv-x="280" 
d="M182.5 -105q-36.5 -49 -117.5 -52v70q30 2 44 23t14 64h-62v152h158v-112q0 -96 -36.5 -145z" />
    <glyph glyph-name="hyphen" unicode="-" horiz-adv-x="437" 
d="M64 345h309v-121h-309v121z" />
    <glyph glyph-name="period" unicode="." horiz-adv-x="280" 
d="M219 152v-152h-158v152h158z" />
    <glyph glyph-name="slash" unicode="/" horiz-adv-x="410" 
d="M141 0h-132l259 714h133z" />
    <glyph glyph-name="zero" unicode="0" horiz-adv-x="649" 
d="M531 627.5q76 -87.5 76 -277.5t-76 -277t-207 -87t-206.5 87t-75.5 277t75.5 277.5t206.5 87.5t207 -87.5zM423 148.5q37 53.5 37 201.5q0 149 -37.5 202.5t-98.5 53.5t-98 -53.5t-37 -202.5t37 -202t98 -53q62 0 99 53.5z" />
    <glyph glyph-name="one" unicode="1" horiz-adv-x="383" 
d="M314 0h-141v495h-141v96h21q62 0 97 31t45 78h119v-700z" />
    <glyph glyph-name="two" unicode="2" horiz-adv-x="586" 
d="M541 0h-508v27q0 79 27 134.5t67.5 90.5t98.5 71l80 51q42 26 67.5 56t25.5 70q0 50 -26.5 76t-77.5 26q-52 0 -83 -34.5t-36 -100.5l-141 7q6 77 41.5 131t92.5 81.5t126 27.5q108 0 178 -53t70 -154q0 -66 -25 -109.5t-56 -66.5t-95 -62l-69 -44q-47 -29 -72.5 -58
t-27.5 -48h343v-119z" />
    <glyph glyph-name="three" unicode="3" horiz-adv-x="607" 
d="M375.5 436q31.5 26 31.5 71t-29.5 71t-75.5 26q-45 0 -75.5 -27t-35.5 -79l-139 10q8 99 74.5 152.5t175.5 53.5q111 0 178.5 -53t67.5 -148q0 -52 -28.5 -89t-76.5 -56v-4q55 -16 89 -57.5t34 -105.5q0 -108 -72.5 -161.5t-191.5 -53.5q-117 0 -189 55.5t-84 167.5
l143 10q7 -64 41.5 -93.5t88.5 -29.5q52 0 85.5 29t33.5 78q0 53 -34 79.5t-95 26.5h-63v101h63q52 0 83.5 26z" />
    <glyph glyph-name="four" unicode="4" horiz-adv-x="611" 
d="M579 273v-107h-85v-166h-141v166h-321v118l258 416h204v-427h85zM150 273h203v323h-4l-199 -319v-4z" />
    <glyph glyph-name="five" unicode="5" horiz-adv-x="592" 
d="M428.5 451q53.5 -27 87.5 -82.5t34 -136.5t-35.5 -136.5t-94.5 -82.5t-131 -27q-105 0 -175 51t-88 147l143 14q9 -48 40.5 -75t79.5 -27q51 0 83.5 35t32.5 102t-33 101.5t-86 34.5q-68 0 -114 -50h-132l32 381h431v-115h-318l-13 -160h4q27 28 60 40.5t79 12.5
q60 0 113.5 -27z" />
    <glyph glyph-name="six" unicode="6" horiz-adv-x="621" 
d="M456 429.5q54 -26.5 89 -78t35 -123.5q0 -81 -38 -135.5t-97 -80.5t-122 -26q-68 0 -123 23.5t-92 70.5q-66 86 -66 271q0 363 280 363q91 0 156.5 -46t88.5 -130l-136 -17q-11 40 -39 65t-70 25q-60 0 -101 -47.5t-41 -166.5v-7h4q30 33 72.5 49.5t89.5 16.5
q56 0 110 -26.5zM405.5 123.5q35.5 35.5 35.5 98.5t-35.5 98t-86.5 35q-54 0 -91.5 -36t-37.5 -97t37.5 -97.5t91.5 -36.5q51 0 86.5 35.5z" />
    <glyph glyph-name="seven" unicode="7" horiz-adv-x="551" 
d="M528 640q0 -52 -21 -94.5t-67 -109.5q-45 -65 -73.5 -116t-49 -125t-20.5 -169v-27h-150v34q0 101 27 186.5t64 147.5t93 141l47 68v4h-355v120h505v-60z" />
    <glyph glyph-name="eight" unicode="8" horiz-adv-x="611" 
d="M497 39q76 53 76 157q0 66 -31 111t-87 67v4q47 20 73.5 56.5t26.5 87.5q0 64 -34.5 107t-91.5 64t-124 21t-124 -21t-91.5 -64t-34.5 -107q0 -51 26.5 -87.5t74.5 -56.5v-4q-56 -22 -87 -67t-31 -111q0 -70 36 -117t96.5 -70t134.5 -23q116 0 192 53zM388.5 589
q34.5 -26 34.5 -75t-34.5 -75t-83.5 -26t-83 26t-34 75t34.5 75t82.5 26q49 0 83.5 -26zM395.5 292q37.5 -30 37.5 -86q0 -57 -37 -87.5t-91 -30.5q-53 0 -90 30.5t-37 87.5t37 86.5t90 29.5t90.5 -30z" />
    <glyph glyph-name="nine" unicode="9" horiz-adv-x="621" 
d="M165.5 270q-53.5 26 -88.5 77.5t-35 123.5q0 81 38 136t97 81t122 26q68 0 122.5 -23.5t91.5 -71.5q67 -85 67 -270q0 -363 -281 -363q-91 0 -156 46t-89 129l136 18q12 -41 39.5 -66t69.5 -25q59 0 100.5 48t41.5 166v8h-4q-30 -34 -72 -50t-90 -16q-56 0 -109.5 26z
M215.5 576q-35.5 -35 -35.5 -98t36 -98.5t86 -35.5q54 0 91.5 36.5t37.5 97.5t-37.5 97t-91.5 36q-51 0 -86.5 -35z" />
    <glyph glyph-name="colon" unicode=":" horiz-adv-x="291" 
d="M225 506v-152h-159v152h159zM225 152v-152h-159v152h159z" />
    <glyph glyph-name="semicolon" unicode=";" horiz-adv-x="291" 
d="M225 506v-152h-159v152h159zM188 -105q-37 -49 -118 -52v70q30 2 44.5 23t14.5 64h-63v152h159v-112q0 -96 -37 -145z" />
    <glyph glyph-name="less" unicode="&#x3c;" horiz-adv-x="529" 
d="M476 577v-116l-299 -137v-4l299 -137v-116l-430 201v108z" />
    <glyph glyph-name="equal" unicode="=" horiz-adv-x="486" 
d="M28 467h430v-100h-430v100zM28 283h430v-100h-430v100z" />
    <glyph glyph-name="greater" unicode="&#x3e;" horiz-adv-x="529" 
d="M53 67v116l299 137v4l-299 137v116l430 -201v-108z" />
    <glyph glyph-name="question" unicode="?" horiz-adv-x="583" 
d="M116 674.5q70 55.5 178 55.5q73 0 129.5 -24t89 -69.5t32.5 -108.5q0 -47 -15 -79.5t-37 -52t-54 -39.5q-47 -29 -65 -55.5t-18 -69.5v-6h-129v33q0 62 24.5 101t82.5 75q32 20 47.5 42.5t15.5 56.5q0 38 -27.5 60.5t-75.5 22.5q-50 0 -82.5 -31t-45.5 -93l-136 20
q16 106 86 161.5zM370 152v-152h-158v152h158z" />
    <glyph glyph-name="at" unicode="@" horiz-adv-x="993" 
d="M653.5 -137q-71.5 -19 -146.5 -19q-132 0 -238.5 50.5t-168 145.5t-61.5 224q0 128 62.5 235t169.5 169t235 62q129 0 231 -51t159.5 -136t57.5 -183q0 -97 -39.5 -166t-103.5 -104t-136 -35q-45 0 -71 17.5t-29 49.5h-4q-22 -33 -60.5 -50t-84.5 -17q-54 0 -94.5 25.5
t-62 68t-21.5 91.5q0 67 26.5 129.5t80.5 102.5t133 40q38 0 70 -17t48 -48h4l9 47h118l-68 -318q-1 -5 -1 -15q0 -37 47 -37q37 0 73.5 28t60 79.5t23.5 118.5q0 87 -45.5 157.5t-130 111t-195.5 40.5q-100 0 -187.5 -52.5t-140 -144.5t-52.5 -204q0 -108 51 -186
t139.5 -118.5t199.5 -40.5q65 0 126.5 15.5t111.5 46.5l35 -56q-59 -37 -130.5 -56zM526 174.5q30 26.5 45.5 65t15.5 74.5q0 49 -22.5 77.5t-63.5 28.5q-43 0 -73 -26.5t-45 -65t-15 -74.5q0 -50 22 -78t64 -28t72 26.5z" />
    <glyph glyph-name="A" unicode="A" horiz-adv-x="742" 
d="M224 170l-59 -170h-159l266 714h198l267 -714h-162l-59 170h-292zM371 586h-4l-104 -302h213z" />
    <glyph glyph-name="B" unicode="B" horiz-adv-x="685" 
d="M568.5 661.5q59.5 -52.5 59.5 -140.5q0 -49 -23 -84.5t-67 -55.5v-4q54 -21 84 -63t30 -104q0 -98 -61.5 -154t-173.5 -56h-358v714h344q106 0 165.5 -52.5zM375 419q50 0 76.5 23t26.5 66t-26.5 66.5t-76.5 23.5h-166v-179h166zM470.5 144.5q28.5 25.5 28.5 71.5
t-28.5 71.5t-83.5 25.5h-178v-194h178q55 0 83.5 25.5z" />
    <glyph glyph-name="C" unicode="C" horiz-adv-x="744" 
d="M657 115.5q-42 -59.5 -111.5 -95.5t-159.5 -36q-102 0 -180.5 45t-122.5 129.5t-44 199.5q0 114 44 198.5t122.5 129t180.5 44.5q83 0 149 -31t108 -80.5t59 -106.5l-148 -23q-18 53 -61.5 86.5t-106.5 33.5q-87 0 -140.5 -64.5t-53.5 -186.5q0 -124 53.5 -188.5
t140.5 -64.5q72 0 116 43.5t59 112.5l151 -17q-13 -69 -55 -128.5z" />
    <glyph glyph-name="D" unicode="D" horiz-adv-x="738" 
d="M603 624q96 -90 96 -267t-96 -267t-261 -90h-283v714h283q165 0 261 -90zM488 176.5q58 57.5 58 180.5t-58 180.5t-168 57.5h-111v-476h111q110 0 168 57.5z" />
    <glyph glyph-name="E" unicode="E" horiz-adv-x="618" 
d="M562 424v-115h-353v-186h371v-123h-521v714h521v-119h-371v-171h353z" />
    <glyph glyph-name="F" unicode="F" horiz-adv-x="610" 
d="M209 409h353v-115h-353v-294h-150v714h521v-119h-371v-186z" />
    <glyph glyph-name="G" unicode="G" horiz-adv-x="771" 
d="M610 0v84q-37 -49 -92 -74.5t-128 -25.5q-102 0 -182 46t-124.5 130.5t-44.5 197.5t44.5 197t124.5 129.5t182 45.5q119 0 204.5 -60t119.5 -162l-151 -18q-23 57 -66.5 88t-106.5 31q-90 0 -144 -65t-54 -186q0 -123 54 -188t144 -65q76 0 126.5 44t61.5 113h-176v113
h315v-375h-107z" />
    <glyph glyph-name="H" unicode="H" horiz-adv-x="734" 
d="M675 0h-150v300h-316v-300h-150v714h150v-291h316v291h150v-714z" />
    <glyph glyph-name="I" unicode="I" horiz-adv-x="272" 
d="M61 714h150v-714h-150v714z" />
    <glyph glyph-name="J" unicode="J" horiz-adv-x="626" 
d="M492.5 46q-74.5 -62 -200.5 -62q-118 0 -191 63t-86 186q-1 22 0 36l144 13q-1 -5 -1 -16q0 -12 1 -18q8 -73 41.5 -107t91.5 -34q61 0 92 34t31 107v466h152v-476q0 -130 -74.5 -192z" />
    <glyph glyph-name="K" unicode="K" horiz-adv-x="678" 
d="M200 246v-246h-150v714h150v-295l268 295h174l-253 -272l293 -442h-180l-218 336z" />
    <glyph glyph-name="L" unicode="L" horiz-adv-x="604" 
d="M59 714h150v-588h376v-126h-526v714z" />
    <glyph glyph-name="M" unicode="M" horiz-adv-x="865" 
d="M806 0h-142v528h-4l-174 -528h-111l-174 528h-4v-528h-138v714h220l152 -492h4l152 492h219v-714z" />
    <glyph glyph-name="N" unicode="N" horiz-adv-x="739" 
d="M514 0l-313 512h-4v-512h-138v714h170l309 -503h4v503h138v-714h-166z" />
    <glyph glyph-name="O" unicode="O" horiz-adv-x="780" 
d="M572.5 685.5q79.5 -44.5 124 -129t44.5 -199.5t-44.5 -199.5t-124 -129t-182.5 -44.5q-104 0 -183.5 44.5t-123.5 129t-44 199.5t44 199.5t123.5 129t183.5 44.5q103 0 182.5 -44.5zM534 169.5q54 64.5 54 187.5t-54 187.5t-144 64.5t-144 -64.5t-54 -187.5t54 -187.5
t144 -64.5t144 64.5z" />
    <glyph glyph-name="P" unicode="P" horiz-adv-x="674" 
d="M580.5 652.5q67.5 -61.5 67.5 -169.5t-67.5 -169.5t-190.5 -61.5h-181v-252h-150v714h331q123 0 190.5 -61.5zM461.5 400.5q33.5 29.5 33.5 82.5t-33.5 82.5t-96.5 29.5h-156v-224h156q63 0 96.5 29.5z" />
    <glyph glyph-name="Q" unicode="Q" horiz-adv-x="780" 
d="M576 37q-74 -53 -186 -53q-104 0 -183.5 44.5t-123.5 129t-44 199.5t44 199.5t123.5 129t183.5 44.5q103 0 182.5 -44.5t124 -129t44.5 -199.5q0 -140 -65 -228l119 -160h-171zM534 169.5q54 64.5 54 187.5t-54 187.5t-144 64.5t-144 -64.5t-54 -187.5t54 -187.5
t144 -64.5t144 64.5z" />
    <glyph glyph-name="R" unicode="R" horiz-adv-x="698" 
d="M354 261h-145v-261h-150v714h349q122 0 190 -60.5t68 -165.5q0 -80 -39.5 -135.5t-113.5 -77.5l169 -275h-175zM385 380q63 0 96 28t33 80q0 51 -33 79t-96 28h-176v-215h176z" />
    <glyph glyph-name="S" unicode="S" horiz-adv-x="670" 
d="M420.5 588q-38.5 29 -101.5 29q-57 0 -91 -25t-34 -65q0 -34 25 -51.5t75 -28.5l117 -28q74 -19 118.5 -38t75 -62.5t30.5 -119.5q0 -71 -39 -119.5t-105.5 -72t-148.5 -23.5q-134 0 -219.5 61.5t-100.5 175.5l148 15q8 -71 55 -104.5t119 -33.5q61 0 99.5 25.5
t38.5 70.5q0 30 -14 47.5t-38.5 27.5t-66.5 21l-116 29q-62 16 -104 35.5t-70 59.5t-28 106q0 65 36 112.5t99.5 72.5t142.5 25q119 0 194.5 -56t97.5 -161l-146 -10q-10 56 -48.5 85z" />
    <glyph glyph-name="T" unicode="T" horiz-adv-x="662" 
d="M406 588v-588h-150v588h-231v126h612v-126h-231z" />
    <glyph glyph-name="U" unicode="U" horiz-adv-x="728" 
d="M629.5 109.5q-39.5 -62.5 -108.5 -94t-157 -31.5t-157 31.5t-108.5 94t-39.5 153.5v451h150v-437q0 -88 39 -129t116 -41q76 0 115.5 41t39.5 129v437h150v-451q0 -91 -39.5 -153.5z" />
    <glyph glyph-name="V" unicode="V" horiz-adv-x="712" 
d="M443 0h-175l-260 714h161l186 -554h4l185 554h159z" />
    <glyph glyph-name="W" unicode="W" horiz-adv-x="956" 
d="M480 518h-4l-107 -518h-183l-171 714h154l111 -535h4l109 535h168l109 -535h4l112 535h155l-172 -714h-180z" />
    <glyph glyph-name="X" unicode="X" horiz-adv-x="673" 
d="M334 259l-156 -259h-165l237 370l-219 344h170l137 -233l140 233h164l-221 -342l239 -372h-170z" />
    <glyph glyph-name="Y" unicode="Y" horiz-adv-x="684" 
d="M417 273v-273h-150v273l-257 441h164l169 -312l170 312h161z" />
    <glyph glyph-name="Z" unicode="Z" horiz-adv-x="633" 
d="M600 126v-126h-570v126l378 462h-356v126h549v-126l-378 -462h377z" />
    <glyph glyph-name="bracketleft" unicode="[" horiz-adv-x="337" 
d="M317 -32v-108h-247v895h247v-108h-114v-679h114z" />
    <glyph glyph-name="backslash" unicode="\" horiz-adv-x="410" 
d="M269 0l-260 714h133l259 -714h-132z" />
    <glyph glyph-name="bracketright" unicode="]" horiz-adv-x="337" 
d="M20 755h247v-895h-247v108h114v679h-114v108z" />
    <glyph glyph-name="asciicircum" unicode="^" horiz-adv-x="561" 
d="M283 584h-4l-107 -231h-113l166 347h112l165 -347h-113z" />
    <glyph glyph-name="underscore" unicode="_" horiz-adv-x="512" 
d="M-19 -110h549v-50h-549v50z" />
    <glyph glyph-name="grave" unicode="`" horiz-adv-x="332" 
d="M283 589h-103l-127 161h147z" />
    <glyph glyph-name="a" unicode="a" horiz-adv-x="565" 
d="M381 27.5q-4 19.5 -4 46.5q-22 -41 -70.5 -63.5t-104.5 -22.5q-47 0 -87.5 19t-64.5 54.5t-24 83.5q0 81 54.5 120t164.5 52q77 10 104 22.5t27 37.5q0 30 -23 47.5t-69 17.5q-38 0 -67 -20t-41 -59l-130 20q17 75 82 117t160 42q115 0 171.5 -46t56.5 -125v-265
q0 -46 2.5 -68.5t11.5 -37.5h-138q-7 8 -11 27.5zM335.5 244.5q-28.5 -6.5 -73.5 -12.5q-42 -7 -68 -26.5t-26 -54.5q0 -32 20.5 -49.5t56.5 -17.5q31 0 61 13t50 40.5t20 68.5v55q-12 -10 -40.5 -16.5z" />
    <glyph glyph-name="b" unicode="b" horiz-adv-x="616" 
d="M474.5 508q52.5 -34 82 -97.5t29.5 -146.5t-30 -145.5t-83 -96.5t-120 -34q-54 0 -96.5 20t-65.5 61h-4v-69h-134v724h140v-256h4q23 35 63.5 54.5t95.5 19.5q66 0 118.5 -34zM408.5 138.5q34.5 43.5 34.5 125.5q0 83 -34.5 127t-94.5 44t-94.5 -44.5t-34.5 -126.5
t34.5 -125.5t94.5 -43.5t94.5 43.5z" />
    <glyph glyph-name="c" unicode="c" horiz-adv-x="572" 
d="M373.5 122q27.5 30 37.5 73l142 -16q-20 -79 -82.5 -135t-175.5 -56q-81 0 -141 33.5t-92 96t-32 146.5t32 147t92 97t141 34q110 0 170 -51.5t80 -115.5l-136 -31q-29 93 -114 93q-57 0 -89.5 -44.5t-32.5 -128.5q0 -83 32.5 -127.5t89.5 -44.5q51 0 78.5 30z" />
    <glyph glyph-name="d" unicode="d" horiz-adv-x="612" 
d="M356 522.5q41 -19.5 64 -54.5h4v256h139v-724h-133v69h-4q-23 -41 -65.5 -61t-97.5 -20q-67 0 -120 34t-83 96.5t-30 145.5t30 146t82.5 97.5t118.5 34.5q54 0 95 -19.5zM396.5 138.5q34.5 43.5 34.5 125.5t-34.5 126.5t-94.5 44.5t-94.5 -44.5t-34.5 -126.5t34.5 -125.5
t94.5 -43.5t94.5 43.5z" />
    <glyph glyph-name="e" unicode="e" horiz-adv-x="590" 
d="M472 38.5q-63 -50.5 -176 -50.5q-81 0 -141 33.5t-92.5 96t-32.5 146.5q0 85 32 147.5t91.5 96.5t141.5 34q79 0 139 -32t93 -94.5t33 -149.5l-1 -31h-386q2 -67 35 -107.5t88 -40.5q51 0 78 24t38 58l142 -12q-19 -68 -82 -118.5zM210.5 410q-31.5 -34 -35.5 -85h241
q-4 52 -35.5 85.5t-85.5 33.5q-53 0 -84.5 -34z" />
    <glyph glyph-name="f" unicode="f" horiz-adv-x="375" 
d="M253 618.5q-16 -12.5 -16 -44.5v-45h111v-94h-111v-435h-140v435h-84v94h84v61q0 81 46 113.5t131 32.5q33 0 87 -6v-102q-48 3 -61 3q-31 0 -47 -12.5z" />
    <glyph glyph-name="g" unicode="g" horiz-adv-x="607" 
d="M558 40q0 -124 -72 -180t-191 -56q-99 0 -167 42t-92 131l138 17q12 -45 42 -65.5t79 -20.5q123 0 123 136v51h-4q-23 -33 -62.5 -50t-93.5 -17q-65 0 -116.5 31.5t-81 90t-29.5 135.5t29.5 135.5t82 90t118.5 31.5q53 0 94.5 -19t64.5 -57h4v63h134v-489zM391 174.5
q34 41.5 34 110.5q0 68 -34 109t-91 41q-58 0 -92 -41t-34 -109q0 -69 34 -110.5t92 -41.5q57 0 91 41.5z" />
    <glyph glyph-name="h" unicode="h" 
d="M197 459q60 83 164 83q79 0 131 -49t52 -144v-349h-140v313q0 62 -24.5 89t-74.5 27q-29 0 -55 -17.5t-41.5 -51t-15.5 -78.5v-282h-140v724h140v-265h4z" />
    <glyph glyph-name="i" unicode="i" horiz-adv-x="246" 
d="M193 529v-529h-140v529h140zM193 724v-120h-140v120h140z" />
    <glyph glyph-name="j" unicode="j" horiz-adv-x="246" 
d="M42 -74q11 8 11 34v569h140v-594q0 -53 -15 -81.5t-44.5 -39t-78.5 -10.5q-72 0 -85 2v113q13 -1 38 -1q23 0 34 8zM193 724v-120h-140v120h140z" />
    <glyph glyph-name="k" unicode="k" horiz-adv-x="563" 
d="M193 0h-140v724h140v-400l191 205h162l-198 -203l220 -326h-162l-153 233l-60 -61v-172z" />
    <glyph glyph-name="l" unicode="l" horiz-adv-x="250" 
d="M195 724v-724h-140v724h140z" />
    <glyph glyph-name="m" unicode="m" horiz-adv-x="910" 
d="M811 493q50 -49 50 -144v-349h-140v313q0 62 -23 89t-68 27q-43 0 -73 -36.5t-30 -104.5v-288h-140v313q0 62 -23 89t-68 27q-43 0 -73 -36.5t-30 -104.5v-288h-140v529h134v-71h4q58 84 159 84q51 0 91.5 -22t62.5 -66q36 42 78 65t102 23q77 0 127 -49z" />
    <glyph glyph-name="n" unicode="n" 
d="M191 459q59 83 167 83q81 0 133.5 -49t52.5 -144v-349h-140v313q0 62 -24.5 89t-74.5 27q-47 0 -79.5 -36.5t-32.5 -104.5v-288h-140v529h134v-70h4z" />
    <glyph glyph-name="o" unicode="o" horiz-adv-x="602" 
d="M445 508q61 -34 93.5 -97t32.5 -147t-32.5 -146.5t-93.5 -96t-144 -33.5t-144.5 33.5t-94 96t-32.5 146.5q0 85 32.5 147.5t94 96.5t144.5 34t144 -34zM395 137q34 44 34 127q0 84 -34 128.5t-94 44.5t-94 -44.5t-34 -128.5q0 -83 34 -127t94 -44t94 44z" />
    <glyph glyph-name="p" unicode="p" horiz-adv-x="616" 
d="M197 62h-4v-246h-140v713h134v-69h4q23 42 65.5 62t96.5 20q67 0 120 -34t83 -97t30 -146t-29.5 -146t-82 -97t-118.5 -34q-111 0 -159 74zM219.5 391q-34.5 -44 -34.5 -126t34.5 -126t94.5 -44t94.5 43.5t34.5 126.5q0 82 -34.5 126t-94.5 44t-94.5 -44z" />
    <glyph glyph-name="q" unicode="q" horiz-adv-x="612" 
d="M142.5 22q-52.5 34 -82.5 97t-30 146t30 146t83 97t120 34q55 0 97 -20t66 -62h4v69h133v-713h-139v246h-4q-48 -74 -159 -74q-66 0 -118.5 34zM207.5 391q-34.5 -44 -34.5 -126t34.5 -126t94.5 -44t94.5 44t34.5 126t-34.5 126t-94.5 44t-94.5 -44z" />
    <glyph glyph-name="r" unicode="r" horiz-adv-x="401" 
d="M187 448h4q22 43 62.5 68.5t96.5 25.5q20 0 37 -5v-130q-6 0 -23 2t-32 2q-139 0 -139 -144v-267h-140v529h134v-81z" />
    <glyph glyph-name="s" unicode="s" horiz-adv-x="533" 
d="M328 428q-29 21 -68 21t-62.5 -16.5t-23.5 -46.5q0 -26 23 -38t70 -20l54 -8q88 -15 137.5 -49t49.5 -114q0 -84 -67 -126.5t-176 -42.5q-104 0 -171 44.5t-81 121.5l130 19q10 -46 41.5 -69.5t81.5 -23.5q45 0 72 19t27 52q0 27 -25 41t-74 22l-58 9q-79 13 -127 47
t-48 110q0 49 30.5 86t82.5 56.5t114 19.5q92 0 156.5 -43t76.5 -112l-128 -18q-8 38 -37 59z" />
    <glyph glyph-name="t" unicode="t" horiz-adv-x="369" 
d="M344 109v-109q-28 -2 -92 -2q-57 0 -90 10.5t-49 38t-16 79.5v309h-84v94h84v148h140v-148h111v-94h-111v-274q0 -33 13 -42.5t49 -9.5h45z" />
    <glyph glyph-name="u" unicode="u" 
d="M406 70q-58 -82 -167 -82q-81 0 -133.5 48.5t-52.5 144.5v348h140v-312q0 -62 24.5 -89t74.5 -27q47 0 79.5 36.5t32.5 103.5v288h140v-529h-134v70h-4z" />
    <glyph glyph-name="v" unicode="v" horiz-adv-x="552" 
d="M193 0l-193 529h152l123 -375h4l124 375h149l-194 -529h-165z" />
    <glyph glyph-name="w" unicode="w" horiz-adv-x="859" 
d="M687 0h-156l-101 362h-4l-102 -362h-152l-172 529h154l100 -370h4l96 370h156l96 -370h4l101 370h148z" />
    <glyph glyph-name="x" unicode="x" horiz-adv-x="538" 
d="M269 173l-110 -173h-155l179 267l-168 262h156l99 -163l99 163h153l-168 -260l180 -269h-160z" />
    <glyph glyph-name="y" unicode="y" horiz-adv-x="552" 
d="M356 0q-30 -84 -63 -126.5t-69 -56t-87 -13.5q-56 0 -84 3v116q28 -4 62 -4q35 0 53.5 15t34.5 54l7 17l-212 524h152l129 -362h4l116 362h150z" />
    <glyph glyph-name="z" unicode="z" horiz-adv-x="511" 
d="M32 113l271 305h-257v111h434v-112l-271 -306h271v-111h-448v113z" />
    <glyph glyph-name="braceleft" unicode="{" horiz-adv-x="381" 
d="M241 346q-24 -28 -71 -37v-4q95 -17 95 -114v-167q0 -27 9 -41.5t39 -14.5h48v-108h-93q-71 0 -103 30t-32 92v186q0 48 -21 65.5t-60 17.5v112q39 0 60 18t21 66v185q0 63 32 93t103 30h93v-108h-48q-30 0 -39 -14.5t-9 -41.5v-167q0 -50 -24 -78z" />
    <glyph glyph-name="bar" unicode="|" horiz-adv-x="312" 
d="M86 -227v1025h140v-1025h-140z" />
    <glyph glyph-name="braceright" unicode="}" horiz-adv-x="381" 
d="M107 632.5q-9 14.5 -40 14.5h-47v108h93q70 0 102.5 -30.5t32.5 -92.5v-185q0 -48 21 -66t60 -18v-112q-39 0 -60 -17.5t-21 -65.5v-186q0 -62 -32.5 -92t-102.5 -30h-93v108h47q31 0 40 14.5t9 41.5v167q0 97 95 114v4q-47 9 -71 37t-24 78v167q0 27 -9 41.5z" />
    <glyph glyph-name="asciitilde" unicode="~" horiz-adv-x="486" 
d="M408 349.5q28 18.5 50 46.5v-115q-51 -51 -105 -51q-21 0 -39 5.5t-41 17.5l-70 33q-22 11 -37.5 16t-32.5 5q-27 0 -55 -18.5t-50 -46.5v115q51 51 105 51q21 0 39 -5.5t41 -17.5l70 -33q22 -11 37.5 -16t32.5 -5q27 0 55 18.5z" />
    <glyph glyph-name="uni00A0" unicode="&#xa0;" horiz-adv-x="168" 
 />
    <glyph glyph-name="exclamdown" unicode="&#xa1;" horiz-adv-x="291" 
d="M223 386h-156v148h156v-148zM220 -180h-150v173l23 315h104l23 -315v-173z" />
    <glyph glyph-name="cent" unicode="&#xa2;" horiz-adv-x="572" 
d="M477 48.5q-56 -53.5 -158 -60.5v-89h-49v89q-112 8 -176 82t-64 194q0 121 64 195t176 82v75h49v-75q99 -6 153 -56t73 -110l-136 -31q-25 78 -90 91v-341q70 13 92 100l142 -17q-20 -75 -76 -128.5zM198.5 147q25.5 -43 71.5 -52v339q-46 -9 -71.5 -52.5t-25.5 -117.5
t25.5 -117z" />
    <glyph glyph-name="sterling" unicode="&#xa3;" horiz-adv-x="645" 
d="M574.5 0.5q-32.5 -14.5 -68.5 -14.5q-52 0 -99.5 21t-98.5 58q-20 -39 -58 -59t-86 -20q-63 0 -100.5 32t-37.5 90t35.5 88t87.5 30q31 0 65 -13q-4 38 -27 75h-142v76h97q-27 37 -42 73t-15 75q0 65 33.5 111t89.5 68.5t124 22.5q108 0 181.5 -57.5t86.5 -176.5h-136
q-7 60 -41.5 92.5t-82.5 32.5q-51 0 -79.5 -28.5t-28.5 -77.5q0 -31 14 -58t47 -77h176v-76h-135q21 -39 21 -77q0 -28 -8 -52q48 -28 77.5 -41t58.5 -13t54.5 12.5t47.5 44.5l42 -114q-20 -33 -52.5 -47.5zM194 80.5q14 15.5 19 46.5q-32 22 -51 22q-17 0 -28.5 -12
t-11.5 -31t11.5 -30t29.5 -11q17 0 31 15.5z" />
    <glyph glyph-name="currency" unicode="&#xa4;" horiz-adv-x="606" 
d="M507 224l69 -68l-66 -61l-66 66q-64 -43 -141 -43t-141 43l-66 -66l-66 61l69 68q-46 65 -46 144t46 144l-69 68l66 61l66 -66q64 43 141 43t141 -43l66 66l66 -61l-69 -68q46 -65 46 -144t-46 -144zM373 239q32 20 50.5 54.5t18.5 74.5t-18.5 74.5t-50.5 54.5t-70 20
t-70 -20t-50.5 -54.5t-18.5 -74.5t18.5 -74.5t50.5 -54.5t70 -20t70 20z" />
    <glyph glyph-name="yen" unicode="&#xa5;" horiz-adv-x="697" 
d="M607 407v-76h-151l-38 -61h189v-75h-189v-195h-139v195h-193v75h192l-38 61h-154v76h107l-183 293h152l188 -313l188 313h149l-184 -293h104z" />
    <glyph glyph-name="brokenbar" unicode="&#xa6;" horiz-adv-x="312" 
d="M86 362v436h140v-436h-140zM86 -227v437h140v-437h-140z" />
    <glyph glyph-name="section" unicode="&#xa7;" horiz-adv-x="703" 
d="M616 152.5q-28 -37.5 -77 -56.5q46 -46 46 -121q0 -93 -64.5 -137t-167.5 -44q-106 0 -172.5 50t-72.5 143l141 14q3 -56 32 -80t72 -24q42 0 65.5 19t23.5 56q0 35 -17.5 52.5t-49.5 32.5l-172 74q-76 32 -110 69.5t-34 101.5q0 52 30.5 87t82.5 52q-46 44 -46 115
q0 84 61.5 128.5t158.5 44.5q99 0 157.5 -45.5t67.5 -129.5l-136 -8q-10 81 -89 81q-37 0 -58 -18.5t-21 -49.5q0 -46 52 -66l159 -72q60 -26 95 -48.5t53 -54t18 -77.5q0 -51 -28 -88.5zM443 158q28 6 42.5 26t14.5 45q0 52 -66 80l-164 71q-4 2 -5 2q-33 -5 -49.5 -23.5
t-16.5 -44.5q0 -25 15 -43.5t37 -27.5l168 -74z" />
    <glyph glyph-name="dieresis" unicode="&#xa8;" horiz-adv-x="437" 
d="M178 719v-115h-125v115h125zM388 719v-115h-125v115h125z" />
    <glyph glyph-name="copyright" unicode="&#xa9;" horiz-adv-x="864" 
d="M245 34q-86 50 -136 136t-50 187t50 187t136 136t187 50t187 -50t136 -136t50 -187t-50 -187t-136 -136t-187 -50t-187 50zM583 95.5q69 40.5 110 110t41 151.5t-41 151t-110 110t-151 41t-151.5 -41t-110 -110t-40.5 -151t40.5 -151.5t110 -110t151.5 -40.5t151 40.5z
M547 208.5q-46 -38.5 -114 -38.5q-80 0 -129.5 50t-49.5 138q0 87 49.5 136.5t129.5 49.5q65 0 109.5 -34.5t56.5 -83.5l-94 -12q-8 26 -26.5 41.5t-45.5 15.5q-37 0 -60 -27.5t-23 -85.5q0 -59 23 -87t60 -28q30 0 49.5 19t26.5 51l95 -8q-11 -58 -57 -96.5z" />
    <glyph glyph-name="ordfeminine" unicode="&#xaa;" horiz-adv-x="394" 
d="M247 427q-13 -27 -43 -41.5t-67 -14.5q-46 0 -79 27t-33 72q0 52 34 76.5t103 33.5q50 7 67.5 14.5t17.5 22.5q0 18 -13.5 27.5t-39.5 9.5q-22 0 -39 -12t-24 -35l-93 12q11 49 53 76.5t105 27.5q75 0 113 -29.5t38 -82.5v-167q0 -28 1.5 -42t7.5 -23h-100q-9 11 -9 48z
M215.5 530.5q-23.5 -4.5 -34.5 -6.5q-25 -4 -39 -16t-14 -32q0 -19 12 -29t32 -10q28 0 51.5 18.5t23.5 53.5v31q-8 -5 -31.5 -9.5zM20 0v100h353v-100h-353z" />
    <glyph glyph-name="guillemotleft" unicode="&#xab;" horiz-adv-x="491" 
d="M450 364l-99 -89v-4l99 -90v-139l-179 153v155l179 152v-138zM226 364l-99 -89v-4l99 -90v-139l-179 153v155l179 152v-138z" />
    <glyph glyph-name="logicalnot" unicode="&#xac;" horiz-adv-x="487" 
d="M355 140v174h-327v100h431v-274h-104z" />
    <glyph glyph-name="registered" unicode="&#xae;" horiz-adv-x="864" 
d="M619 680q86 -50 136 -136t50 -187t-50 -187t-136 -136t-187 -50t-187 50t-136 136t-50 187t50 187t136 136t187 50t187 -50zM583 95.5q69 40.5 110 110t41 151.5t-41 151t-110 110t-151 41t-151.5 -41t-110 -110t-40.5 -151t40.5 -151.5t110 -110t151.5 -40.5t151 40.5z
M576 351q-18 -28 -52 -41l80 -132h-107l-69 122h-58v-122h-93v358h183q63 0 98.5 -31t35.5 -86q0 -40 -18 -68zM442 371q28 0 42.5 12.5t14.5 35.5q0 21 -15 33.5t-42 12.5h-72v-94h72z" />
    <glyph glyph-name="macron" unicode="&#xaf;" horiz-adv-x="410" 
d="M53 716h308v-91h-308v91z" />
    <glyph glyph-name="degree" unicode="&#xb0;" horiz-adv-x="422" 
d="M135 437q-35 19 -55.5 53t-20.5 76t20.5 76.5t55.5 53.5t76 19t76 -19t55.5 -53.5t20.5 -76.5t-20.5 -76t-55.5 -53t-76 -19t-76 19zM264 510.5q21 22.5 21 55.5t-21 55.5t-53 22.5t-53 -22.5t-21 -55.5t21 -55.5t53 -22.5t53 22.5z" />
    <glyph glyph-name="plusminus" unicode="&#xb1;" horiz-adv-x="487" 
d="M295 285v-166h-103v166h-164v100h164v165h103v-165h164v-100h-164zM459 0h-431v100h431v-100z" />
    <glyph glyph-name="twosuperior" unicode="&#xb2;" horiz-adv-x="405" 
d="M24 309q0 48 18 81.5t44.5 55t70.5 48.5l44 27q38 23 53.5 37t15.5 35q0 24 -16.5 37t-47.5 13q-32 0 -51.5 -18.5t-23.5 -54.5l-105 4q5 72 56 110t126 38q77 0 123.5 -33t46.5 -96q0 -36 -16.5 -61.5t-39.5 -41t-64 -38.5l-43 -24q-57 -34 -59 -49h219v-85h-351v15z
" />
    <glyph glyph-name="threesuperior" unicode="&#xb3;" horiz-adv-x="410" 
d="M247 558.5q19 14.5 19 37.5t-18 36t-46 13t-46.5 -15t-22.5 -42l-103 6q4 60 50.5 94t121.5 34q77 0 123 -32t46 -89q0 -31 -20 -52t-52 -32v-4q38 -9 60 -33t22 -63q0 -67 -49 -99t-130 -32t-130.5 34t-55.5 103l106 6q7 -65 80 -65q31 0 51.5 15t20.5 41
q0 27 -20.5 40.5t-57.5 13.5h-43v70h43q32 0 51 14.5z" />
    <glyph glyph-name="acute" unicode="&#xb4;" horiz-adv-x="332" 
d="M53 589l83 161h147l-127 -161h-103z" />
    <glyph glyph-name="paragraph" unicode="&#xb6;" horiz-adv-x="678" 
d="M512 -184v805h-105v-805h-106v474q-131 0 -201 56.5t-70 155.5t70 155.5t201 56.5h318v-898h-107z" />
    <glyph glyph-name="periodcentered" unicode="&#xb7;" horiz-adv-x="292" 
d="M79.5 249.5q-27.5 27.5 -27.5 66.5q0 38 27.5 65.5t66.5 27.5t66 -27.5t27 -65.5q0 -39 -27 -66.5t-66 -27.5t-66.5 27.5z" />
    <glyph glyph-name="cedilla" unicode="&#xb8;" horiz-adv-x="351" 
d="M157 -164q18 0 31 9.5t13 27.5q0 30 -44 30q-13 0 -41 -8v63l40 42l36 38l86 6l-41 -44l-31 -34v-5q45 -5 70.5 -27t25.5 -62q0 -50 -37 -75.5t-102 -25.5q-28 0 -58 6t-52 18l20 63q42 -22 84 -22z" />
    <glyph glyph-name="onesuperior" unicode="&#xb9;" horiz-adv-x="292" 
d="M220 294h-105v278h-98v67h18q42 0 66 21.5t32 53.5h87v-420z" />
    <glyph glyph-name="ordmasculine" unicode="&#xba;" horiz-adv-x="394" 
d="M326 675.5q47 -47.5 47 -129.5q0 -81 -47 -128t-130 -47q-82 0 -129 47t-47 128q0 82 47 129.5t129 47.5q83 0 130 -47.5zM250.5 469.5q19.5 25.5 19.5 76.5q0 52 -19.5 77.5t-54.5 25.5q-34 0 -53 -25.5t-19 -77.5q0 -51 19 -76.5t53 -25.5q35 0 54.5 25.5zM20 0v100
h353v-100h-353z" />
    <glyph glyph-name="guillemotright" unicode="&#xbb;" horiz-adv-x="491" 
d="M41 42v139l99 90v4l-99 89v138l179 -152v-155zM265 42v139l99 90v4l-99 89v138l179 -152v-155z" />
    <glyph glyph-name="questiondown" unicode="&#xbf;" horiz-adv-x="583" 
d="M213 382v152h159v-152h-159zM467.5 -140.5q-69.5 -55.5 -178.5 -55.5q-111 0 -181 53.5t-70 148.5q0 67 28.5 103t78.5 67q46 29 64 55.5t18 70.5v6h130v-33q0 -62 -25 -101t-83 -76q-32 -20 -47.5 -42t-15.5 -57q0 -38 27.5 -60t75.5 -22q50 0 83 31t45 93l136 -20
q-16 -106 -85.5 -161.5z" />
    <glyph glyph-name="Agrave" unicode="&#xc0;" horiz-adv-x="742" 
d="M224 170l-59 -170h-159l266 714h198l267 -714h-162l-59 170h-292zM371 586h-4l-104 -302h213zM422 767h-103l-127 161h147z" />
    <glyph glyph-name="Aacute" unicode="&#xc1;" horiz-adv-x="742" 
d="M224 170l-59 -170h-159l266 714h198l267 -714h-162l-59 170h-292zM371 586h-4l-104 -302h213zM319 767l83 161h147l-127 -161h-103z" />
    <glyph glyph-name="Acircumflex" unicode="&#xc2;" horiz-adv-x="742" 
d="M224 170l-59 -170h-159l266 714h198l267 -714h-162l-59 170h-292zM371 586h-4l-104 -302h213zM369 850l-66 -88h-131l137 161h125l137 -161h-131l-67 88h-4z" />
    <glyph glyph-name="Atilde" unicode="&#xc3;" horiz-adv-x="742" 
d="M224 170l-59 -170h-159l266 714h198l267 -714h-162l-59 170h-292zM371 586h-4l-104 -302h213zM440 865q-16 0 -41 17l-28 17q-16 10 -29.5 15.5t-29.5 5.5q-48 0 -80.5 -30.5t-40.5 -92.5l74 -11q9 42 38 42q9 0 19.5 -5.5t20.5 -11.5l28 -17q31 -21 60 -21q48 0 80 30
t41 93l-75 11q-8 -42 -37 -42z" />
    <glyph glyph-name="Adieresis" unicode="&#xc4;" horiz-adv-x="742" 
d="M224 170l-59 -170h-159l266 714h198l267 -714h-162l-59 170h-292zM371 586h-4l-104 -302h213zM329 897v-115h-125v115h125zM539 897v-115h-125v115h125z" />
    <glyph glyph-name="Aring" unicode="&#xc5;" horiz-adv-x="742" 
d="M224 170l-59 -170h-159l266 714h198l267 -714h-162l-59 170h-292zM371 586h-4l-104 -302h213zM288 784.5q-34 32.5 -34 81.5q0 48 34 80.5t84 32.5q48 0 82.5 -32.5t34.5 -80.5t-34.5 -81t-82.5 -33q-50 0 -84 32.5zM407 827.5q14 14.5 14 38.5q0 23 -14 37.5t-35 14.5
q-22 0 -36.5 -14.5t-14.5 -37.5q0 -24 14.5 -38.5t36.5 -14.5q21 0 35 14.5z" />
    <glyph glyph-name="AE" unicode="&#xc6;" horiz-adv-x="1096" 
d="M695 425h344v-119h-344v-182h363v-124h-507v188h-279l-101 -188h-165l400 714h652v-124h-363v-165zM551 590h-62l-157 -291h219v291z" />
    <glyph glyph-name="Ccedilla" unicode="&#xc7;" horiz-adv-x="748" 
d="M410 -39q45 -5 70 -27t25 -62q0 -50 -36.5 -75.5t-101.5 -25.5q-29 0 -59 6t-51 18l20 63q17 -9 39.5 -15.5t44.5 -6.5q17 0 30 9.5t13 27.5q0 30 -43 30q-15 0 -41 -8v63l26 28q-91 9 -160.5 55.5t-108 127.5t-38.5 189q0 114 44 198.5t122.5 129t180.5 44.5
q83 0 149 -31t108 -80.5t59 -106.5l-148 -23q-18 53 -61.5 86.5t-106.5 33.5q-87 0 -140.5 -64.5t-53.5 -186.5q0 -124 53.5 -188.5t140.5 -64.5q72 0 117.5 43.5t61.5 112.5l151 -17q-13 -63 -50.5 -119t-98 -93.5t-139.5 -45.5l-18 -20v-5z" />
    <glyph glyph-name="Egrave" unicode="&#xc8;" horiz-adv-x="618" 
d="M562 424v-115h-353v-186h371v-123h-521v714h521v-119h-371v-171h353zM371 767h-103l-127 161h147z" />
    <glyph glyph-name="Eacute" unicode="&#xc9;" horiz-adv-x="618" 
d="M562 424v-115h-353v-186h371v-123h-521v714h521v-119h-371v-171h353zM268 767l83 161h147l-127 -161h-103z" />
    <glyph glyph-name="Ecircumflex" unicode="&#xca;" horiz-adv-x="618" 
d="M562 424v-115h-353v-186h371v-123h-521v714h521v-119h-371v-171h353zM317 850l-66 -88h-131l137 161h125l137 -161h-131l-67 88h-4z" />
    <glyph glyph-name="Edieresis" unicode="&#xcb;" horiz-adv-x="618" 
d="M562 424v-115h-353v-186h371v-123h-521v714h521v-119h-371v-171h353zM277 897v-115h-125v115h125zM487 897v-115h-125v115h125z" />
    <glyph glyph-name="Igrave" unicode="&#xcc;" horiz-adv-x="272" 
d="M61 714h150v-714h-150v714zM187 767h-103l-127 161h147z" />
    <glyph glyph-name="Iacute" unicode="&#xcd;" horiz-adv-x="272" 
d="M61 714h150v-714h-150v714zM84 767l83 161h147l-127 -161h-103z" />
    <glyph glyph-name="Icircumflex" unicode="&#xce;" horiz-adv-x="272" 
d="M61 714h150v-714h-150v714zM134 850l-66 -88h-131l137 161h125l137 -161h-131l-67 88h-4z" />
    <glyph glyph-name="Idieresis" unicode="&#xcf;" horiz-adv-x="272" 
d="M61 714h150v-714h-150v714zM93 897v-115h-125v115h125zM303 897v-115h-125v115h125z" />
    <glyph glyph-name="Eth" unicode="&#xd0;" horiz-adv-x="738" 
d="M603 624q96 -90 96 -267t-96 -267t-261 -90h-283v306h-60v103h60v305h283q165 0 261 -90zM488 176.5q58 57.5 58 180.5t-58 180.5t-168 57.5h-111v-186h148v-103h-148v-187h111q110 0 168 57.5z" />
    <glyph glyph-name="Ntilde" unicode="&#xd1;" horiz-adv-x="739" 
d="M514 0l-313 512h-4v-512h-138v714h170l309 -503h4v503h138v-714h-166zM438 865q-16 0 -41 17l-28 17q-16 10 -29.5 15.5t-29.5 5.5q-48 0 -80.5 -30.5t-40.5 -92.5l74 -11q9 42 38 42q9 0 19.5 -5.5t20.5 -11.5l28 -17q31 -21 60 -21q48 0 80 30t41 93l-75 11
q-8 -42 -37 -42z" />
    <glyph glyph-name="Ograve" unicode="&#xd2;" horiz-adv-x="780" 
d="M572.5 685.5q79.5 -44.5 124 -129t44.5 -199.5t-44.5 -199.5t-124 -129t-182.5 -44.5q-104 0 -183.5 44.5t-123.5 129t-44 199.5t44 199.5t123.5 129t183.5 44.5q103 0 182.5 -44.5zM534 169.5q54 64.5 54 187.5t-54 187.5t-144 64.5t-144 -64.5t-54 -187.5t54 -187.5
t144 -64.5t144 64.5zM441 767h-103l-127 161h147z" />
    <glyph glyph-name="Oacute" unicode="&#xd3;" horiz-adv-x="780" 
d="M572.5 685.5q79.5 -44.5 124 -129t44.5 -199.5t-44.5 -199.5t-124 -129t-182.5 -44.5q-104 0 -183.5 44.5t-123.5 129t-44 199.5t44 199.5t123.5 129t183.5 44.5q103 0 182.5 -44.5zM534 169.5q54 64.5 54 187.5t-54 187.5t-144 64.5t-144 -64.5t-54 -187.5t54 -187.5
t144 -64.5t144 64.5zM338 767l83 161h147l-127 -161h-103z" />
    <glyph glyph-name="Ocircumflex" unicode="&#xd4;" horiz-adv-x="780" 
d="M572.5 685.5q79.5 -44.5 124 -129t44.5 -199.5t-44.5 -199.5t-124 -129t-182.5 -44.5q-104 0 -183.5 44.5t-123.5 129t-44 199.5t44 199.5t123.5 129t183.5 44.5q103 0 182.5 -44.5zM534 169.5q54 64.5 54 187.5t-54 187.5t-144 64.5t-144 -64.5t-54 -187.5t54 -187.5
t144 -64.5t144 64.5zM388 850l-66 -88h-131l137 161h125l137 -161h-131l-67 88h-4z" />
    <glyph glyph-name="Otilde" unicode="&#xd5;" horiz-adv-x="780" 
d="M572.5 685.5q79.5 -44.5 124 -129t44.5 -199.5t-44.5 -199.5t-124 -129t-182.5 -44.5q-104 0 -183.5 44.5t-123.5 129t-44 199.5t44 199.5t123.5 129t183.5 44.5q103 0 182.5 -44.5zM534 169.5q54 64.5 54 187.5t-54 187.5t-144 64.5t-144 -64.5t-54 -187.5t54 -187.5
t144 -64.5t144 64.5zM459 865q-16 0 -41 17l-28 17q-16 10 -29.5 15.5t-29.5 5.5q-48 0 -80.5 -30.5t-40.5 -92.5l74 -11q9 42 38 42q9 0 19.5 -5.5t20.5 -11.5l28 -17q31 -21 60 -21q48 0 80 30t41 93l-75 11q-8 -42 -37 -42z" />
    <glyph glyph-name="Odieresis" unicode="&#xd6;" horiz-adv-x="780" 
d="M572.5 685.5q79.5 -44.5 124 -129t44.5 -199.5t-44.5 -199.5t-124 -129t-182.5 -44.5q-104 0 -183.5 44.5t-123.5 129t-44 199.5t44 199.5t123.5 129t183.5 44.5q103 0 182.5 -44.5zM534 169.5q54 64.5 54 187.5t-54 187.5t-144 64.5t-144 -64.5t-54 -187.5t54 -187.5
t144 -64.5t144 64.5zM347 897v-115h-125v115h125zM557 897v-115h-125v115h125z" />
    <glyph glyph-name="multiply" unicode="&#xd7;" horiz-adv-x="498" 
d="M322 326l148 -145l-75 -70l-146 143l-146 -143l-74 70l147 145l-146 143l74 70l145 -142l145 142l75 -70z" />
    <glyph glyph-name="Oslash" unicode="&#xd8;" horiz-adv-x="796" 
d="M741 357q0 -115 -44.5 -199.5t-124 -129t-182.5 -44.5q-119 0 -204 58l-72 -82l-60 56l70 81q-41 48 -63 114t-22 146q0 115 44 199.5t123.5 129t183.5 44.5q131 0 222 -71l80 93l60 -58l-82 -94q71 -98 71 -243zM221 209l302 348q-52 52 -133 52q-90 0 -144 -64.5
t-54 -187.5q0 -90 29 -148zM568 483l-295 -340q49 -38 117 -38q90 0 144 64.5t54 187.5q0 72 -20 126z" />
    <glyph glyph-name="Ugrave" unicode="&#xd9;" horiz-adv-x="728" 
d="M629.5 109.5q-39.5 -62.5 -108.5 -94t-157 -31.5t-157 31.5t-108.5 94t-39.5 153.5v451h150v-437q0 -88 39 -129t116 -41q76 0 115.5 41t39.5 129v437h150v-451q0 -91 -39.5 -153.5zM415 767h-103l-127 161h147z" />
    <glyph glyph-name="Uacute" unicode="&#xda;" horiz-adv-x="728" 
d="M629.5 109.5q-39.5 -62.5 -108.5 -94t-157 -31.5t-157 31.5t-108.5 94t-39.5 153.5v451h150v-437q0 -88 39 -129t116 -41q76 0 115.5 41t39.5 129v437h150v-451q0 -91 -39.5 -153.5zM312 767l83 161h147l-127 -161h-103z" />
    <glyph glyph-name="Ucircumflex" unicode="&#xdb;" horiz-adv-x="728" 
d="M629.5 109.5q-39.5 -62.5 -108.5 -94t-157 -31.5t-157 31.5t-108.5 94t-39.5 153.5v451h150v-437q0 -88 39 -129t116 -41q76 0 115.5 41t39.5 129v437h150v-451q0 -91 -39.5 -153.5zM361 850l-66 -88h-131l137 161h125l137 -161h-131l-67 88h-4z" />
    <glyph glyph-name="Udieresis" unicode="&#xdc;" horiz-adv-x="728" 
d="M629.5 109.5q-39.5 -62.5 -108.5 -94t-157 -31.5t-157 31.5t-108.5 94t-39.5 153.5v451h150v-437q0 -88 39 -129t116 -41q76 0 115.5 41t39.5 129v437h150v-451q0 -91 -39.5 -153.5zM321 897v-115h-125v115h125zM531 897v-115h-125v115h125z" />
    <glyph glyph-name="Yacute" unicode="&#xdd;" horiz-adv-x="684" 
d="M417 273v-273h-150v273l-257 441h164l169 -312l170 312h161zM292 767l83 161h147l-127 -161h-103z" />
    <glyph glyph-name="Thorn" unicode="&#xde;" horiz-adv-x="674" 
d="M580.5 529.5q67.5 -61.5 67.5 -169.5t-67.5 -169.5t-190.5 -61.5h-181v-129h-150v714h150v-123h181q123 0 190.5 -61.5zM461.5 277.5q33.5 29.5 33.5 82.5t-33.5 82.5t-96.5 29.5h-156v-224h156q63 0 96.5 29.5z" />
    <glyph glyph-name="germandbls" unicode="&#xdf;" horiz-adv-x="644" 
d="M566 239q21 -16 34 -41t13 -64q0 -73 -53 -109.5t-145 -36.5q-77 0 -124.5 31.5t-62.5 90.5l116 16q8 -24 26.5 -37t44.5 -13q31 0 46.5 13t15.5 35q0 19 -14 32t-43 28l-65 36q-49 26 -67.5 51t-18.5 57q0 30 11.5 50t27.5 32t43 27q39 22 58.5 42t19.5 58
q0 36 -28.5 62.5t-75.5 26.5q-56 0 -93.5 -34t-37.5 -104l-1 -488h-140v499q0 84 39.5 137.5t101 77t130.5 23.5q78 0 133.5 -28t84 -73.5t28.5 -98.5q0 -44 -19 -73t-44 -45t-62 -32q-27 -12 -38.5 -19t-11.5 -18q0 -13 33 -31l80 -43q37 -21 58 -37z" />
    <glyph glyph-name="agrave" unicode="&#xe0;" horiz-adv-x="565" 
d="M381 27.5q-4 19.5 -4 46.5q-22 -41 -70.5 -63.5t-104.5 -22.5q-47 0 -87.5 19t-64.5 54.5t-24 83.5q0 81 54.5 120t164.5 52q77 10 104 22.5t27 37.5q0 30 -23 47.5t-69 17.5q-38 0 -67 -20t-41 -59l-130 20q17 75 82 117t160 42q115 0 171.5 -46t56.5 -125v-265
q0 -46 2.5 -68.5t11.5 -37.5h-138q-7 8 -11 27.5zM335.5 244.5q-28.5 -6.5 -73.5 -12.5q-42 -7 -68 -26.5t-26 -54.5q0 -32 20.5 -49.5t56.5 -17.5q31 0 61 13t50 40.5t20 68.5v55q-12 -10 -40.5 -16.5zM339 589h-103l-127 161h147z" />
    <glyph glyph-name="aacute" unicode="&#xe1;" horiz-adv-x="565" 
d="M381 27.5q-4 19.5 -4 46.5q-22 -41 -70.5 -63.5t-104.5 -22.5q-47 0 -87.5 19t-64.5 54.5t-24 83.5q0 81 54.5 120t164.5 52q77 10 104 22.5t27 37.5q0 30 -23 47.5t-69 17.5q-38 0 -67 -20t-41 -59l-130 20q17 75 82 117t160 42q115 0 171.5 -46t56.5 -125v-265
q0 -46 2.5 -68.5t11.5 -37.5h-138q-7 8 -11 27.5zM335.5 244.5q-28.5 -6.5 -73.5 -12.5q-42 -7 -68 -26.5t-26 -54.5q0 -32 20.5 -49.5t56.5 -17.5q31 0 61 13t50 40.5t20 68.5v55q-12 -10 -40.5 -16.5zM236 589l83 161h147l-127 -161h-103z" />
    <glyph glyph-name="acircumflex" unicode="&#xe2;" horiz-adv-x="565" 
d="M381 27.5q-4 19.5 -4 46.5q-22 -41 -70.5 -63.5t-104.5 -22.5q-47 0 -87.5 19t-64.5 54.5t-24 83.5q0 81 54.5 120t164.5 52q77 10 104 22.5t27 37.5q0 30 -23 47.5t-69 17.5q-38 0 -67 -20t-41 -59l-130 20q17 75 82 117t160 42q115 0 171.5 -46t56.5 -125v-265
q0 -46 2.5 -68.5t11.5 -37.5h-138q-7 8 -11 27.5zM335.5 244.5q-28.5 -6.5 -73.5 -12.5q-42 -7 -68 -26.5t-26 -54.5q0 -32 20.5 -49.5t56.5 -17.5q31 0 61 13t50 40.5t20 68.5v55q-12 -10 -40.5 -16.5zM285 677l-66 -88h-131l137 161h125l137 -161h-131l-67 88h-4z" />
    <glyph glyph-name="atilde" unicode="&#xe3;" horiz-adv-x="565" 
d="M381 27.5q-4 19.5 -4 46.5q-22 -41 -70.5 -63.5t-104.5 -22.5q-47 0 -87.5 19t-64.5 54.5t-24 83.5q0 81 54.5 120t164.5 52q77 10 104 22.5t27 37.5q0 30 -23 47.5t-69 17.5q-38 0 -67 -20t-41 -59l-130 20q17 75 82 117t160 42q115 0 171.5 -46t56.5 -125v-265
q0 -46 2.5 -68.5t11.5 -37.5h-138q-7 8 -11 27.5zM335.5 244.5q-28.5 -6.5 -73.5 -12.5q-42 -7 -68 -26.5t-26 -54.5q0 -32 20.5 -49.5t56.5 -17.5q31 0 61 13t50 40.5t20 68.5v55q-12 -10 -40.5 -16.5zM356 700q-10 0 -20.5 5.5t-20.5 11.5l-28 17q-31 21 -59 21
q-48 0 -80.5 -30.5t-40.5 -92.5l74 -11q9 42 38 42q9 0 18 -4t22 -12l28 -18q15 -9 28.5 -14.5t31.5 -5.5q48 0 80 30t41 92l-75 11q-8 -42 -37 -42z" />
    <glyph glyph-name="adieresis" unicode="&#xe4;" horiz-adv-x="565" 
d="M381 27.5q-4 19.5 -4 46.5q-22 -41 -70.5 -63.5t-104.5 -22.5q-47 0 -87.5 19t-64.5 54.5t-24 83.5q0 81 54.5 120t164.5 52q77 10 104 22.5t27 37.5q0 30 -23 47.5t-69 17.5q-38 0 -67 -20t-41 -59l-130 20q17 75 82 117t160 42q115 0 171.5 -46t56.5 -125v-265
q0 -46 2.5 -68.5t11.5 -37.5h-138q-7 8 -11 27.5zM335.5 244.5q-28.5 -6.5 -73.5 -12.5q-42 -7 -68 -26.5t-26 -54.5q0 -32 20.5 -49.5t56.5 -17.5q31 0 61 13t50 40.5t20 68.5v55q-12 -10 -40.5 -16.5zM245 719v-115h-125v115h125zM455 719v-115h-125v115h125z" />
    <glyph glyph-name="aring" unicode="&#xe5;" horiz-adv-x="565" 
d="M381 27.5q-4 19.5 -4 46.5q-22 -41 -70.5 -63.5t-104.5 -22.5q-47 0 -87.5 19t-64.5 54.5t-24 83.5q0 81 54.5 120t164.5 52q77 10 104 22.5t27 37.5q0 30 -23 47.5t-69 17.5q-38 0 -67 -20t-41 -59l-130 20q17 75 82 117t160 42q115 0 171.5 -46t56.5 -125v-265
q0 -46 2.5 -68.5t11.5 -37.5h-138q-7 8 -11 27.5zM335.5 244.5q-28.5 -6.5 -73.5 -12.5q-42 -7 -68 -26.5t-26 -54.5q0 -32 20.5 -49.5t56.5 -17.5q31 0 61 13t50 40.5t20 68.5v55q-12 -10 -40.5 -16.5zM204 619.5q-34 32.5 -34 81.5q0 48 34 81t84 33q48 0 82.5 -33
t34.5 -81t-34.5 -81t-82.5 -33q-50 0 -84 32.5zM323 663.5q14 14.5 14 37.5t-14 37.5t-35 14.5q-22 0 -36.5 -14.5t-14.5 -37.5t14.5 -37.5t36.5 -14.5q21 0 35 14.5z" />
    <glyph glyph-name="ae" unicode="&#xe6;" horiz-adv-x="936" 
d="M780 510q60 -32 93 -94.5t33 -149.5q0 -20 -1 -31h-386q2 -67 35 -107.5t88 -40.5q51 0 79 24.5t37 57.5l142 -12q-18 -68 -81 -118.5t-177 -50.5q-66 0 -117 27t-83 77q-28 -51 -86 -77.5t-132 -26.5q-88 0 -143 42t-55 115q0 81 54.5 120t164.5 52q77 10 104 22.5
t27 37.5q0 30 -23 47.5t-69 17.5q-38 0 -67 -20t-41 -59l-130 20q17 75 82 117t160 42q129 0 187 -63q65 63 166 63q79 0 139 -32zM726.5 410.5q-31.5 33.5 -85.5 33.5q-53 0 -84.5 -34t-35.5 -85h241q-4 52 -35.5 85.5zM335.5 244.5q-28.5 -6.5 -73.5 -12.5
q-42 -7 -68 -26.5t-26 -54.5q0 -32 20.5 -49.5t56.5 -17.5q31 0 61 13t50 40.5t20 68.5v55q-12 -10 -40.5 -16.5z" />
    <glyph glyph-name="ccedilla" unicode="&#xe7;" horiz-adv-x="572" 
d="M321 -39q45 -5 70 -27t25 -62q0 -50 -36.5 -75.5t-101.5 -25.5q-29 0 -59 6t-51 18l20 63q17 -9 39.5 -15.5t44.5 -6.5q17 0 30 9.5t13 27.5q0 30 -43 30q-15 0 -41 -8v63l29 31q-107 11 -168.5 84t-61.5 191q0 84 32 147t92 97t141 34q110 0 170 -51.5t80 -115.5
l-136 -31q-29 93 -114 93q-57 0 -89.5 -44.5t-32.5 -128.5q0 -83 32.5 -127.5t89.5 -44.5q51 0 78.5 30t37.5 73l142 -16q-18 -70 -68.5 -123t-140.5 -65l-23 -25v-5z" />
    <glyph glyph-name="egrave" unicode="&#xe8;" horiz-adv-x="590" 
d="M472 38.5q-63 -50.5 -176 -50.5q-81 0 -141 33.5t-92.5 96t-32.5 146.5q0 85 32 147.5t91.5 96.5t141.5 34q79 0 139 -32t93 -94.5t33 -149.5l-1 -31h-386q2 -67 35 -107.5t88 -40.5q51 0 78 24t38 58l142 -12q-19 -68 -82 -118.5zM210.5 410q-31.5 -34 -35.5 -85h241
q-4 52 -35.5 85.5t-85.5 33.5q-53 0 -84.5 -34zM346 589h-103l-127 161h147z" />
    <glyph glyph-name="eacute" unicode="&#xe9;" horiz-adv-x="590" 
d="M472 38.5q-63 -50.5 -176 -50.5q-81 0 -141 33.5t-92.5 96t-32.5 146.5q0 85 32 147.5t91.5 96.5t141.5 34q79 0 139 -32t93 -94.5t33 -149.5l-1 -31h-386q2 -67 35 -107.5t88 -40.5q51 0 78 24t38 58l142 -12q-19 -68 -82 -118.5zM210.5 410q-31.5 -34 -35.5 -85h241
q-4 52 -35.5 85.5t-85.5 33.5q-53 0 -84.5 -34zM243 589l83 161h147l-127 -161h-103z" />
    <glyph glyph-name="ecircumflex" unicode="&#xea;" horiz-adv-x="590" 
d="M472 38.5q-63 -50.5 -176 -50.5q-81 0 -141 33.5t-92.5 96t-32.5 146.5q0 85 32 147.5t91.5 96.5t141.5 34q79 0 139 -32t93 -94.5t33 -149.5l-1 -31h-386q2 -67 35 -107.5t88 -40.5q51 0 78 24t38 58l142 -12q-19 -68 -82 -118.5zM210.5 410q-31.5 -34 -35.5 -85h241
q-4 52 -35.5 85.5t-85.5 33.5q-53 0 -84.5 -34zM293 677l-66 -88h-131l137 161h125l137 -161h-131l-67 88h-4z" />
    <glyph glyph-name="edieresis" unicode="&#xeb;" horiz-adv-x="590" 
d="M472 38.5q-63 -50.5 -176 -50.5q-81 0 -141 33.5t-92.5 96t-32.5 146.5q0 85 32 147.5t91.5 96.5t141.5 34q79 0 139 -32t93 -94.5t33 -149.5l-1 -31h-386q2 -67 35 -107.5t88 -40.5q51 0 78 24t38 58l142 -12q-19 -68 -82 -118.5zM210.5 410q-31.5 -34 -35.5 -85h241
q-4 52 -35.5 85.5t-85.5 33.5q-53 0 -84.5 -34zM252 719v-115h-125v115h125zM462 719v-115h-125v115h125z" />
    <glyph glyph-name="igrave" unicode="&#xec;" horiz-adv-x="246" 
d="M193 529v-529h-140v529h140zM174 589h-103l-127 161h147z" />
    <glyph glyph-name="iacute" unicode="&#xed;" horiz-adv-x="246" 
d="M193 529v-529h-140v529h140zM71 589l83 161h147l-127 -161h-103z" />
    <glyph glyph-name="icircumflex" unicode="&#xee;" horiz-adv-x="246" 
d="M193 529v-529h-140v529h140zM121 677l-66 -88h-131l137 161h125l137 -161h-131l-67 88h-4z" />
    <glyph glyph-name="idieresis" unicode="&#xef;" horiz-adv-x="246" 
d="M193 529v-529h-140v529h140zM80 719v-115h-125v115h125zM290 719v-115h-125v115h125z" />
    <glyph glyph-name="eth" unicode="&#xf0;" horiz-adv-x="609" 
d="M540.5 497.5q38.5 -99.5 38.5 -227.5q0 -133 -73.5 -207t-200.5 -74q-83 0 -145 31.5t-96 87.5t-34 129q0 75 33.5 132t92 88.5t132.5 31.5q69 0 122 -43q-33 92 -114 149l-112 -72l-63 63l87 56q-59 22 -131 35l47 92q110 -17 195 -55l127 81l63 -63l-103 -67
q96 -68 134.5 -167.5zM399.5 130.5q35.5 40.5 35.5 106.5q0 67 -35.5 108.5t-94.5 41.5q-60 0 -96 -41.5t-36 -108.5q0 -66 36 -106.5t96 -40.5q59 0 94.5 40.5z" />
    <glyph glyph-name="ntilde" unicode="&#xf1;" 
d="M191 459q59 83 167 83q81 0 133.5 -49t52.5 -144v-349h-140v313q0 62 -24.5 89t-74.5 27q-47 0 -79.5 -36.5t-32.5 -104.5v-288h-140v529h134v-70h4zM367 700q-10 0 -20.5 5.5t-20.5 11.5l-28 17q-31 21 -59 21q-48 0 -80.5 -30.5t-40.5 -92.5l74 -11q9 42 38 42
q9 0 18 -4t22 -12l28 -18q15 -9 28.5 -14.5t31.5 -5.5q48 0 80 30t41 92l-75 11q-8 -42 -37 -42z" />
    <glyph glyph-name="ograve" unicode="&#xf2;" horiz-adv-x="602" 
d="M445 508q61 -34 93.5 -97t32.5 -147t-32.5 -146.5t-93.5 -96t-144 -33.5t-144.5 33.5t-94 96t-32.5 146.5q0 85 32.5 147.5t94 96.5t144.5 34t144 -34zM395 137q34 44 34 127q0 84 -34 128.5t-94 44.5t-94 -44.5t-34 -128.5q0 -83 34 -127t94 -44t94 44zM352 589h-103
l-127 161h147z" />
    <glyph glyph-name="oacute" unicode="&#xf3;" horiz-adv-x="602" 
d="M445 508q61 -34 93.5 -97t32.5 -147t-32.5 -146.5t-93.5 -96t-144 -33.5t-144.5 33.5t-94 96t-32.5 146.5q0 85 32.5 147.5t94 96.5t144.5 34t144 -34zM395 137q34 44 34 127q0 84 -34 128.5t-94 44.5t-94 -44.5t-34 -128.5q0 -83 34 -127t94 -44t94 44zM249 589l83 161
h147l-127 -161h-103z" />
    <glyph glyph-name="ocircumflex" unicode="&#xf4;" horiz-adv-x="602" 
d="M445 508q61 -34 93.5 -97t32.5 -147t-32.5 -146.5t-93.5 -96t-144 -33.5t-144.5 33.5t-94 96t-32.5 146.5q0 85 32.5 147.5t94 96.5t144.5 34t144 -34zM395 137q34 44 34 127q0 84 -34 128.5t-94 44.5t-94 -44.5t-34 -128.5q0 -83 34 -127t94 -44t94 44zM299 677l-66 -88
h-131l137 161h125l137 -161h-131l-67 88h-4z" />
    <glyph glyph-name="otilde" unicode="&#xf5;" horiz-adv-x="602" 
d="M445 508q61 -34 93.5 -97t32.5 -147t-32.5 -146.5t-93.5 -96t-144 -33.5t-144.5 33.5t-94 96t-32.5 146.5q0 85 32.5 147.5t94 96.5t144.5 34t144 -34zM395 137q34 44 34 127q0 84 -34 128.5t-94 44.5t-94 -44.5t-34 -128.5q0 -83 34 -127t94 -44t94 44zM370 700
q-10 0 -20.5 5.5t-20.5 11.5l-28 17q-31 21 -59 21q-48 0 -80.5 -30.5t-40.5 -92.5l74 -11q9 42 38 42q9 0 18 -4t22 -12l28 -18q15 -9 28.5 -14.5t31.5 -5.5q48 0 80 30t41 92l-75 11q-8 -42 -37 -42z" />
    <glyph glyph-name="odieresis" unicode="&#xf6;" horiz-adv-x="602" 
d="M445 508q61 -34 93.5 -97t32.5 -147t-32.5 -146.5t-93.5 -96t-144 -33.5t-144.5 33.5t-94 96t-32.5 146.5q0 85 32.5 147.5t94 96.5t144.5 34t144 -34zM395 137q34 44 34 127q0 84 -34 128.5t-94 44.5t-94 -44.5t-34 -128.5q0 -83 34 -127t94 -44t94 44zM259 719v-115
h-125v115h125zM469 719v-115h-125v115h125z" />
    <glyph glyph-name="divide" unicode="&#xf7;" horiz-adv-x="547" 
d="M221.5 463.5q-21.5 21.5 -21.5 52.5t21.5 52t52.5 21t52.5 -21t21.5 -52t-21.5 -52.5t-52.5 -21.5t-52.5 21.5zM519 275h-491v100h491v-100zM221.5 82.5q-21.5 21.5 -21.5 52.5t21.5 52.5t52.5 21.5t52.5 -21.5t21.5 -52.5t-21.5 -52.5t-52.5 -21.5t-52.5 21.5z" />
    <glyph glyph-name="oslash" unicode="&#xf8;" horiz-adv-x="603" 
d="M572 264q0 -84 -32.5 -146.5t-93.5 -96t-144 -33.5q-94 0 -159 42l-54 -60l-45 40l52 60q-65 74 -65 194q0 85 32.5 147.5t94 96.5t144.5 34q99 0 168 -50l44 50l46 -42l-45 -51v0q57 -72 57 -185zM208 392.5q-34 -44.5 -34 -128.5q0 -53 14 -90l201 227q-33 36 -87 36
q-60 0 -94 -44.5zM395.5 136.5q33.5 44.5 33.5 127.5q0 45 -9 78l-197 -222q33 -28 79 -28q60 0 93.5 44.5z" />
    <glyph glyph-name="ugrave" unicode="&#xf9;" 
d="M406 70q-58 -82 -167 -82q-81 0 -133.5 48.5t-52.5 144.5v348h140v-312q0 -62 24.5 -89t74.5 -27q47 0 79.5 36.5t32.5 103.5v288h140v-529h-134v70h-4zM350 589h-103l-127 161h147z" />
    <glyph glyph-name="uacute" unicode="&#xfa;" 
d="M406 70q-58 -82 -167 -82q-81 0 -133.5 48.5t-52.5 144.5v348h140v-312q0 -62 24.5 -89t74.5 -27q47 0 79.5 36.5t32.5 103.5v288h140v-529h-134v70h-4zM247 589l83 161h147l-127 -161h-103z" />
    <glyph glyph-name="ucircumflex" unicode="&#xfb;" 
d="M406 70q-58 -82 -167 -82q-81 0 -133.5 48.5t-52.5 144.5v348h140v-312q0 -62 24.5 -89t74.5 -27q47 0 79.5 36.5t32.5 103.5v288h140v-529h-134v70h-4zM296 677l-66 -88h-131l137 161h125l137 -161h-131l-67 88h-4z" />
    <glyph glyph-name="udieresis" unicode="&#xfc;" 
d="M406 70q-58 -82 -167 -82q-81 0 -133.5 48.5t-52.5 144.5v348h140v-312q0 -62 24.5 -89t74.5 -27q47 0 79.5 36.5t32.5 103.5v288h140v-529h-134v70h-4zM256 719v-115h-125v115h125zM466 719v-115h-125v115h125z" />
    <glyph glyph-name="yacute" unicode="&#xfd;" horiz-adv-x="552" 
d="M356 0q-30 -84 -63 -126.5t-69 -56t-87 -13.5q-56 0 -84 3v116q28 -4 62 -4q35 0 53.5 15t34.5 54l7 17l-212 524h152l129 -362h4l116 362h150zM223 589l83 161h147l-127 -161h-103z" />
    <glyph glyph-name="thorn" unicode="&#xfe;" horiz-adv-x="616" 
d="M474.5 508q52.5 -34 82 -97t29.5 -146t-29.5 -146t-82 -97t-118.5 -34q-111 0 -159 74h-4v-246h-140v908h140v-256h4q23 35 63.5 54.5t95.5 19.5q66 0 118.5 -34zM408.5 138.5q34.5 43.5 34.5 126.5q0 82 -34.5 126t-94.5 44t-94.5 -44t-34.5 -126t34.5 -126t94.5 -44
t94.5 43.5z" />
    <glyph glyph-name="ydieresis" unicode="&#xff;" horiz-adv-x="552" 
d="M356 0q-30 -84 -63 -126.5t-69 -56t-87 -13.5q-56 0 -84 3v116q28 -4 62 -4q35 0 53.5 15t34.5 54l7 17l-212 524h152l129 -362h4l116 362h150zM232 719v-115h-125v115h125zM442 719v-115h-125v115h125z" />
    <glyph glyph-name="Amacron" unicode="&#x100;" horiz-adv-x="742" 
d="M224 170l-59 -170h-159l266 714h198l267 -714h-162l-59 170h-292zM371 586h-4l-104 -302h213zM217 887h308v-91h-308v91z" />
    <glyph glyph-name="amacron" unicode="&#x101;" horiz-adv-x="565" 
d="M381 27.5q-4 19.5 -4 46.5q-22 -41 -70.5 -63.5t-104.5 -22.5q-47 0 -87.5 19t-64.5 54.5t-24 83.5q0 81 54.5 120t164.5 52q77 10 104 22.5t27 37.5q0 30 -23 47.5t-69 17.5q-38 0 -67 -20t-41 -59l-130 20q17 75 82 117t160 42q115 0 171.5 -46t56.5 -125v-265
q0 -46 2.5 -68.5t11.5 -37.5h-138q-7 8 -11 27.5zM335.5 244.5q-28.5 -6.5 -73.5 -12.5q-42 -7 -68 -26.5t-26 -54.5q0 -32 20.5 -49.5t56.5 -17.5q31 0 61 13t50 40.5t20 68.5v55q-12 -10 -40.5 -16.5zM134 716h308v-91h-308v91z" />
    <glyph glyph-name="Abreve" unicode="&#x102;" horiz-adv-x="742" 
d="M224 170l-59 -170h-159l266 714h198l267 -714h-162l-59 170h-292zM371 586h-4l-104 -302h213zM523 836.5q-25 -37.5 -65.5 -57t-86.5 -19.5q-47 0 -87.5 19.5t-65 57t-25.5 88.5h95q5 -36 28.5 -55t54.5 -19t54.5 19t27.5 55h96q-1 -51 -26 -88.5z" />
    <glyph glyph-name="abreve" unicode="&#x103;" horiz-adv-x="565" 
d="M381 27.5q-4 19.5 -4 46.5q-22 -41 -70.5 -63.5t-104.5 -22.5q-47 0 -87.5 19t-64.5 54.5t-24 83.5q0 81 54.5 120t164.5 52q77 10 104 22.5t27 37.5q0 30 -23 47.5t-69 17.5q-38 0 -67 -20t-41 -59l-130 20q17 75 82 117t160 42q115 0 171.5 -46t56.5 -125v-265
q0 -46 2.5 -68.5t11.5 -37.5h-138q-7 8 -11 27.5zM335.5 244.5q-28.5 -6.5 -73.5 -12.5q-42 -7 -68 -26.5t-26 -54.5q0 -32 20.5 -49.5t56.5 -17.5q31 0 61 13t50 40.5t20 68.5v55q-12 -10 -40.5 -16.5zM440 662q-25 -37 -65.5 -56.5t-86.5 -19.5q-47 0 -87.5 19.5t-65 56.5
t-25.5 88h95q5 -36 28.5 -55t54.5 -19t54.5 19t27.5 55h96q-1 -51 -26 -88z" />
    <glyph glyph-name="Aogonek" unicode="&#x104;" horiz-adv-x="742" 
d="M749 -140v-82q-27 -7 -72 -7q-65 0 -101.5 26t-36.5 75q0 40 24.5 73.5t65.5 54.5h-54l-59 170h-292l-59 -170h-159l266 714h198l267 -714q-48 -28 -70.5 -56t-22.5 -53q0 -19 15 -29t37 -10q32 0 53 8zM371 586h-4l-104 -302h213z" />
    <glyph glyph-name="aogonek" unicode="&#x105;" horiz-adv-x="565" 
d="M544 -140v-82q-28 -7 -73 -7q-65 0 -101.5 26t-36.5 75q0 40 24.5 73.5t65.5 54.5h-31q-7 8 -11 27.5t-4 46.5q-22 -41 -70.5 -63.5t-104.5 -22.5q-47 0 -87.5 19t-64.5 54.5t-24 83.5q0 81 54.5 120t164.5 52q77 10 104 22.5t27 37.5q0 30 -23 47.5t-69 17.5
q-38 0 -67 -20t-41 -59l-130 20q17 75 82 117t160 42q115 0 171.5 -46t56.5 -125v-265q0 -46 2.5 -68.5t11.5 -37.5q-48 -28 -70 -56t-22 -53q0 -19 15 -29t38 -10q30 0 53 8zM335.5 244.5q-28.5 -6.5 -73.5 -12.5q-42 -7 -68 -26.5t-26 -54.5q0 -32 20.5 -49.5t56.5 -17.5
q31 0 61 13t50 40.5t20 68.5v55q-12 -10 -40.5 -16.5z" />
    <glyph glyph-name="Cacute" unicode="&#x106;" horiz-adv-x="744" 
d="M657 115.5q-42 -59.5 -111.5 -95.5t-159.5 -36q-102 0 -180.5 45t-122.5 129.5t-44 199.5q0 114 44 198.5t122.5 129t180.5 44.5q83 0 149 -31t108 -80.5t59 -106.5l-148 -23q-18 53 -61.5 86.5t-106.5 33.5q-87 0 -140.5 -64.5t-53.5 -186.5q0 -124 53.5 -188.5
t140.5 -64.5q72 0 116 43.5t59 112.5l151 -17q-13 -69 -55 -128.5zM334 767l83 161h147l-127 -161h-103z" />
    <glyph glyph-name="cacute" unicode="&#x107;" horiz-adv-x="572" 
d="M373.5 122q27.5 30 37.5 73l142 -16q-20 -79 -82.5 -135t-175.5 -56q-81 0 -141 33.5t-92 96t-32 146.5t32 147t92 97t141 34q110 0 170 -51.5t80 -115.5l-136 -31q-29 93 -114 93q-57 0 -89.5 -44.5t-32.5 -128.5q0 -83 32.5 -127.5t89.5 -44.5q51 0 78.5 30zM243 589
l83 161h147l-127 -161h-103z" />
    <glyph glyph-name="Ccircumflex" unicode="&#x108;" horiz-adv-x="744" 
d="M657 115.5q-42 -59.5 -111.5 -95.5t-159.5 -36q-102 0 -180.5 45t-122.5 129.5t-44 199.5q0 114 44 198.5t122.5 129t180.5 44.5q83 0 149 -31t108 -80.5t59 -106.5l-148 -23q-18 53 -61.5 86.5t-106.5 33.5q-87 0 -140.5 -64.5t-53.5 -186.5q0 -124 53.5 -188.5
t140.5 -64.5q72 0 116 43.5t59 112.5l151 -17q-13 -69 -55 -128.5zM384 850l-66 -88h-131l137 161h125l137 -161h-131l-67 88h-4z" />
    <glyph glyph-name="ccircumflex" unicode="&#x109;" horiz-adv-x="572" 
d="M373.5 122q27.5 30 37.5 73l142 -16q-20 -79 -82.5 -135t-175.5 -56q-81 0 -141 33.5t-92 96t-32 146.5t32 147t92 97t141 34q110 0 170 -51.5t80 -115.5l-136 -31q-29 93 -114 93q-57 0 -89.5 -44.5t-32.5 -128.5q0 -83 32.5 -127.5t89.5 -44.5q51 0 78.5 30zM293 677
l-66 -88h-131l137 161h125l137 -161h-131l-67 88h-4z" />
    <glyph glyph-name="Cdotaccent" unicode="&#x10a;" horiz-adv-x="744" 
d="M657 115.5q-42 -59.5 -111.5 -95.5t-159.5 -36q-102 0 -180.5 45t-122.5 129.5t-44 199.5q0 114 44 198.5t122.5 129t180.5 44.5q83 0 149 -31t108 -80.5t59 -106.5l-148 -23q-18 53 -61.5 86.5t-106.5 33.5q-87 0 -140.5 -64.5t-53.5 -186.5q0 -124 53.5 -188.5
t140.5 -64.5q72 0 116 43.5t59 112.5l151 -17q-13 -69 -55 -128.5zM456 902v-120h-140v120h140z" />
    <glyph glyph-name="cdotaccent" unicode="&#x10b;" horiz-adv-x="572" 
d="M373.5 122q27.5 30 37.5 73l142 -16q-20 -79 -82.5 -135t-175.5 -56q-81 0 -141 33.5t-92 96t-32 146.5t32 147t92 97t141 34q110 0 170 -51.5t80 -115.5l-136 -31q-29 93 -114 93q-57 0 -89.5 -44.5t-32.5 -128.5q0 -83 32.5 -127.5t89.5 -44.5q51 0 78.5 30zM365 724
v-120h-140v120h140z" />
    <glyph glyph-name="Ccaron" unicode="&#x10c;" horiz-adv-x="744" 
d="M657 115.5q-42 -59.5 -111.5 -95.5t-159.5 -36q-102 0 -180.5 45t-122.5 129.5t-44 199.5q0 114 44 198.5t122.5 129t180.5 44.5q83 0 149 -31t108 -80.5t59 -106.5l-148 -23q-18 53 -61.5 86.5t-106.5 33.5q-87 0 -140.5 -64.5t-53.5 -186.5q0 -124 53.5 -188.5
t140.5 -64.5q72 0 116 43.5t59 112.5l151 -17q-13 -69 -55 -128.5zM449 764h-125l-137 160h131l66 -88h4l67 88h131z" />
    <glyph glyph-name="ccaron" unicode="&#x10d;" horiz-adv-x="572" 
d="M373.5 122q27.5 30 37.5 73l142 -16q-20 -79 -82.5 -135t-175.5 -56q-81 0 -141 33.5t-92 96t-32 146.5t32 147t92 97t141 34q110 0 170 -51.5t80 -115.5l-136 -31q-29 93 -114 93q-57 0 -89.5 -44.5t-32.5 -128.5q0 -83 32.5 -127.5t89.5 -44.5q51 0 78.5 30zM358 589
h-125l-137 161h131l66 -88h4l67 88h131z" />
    <glyph glyph-name="Dcaron" unicode="&#x10e;" horiz-adv-x="738" 
d="M603 624q96 -90 96 -267t-96 -267t-261 -90h-283v714h283q165 0 261 -90zM488 176.5q58 57.5 58 180.5t-58 180.5t-168 57.5h-111v-476h111q110 0 168 57.5zM396 764h-125l-137 160h131l66 -88h4l67 88h131z" />
    <glyph glyph-name="dcaron" unicode="&#x10f;" horiz-adv-x="759" 
d="M721.5 522.5q-32.5 -41.5 -98.5 -43.5v60q23 2 37 19t14 46h-51v120h131v-82q0 -78 -32.5 -119.5zM356 522.5q41 -19.5 64 -54.5h4v256h139v-724h-133v69h-4q-23 -41 -65.5 -61t-97.5 -20q-67 0 -120 34t-83 96.5t-30 145.5t30 146t82.5 97.5t118.5 34.5q54 0 95 -19.5z
M396.5 138.5q34.5 43.5 34.5 125.5t-34.5 126.5t-94.5 44.5t-94.5 -44.5t-34.5 -126.5t34.5 -125.5t94.5 -43.5t94.5 43.5z" />
    <glyph glyph-name="Dcroat" unicode="&#x110;" horiz-adv-x="738" 
d="M603 624q96 -90 96 -267t-96 -267t-261 -90h-283v306h-60v103h60v305h283q165 0 261 -90zM488 176.5q58 57.5 58 180.5t-58 180.5t-168 57.5h-111v-186h148v-103h-148v-187h111q110 0 168 57.5z" />
    <glyph glyph-name="dcroat" unicode="&#x111;" horiz-adv-x="616" 
d="M613 587h-50v-587h-133v69h-4q-23 -41 -65.5 -61t-97.5 -20q-67 0 -120 34t-83 96.5t-30 145.5t30 146t82.5 97.5t118.5 34.5q54 0 95 -19.5t64 -54.5h4v119h-96v82h96v55h139v-55h50v-82zM396.5 138.5q34.5 43.5 34.5 125.5t-34.5 126.5t-94.5 44.5t-94.5 -44.5
t-34.5 -126.5t34.5 -125.5t94.5 -43.5t94.5 43.5z" />
    <glyph glyph-name="Emacron" unicode="&#x112;" horiz-adv-x="618" 
d="M562 424v-115h-353v-186h371v-123h-521v714h521v-119h-371v-171h353zM166 887h308v-91h-308v91z" />
    <glyph glyph-name="emacron" unicode="&#x113;" horiz-adv-x="590" 
d="M472 38.5q-63 -50.5 -176 -50.5q-81 0 -141 33.5t-92.5 96t-32.5 146.5q0 85 32 147.5t91.5 96.5t141.5 34q79 0 139 -32t93 -94.5t33 -149.5l-1 -31h-386q2 -67 35 -107.5t88 -40.5q51 0 78 24t38 58l142 -12q-19 -68 -82 -118.5zM210.5 410q-31.5 -34 -35.5 -85h241
q-4 52 -35.5 85.5t-85.5 33.5q-53 0 -84.5 -34zM141 716h308v-91h-308v91z" />
    <glyph glyph-name="Ebreve" unicode="&#x114;" horiz-adv-x="618" 
d="M562 424v-115h-353v-186h371v-123h-521v714h521v-119h-371v-171h353zM472 836.5q-25 -37.5 -65.5 -57t-86.5 -19.5q-47 0 -87.5 19.5t-65 57t-25.5 88.5h95q5 -36 28.5 -55t54.5 -19t54.5 19t27.5 55h96q-1 -51 -26 -88.5z" />
    <glyph glyph-name="ebreve" unicode="&#x115;" horiz-adv-x="590" 
d="M472 38.5q-63 -50.5 -176 -50.5q-81 0 -141 33.5t-92.5 96t-32.5 146.5q0 85 32 147.5t91.5 96.5t141.5 34q79 0 139 -32t93 -94.5t33 -149.5l-1 -31h-386q2 -67 35 -107.5t88 -40.5q51 0 78 24t38 58l142 -12q-19 -68 -82 -118.5zM210.5 410q-31.5 -34 -35.5 -85h241
q-4 52 -35.5 85.5t-85.5 33.5q-53 0 -84.5 -34zM447 662q-25 -37 -65.5 -56.5t-86.5 -19.5q-47 0 -87.5 19.5t-65 56.5t-25.5 88h95q5 -36 28.5 -55t54.5 -19t54.5 19t27.5 55h96q-1 -51 -26 -88z" />
    <glyph glyph-name="Edotaccent" unicode="&#x116;" horiz-adv-x="618" 
d="M562 424v-115h-353v-186h371v-123h-521v714h521v-119h-371v-171h353zM390 902v-120h-140v120h140z" />
    <glyph glyph-name="edotaccent" unicode="&#x117;" horiz-adv-x="590" 
d="M472 38.5q-63 -50.5 -176 -50.5q-81 0 -141 33.5t-92.5 96t-32.5 146.5q0 85 32 147.5t91.5 96.5t141.5 34q79 0 139 -32t93 -94.5t33 -149.5l-1 -31h-386q2 -67 35 -107.5t88 -40.5q51 0 78 24t38 58l142 -12q-19 -68 -82 -118.5zM210.5 410q-31.5 -34 -35.5 -85h241
q-4 52 -35.5 85.5t-85.5 33.5q-53 0 -84.5 -34zM365 724v-120h-140v120h140z" />
    <glyph glyph-name="Eogonek" unicode="&#x118;" horiz-adv-x="618" 
d="M592 -141v-81q-27 -7 -72 -7q-65 0 -101.5 26t-36.5 75q0 40 24.5 73.5t65.5 54.5h-413v714h521v-119h-371v-171h353v-115h-353v-186h371v-123q-48 -28 -70.5 -56t-22.5 -53q0 -19 15 -29t38 -10q30 0 52 7z" />
    <glyph glyph-name="eogonek" unicode="&#x119;" horiz-adv-x="591" 
d="M434 510q60 -32 93 -94.5t33 -149.5l-1 -31h-386q2 -67 35 -107.5t88 -40.5q51 0 78 24t38 58l142 -12q-10 -37 -33.5 -70.5t-62.5 -57.5q-66 -40 -100 -71t-34 -67q0 -19 15 -29t37 -10q32 0 53 8v-82q-27 -7 -72 -7q-65 0 -101.5 26t-36.5 75q0 35 18.5 65t50.5 51
q-119 3 -188.5 77t-69.5 199q0 85 32 147.5t91.5 96.5t141.5 34q79 0 139 -32zM380.5 410.5q-31.5 33.5 -85.5 33.5q-53 0 -84.5 -34t-35.5 -85h241q-4 52 -35.5 85.5z" />
    <glyph glyph-name="Ecaron" unicode="&#x11a;" horiz-adv-x="618" 
d="M562 424v-115h-353v-186h371v-123h-521v714h521v-119h-371v-171h353zM382 764h-125l-137 160h131l66 -88h4l67 88h131z" />
    <glyph glyph-name="ecaron" unicode="&#x11b;" horiz-adv-x="590" 
d="M472 38.5q-63 -50.5 -176 -50.5q-81 0 -141 33.5t-92.5 96t-32.5 146.5q0 85 32 147.5t91.5 96.5t141.5 34q79 0 139 -32t93 -94.5t33 -149.5l-1 -31h-386q2 -67 35 -107.5t88 -40.5q51 0 78 24t38 58l142 -12q-19 -68 -82 -118.5zM210.5 410q-31.5 -34 -35.5 -85h241
q-4 52 -35.5 85.5t-85.5 33.5q-53 0 -84.5 -34zM358 589h-125l-137 161h131l66 -88h4l67 88h131z" />
    <glyph glyph-name="Gcircumflex" unicode="&#x11c;" horiz-adv-x="771" 
d="M610 0v84q-37 -49 -92 -74.5t-128 -25.5q-102 0 -182 46t-124.5 130.5t-44.5 197.5t44.5 197t124.5 129.5t182 45.5q119 0 204.5 -60t119.5 -162l-151 -18q-23 57 -66.5 88t-106.5 31q-90 0 -144 -65t-54 -186q0 -123 54 -188t144 -65q76 0 126.5 44t61.5 113h-176v113
h315v-375h-107zM388 850l-66 -88h-131l137 161h125l137 -161h-131l-67 88h-4z" />
    <glyph glyph-name="gcircumflex" unicode="&#x11d;" horiz-adv-x="607" 
d="M558 40q0 -124 -72 -180t-191 -56q-99 0 -167 42t-92 131l138 17q12 -45 42 -65.5t79 -20.5q123 0 123 136v51h-4q-23 -33 -62.5 -50t-93.5 -17q-65 0 -116.5 31.5t-81 90t-29.5 135.5t29.5 135.5t82 90t118.5 31.5q53 0 94.5 -19t64.5 -57h4v63h134v-489zM391 174.5
q34 41.5 34 110.5q0 68 -34 109t-91 41q-58 0 -92 -41t-34 -109q0 -69 34 -110.5t92 -41.5q57 0 91 41.5zM292 677l-66 -88h-131l137 161h125l137 -161h-131l-67 88h-4z" />
    <glyph glyph-name="Gbreve" unicode="&#x11e;" horiz-adv-x="771" 
d="M610 0v84q-37 -49 -92 -74.5t-128 -25.5q-102 0 -182 46t-124.5 130.5t-44.5 197.5t44.5 197t124.5 129.5t182 45.5q119 0 204.5 -60t119.5 -162l-151 -18q-23 57 -66.5 88t-106.5 31q-90 0 -144 -65t-54 -186q0 -123 54 -188t144 -65q76 0 126.5 44t61.5 113h-176v113
h315v-375h-107zM542 836.5q-25 -37.5 -65.5 -57t-86.5 -19.5q-47 0 -87.5 19.5t-65 57t-25.5 88.5h95q5 -36 28.5 -55t54.5 -19t54.5 19t27.5 55h96q-1 -51 -26 -88.5z" />
    <glyph glyph-name="gbreve" unicode="&#x11f;" horiz-adv-x="607" 
d="M558 40q0 -124 -72 -180t-191 -56q-99 0 -167 42t-92 131l138 17q12 -45 42 -65.5t79 -20.5q123 0 123 136v51h-4q-23 -33 -62.5 -50t-93.5 -17q-65 0 -116.5 31.5t-81 90t-29.5 135.5t29.5 135.5t82 90t118.5 31.5q53 0 94.5 -19t64.5 -57h4v63h134v-489zM391 174.5
q34 41.5 34 110.5q0 68 -34 109t-91 41q-58 0 -92 -41t-34 -109q0 -69 34 -110.5t92 -41.5q57 0 91 41.5zM447 662q-25 -37 -65.5 -56.5t-86.5 -19.5q-47 0 -87.5 19.5t-65 56.5t-25.5 88h95q5 -36 28.5 -55t54.5 -19t54.5 19t27.5 55h96q-1 -51 -26 -88z" />
    <glyph glyph-name="Gdotaccent" unicode="&#x120;" horiz-adv-x="771" 
d="M610 0v84q-37 -49 -92 -74.5t-128 -25.5q-102 0 -182 46t-124.5 130.5t-44.5 197.5t44.5 197t124.5 129.5t182 45.5q119 0 204.5 -60t119.5 -162l-151 -18q-23 57 -66.5 88t-106.5 31q-90 0 -144 -65t-54 -186q0 -123 54 -188t144 -65q76 0 126.5 44t61.5 113h-176v113
h315v-375h-107zM460 902v-120h-140v120h140z" />
    <glyph glyph-name="gdotaccent" unicode="&#x121;" horiz-adv-x="607" 
d="M558 40q0 -124 -72 -180t-191 -56q-99 0 -167 42t-92 131l138 17q12 -45 42 -65.5t79 -20.5q123 0 123 136v51h-4q-23 -33 -62.5 -50t-93.5 -17q-65 0 -116.5 31.5t-81 90t-29.5 135.5t29.5 135.5t82 90t118.5 31.5q53 0 94.5 -19t64.5 -57h4v63h134v-489zM391 174.5
q34 41.5 34 110.5q0 68 -34 109t-91 41q-58 0 -92 -41t-34 -109q0 -69 34 -110.5t92 -41.5q57 0 91 41.5zM365 724v-120h-140v120h140z" />
    <glyph glyph-name="Gcommaaccent" unicode="&#x122;" horiz-adv-x="771" 
d="M610 0v84q-37 -49 -92 -74.5t-128 -25.5q-102 0 -182 46t-124.5 130.5t-44.5 197.5t44.5 197t124.5 129.5t182 45.5q119 0 204.5 -60t119.5 -162l-151 -18q-23 57 -66.5 88t-106.5 31q-90 0 -144 -65t-54 -186q0 -123 54 -188t144 -65q76 0 126.5 44t61.5 113h-176v113
h315v-375h-107zM324 -305v61q23 1 37 18t14 46h-51v120h132v-82q0 -157 -132 -163z" />
    <glyph glyph-name="gcommaaccent" unicode="&#x123;" horiz-adv-x="607" 
d="M558 40q0 -124 -72 -180t-191 -56q-99 0 -167 42t-92 131l138 17q12 -45 42 -65.5t79 -20.5q123 0 123 136v51h-4q-23 -33 -62.5 -50t-93.5 -17q-65 0 -116.5 31.5t-81 90t-29.5 135.5t29.5 135.5t82 90t118.5 31.5q53 0 94.5 -19t64.5 -57h4v63h134v-489zM391 174.5
q34 41.5 34 110.5q0 68 -34 109t-91 41q-58 0 -92 -41t-34 -109q0 -69 34 -110.5t92 -41.5q57 0 91 41.5zM361 834v-61q-23 -1 -37 -18t-14 -46h51v-120h-132v82q0 157 132 163z" />
    <glyph glyph-name="Hcircumflex" unicode="&#x124;" horiz-adv-x="734" 
d="M675 0h-150v300h-316v-300h-150v714h150v-291h316v291h150v-714zM367 850l-66 -88h-131l137 161h125l137 -161h-131l-67 88h-4z" />
    <glyph glyph-name="hcircumflex" unicode="&#x125;" 
d="M197 459q60 83 164 83q79 0 131 -49t52 -144v-349h-140v313q0 62 -24.5 89t-74.5 27q-29 0 -55 -17.5t-41.5 -51t-15.5 -78.5v-282h-140v724h140v-265h4zM296 860l-66 -88h-131l137 161h125l137 -161h-131l-67 88h-4z" />
    <glyph glyph-name="Hbar" unicode="&#x126;" horiz-adv-x="732" 
d="M675 508v-508h-150v300h-316v-300h-150v508h-47v98h47v108h150v-108h316v108h150v-108h45v-98h-45zM209 508v-85h316v85h-316z" />
    <glyph glyph-name="hbar" unicode="&#x127;" 
d="M492 493q52 -49 52 -144v-349h-140v313q0 62 -24.5 89t-74.5 27q-29 0 -55 -17.5t-41.5 -51t-15.5 -78.5v-282h-140v587h-50v82h50v55h140v-55h96v-82h-96v-128h4q60 83 164 83q79 0 131 -49z" />
    <glyph glyph-name="Itilde" unicode="&#x128;" horiz-adv-x="272" 
d="M61 714h150v-714h-150v714zM205 865q-16 0 -41 17l-28 17q-16 10 -29.5 15.5t-29.5 5.5q-48 0 -80.5 -30.5t-40.5 -92.5l74 -11q9 42 38 42q9 0 19.5 -5.5t20.5 -11.5l28 -17q31 -21 60 -21q48 0 80 30t41 93l-75 11q-8 -42 -37 -42z" />
    <glyph glyph-name="itilde" unicode="&#x129;" horiz-adv-x="246" 
d="M193 529v-529h-140v529h140zM192 700q-10 0 -20.5 5.5t-20.5 11.5l-28 17q-31 21 -59 21q-48 0 -80.5 -30.5t-40.5 -92.5l74 -11q9 42 38 42q9 0 18 -4t22 -12l28 -18q15 -9 28.5 -14.5t31.5 -5.5q48 0 80 30t41 92l-75 11q-8 -42 -37 -42z" />
    <glyph glyph-name="Imacron" unicode="&#x12a;" horiz-adv-x="272" 
d="M61 714h150v-714h-150v714zM-18 887h308v-91h-308v91z" />
    <glyph glyph-name="imacron" unicode="&#x12b;" horiz-adv-x="246" 
d="M193 529v-529h-140v529h140zM-31 716h308v-91h-308v91z" />
    <glyph glyph-name="Ibreve" unicode="&#x12c;" horiz-adv-x="272" 
d="M61 714h150v-714h-150v714zM288 836.5q-25 -37.5 -65.5 -57t-86.5 -19.5q-47 0 -87.5 19.5t-65 57t-25.5 88.5h95q5 -36 28.5 -55t54.5 -19t54.5 19t27.5 55h96q-1 -51 -26 -88.5z" />
    <glyph glyph-name="ibreve" unicode="&#x12d;" horiz-adv-x="246" 
d="M193 529v-529h-140v529h140zM275 662q-25 -37 -65.5 -56.5t-86.5 -19.5q-47 0 -87.5 19.5t-65 56.5t-25.5 88h95q5 -36 28.5 -55t54.5 -19t54.5 19t27.5 55h96q-1 -51 -26 -88z" />
    <glyph glyph-name="Iogonek" unicode="&#x12e;" horiz-adv-x="272" 
d="M140.5 -56q-22.5 -28 -22.5 -53q0 -19 15.5 -29t37.5 -10q31 0 52 8v-82q-27 -7 -72 -7q-65 0 -101.5 26t-36.5 75q0 40 24.5 73.5t65.5 54.5h-42v714h150v-714q-48 -28 -70.5 -56z" />
    <glyph glyph-name="iogonek" unicode="&#x12f;" horiz-adv-x="246" 
d="M53 604v120h140v-120h-140zM133 -229q-65 0 -101.5 26t-36.5 75q0 40 24.5 73.5t65.5 54.5h-32v529h140v-529q-48 -28 -70.5 -56t-22.5 -53q0 -19 15 -29t38 -10q30 0 52 7v-81q-27 -7 -72 -7z" />
    <glyph glyph-name="Idotaccent" unicode="&#x130;" horiz-adv-x="272" 
d="M61 714h150v-714h-150v714zM206 902v-120h-140v120h140z" />
    <glyph glyph-name="dotlessi" unicode="&#x131;" horiz-adv-x="246" 
d="M193 529v-529h-140v529h140z" />
    <glyph glyph-name="IJ" unicode="&#x132;" horiz-adv-x="898" 
d="M61 714h150v-714h-150v714zM764.5 46q-74.5 -62 -200.5 -62q-118 0 -191 63t-86 186q-1 22 0 36l144 13q-1 -5 -1 -16q0 -12 1 -18q8 -73 41.5 -107t91.5 -34q61 0 92 34t31 107v466h152v-476q0 -130 -74.5 -192z" />
    <glyph glyph-name="ij" unicode="&#x133;" horiz-adv-x="492" 
d="M193 724v-120h-140v120h140zM439 724v-120h-140v120h140zM193 529v-529h-140v529h140zM288 -74q11 8 11 34v569h140v-594q0 -53 -15 -81.5t-44.5 -39t-78.5 -10.5q-72 0 -85 2v113q13 -1 38 -1q23 0 34 8z" />
    <glyph glyph-name="Jcircumflex" unicode="&#x134;" horiz-adv-x="626" 
d="M492.5 46q-74.5 -62 -200.5 -62q-118 0 -191 63t-86 186q-1 22 0 36l144 13q-1 -5 -1 -16q0 -12 1 -18q8 -73 41.5 -107t91.5 -34q61 0 92 34t31 107v466h152v-476q0 -130 -74.5 -192zM489 850l-66 -88h-131l137 161h125l137 -161h-131l-67 88h-4z" />
    <glyph glyph-name="jcircumflex" unicode="&#x135;" horiz-adv-x="246" 
d="M42 -74q11 8 11 34v569h140v-594q0 -53 -15 -81.5t-44.5 -39t-78.5 -10.5q-72 0 -85 2v113q13 -1 38 -1q23 0 34 8zM121 677l-66 -88h-131l137 161h125l137 -161h-131l-67 88h-4z" />
    <glyph glyph-name="Kcommaaccent" unicode="&#x136;" horiz-adv-x="678" 
d="M200 246v-246h-150v714h150v-295l268 295h174l-253 -272l293 -442h-180l-218 336zM285 -305v61q23 1 37 18t14 46h-51v120h132v-82q0 -157 -132 -163z" />
    <glyph glyph-name="kcommaaccent" unicode="&#x137;" horiz-adv-x="563" 
d="M193 0h-140v724h140v-400l191 205h162l-198 -203l220 -326h-162l-153 233l-60 -61v-172zM233 -305v61q23 1 37 18t14 46h-51v120h132v-82q0 -157 -132 -163z" />
    <glyph glyph-name="kgreenlandic" unicode="&#x138;" horiz-adv-x="563" 
d="M193 0h-140v529h140v-205l191 205h162l-198 -203l220 -326h-162l-153 233l-60 -61v-172z" />
    <glyph glyph-name="Lacute" unicode="&#x139;" horiz-adv-x="604" 
d="M59 714h150v-588h376v-126h-526v714zM83 767l83 161h147l-127 -161h-103z" />
    <glyph glyph-name="lacute" unicode="&#x13a;" horiz-adv-x="250" 
d="M195 724v-724h-140v724h140zM73 777l83 161h147l-127 -161h-103z" />
    <glyph glyph-name="Lcommaaccent" unicode="&#x13b;" horiz-adv-x="604" 
d="M59 714h150v-588h376v-126h-526v714zM256 -305v61q23 1 37 18t14 46h-51v120h132v-82q0 -157 -132 -163z" />
    <glyph glyph-name="lcommaaccent" unicode="&#x13c;" horiz-adv-x="250" 
d="M195 724v-724h-140v724h140zM59 -305v61q23 1 37 18t14 46h-51v120h132v-82q0 -157 -132 -163z" />
    <glyph glyph-name="Lcaron" unicode="&#x13d;" horiz-adv-x="604" 
d="M59 714h150v-588h376v-126h-526v714zM197 764h-125l-137 160h131l66 -88h4l67 88h131z" />
    <glyph glyph-name="lcaron" unicode="&#x13e;" horiz-adv-x="250" 
d="M195 724v-724h-140v724h140zM187 784h-125l-137 161h131l66 -88h4l67 88h131z" />
    <glyph glyph-name="Ldot" unicode="&#x13f;" horiz-adv-x="604" 
d="M59 714h150v-588h376v-126h-526v714zM359.7 334.713q-26.5312 26.5322 -26.5312 64.1582q0 36.6621 26.5312 63.1934t64.1582 26.5312q37.626 0 63.6758 -26.5312q26.0488 -26.5312 26.0488 -63.1934q0 -37.626 -26.0488 -64.1582q-26.0498 -26.5312 -63.6758 -26.5312
q-37.627 0 -64.1582 26.5312z" />
    <glyph glyph-name="ldot" unicode="&#x140;" horiz-adv-x="442" 
d="M195 724v-724h-140v724h140zM276 302q-26 26 -26 63t26 63t63 26t63 -26t26 -63t-26 -63t-63 -26t-63 26z" />
    <glyph glyph-name="Lslash" unicode="&#x141;" horiz-adv-x="604" 
d="M585 0h-526v227l-47 -28v112l47 28v375h150v-286l165 97v-111l-165 -98v-190h376v-126z" />
    <glyph glyph-name="lslash" unicode="&#x142;" horiz-adv-x="262" 
d="M258 383l-57 -33v-350h-140v267l-57 -34v112l57 34v345h140v-263l57 34v-112z" />
    <glyph glyph-name="Nacute" unicode="&#x143;" horiz-adv-x="739" 
d="M514 0l-313 512h-4v-512h-138v714h170l309 -503h4v503h138v-714h-166zM318 767l83 161h147l-127 -161h-103z" />
    <glyph glyph-name="nacute" unicode="&#x144;" 
d="M191 459q59 83 167 83q81 0 133.5 -49t52.5 -144v-349h-140v313q0 62 -24.5 89t-74.5 27q-47 0 -79.5 -36.5t-32.5 -104.5v-288h-140v529h134v-70h4zM247 589l83 161h147l-127 -161h-103z" />
    <glyph glyph-name="Ncommaaccent" unicode="&#x145;" horiz-adv-x="739" 
d="M514 0l-313 512h-4v-512h-138v714h170l309 -503h4v503h138v-714h-166zM303 -305v61q23 1 37 18t14 46h-51v120h132v-82q0 -157 -132 -163z" />
    <glyph glyph-name="ncommaaccent" unicode="&#x146;" 
d="M191 459q59 83 167 83q81 0 133.5 -49t52.5 -144v-349h-140v313q0 62 -24.5 89t-74.5 27q-47 0 -79.5 -36.5t-32.5 -104.5v-288h-140v529h134v-70h4zM232 -305v61q23 1 37 18t14 46h-51v120h132v-82q0 -157 -132 -163z" />
    <glyph glyph-name="Ncaron" unicode="&#x147;" horiz-adv-x="739" 
d="M514 0l-313 512h-4v-512h-138v714h170l309 -503h4v503h138v-714h-166zM432 764h-125l-137 160h131l66 -88h4l67 88h131z" />
    <glyph glyph-name="ncaron" unicode="&#x148;" 
d="M191 459q59 83 167 83q81 0 133.5 -49t52.5 -144v-349h-140v313q0 62 -24.5 89t-74.5 27q-47 0 -79.5 -36.5t-32.5 -104.5v-288h-140v529h134v-70h4zM361 589h-125l-137 161h131l66 -88h4l67 88h131z" />
    <glyph glyph-name="napostrophe" unicode="&#x149;" horiz-adv-x="696" 
d="M4 479v60q24 2 37.5 18.5t13.5 46.5h-51v120h132v-82q0 -159 -132 -163zM294 459q59 83 167 83q81 0 133.5 -49t52.5 -144v-349h-140v314q0 62 -24.5 89t-74.5 27q-47 0 -79.5 -36.5t-32.5 -103.5v-290h-140v529h134v-70h4z" />
    <glyph glyph-name="Eng" unicode="&#x14a;" horiz-adv-x="739" 
d="M680 -20q0 -87 -63 -132t-164 -45q-64 0 -113.5 22t-78.5 62t-30 92l136 1q2 -30 24.5 -49.5t62.5 -19.5q42 0 64 21.5t22 52.5v15l-339 512h-4v-512h-138v714h163l316 -476h4v476h138v-734z" />
    <glyph glyph-name="eng" unicode="&#x14b;" 
d="M491.5 493q52.5 -49 52.5 -144v-414q0 -53 -15 -81.5t-44.5 -39t-78.5 -10.5q-71 0 -85 2v113q13 -1 38 -1q23 0 34 8t11 34v353q0 62 -24.5 89t-74.5 27q-47 0 -79.5 -36.5t-32.5 -104.5v-288h-140v529h134v-70h4q59 83 167 83q81 0 133.5 -49z" />
    <glyph glyph-name="Omacron" unicode="&#x14c;" horiz-adv-x="780" 
d="M572.5 685.5q79.5 -44.5 124 -129t44.5 -199.5t-44.5 -199.5t-124 -129t-182.5 -44.5q-104 0 -183.5 44.5t-123.5 129t-44 199.5t44 199.5t123.5 129t183.5 44.5q103 0 182.5 -44.5zM534 169.5q54 64.5 54 187.5t-54 187.5t-144 64.5t-144 -64.5t-54 -187.5t54 -187.5
t144 -64.5t144 64.5zM236 887h308v-91h-308v91z" />
    <glyph glyph-name="omacron" unicode="&#x14d;" horiz-adv-x="602" 
d="M445 508q61 -34 93.5 -97t32.5 -147t-32.5 -146.5t-93.5 -96t-144 -33.5t-144.5 33.5t-94 96t-32.5 146.5q0 85 32.5 147.5t94 96.5t144.5 34t144 -34zM395 137q34 44 34 127q0 84 -34 128.5t-94 44.5t-94 -44.5t-34 -128.5q0 -83 34 -127t94 -44t94 44zM147 716h308v-91
h-308v91z" />
    <glyph glyph-name="Obreve" unicode="&#x14e;" horiz-adv-x="780" 
d="M572.5 685.5q79.5 -44.5 124 -129t44.5 -199.5t-44.5 -199.5t-124 -129t-182.5 -44.5q-104 0 -183.5 44.5t-123.5 129t-44 199.5t44 199.5t123.5 129t183.5 44.5q103 0 182.5 -44.5zM534 169.5q54 64.5 54 187.5t-54 187.5t-144 64.5t-144 -64.5t-54 -187.5t54 -187.5
t144 -64.5t144 64.5zM542 836.5q-25 -37.5 -65.5 -57t-86.5 -19.5q-47 0 -87.5 19.5t-65 57t-25.5 88.5h95q5 -36 28.5 -55t54.5 -19t54.5 19t27.5 55h96q-1 -51 -26 -88.5z" />
    <glyph glyph-name="obreve" unicode="&#x14f;" horiz-adv-x="602" 
d="M445 508q61 -34 93.5 -97t32.5 -147t-32.5 -146.5t-93.5 -96t-144 -33.5t-144.5 33.5t-94 96t-32.5 146.5q0 85 32.5 147.5t94 96.5t144.5 34t144 -34zM395 137q34 44 34 127q0 84 -34 128.5t-94 44.5t-94 -44.5t-34 -128.5q0 -83 34 -127t94 -44t94 44zM453 662
q-25 -37 -65.5 -56.5t-86.5 -19.5q-47 0 -87.5 19.5t-65 56.5t-25.5 88h95q5 -36 28.5 -55t54.5 -19t54.5 19t27.5 55h96q-1 -51 -26 -88z" />
    <glyph glyph-name="Ohungarumlaut" unicode="&#x150;" horiz-adv-x="780" 
d="M572.5 685.5q79.5 -44.5 124 -129t44.5 -199.5t-44.5 -199.5t-124 -129t-182.5 -44.5q-104 0 -183.5 44.5t-123.5 129t-44 199.5t44 199.5t123.5 129t183.5 44.5q103 0 182.5 -44.5zM534 169.5q54 64.5 54 187.5t-54 187.5t-144 64.5t-144 -64.5t-54 -187.5t54 -187.5
t144 -64.5t144 64.5zM257 767l57 161h127l-92 -161h-92zM431 767l57 161h126l-92 -161h-91z" />
    <glyph glyph-name="ohungarumlaut" unicode="&#x151;" horiz-adv-x="602" 
d="M445 508q61 -34 93.5 -97t32.5 -147t-32.5 -146.5t-93.5 -96t-144 -33.5t-144.5 33.5t-94 96t-32.5 146.5q0 85 32.5 147.5t94 96.5t144.5 34t144 -34zM395 137q34 44 34 127q0 84 -34 128.5t-94 44.5t-94 -44.5t-34 -128.5q0 -83 34 -127t94 -44t94 44zM168 589l57 161
h127l-92 -161h-92zM342 589l57 161h126l-92 -161h-91z" />
    <glyph glyph-name="OE" unicode="&#x152;" horiz-adv-x="1124" 
d="M736 425h331v-119h-331v-182h350v-124h-494v81h-4q-76 -97 -224 -97q-95 0 -168.5 45t-115 129t-41.5 199t41.5 199t115 129t168.5 45q148 0 224 -97h4v81h494v-124h-350v-165zM537.5 169.5q54.5 64.5 54.5 187.5t-54.5 187.5t-145.5 64.5t-145.5 -64t-54.5 -188
t54.5 -188t145.5 -64t145.5 64.5z" />
    <glyph glyph-name="oe" unicode="&#x153;" horiz-adv-x="987" 
d="M869 38q-63 -50 -177 -50q-65 0 -114 23.5t-79 67.5q-30 -44 -80.5 -67.5t-117.5 -23.5q-83 0 -144.5 33.5t-94 96t-32.5 146.5q0 85 32.5 147.5t94 96.5t144.5 34q67 0 117 -23.5t81 -67.5q30 44 78.5 67.5t114.5 23.5q79 0 139 -32t93 -94.5t33 -149.5l-1 -31h-386
q2 -67 35 -107.5t87 -40.5q52 0 79 24.5t37 57.5l143 -12q-19 -69 -82 -119zM777.5 410.5q-31.5 33.5 -85.5 33.5t-85 -33.5t-36 -85.5h242q-4 52 -35.5 85.5zM395 136.5q34 44.5 34 127.5q0 84 -34 128.5t-94 44.5t-94 -44.5t-34 -128.5q0 -83 34 -127.5t94 -44.5t94 44.5z
" />
    <glyph glyph-name="Racute" unicode="&#x154;" horiz-adv-x="698" 
d="M354 261h-145v-261h-150v714h349q122 0 190 -60.5t68 -165.5q0 -80 -39.5 -135.5t-113.5 -77.5l169 -275h-175zM385 380q63 0 96 28t33 80q0 51 -33 79t-96 28h-176v-215h176zM287 767l83 161h147l-127 -161h-103z" />
    <glyph glyph-name="racute" unicode="&#x155;" horiz-adv-x="401" 
d="M187 448h4q22 43 62.5 68.5t96.5 25.5q20 0 37 -5v-130q-6 0 -23 2t-32 2q-139 0 -139 -144v-267h-140v529h134v-81zM168 589l83 161h147l-127 -161h-103z" />
    <glyph glyph-name="Rcommaaccent" unicode="&#x156;" horiz-adv-x="698" 
d="M354 261h-145v-261h-150v714h349q122 0 190 -60.5t68 -165.5q0 -80 -39.5 -135.5t-113.5 -77.5l169 -275h-175zM385 380q63 0 96 28t33 80q0 51 -33 79t-96 28h-176v-215h176zM292 -305v61q23 1 37 18t14 46h-51v120h132v-82q0 -157 -132 -163z" />
    <glyph glyph-name="rcommaaccent" unicode="&#x157;" horiz-adv-x="401" 
d="M187 448h4q22 43 62.5 68.5t96.5 25.5q20 0 37 -5v-130q-6 0 -23 2t-32 2q-139 0 -139 -144v-267h-140v529h134v-81zM57 -305v61q23 1 37 18t14 46h-51v120h132v-82q0 -157 -132 -163z" />
    <glyph glyph-name="Rcaron" unicode="&#x158;" horiz-adv-x="698" 
d="M354 261h-145v-261h-150v714h349q122 0 190 -60.5t68 -165.5q0 -80 -39.5 -135.5t-113.5 -77.5l169 -275h-175zM385 380q63 0 96 28t33 80q0 51 -33 79t-96 28h-176v-215h176zM402 764h-125l-137 160h131l66 -88h4l67 88h131z" />
    <glyph glyph-name="rcaron" unicode="&#x159;" horiz-adv-x="401" 
d="M187 448h4q22 43 62.5 68.5t96.5 25.5q20 0 37 -5v-130q-6 0 -23 2t-32 2q-139 0 -139 -144v-267h-140v529h134v-81zM283 589h-125l-137 161h131l66 -88h4l67 88h131z" />
    <glyph glyph-name="Sacute" unicode="&#x15a;" horiz-adv-x="670" 
d="M420.5 588q-38.5 29 -101.5 29q-57 0 -91 -25t-34 -65q0 -34 25 -51.5t75 -28.5l117 -28q74 -19 118.5 -38t75 -62.5t30.5 -119.5q0 -71 -39 -119.5t-105.5 -72t-148.5 -23.5q-134 0 -219.5 61.5t-100.5 175.5l148 15q8 -71 55 -104.5t119 -33.5q61 0 99.5 25.5
t38.5 70.5q0 30 -14 47.5t-38.5 27.5t-66.5 21l-116 29q-62 16 -104 35.5t-70 59.5t-28 106q0 65 36 112.5t99.5 72.5t142.5 25q119 0 194.5 -56t97.5 -161l-146 -10q-10 56 -48.5 85zM271 767l83 161h147l-127 -161h-103z" />
    <glyph glyph-name="sacute" unicode="&#x15b;" horiz-adv-x="533" 
d="M328 428q-29 21 -68 21t-62.5 -16.5t-23.5 -46.5q0 -26 23 -38t70 -20l54 -8q88 -15 137.5 -49t49.5 -114q0 -84 -67 -126.5t-176 -42.5q-104 0 -171 44.5t-81 121.5l130 19q10 -46 41.5 -69.5t81.5 -23.5q45 0 72 19t27 52q0 27 -25 41t-74 22l-58 9q-79 13 -127 47
t-48 110q0 49 30.5 86t82.5 56.5t114 19.5q92 0 156.5 -43t76.5 -112l-128 -18q-8 38 -37 59zM208 589l83 161h147l-127 -161h-103z" />
    <glyph glyph-name="Scircumflex" unicode="&#x15c;" horiz-adv-x="670" 
d="M420.5 588q-38.5 29 -101.5 29q-57 0 -91 -25t-34 -65q0 -34 25 -51.5t75 -28.5l117 -28q74 -19 118.5 -38t75 -62.5t30.5 -119.5q0 -71 -39 -119.5t-105.5 -72t-148.5 -23.5q-134 0 -219.5 61.5t-100.5 175.5l148 15q8 -71 55 -104.5t119 -33.5q61 0 99.5 25.5
t38.5 70.5q0 30 -14 47.5t-38.5 27.5t-66.5 21l-116 29q-62 16 -104 35.5t-70 59.5t-28 106q0 65 36 112.5t99.5 72.5t142.5 25q119 0 194.5 -56t97.5 -161l-146 -10q-10 56 -48.5 85zM321 850l-66 -88h-131l137 161h125l137 -161h-131l-67 88h-4z" />
    <glyph glyph-name="scircumflex" unicode="&#x15d;" horiz-adv-x="533" 
d="M328 428q-29 21 -68 21t-62.5 -16.5t-23.5 -46.5q0 -26 23 -38t70 -20l54 -8q88 -15 137.5 -49t49.5 -114q0 -84 -67 -126.5t-176 -42.5q-104 0 -171 44.5t-81 121.5l130 19q10 -46 41.5 -69.5t81.5 -23.5q45 0 72 19t27 52q0 27 -25 41t-74 22l-58 9q-79 13 -127 47
t-48 110q0 49 30.5 86t82.5 56.5t114 19.5q92 0 156.5 -43t76.5 -112l-128 -18q-8 38 -37 59zM258 677l-66 -88h-131l137 161h125l137 -161h-131l-67 88h-4z" />
    <glyph glyph-name="Scedilla" unicode="&#x15e;" horiz-adv-x="670" 
d="M363 -39q45 -5 70 -27t25 -62q0 -50 -36.5 -75.5t-102.5 -25.5q-28 0 -58 6t-52 18l21 63q17 -9 39 -15.5t44 -6.5q18 0 31 9.5t13 27.5q0 30 -44 30q-13 0 -41 -8v63l26 27q-117 10 -189.5 70.5t-86.5 165.5l148 15q8 -71 55 -104.5t119 -33.5q61 0 99.5 25.5t38.5 70.5
q0 30 -14 47.5t-38.5 27.5t-66.5 21l-116 29q-62 16 -104 35.5t-70 59.5t-28 106q0 65 36 112.5t99.5 72.5t142.5 25q122 0 196 -55.5t96 -161.5l-146 -10q-10 56 -48.5 85t-101.5 29q-57 0 -91 -25t-34 -65q0 -34 25 -51.5t75 -28.5l117 -28q73 -18 118 -37.5t75.5 -63
t30.5 -119.5q0 -97 -70.5 -151t-184.5 -63l-17 -19v-5z" />
    <glyph glyph-name="scedilla" unicode="&#x15f;" horiz-adv-x="533" 
d="M285 -39q44 -5 69.5 -27t25.5 -62q0 -50 -37 -75.5t-102 -25.5q-28 0 -58 6t-52 18l20 63q42 -22 84 -22q18 0 31 9.5t13 27.5q0 30 -44 30q-13 0 -41 -8v63l30 32q-88 8 -143.5 51.5t-67.5 112.5l130 19q10 -46 41.5 -69.5t81.5 -23.5q45 0 72 19t27 52q0 27 -25 41
t-74 22l-58 9q-79 13 -127 47t-48 110q0 49 30.5 86t82.5 56.5t114 19.5q92 0 156.5 -43t76.5 -112l-128 -18q-8 38 -37 59t-68 21t-62.5 -16.5t-23.5 -46.5q0 -26 23 -38t70 -20l54 -8q88 -15 137.5 -49t49.5 -114q0 -75 -55 -117t-147 -50l-21 -24v-5z" />
    <glyph glyph-name="Scaron" unicode="&#x160;" horiz-adv-x="670" 
d="M420.5 588q-38.5 29 -101.5 29q-57 0 -91 -25t-34 -65q0 -34 25 -51.5t75 -28.5l117 -28q74 -19 118.5 -38t75 -62.5t30.5 -119.5q0 -71 -39 -119.5t-105.5 -72t-148.5 -23.5q-134 0 -219.5 61.5t-100.5 175.5l148 15q8 -71 55 -104.5t119 -33.5q61 0 99.5 25.5
t38.5 70.5q0 30 -14 47.5t-38.5 27.5t-66.5 21l-116 29q-62 16 -104 35.5t-70 59.5t-28 106q0 65 36 112.5t99.5 72.5t142.5 25q119 0 194.5 -56t97.5 -161l-146 -10q-10 56 -48.5 85zM386 764h-125l-137 160h131l66 -88h4l67 88h131z" />
    <glyph glyph-name="scaron" unicode="&#x161;" horiz-adv-x="533" 
d="M328 428q-29 21 -68 21t-62.5 -16.5t-23.5 -46.5q0 -26 23 -38t70 -20l54 -8q88 -15 137.5 -49t49.5 -114q0 -84 -67 -126.5t-176 -42.5q-104 0 -171 44.5t-81 121.5l130 19q10 -46 41.5 -69.5t81.5 -23.5q45 0 72 19t27 52q0 27 -25 41t-74 22l-58 9q-79 13 -127 47
t-48 110q0 49 30.5 86t82.5 56.5t114 19.5q92 0 156.5 -43t76.5 -112l-128 -18q-8 38 -37 59zM323 589h-125l-137 161h131l66 -88h4l67 88h131z" />
    <glyph glyph-name="Tcedilla" unicode="&#x162;" horiz-adv-x="682" 
d="M359 -39q45 -5 70 -27t25 -62q0 -50 -36.5 -75.5t-101.5 -25.5q-29 0 -59 6t-51 18l20 63q17 -9 39.5 -15.5t44.5 -6.5q17 0 30 9.5t13 27.5q0 30 -43 30q-15 0 -41 -8v63l39 42h-42v588h-241v126h632v-126h-241v-588h-26l-31 -34v-5z" />
    <glyph glyph-name="tcedilla" unicode="&#x163;" horiz-adv-x="369" 
d="M13 529h84v148h140v-148h111v-94h-111v-274q0 -33 13 -42.5t49 -9.5h45v-109q3 0 -42 -2h-22l-29 -32v-5q44 -5 69.5 -27t25.5 -62q0 -50 -37 -75.5t-102 -25.5q-28 0 -58 6t-52 18l20 63q42 -22 84 -22q18 0 31 9.5t13 27.5q0 30 -44 30q-13 0 -41 -8v63l40 42
q-55 7 -79 35t-24 91v309h-84v94z" />
    <glyph glyph-name="Tcaron" unicode="&#x164;" horiz-adv-x="662" 
d="M406 588v-588h-150v588h-231v126h612v-126h-231zM394 764h-125l-137 160h131l66 -88h4l67 88h131z" />
    <glyph glyph-name="tcaron" unicode="&#x165;" horiz-adv-x="524" 
d="M486.5 522.5q-32.5 -41.5 -98.5 -43.5v60q23 2 37 19t14 46h-51v120h131v-82q0 -78 -32.5 -119.5zM344 109v-109q-28 -2 -92 -2q-57 0 -90 10.5t-49 38t-16 79.5v309h-84v94h84v148h140v-148h111v-94h-111v-274q0 -33 13 -42.5t49 -9.5h45z" />
    <glyph glyph-name="Tbar" unicode="&#x166;" horiz-adv-x="682" 
d="M416 393h101v-98h-101v-295h-150v295h-101v98h101v195h-241v126h632v-126h-241v-195z" />
    <glyph glyph-name="tbar" unicode="&#x167;" horiz-adv-x="369" 
d="M237 364h111v-82h-111v-121q0 -33 13 -42.5t49 -9.5h45v-109q-28 -2 -92 -2q-57 0 -90 10.5t-49 38t-16 79.5v156h-84v82h84v71h-84v94h84v148h140v-148h111v-94h-111v-71z" />
    <glyph glyph-name="Utilde" unicode="&#x168;" horiz-adv-x="728" 
d="M629.5 109.5q-39.5 -62.5 -108.5 -94t-157 -31.5t-157 31.5t-108.5 94t-39.5 153.5v451h150v-437q0 -88 39 -129t116 -41q76 0 115.5 41t39.5 129v437h150v-451q0 -91 -39.5 -153.5zM433 865q-16 0 -41 17l-28 17q-16 10 -29.5 15.5t-29.5 5.5q-48 0 -80.5 -30.5
t-40.5 -92.5l74 -11q9 42 38 42q9 0 19.5 -5.5t20.5 -11.5l28 -17q31 -21 60 -21q48 0 80 30t41 93l-75 11q-8 -42 -37 -42z" />
    <glyph glyph-name="utilde" unicode="&#x169;" 
d="M406 70q-58 -82 -167 -82q-81 0 -133.5 48.5t-52.5 144.5v348h140v-312q0 -62 24.5 -89t74.5 -27q47 0 79.5 36.5t32.5 103.5v288h140v-529h-134v70h-4zM367 700q-10 0 -20.5 5.5t-20.5 11.5l-28 17q-31 21 -59 21q-48 0 -80.5 -30.5t-40.5 -92.5l74 -11q9 42 38 42
q9 0 18 -4t22 -12l28 -18q15 -9 28.5 -14.5t31.5 -5.5q48 0 80 30t41 92l-75 11q-8 -42 -37 -42z" />
    <glyph glyph-name="Umacron" unicode="&#x16a;" horiz-adv-x="728" 
d="M629.5 109.5q-39.5 -62.5 -108.5 -94t-157 -31.5t-157 31.5t-108.5 94t-39.5 153.5v451h150v-437q0 -88 39 -129t116 -41q76 0 115.5 41t39.5 129v437h150v-451q0 -91 -39.5 -153.5zM210 887h308v-91h-308v91z" />
    <glyph glyph-name="umacron" unicode="&#x16b;" 
d="M406 70q-58 -82 -167 -82q-81 0 -133.5 48.5t-52.5 144.5v348h140v-312q0 -62 24.5 -89t74.5 -27q47 0 79.5 36.5t32.5 103.5v288h140v-529h-134v70h-4zM145 716h308v-91h-308v91z" />
    <glyph glyph-name="Ubreve" unicode="&#x16c;" horiz-adv-x="728" 
d="M629.5 109.5q-39.5 -62.5 -108.5 -94t-157 -31.5t-157 31.5t-108.5 94t-39.5 153.5v451h150v-437q0 -88 39 -129t116 -41q76 0 115.5 41t39.5 129v437h150v-451q0 -91 -39.5 -153.5zM516 836.5q-25 -37.5 -65.5 -57t-86.5 -19.5q-47 0 -87.5 19.5t-65 57t-25.5 88.5h95
q5 -36 28.5 -55t54.5 -19t54.5 19t27.5 55h96q-1 -51 -26 -88.5z" />
    <glyph glyph-name="ubreve" unicode="&#x16d;" 
d="M406 70q-58 -82 -167 -82q-81 0 -133.5 48.5t-52.5 144.5v348h140v-312q0 -62 24.5 -89t74.5 -27q47 0 79.5 36.5t32.5 103.5v288h140v-529h-134v70h-4zM451 662q-25 -37 -65.5 -56.5t-86.5 -19.5q-47 0 -87.5 19.5t-65 56.5t-25.5 88h95q5 -36 28.5 -55t54.5 -19
t54.5 19t27.5 55h96q-1 -51 -26 -88z" />
    <glyph glyph-name="Uring" unicode="&#x16e;" horiz-adv-x="728" 
d="M629.5 109.5q-39.5 -62.5 -108.5 -94t-157 -31.5t-157 31.5t-108.5 94t-39.5 153.5v451h150v-437q0 -88 39 -129t116 -41q76 0 115.5 41t39.5 129v437h150v-451q0 -91 -39.5 -153.5zM281 784.5q-34 32.5 -34 81.5q0 48 34 80.5t84 32.5q48 0 82.5 -32.5t34.5 -80.5
t-34.5 -81t-82.5 -33q-50 0 -84 32.5zM400 827.5q14 14.5 14 38.5q0 23 -14 37.5t-35 14.5q-22 0 -36.5 -14.5t-14.5 -37.5q0 -24 14.5 -38.5t36.5 -14.5q21 0 35 14.5z" />
    <glyph glyph-name="uring" unicode="&#x16f;" 
d="M406 70q-58 -82 -167 -82q-81 0 -133.5 48.5t-52.5 144.5v348h140v-312q0 -62 24.5 -89t74.5 -27q47 0 79.5 36.5t32.5 103.5v288h140v-529h-134v70h-4zM215 619.5q-34 32.5 -34 81.5q0 48 34 81t84 33q48 0 82.5 -33t34.5 -81t-34.5 -81t-82.5 -33q-50 0 -84 32.5z
M334 663.5q14 14.5 14 37.5t-14 37.5t-35 14.5q-22 0 -36.5 -14.5t-14.5 -37.5t14.5 -37.5t36.5 -14.5q21 0 35 14.5z" />
    <glyph glyph-name="Uhungarumlaut" unicode="&#x170;" horiz-adv-x="728" 
d="M629.5 109.5q-39.5 -62.5 -108.5 -94t-157 -31.5t-157 31.5t-108.5 94t-39.5 153.5v451h150v-437q0 -88 39 -129t116 -41q76 0 115.5 41t39.5 129v437h150v-451q0 -91 -39.5 -153.5zM231 767l57 161h127l-92 -161h-92zM405 767l57 161h126l-92 -161h-91z" />
    <glyph glyph-name="uhungarumlaut" unicode="&#x171;" 
d="M406 70q-58 -82 -167 -82q-81 0 -133.5 48.5t-52.5 144.5v348h140v-312q0 -62 24.5 -89t74.5 -27q47 0 79.5 36.5t32.5 103.5v288h140v-529h-134v70h-4zM166 589l57 161h127l-92 -161h-92zM340 589l57 161h126l-92 -161h-91z" />
    <glyph glyph-name="Uogonek" unicode="&#x172;" horiz-adv-x="728" 
d="M669 263q0 -92 -40.5 -155t-111.5 -95q-57 -25 -91 -57t-34 -65q0 -19 15.5 -29t37.5 -10q30 0 53 8v-82q-27 -7 -73 -7q-65 0 -101.5 26t-36.5 75q0 33 17 62t48 50q-132 4 -212.5 75.5t-80.5 203.5v451h150v-437q0 -88 39 -129t116 -41q76 0 115.5 41t39.5 129v437h150
v-451z" />
    <glyph glyph-name="uogonek" unicode="&#x173;" 
d="M473.5 -56q-22.5 -28 -22.5 -53q0 -19 15.5 -29t37.5 -10q30 0 53 8v-82q-27 -7 -73 -7q-65 0 -101.5 26t-36.5 75q0 40 24.5 73.5t66.5 54.5h-27v70h-4q-58 -82 -167 -82q-81 0 -133.5 48.5t-52.5 144.5v348h140v-312q0 -62 24.5 -89t74.5 -27q47 0 79.5 36.5
t32.5 103.5v288h140v-529q-48 -28 -70.5 -56z" />
    <glyph glyph-name="Wcircumflex" unicode="&#x174;" horiz-adv-x="956" 
d="M480 518h-4l-107 -518h-183l-171 714h154l111 -535h4l109 535h168l109 -535h4l112 535h155l-172 -714h-180zM474 850l-66 -88h-131l137 161h125l137 -161h-131l-67 88h-4z" />
    <glyph glyph-name="wcircumflex" unicode="&#x175;" horiz-adv-x="859" 
d="M687 0h-156l-101 362h-4l-102 -362h-152l-172 529h154l100 -370h4l96 370h156l96 -370h4l101 370h148zM430 677l-66 -88h-131l137 161h125l137 -161h-131l-67 88h-4z" />
    <glyph glyph-name="Ycircumflex" unicode="&#x176;" horiz-adv-x="684" 
d="M417 273v-273h-150v273l-257 441h164l169 -312l170 312h161zM341 850l-66 -88h-131l137 161h125l137 -161h-131l-67 88h-4z" />
    <glyph glyph-name="ycircumflex" unicode="&#x177;" horiz-adv-x="552" 
d="M356 0q-30 -84 -63 -126.5t-69 -56t-87 -13.5q-56 0 -84 3v116q28 -4 62 -4q35 0 53.5 15t34.5 54l7 17l-212 524h152l129 -362h4l116 362h150zM273 677l-66 -88h-131l137 161h125l137 -161h-131l-67 88h-4z" />
    <glyph glyph-name="Ydieresis" unicode="&#x178;" horiz-adv-x="684" 
d="M417 273v-273h-150v273l-257 441h164l169 -312l170 312h161zM301 897v-115h-125v115h125zM511 897v-115h-125v115h125z" />
    <glyph glyph-name="Zacute" unicode="&#x179;" horiz-adv-x="633" 
d="M600 126v-126h-570v126l378 462h-356v126h549v-126l-378 -462h377zM275 767l83 161h147l-127 -161h-103z" />
    <glyph glyph-name="zacute" unicode="&#x17a;" horiz-adv-x="511" 
d="M32 113l271 305h-257v111h434v-112l-271 -306h271v-111h-448v113zM212 589l83 161h147l-127 -161h-103z" />
    <glyph glyph-name="Zdotaccent" unicode="&#x17b;" horiz-adv-x="633" 
d="M600 126v-126h-570v126l378 462h-356v126h549v-126l-378 -462h377zM397 902v-120h-140v120h140z" />
    <glyph glyph-name="zdotaccent" unicode="&#x17c;" horiz-adv-x="511" 
d="M32 113l271 305h-257v111h434v-112l-271 -306h271v-111h-448v113zM334 724v-120h-140v120h140z" />
    <glyph glyph-name="Zcaron" unicode="&#x17d;" horiz-adv-x="633" 
d="M600 126v-126h-570v126l378 462h-356v126h549v-126l-378 -462h377zM389 764h-125l-137 160h131l66 -88h4l67 88h131z" />
    <glyph glyph-name="zcaron" unicode="&#x17e;" horiz-adv-x="511" 
d="M32 113l271 305h-257v111h434v-112l-271 -306h271v-111h-448v113zM326 589h-125l-137 161h131l66 -88h4l67 88h131z" />
    <glyph glyph-name="florin" unicode="&#x192;" horiz-adv-x="496" 
d="M379.5 617.5q-18.5 -12.5 -23.5 -43.5l-21 -119h106v-94h-123l-40 -230q-14 -79 -66 -111t-138 -32q-34 0 -74 4v105q27 -4 68 -4q31 0 49 12t24 43l37 213h-89v94h106l24 135q13 80 65.5 112.5t137.5 32.5q24 0 74 -5v-104q-40 4 -68 4q-30 0 -48.5 -12.5z" />
    <glyph glyph-name="Oslashacute" unicode="&#x1fe;" horiz-adv-x="796" 
d="M338 767l84 161h146l-127 -161h-103zM741 357q0 -115 -44.5 -199.5t-124 -129t-182.5 -44.5q-119 0 -204 58l-72 -82l-60 56l70 81q-41 48 -63 114t-22 146q0 115 44 199.5t123.5 129t183.5 44.5q131 0 222 -71l80 93l60 -58l-82 -94q71 -98 71 -243zM221 209l302 348
q-52 52 -133 52q-90 0 -144 -64.5t-54 -187.5q0 -90 29 -148zM568 483l-295 -340q49 -38 117 -38q90 0 144 64.5t54 187.5q0 72 -20 126z" />
    <glyph glyph-name="oslashacute" unicode="&#x1ff;" horiz-adv-x="603" 
d="M250 589l83 161h147l-127 -161h-103zM572 264q0 -84 -32.5 -146.5t-93.5 -96t-144 -33.5q-94 0 -159 42l-54 -60l-45 40l52 60q-65 74 -65 194q0 85 32.5 147.5t94 96.5t144.5 34q99 0 168 -50l44 50l46 -42l-45 -51v0q57 -72 57 -185zM208 392.5q-34 -44.5 -34 -128.5
q0 -53 14 -90l201 227q-33 36 -87 36q-60 0 -94 -44.5zM395.5 136.5q33.5 44.5 33.5 127.5q0 45 -9 78l-197 -222q33 -28 79 -28q60 0 93.5 44.5z" />
    <glyph glyph-name="Scommaaccent" unicode="&#x218;" horiz-adv-x="670" 
d="M420.5 588q-38.5 29 -101.5 29q-57 0 -91 -25t-34 -65q0 -34 25 -51.5t75 -28.5l117 -28q74 -19 118.5 -38t75 -62.5t30.5 -119.5q0 -71 -39 -119.5t-105.5 -72t-148.5 -23.5q-134 0 -219.5 61.5t-100.5 175.5l148 15q8 -71 55 -104.5t119 -33.5q61 0 99.5 25.5
t38.5 70.5q0 30 -14 47.5t-38.5 27.5t-66.5 21l-116 29q-62 16 -104 35.5t-70 59.5t-28 106q0 65 36 112.5t99.5 72.5t142.5 25q119 0 194.5 -56t97.5 -161l-146 -10q-10 56 -48.5 85zM275 -305v61q23 1 37 18t14 46h-51v120h132v-82q0 -157 -132 -163z" />
    <glyph glyph-name="scommaaccent" unicode="&#x219;" horiz-adv-x="533" 
d="M328 428q-29 21 -68 21t-62.5 -16.5t-23.5 -46.5q0 -26 23 -38t70 -20l54 -8q88 -15 137.5 -49t49.5 -114q0 -84 -67 -126.5t-176 -42.5q-104 0 -171 44.5t-81 121.5l130 19q10 -46 41.5 -69.5t81.5 -23.5q45 0 72 19t27 52q0 27 -25 41t-74 22l-58 9q-79 13 -127 47
t-48 110q0 49 30.5 86t82.5 56.5t114 19.5q92 0 156.5 -43t76.5 -112l-128 -18q-8 38 -37 59zM198 -305v61q23 1 37 18t14 46h-51v120h132v-82q0 -157 -132 -163z" />
    <glyph glyph-name="uni021A" unicode="&#x21a;" horiz-adv-x="662" 
d="M406 588v-588h-150v588h-231v126h612v-126h-231zM265 -305v61q23 1 37 18t14 46h-51v120h132v-82q0 -157 -132 -163z" />
    <glyph glyph-name="uni021B" unicode="&#x21b;" horiz-adv-x="369" 
d="M344 109v-109q-28 -2 -92 -2q-57 0 -90 10.5t-49 38t-16 79.5v309h-84v94h84v148h140v-148h111v-94h-111v-274q0 -33 13 -42.5t49 -9.5h45zM155 -305v61q23 1 37 18t14 46h-51v120h132v-82q0 -157 -132 -163z" />
    <glyph glyph-name="dotlessj" unicode="&#x237;" horiz-adv-x="246" 
d="M42 -74q11 8 11 34v569h140v-594q0 -53 -15 -81.5t-44.5 -39t-78.5 -10.5q-72 0 -85 2v113q13 -1 38 -1q23 0 34 8z" />
    <glyph glyph-name="uni02BC" unicode="&#x2bc;" horiz-adv-x="234" 
d="M53 479v60q23 2 37 19t14 46h-51v120h132v-82q0 -159 -132 -163z" />
    <glyph glyph-name="circumflex" unicode="&#x2c6;" horiz-adv-x="501" 
d="M250 677l-66 -88h-131l137 161h125l137 -161h-131l-67 88h-4z" />
    <glyph glyph-name="caron" unicode="&#x2c7;" horiz-adv-x="501" 
d="M315 589h-125l-137 161h131l66 -88h4l67 88h131z" />
    <glyph glyph-name="breve" unicode="&#x2d8;" horiz-adv-x="457" 
d="M383 662q-25 -37 -65.5 -56.5t-86.5 -19.5q-47 0 -87.5 19.5t-65 56.5t-25.5 88h95q5 -36 28.5 -55t54.5 -19t54.5 19t27.5 55h96q-1 -51 -26 -88z" />
    <glyph glyph-name="dotaccent" unicode="&#x2d9;" horiz-adv-x="242" 
d="M193 724v-120h-140v120h140z" />
    <glyph glyph-name="ring" unicode="&#x2da;" horiz-adv-x="336" 
d="M87 619.5q-34 32.5 -34 81.5q0 48 34 81t84 33q48 0 82.5 -33t34.5 -81t-34.5 -81t-82.5 -33q-50 0 -84 32.5zM206 663.5q14 14.5 14 37.5t-14 37.5t-35 14.5q-22 0 -36.5 -14.5t-14.5 -37.5t14.5 -37.5t36.5 -14.5q21 0 35 14.5z" />
    <glyph glyph-name="ogonek" unicode="&#x2db;" horiz-adv-x="312" 
d="M263 -140v-82q-27 -7 -72 -7q-65 0 -101.5 26t-36.5 75q0 40 25 74t67 55h108q-50 -28 -72.5 -56.5t-22.5 -53.5q0 -19 15 -29t38 -10q31 0 52 8z" />
    <glyph glyph-name="tilde" unicode="&#x2dc;" horiz-adv-x="463" 
d="M302 700q-10 0 -20.5 5.5t-20.5 11.5l-28 17q-31 21 -59 21q-48 0 -80.5 -30.5t-40.5 -92.5l74 -11q9 42 38 42q9 0 18 -4t22 -12l28 -18q15 -9 28.5 -14.5t31.5 -5.5q48 0 80 30t41 92l-75 11q-8 -42 -37 -42z" />
    <glyph glyph-name="hungarumlaut" unicode="&#x2dd;" horiz-adv-x="459" 
d="M53 589l57 161h127l-92 -161h-92zM227 589l57 161h126l-92 -161h-91z" />
    <glyph glyph-name="uni0326" unicode="&#x326;" horiz-adv-x="0" 
d="M53 -305v61q23 1 37 18t14 46h-51v120h132v-82q0 -157 -132 -163z" />
    <glyph glyph-name="Wgrave" unicode="&#x1e80;" horiz-adv-x="956" 
d="M480 518h-4l-107 -518h-183l-171 714h154l111 -535h4l109 535h168l109 -535h4l112 535h155l-172 -714h-180zM528 767h-103l-127 161h147z" />
    <glyph glyph-name="wgrave" unicode="&#x1e81;" horiz-adv-x="859" 
d="M687 0h-156l-101 362h-4l-102 -362h-152l-172 529h154l100 -370h4l96 370h156l96 -370h4l101 370h148zM483 589h-103l-127 161h147z" />
    <glyph glyph-name="Wacute" unicode="&#x1e82;" horiz-adv-x="956" 
d="M480 518h-4l-107 -518h-183l-171 714h154l111 -535h4l109 535h168l109 -535h4l112 535h155l-172 -714h-180zM425 767l83 161h147l-127 -161h-103z" />
    <glyph glyph-name="wacute" unicode="&#x1e83;" horiz-adv-x="859" 
d="M687 0h-156l-101 362h-4l-102 -362h-152l-172 529h154l100 -370h4l96 370h156l96 -370h4l101 370h148zM380 589l83 161h147l-127 -161h-103z" />
    <glyph glyph-name="Wdieresis" unicode="&#x1e84;" horiz-adv-x="956" 
d="M480 518h-4l-107 -518h-183l-171 714h154l111 -535h4l109 535h168l109 -535h4l112 535h155l-172 -714h-180zM434 897v-115h-125v115h125zM644 897v-115h-125v115h125z" />
    <glyph glyph-name="wdieresis" unicode="&#x1e85;" horiz-adv-x="859" 
d="M687 0h-156l-101 362h-4l-102 -362h-152l-172 529h154l100 -370h4l96 370h156l96 -370h4l101 370h148zM390 719v-115h-125v115h125zM600 719v-115h-125v115h125z" />
    <glyph glyph-name="Ygrave" unicode="&#x1ef2;" horiz-adv-x="684" 
d="M417 273v-273h-150v273l-257 441h164l169 -312l170 312h161zM395 767h-103l-127 161h147z" />
    <glyph glyph-name="ygrave" unicode="&#x1ef3;" horiz-adv-x="552" 
d="M356 0q-30 -84 -63 -126.5t-69 -56t-87 -13.5q-56 0 -84 3v116q28 -4 62 -4q35 0 53.5 15t34.5 54l7 17l-212 524h152l129 -362h4l116 362h150zM326 589h-103l-127 161h147z" />
    <glyph glyph-name="uni2007" unicode="&#x2007;" horiz-adv-x="336" 
 />
    <glyph glyph-name="uni2008" unicode="&#x2008;" horiz-adv-x="258" 
 />
    <glyph glyph-name="zerowidthspace" unicode="&#x200b;" horiz-adv-x="0" 
 />
    <glyph glyph-name="endash" unicode="&#x2013;" horiz-adv-x="655" 
d="M59 335h537v-121h-537v121z" />
    <glyph glyph-name="emdash" unicode="&#x2014;" horiz-adv-x="853" 
d="M59 335h735v-121h-735v121z" />
    <glyph glyph-name="quoteleft" unicode="&#x2018;" horiz-adv-x="258" 
d="M89.5 662q35.5 49 110.5 52v-70q-30 -2 -44 -23t-14 -64h62v-152h-150v112q0 96 35.5 145z" />
    <glyph glyph-name="quoteright" unicode="&#x2019;" horiz-adv-x="258" 
d="M168.5 457.5q-35.5 -49.5 -110.5 -52.5v71q30 1 44 22t14 64h-62v152h150v-111q0 -96 -35.5 -145.5z" />
    <glyph glyph-name="quotesinglbase" unicode="&#x201a;" horiz-adv-x="258" 
d="M168.5 -105q-35.5 -49 -110.5 -52v70q30 2 44 23t14 64h-62v152h150v-112q0 -96 -35.5 -145z" />
    <glyph glyph-name="quotedblleft" unicode="&#x201c;" horiz-adv-x="471" 
d="M89.5 662q35.5 49 110.5 52v-70q-30 -2 -44 -23t-14 -64h62v-152h-150v112q0 96 35.5 145zM302.5 662q35.5 49 110.5 52v-70q-30 -2 -44 -23t-14 -64h61v-152h-149v112q0 96 35.5 145z" />
    <glyph glyph-name="quotedblright" unicode="&#x201d;" horiz-adv-x="471" 
d="M168.5 457.5q-35.5 -49.5 -110.5 -52.5v71q30 1 44 22t14 64h-62v152h150v-111q0 -96 -35.5 -145.5zM380.5 457.5q-35.5 -49.5 -110.5 -52.5v71q31 1 45 22t14 64h-62v152h149v-111q0 -96 -35.5 -145.5z" />
    <glyph glyph-name="quotedblbase" unicode="&#x201e;" horiz-adv-x="471" 
d="M168.5 -105q-35.5 -49 -110.5 -52v70q30 2 44 23t14 64h-62v152h150v-112q0 -96 -35.5 -145zM380.5 -104.5q-35.5 -49.5 -110.5 -52.5v70q31 2 45 23t14 64h-62v152h149v-112q0 -95 -35.5 -144.5z" />
    <glyph glyph-name="dagger" unicode="&#x2020;" horiz-adv-x="570" 
d="M355 407v-591h-140v591h-187v113h187v194h140v-194h186v-113h-186z" />
    <glyph glyph-name="daggerdbl" unicode="&#x2021;" horiz-adv-x="570" 
d="M355 123h186v-114h-186v-193h-140v193h-187v114h187v284h-187v113h187v194h140v-194h186v-113h-186v-284z" />
    <glyph glyph-name="bullet" unicode="&#x2022;" horiz-adv-x="508" 
d="M152.5 182.5q-46.5 27.5 -73.5 73.5t-27 101t27 101.5t73.5 73.5t100.5 27q55 0 101.5 -27t74 -73.5t27.5 -101.5t-27.5 -101t-74 -73.5t-101.5 -27.5q-54 0 -100.5 27.5z" />
    <glyph glyph-name="ellipsis" unicode="&#x2026;" horiz-adv-x="809" 
d="M219 152v-152h-158v152h158zM484 152v-152h-159v152h159zM748 152v-152h-158v152h158z" />
    <glyph glyph-name="perthousand" unicode="&#x2030;" horiz-adv-x="1243" 
d="M317 666q42 -49 42 -144q0 -96 -41.5 -145t-118.5 -49t-118.5 49t-41.5 145q0 95 42 144t118 49t118 -49zM277 0h-87l397 700h87zM248 426q16 28 16 96q0 67 -16.5 95t-48.5 28q-33 0 -49.5 -28t-16.5 -95q0 -68 16.5 -96t49.5 -28t49 28zM783.5 324.5
q41.5 -48.5 41.5 -145.5q0 -96 -41.5 -144.5t-118.5 -48.5q-76 0 -118 48.5t-42 144.5t41.5 145t118.5 49t118.5 -48.5zM1162.5 324q41.5 -49 41.5 -145t-42 -144.5t-118 -48.5q-77 0 -118.5 48.5t-41.5 144.5q0 97 41.5 145.5t118.5 48.5t118.5 -49zM715 84q16 28 16 95
q0 68 -16 95.5t-50 27.5q-33 0 -49 -27.5t-16 -95.5q0 -67 16 -95t49 -28q34 0 50 28zM1092.5 84q16.5 28 16.5 95q0 68 -16 95.5t-49 27.5t-49 -27.5t-16 -95.5q0 -67 16 -95t49 -28q32 0 48.5 28z" />
    <glyph glyph-name="guilsinglleft" unicode="&#x2039;" horiz-adv-x="267" 
d="M226 364l-99 -89v-4l99 -90v-139l-179 153v155l179 152v-138z" />
    <glyph glyph-name="guilsinglright" unicode="&#x203a;" horiz-adv-x="267" 
d="M41 42v139l99 90v4l-99 89v138l179 -152v-155z" />
    <glyph glyph-name="zerosuperior" unicode="&#x2070;" horiz-adv-x="444" 
d="M364 669q51 -53 51 -166q0 -111 -51 -164t-142 -53t-141.5 53t-50.5 164q0 113 50.5 166t141.5 53t142 -53zM281.5 391q22.5 28 22.5 112q0 85 -22.5 113t-59.5 28q-38 0 -60 -28t-22 -113q0 -84 22.5 -112t59.5 -28t59.5 28z" />
    <glyph glyph-name="foursuperior" unicode="&#x2074;" horiz-adv-x="415" 
d="M394 386h-52v-92h-104v92h-215v86l179 242h140v-252h52v-76zM238 462v168h-4l-121 -164v-4h125z" />
    <glyph glyph-name="fivesuperior" unicode="&#x2075;" horiz-adv-x="402" 
d="M292.5 564.5q35.5 -15.5 59 -48.5t23.5 -82q0 -75 -51.5 -111.5t-129.5 -36.5q-72 0 -119.5 30.5t-59.5 89.5l105 12q5 -25 24.5 -39.5t49.5 -14.5q33 0 53 18t20 53t-20.5 53t-53.5 18q-21 0 -39 -8.5t-30 -21.5h-99l22 238h296v-81h-212l-8 -84h4q33 31 92 31
q38 0 73.5 -15.5z" />
    <glyph glyph-name="sixsuperior" unicode="&#x2076;" horiz-adv-x="427" 
d="M316 553q36 -16 59 -47t23 -73q0 -50 -26 -83t-66.5 -48.5t-84.5 -15.5q-98 0 -145 53q-46 50 -46 166q0 123 57.5 170t132.5 47q62 0 108.5 -29t61.5 -80l-102 -9q-8 21 -26 33t-44 12q-34 0 -59.5 -28t-25.5 -82v-4h4q19 16 46.5 25t58.5 9q38 0 74 -16zM273 376.5
q22 18.5 22 52.5t-22.5 52.5t-55.5 18.5q-34 0 -57 -19t-23 -52t23 -52t57 -19t56 18.5z" />
    <glyph glyph-name="sevensuperior" unicode="&#x2077;" horiz-adv-x="371" 
d="M357 672q0 -34 -14.5 -60.5t-45.5 -66.5q-30 -38 -48.5 -67.5t-32 -72t-13.5 -97.5v-14h-112v20q0 60 18 110.5t41.5 85t59.5 77.5q26 34 30 39v4h-229v84h346v-42z" />
    <glyph glyph-name="eightsuperior" unicode="&#x2078;" horiz-adv-x="428" 
d="M337 693q49 -29 49 -87q0 -30 -18 -51.5t-49 -33.5v-4q37 -13 58 -39.5t21 -65.5q0 -63 -51.5 -94.5t-132.5 -31.5q-82 0 -133.5 31.5t-51.5 94.5q0 39 21 65.5t58 39.5v4q-31 12 -49 33.5t-18 51.5q0 58 49 87t124 29q74 0 123 -29zM266.5 557.5q21.5 14.5 21.5 40.5
q0 27 -22 41.5t-52 14.5q-31 0 -52.5 -14.5t-21.5 -41.5q0 -26 21.5 -40.5t52.5 -14.5t52.5 14.5zM271.5 375q23.5 16 23.5 47q0 30 -23.5 46t-57.5 16q-35 0 -58.5 -16t-23.5 -46q0 -31 23.5 -47t58.5 -16q34 0 57.5 16z" />
    <glyph glyph-name="ninesuperior" unicode="&#x2079;" horiz-adv-x="427" 
d="M111 455q-36 16 -59 47t-23 73q0 50 26 83t66 48.5t84 15.5q99 0 146 -53q46 -50 46 -166q0 -123 -57.5 -170t-132.5 -47q-63 0 -109.5 28.5t-61.5 80.5l102 9q9 -21 27 -33t44 -12q34 0 59 28t25 82v4h-4q-18 -16 -45.5 -25t-58.5 -9q-38 0 -74 16zM153.5 631.5
q-22.5 -18.5 -22.5 -52.5t22.5 -52.5t55.5 -18.5q35 0 58 19t23 52t-23 52t-58 19q-33 0 -55.5 -18.5z" />
    <glyph glyph-name="franc" unicode="&#x20a3;" horiz-adv-x="726" 
d="M587 0l-80 148h-60v-148h-117v313h-132v-313h-139v700h513v-114h-374v-161h349q74 0 118 -38t44 -101q0 -44 -22.5 -76t-62.5 -48l96 -162h-133zM574 245.5q16 14.5 16 37.5t-16 37.5t-44 14.5h-83v-104h83q28 0 44 14.5z" />
    <glyph glyph-name="Euro" unicode="&#x20ac;" horiz-adv-x="677" 
d="M539 122q47 20 87 61v-145q-83 -52 -188 -52q-130 0 -216 70t-112 194h-84l41 71h33v31v28h-75l40 70h45q26 123 114.5 193.5t215.5 70.5q129 0 219 -72l-64 -109q-63 65 -157 65q-68 0 -115.5 -38.5t-66.5 -109.5h291l-41 -70h-261q-1 -9 -1 -28q0 -21 1 -31h228
l-41 -71h-175q20 -71 68 -109.5t118 -38.5q49 0 96 20z" />
    <glyph glyph-name="uni2116" unicode="&#x2116;" horiz-adv-x="1132" 
d="M514 0l-313 512h-4v-512h-138v714h170l309 -503h4v503h138v-714h-166zM1065 675.5q47 -47.5 47 -129.5q0 -81 -47 -128t-130 -47q-82 0 -129 47t-47 128q0 82 47 129.5t129 47.5q83 0 130 -47.5zM989.5 469.5q19.5 25.5 19.5 76.5q0 52 -19.5 77.5t-54.5 25.5
q-34 0 -53 -25.5t-19 -77.5q0 -51 19 -76.5t53 -25.5q35 0 54.5 25.5zM759 0v100h353v-100h-353z" />
    <glyph glyph-name="trademark" unicode="&#x2122;" horiz-adv-x="895" 
d="M268 638v-282h-92v282h-117v76h327v-76h-118zM836 356h-87v246h-4l-74 -246h-65l-75 246h-4v-246h-84v358h136l59 -216h4l59 216h135v-358z" />
    <glyph glyph-name="Ohm" unicode="&#x2126;" horiz-adv-x="724" 
d="M685 0h-293v180q65 20 103 79t38 141q0 98 -47 154.5t-125 56.5q-76 0 -123.5 -56.5t-47.5 -154.5q0 -82 38 -141.5t104 -78.5v-180h-293v112h197v29q-87 30 -139.5 102.5t-52.5 177.5q0 92 42 162t114 108.5t161 38.5q90 0 162.5 -38.5t114.5 -108.5t42 -162
q0 -106 -52 -177.5t-140 -101.5v-30h197v-112z" />
    <glyph glyph-name="partialdiff" unicode="&#x2202;" horiz-adv-x="606" 
d="M414.5 696.5q65.5 -33.5 109 -116.5t43.5 -222q0 -188 -73.5 -279t-208.5 -91q-66 0 -122 25t-90 75.5t-34 124.5q0 83 35 137.5t90 79.5t119 25q36 0 71.5 -10t63.5 -33q-16 208 -158 208q-42 0 -82 -15t-74 -42l-37 101q40 32 93.5 49t114.5 17q74 0 139.5 -33.5z
M380.5 149q33.5 56 38.5 158q-38 45 -109 45q-55 0 -92 -35t-37 -104q0 -56 29 -88t74 -32q63 0 96.5 56z" />
    <glyph glyph-name="emptyset" unicode="&#x2205;" horiz-adv-x="848" 
d="M757 506.5q32 -70.5 32 -149.5q0 -99 -49 -183t-133 -133t-183 -49q-105 0 -193 55l-41 -55h-82l71 94q-57 51 -88.5 121t-31.5 150q0 99 49 183t133 133t183 49q105 0 193 -55l42 55h82l-72 -94q56 -51 88 -121.5zM160 241q23 -55 64 -95l349 462q-68 43 -149 43
q-78 0 -144 -39.5t-104.5 -107t-38.5 -147.5q0 -61 23 -116zM568 102.5q66 39.5 104.5 107t38.5 147.5q0 61 -23 115.5t-64 95.5l-349 -463q71 -42 149 -42t144 39.5z" />
    <glyph glyph-name="increment" unicode="&#x2206;" horiz-adv-x="746" 
d="M6 0l268 714h198l269 -714h-735zM371 586h-4l-164 -467h334z" />
    <glyph glyph-name="product" unicode="&#x220f;" horiz-adv-x="693" 
d="M489 586h-285v-734h-145v862h575v-862h-145v734z" />
    <glyph glyph-name="summation" unicode="&#x2211;" horiz-adv-x="674" 
d="M59 -148v104l274 328l-260 327v103h547v-129h-342l228 -288l-266 -318h395v-127h-576z" />
    <glyph glyph-name="minus" unicode="&#x2212;" horiz-adv-x="487" 
d="M459 275h-431v100h431v-100z" />
    <glyph glyph-name="bulletoperator" unicode="&#x2219;" horiz-adv-x="302" 
d="M87.5 254.5q-26.5 26.5 -26.5 63.5t26.5 63.5t63.5 26.5t63.5 -26.5t26.5 -63.5t-26 -63.5t-64 -26.5q-37 0 -63.5 26.5z" />
    <glyph glyph-name="radical" unicode="&#x221a;" horiz-adv-x="526" 
d="M194 -148l-96 337l-66 -34l-27 57l156 78l96 -331h2l186 741h76l-214 -848h-113z" />
    <glyph glyph-name="infinity" unicode="&#x221e;" horiz-adv-x="756" 
d="M620 446q36 -23 55.5 -60t19.5 -78q0 -42 -19.5 -80t-55 -61.5t-83.5 -23.5q-95 0 -164 89q-73 -89 -155 -89q-47 0 -83 23.5t-55 61.5t-19 80q0 41 19 78t55 60t83 23q51 0 92 -24.5t71 -63.5q72 88 156 88q47 0 83 -23zM279.5 239q25.5 20 50.5 60q-26 47 -52 70.5
t-58 23.5q-38 0 -58.5 -23.5t-20.5 -61.5q0 -37 21 -63t58 -26q34 0 59.5 20zM593.5 245q21.5 26 21.5 63q0 38 -21 61.5t-59 23.5q-35 0 -60 -19.5t-51 -60.5q28 -47 53.5 -70.5t57.5 -23.5q37 0 58.5 26z" />
    <glyph glyph-name="integral" unicode="&#x222b;" horiz-adv-x="409" 
d="M399 735v-102q-32 6 -62 6q-31 0 -47 -12.5t-16 -44.5v-633q0 -80 -46 -112.5t-131 -32.5q-42 0 -87 9v102q32 -6 62 -6q31 0 47 12t16 45v632q0 81 46 113.5t131 32.5q42 0 87 -9z" />
    <glyph glyph-name="approxequal" unicode="&#x2248;" horiz-adv-x="486" 
d="M408 445.5q28 18.5 50 45.5v-103q-51 -50 -105 -50q-25 0 -73 22l-77 33q-4 2 -18.5 8t-27 9t-24.5 3q-27 0 -55 -18.5t-50 -45.5v103q51 51 105 51q13 0 27.5 -4.5t28 -10t18.5 -7.5l77 -33q5 -2 19 -8.5t26 -9.5t24 -3q27 0 55 18.5zM408 270.5q28 18.5 50 45.5v-103
q-51 -50 -105 -50q-25 0 -73 22l-77 33q-4 2 -18.5 8t-27 9t-24.5 3q-27 0 -55 -18.5t-50 -45.5v103q51 51 105 51q13 0 27.5 -4.5t28 -10t18.5 -7.5l77 -33q5 -2 19 -8.5t26 -9.5t24 -3q27 0 55 18.5z" />
    <glyph glyph-name="notequal" unicode="&#x2260;" horiz-adv-x="486" 
d="M256 273h202v-84h-251l-57 -101l-68 37l38 64h-92v84h140l62 107h-202v84h251l59 101l67 -37l-37 -64h90v-84h-139z" />
    <glyph glyph-name="lessequal" unicode="&#x2264;" horiz-adv-x="529" 
d="M476 485l-319 -127v-4l319 -129v-90l-430 179v84l430 178v-91zM476 85v-85h-419v85h419z" />
    <glyph glyph-name="greaterequal" unicode="&#x2265;" horiz-adv-x="529" 
d="M53 135v90l319 129v4l-319 127v91l430 -178v-84zM53 85h419v-85h-419v85z" />
    <glyph glyph-name="lozenge" unicode="&#x25ca;" horiz-adv-x="539" 
d="M315 -29h-91l-218 388l218 388h91l218 -388zM270 656l-163 -297l163 -298l162 298z" />
    <glyph glyph-name="fi" unicode="&#xfb01;" horiz-adv-x="621" 
d="M253 618.5q-16 -12.5 -16 -44.5v-45h111v-94h-111v-435h-140v435h-84v94h84v61q0 81 46 113.5t131 32.5q33 0 87 -6v-102q-48 3 -61 3q-31 0 -47 -12.5zM568 724v-120h-140v120h140zM568 529v-529h-140v529h140z" />
    <glyph glyph-name="fl" unicode="&#xfb02;" horiz-adv-x="624" 
d="M253 618.5q-16 -12.5 -16 -44.5v-45h111v-94h-111v-435h-140v435h-84v94h84v61q0 81 46 113.5t131 32.5q33 0 87 -6v-102q-48 3 -61 3q-31 0 -47 -12.5zM570 724v-724h-140v724h140z" />
    <glyph glyph-name="i.loclTRK" horiz-adv-x="246" 
d="M193 529v-529h-140v529h140zM193 724v-120h-140v120h140z" />
    <glyph glyph-name="f_i" horiz-adv-x="621" 
d="M253 618.5q-16 -12.5 -16 -44.5v-45h111v-94h-111v-435h-140v435h-84v94h84v61q0 81 46 113.5t131 32.5q33 0 87 -6v-102q-48 3 -61 3q-31 0 -47 -12.5zM568 724v-120h-140v120h140zM568 529v-529h-140v529h140z" />
    <glyph glyph-name="f_l" horiz-adv-x="624" 
d="M253 618.5q-16 -12.5 -16 -44.5v-45h111v-94h-111v-435h-140v435h-84v94h84v61q0 81 46 113.5t131 32.5q33 0 87 -6v-102q-48 3 -61 3q-31 0 -47 -12.5zM570 724v-724h-140v724h140z" />
    <glyph glyph-name="zero.tf" horiz-adv-x="600" 
d="M500.5 628q72.5 -87 72.5 -278q0 -190 -72.5 -277t-199.5 -87t-199 87t-72 277q0 191 72 278t199 87t199.5 -87zM365 114.5q27 19.5 43.5 75.5t16.5 160t-16.5 160.5t-43.5 76t-64 19.5t-64 -19.5t-43.5 -76t-16.5 -160.5t16.5 -160t43.5 -75.5t64 -19.5t64 19.5z" />
    <glyph glyph-name="one.tf" horiz-adv-x="600" 
d="M560 0h-474v114h166v381h-141v96h21q62 0 97.5 31t45.5 78h118v-586h167v-114z" />
    <glyph glyph-name="two.tf" horiz-adv-x="600" 
d="M556 0h-510v27q0 79 27.5 134.5t67.5 90.5t99 71l80 51q43 26 68.5 56t25.5 70q0 50 -27 76t-78 26q-52 0 -83.5 -34.5t-36.5 -100.5l-141 7q6 77 42 131t93 81.5t126 27.5q108 0 178.5 -53t70.5 -154q0 -66 -25 -109.5t-56 -66.5t-96 -62l-69 -44q-47 -29 -73 -58
t-28 -48h345v-119z" />
    <glyph glyph-name="three.tf" horiz-adv-x="600" 
d="M392.5 436q31.5 26 31.5 71t-29.5 71t-74.5 26q-46 0 -76.5 -27t-35.5 -79l-139 10q8 99 75 152.5t176 53.5q110 0 177.5 -53t67.5 -148q0 -52 -28.5 -89t-76.5 -56v-4q55 -16 89 -57.5t34 -105.5q0 -108 -72.5 -161.5t-191.5 -53.5q-117 0 -189 55.5t-84 167.5l143 10
q7 -64 41.5 -93.5t88.5 -29.5q52 0 85.5 29t33.5 78q0 53 -34 79.5t-94 26.5h-64v101h64q51 0 82.5 26z" />
    <glyph glyph-name="four.tf" horiz-adv-x="600" 
d="M577 273v-107h-85v-166h-141v166h-322v118l259 416h204v-427h85zM148 273h203v323h-4l-199 -319v-4z" />
    <glyph glyph-name="five.tf" horiz-adv-x="600" 
d="M444.5 451q53.5 -27 87.5 -82.5t34 -136.5t-35.5 -136.5t-94.5 -82.5t-131 -27q-105 0 -175 51t-88 147l144 14q8 -48 39.5 -75t79.5 -27q51 0 84 35t33 102t-33 101.5t-86 34.5q-69 0 -115 -50h-132l33 381h430v-115h-317l-14 -160h4q27 28 60 40.5t79 12.5
q60 0 113.5 -27z" />
    <glyph glyph-name="six.tf" horiz-adv-x="600" 
d="M448 429.5q54 -26.5 89 -78t35 -123.5q0 -81 -38 -135.5t-97.5 -80.5t-122.5 -26q-67 0 -122 23.5t-92 70.5q-66 86 -66 271q0 363 280 363q91 0 156 -46t89 -130l-136 -17q-11 40 -39 65t-70 25q-60 0 -101 -47.5t-41 -166.5v-7h4q30 33 72.5 49.5t89.5 16.5
q56 0 110 -26.5zM397.5 123.5q35.5 35.5 35.5 98.5t-35.5 98t-86.5 35q-54 0 -91.5 -36t-37.5 -97t37.5 -97.5t91.5 -36.5q51 0 86.5 35.5z" />
    <glyph glyph-name="seven.tf" horiz-adv-x="600" 
d="M552 640q0 -52 -21 -94.5t-67 -109.5q-44 -64 -72.5 -115.5t-49 -125.5t-20.5 -169v-27h-150v34q0 101 27 186.5t63.5 148t92.5 140.5l47 68v4h-354v120h504v-60z" />
    <glyph glyph-name="eight.tf" horiz-adv-x="600" 
d="M439.5 9q60.5 23 96.5 70t36 117q0 66 -31 111t-87 67v4q48 20 74.5 56.5t26.5 87.5q0 64 -34.5 107t-91.5 64t-124 21t-124.5 -21t-92 -64t-34.5 -107q0 -51 26.5 -87.5t74.5 -56.5v-4q-56 -22 -87 -67t-31 -111q0 -104 76 -157t192 -53q74 0 134.5 23zM387.5 589
q34.5 -26 34.5 -75t-34 -75t-83 -26t-83.5 26t-34.5 75t34.5 75t83.5 26q48 0 82.5 -26zM395 292.5q37 -29.5 37 -86.5t-37 -87.5t-90 -30.5q-54 0 -91 30.5t-37 87.5t37 86.5t91 29.5q53 0 90 -29.5z" />
    <glyph glyph-name="nine.tf" horiz-adv-x="600" 
d="M154 269.5q-54 26.5 -89 78t-35 123.5q0 81 38 135.5t97 80.5t122 26q68 0 123 -23.5t92 -70.5q66 -85 66 -271q0 -363 -280 -363q-91 0 -156.5 46t-88.5 130l136 17q11 -40 39 -65t70 -25q60 0 101 47.5t41 166.5v7h-4q-30 -33 -72.5 -49.5t-89.5 -16.5q-56 0 -110 26.5
zM204.5 575.5q-35.5 -35.5 -35.5 -98.5t35.5 -98t86.5 -35q54 0 91.5 36t37.5 97t-37.5 97.5t-91.5 36.5q-51 0 -86.5 -35.5z" />
    <glyph glyph-name="caron.alt" horiz-adv-x="250" 
d="M59 479v60q23 2 37 19t14 46h-51v120h132v-82q0 -159 -132 -163z" />
    <glyph glyph-name="acute.case" horiz-adv-x="332" 
d="M53 767l83 161h147l-127 -161h-103z" />
    <glyph glyph-name="breve.case" horiz-adv-x="457" 
d="M383 836.5q-25 -37.5 -65.5 -57t-86.5 -19.5q-47 0 -87.5 19.5t-65 57t-25.5 88.5h95q5 -36 28.5 -55t54.5 -19t54.5 19t27.5 55h96q-1 -51 -26 -88.5z" />
    <glyph glyph-name="caron.case" horiz-adv-x="501" 
d="M315 764h-125l-137 160h131l66 -88h4l67 88h131z" />
    <glyph glyph-name="cedilla.case" horiz-adv-x="351" 
d="M157 -164q18 0 31 9.5t13 27.5q0 30 -44 30q-13 0 -41 -8v63l40 42l36 38l86 6l-41 -44l-31 -34v-5q45 -5 70.5 -27t25.5 -62q0 -50 -37 -75.5t-102 -25.5q-28 0 -58 6t-52 18l20 63q42 -22 84 -22z" />
    <glyph glyph-name="circumflex.case" horiz-adv-x="501" 
d="M250 850l-66 -88h-131l137 161h125l137 -161h-131l-67 88h-4z" />
    <glyph glyph-name="dieresis.case" horiz-adv-x="437" 
d="M178 897v-115h-125v115h125zM388 897v-115h-125v115h125z" />
    <glyph glyph-name="dotaccent.case" horiz-adv-x="242" 
d="M193 902v-120h-140v120h140z" />
    <glyph glyph-name="grave.case" horiz-adv-x="332" 
d="M283 767h-103l-127 161h147z" />
    <glyph glyph-name="hungarumlaut.case" horiz-adv-x="459" 
d="M53 767l57 161h127l-92 -161h-92zM227 767l57 161h126l-92 -161h-91z" />
    <glyph glyph-name="macron.case" horiz-adv-x="410" 
d="M53 887h308v-91h-308v91z" />
    <glyph glyph-name="ogonek.case" horiz-adv-x="312" 
d="M263 -140v-82q-27 -7 -72 -7q-65 0 -101.5 26t-36.5 75q0 40 25 74t67 55h108q-50 -28 -72.5 -56.5t-22.5 -53.5q0 -19 15 -29t38 -10q31 0 52 8z" />
    <glyph glyph-name="ring.case" horiz-adv-x="336" 
d="M87 784.5q-34 32.5 -34 81.5q0 48 34 80.5t84 32.5q48 0 82.5 -32.5t34.5 -80.5t-34.5 -81t-82.5 -33q-50 0 -84 32.5zM206 827.5q14 14.5 14 38.5q0 23 -14 37.5t-35 14.5q-22 0 -36.5 -14.5t-14.5 -37.5q0 -24 14.5 -38.5t36.5 -14.5q21 0 35 14.5z" />
    <glyph glyph-name="tilde.case" horiz-adv-x="463" 
d="M302 865q-16 0 -41 17l-28 17q-16 10 -29.5 15.5t-29.5 5.5q-48 0 -80.5 -30.5t-40.5 -92.5l74 -11q9 42 38 42q9 0 19.5 -5.5t20.5 -11.5l28 -17q31 -21 60 -21q48 0 80 30t41 93l-75 11q-8 -42 -37 -42z" />
    <glyph glyph-name="uni0326.case" horiz-adv-x="0" 
d="M53 -305v61q23 1 37 18t14 46h-51v120h132v-82q0 -157 -132 -163z" />
    </font>
</defs>
</svg>
