<?xml version="1.0" standalone="no"?>
<!DOCTYPE svg PUBLIC "-//W3C//DTD SVG 1.1//EN" "http://www.w3.org/Graphics/SVG/1.1/DTD/svg11.dtd" >
<svg xmlns="http://www.w3.org/2000/svg" xmlns:xlink="http://www.w3.org/1999/xlink" version="1.1">
<metadata>
Created by FontForge 20201107 at Wed May 17 13:45:53 2017
 By 
Oliver Jeschke / ogj type design
</metadata>
<defs>
<font id="SequelSans-ObliqueBody" horiz-adv-x="769" >
  <font-face 
    font-family="Sequel Sans Oblique Body"
    font-weight="312"
    font-style="oblique"
    font-stretch="normal"
    units-per-em="1000"
    panose-1="2 11 5 3 5 0 0 2 0 4"
    ascent="800"
    descent="-200"
    x-height="528"
    cap-height="714"
    bbox="-87 -439 1214 1069"
    underline-thickness="50"
    underline-position="-100"
    slope="-10"
    unicode-range="U+000D-FB02"
  />
<missing-glyph horiz-adv-x="689" 
d="M-72 -439l264 1508h587l-264 -1508h-587zM452 -373l241 1377h-437l-241 -1377h437zM387 543q69 0 111.5 -29.5t42.5 -84.5q0 -12 -3 -26q-7 -38 -27 -58t-56 -39q-33 -15 -46 -25t-16 -26l-1 -1h-114l3 18q6 37 24.5 57t62.5 47q18 9 28 19t12 24q2 13 -6 20.5t-27 7.5
q-21 0 -37.5 -15.5t-22.5 -42.5l-125 14q37 140 197 140zM397 216l-22 -123h-135l22 123h135z" />
    <glyph glyph-name=".notdef" horiz-adv-x="689" 
d="M-72 -439l264 1508h587l-264 -1508h-587zM452 -373l241 1377h-437l-241 -1377h437zM387 543q69 0 111.5 -29.5t42.5 -84.5q0 -12 -3 -26q-7 -38 -27 -58t-56 -39q-33 -15 -46 -25t-16 -26l-1 -1h-114l3 18q6 37 24.5 57t62.5 47q18 9 28 19t12 24q2 13 -6 20.5t-27 7.5
q-21 0 -37.5 -15.5t-22.5 -42.5l-125 14q37 140 197 140zM397 216l-22 -123h-135l22 123h135z" />
    <glyph glyph-name=".null" horiz-adv-x="0" 
 />
    <glyph glyph-name="nonmarkingreturn" unicode="&#xd;" horiz-adv-x="168" 
 />
    <glyph glyph-name="space" unicode=" " horiz-adv-x="250" 
 />
    <glyph glyph-name="exclam" unicode="!" horiz-adv-x="316" 
d="M152 522l34 192h110l-33 -192l-73 -317h-76zM200 124l-22 -124h-124l22 124h124z" />
    <glyph glyph-name="quotedbl" unicode="&#x22;" horiz-adv-x="467" 
d="M161 714h101l-46 -263h-100zM353 714h100l-45 -263h-101z" />
    <glyph glyph-name="numbersign" unicode="#" horiz-adv-x="651" 
d="M466 276h107l-31 -79h-106l-74 -197h-86l74 197h-137l-74 -197h-85l74 197h-105l31 79h104l55 147h-106l31 80h105l74 198h87l-75 -198h136l75 198h86l-75 -198h107l-32 -80h-105zM299 423l-56 -147h137l55 147h-136z" />
    <glyph glyph-name="dollar" unicode="$" horiz-adv-x="617" 
d="M467.5 357q32.5 -17 57.5 -51.5t25 -89.5q0 -105 -70 -167.5t-201 -62.5h-5l-17 -96h-48l18 100q-88 14 -143 73t-53 152l102 10q0 -128 108 -151l44 249l-44 15q-57 20 -98 55.5t-41 104.5q0 62 32.5 111t89.5 76.5t129 28.5l13 74h48l-14 -77q79 -12 128 -65.5
t56 -138.5l-102 -7q-2 53 -27.5 85t-68.5 41l-39 -222l42 -15q46 -15 78.5 -32zM338 630q-59 -3 -95 -38.5t-36 -86.5q0 -55 82 -82l12 -4zM402 107.5q43 37.5 43 98.5q0 37 -24.5 58t-72.5 37l-18 6l-42 -237q71 0 114 37.5z" />
    <glyph glyph-name="percent" unicode="%" horiz-adv-x="958" 
d="M236 312q-58 0 -97 37.5t-39 106.5q0 55 15.5 105.5t44.5 87.5q55 66 143 66q58 0 96.5 -37.5t38.5 -106.5q0 -55 -15.5 -105.5t-44.5 -86.5q-54 -67 -142 -67zM273 0h-80l522 701h79zM200 396q14 -17 43 -17q45 0 69 39t32 84t8 75q0 37 -13.5 54t-42.5 17
q-45 0 -69.5 -39t-32.5 -84.5t-8 -74.5q0 -37 14 -54zM687 -14q-58 0 -97 37.5t-39 106.5q0 55 15.5 105.5t44.5 86.5q56 67 142 67q58 0 97 -37.5t39 -106.5q0 -55 -15.5 -105.5t-44.5 -87.5q-55 -66 -142 -66zM650.5 70q13.5 -17 42.5 -17q45 0 69.5 39t32.5 84t8 75
q0 37 -13.5 54t-42.5 17q-45 0 -69.5 -39t-32.5 -84t-8 -75q0 -37 13.5 -54z" />
    <glyph glyph-name="ampersand" unicode="&#x26;" horiz-adv-x="767" 
d="M505 81q-48 -45 -108.5 -69t-128.5 -24q-59 0 -109.5 20t-81.5 60t-31 96q0 83 48 138t143 98l26 11q-32 45 -46 75t-14 60q0 52 28 94t77.5 66t111.5 24q47 0 85.5 -18t60.5 -50t22 -70q0 -65 -44 -110t-122 -83l-26 -13l112 -149q33 64 44 128h93q-20 -118 -77 -208
l117 -157h-120zM314 504q10 -20 34 -54l27 12q57 26 83.5 53t27.5 66q0 30 -18.5 49.5t-54.5 19.5q-46 0 -77.5 -32.5t-31.5 -75.5q0 -18 10 -38zM368.5 95q44.5 22 81.5 61l-138 188l-27 -13q-69 -34 -101 -69t-32 -92q0 -48 33 -72.5t91 -24.5q48 0 92.5 22z" />
    <glyph glyph-name="quotesingle" unicode="'" horiz-adv-x="275" 
d="M161 714h101l-46 -263h-100z" />
    <glyph glyph-name="parenleft" unicode="(" horiz-adv-x="357" 
d="M210.5 34.5q22.5 -68.5 64.5 -126.5l-44 -39q-66 69 -107 157t-41 192q0 175 77 312t226 248l39 -43q-118 -106 -177.5 -247.5t-59.5 -296.5q0 -88 22.5 -156.5z" />
    <glyph glyph-name="parenright" unicode=")" horiz-adv-x="357" 
d="M167 611.5q-23 68.5 -64 126.5l44 38q66 -69 106.5 -157t40.5 -192q0 -176 -76.5 -312.5t-225.5 -247.5l-39 44q118 106 177.5 247t59.5 296q0 89 -23 157.5z" />
    <glyph glyph-name="asterisk" unicode="*" horiz-adv-x="475" 
d="M433 470l-47 -54l-77 65l-17 -114h-72l23 114l-98 -65l-33 63l122 61l-94 70l46 55l77 -65l17 114h73l-24 -114l98 65l34 -63l-122 -62z" />
    <glyph glyph-name="plus" unicode="+" horiz-adv-x="493" 
d="M294 283l-32 -183h-88l32 183h-172l15 85h172l32 182h89l-33 -182h172l-16 -85h-171z" />
    <glyph glyph-name="comma" unicode="," horiz-adv-x="310" 
d="M125 -98q-37 -42 -99 -43l10 55q54 3 67 86h-57l22 124h124l-17 -102q-13 -78 -50 -120z" />
    <glyph glyph-name="hyphen" unicode="-" horiz-adv-x="497" 
d="M109 332h302l-16 -93h-302z" />
    <glyph glyph-name="period" unicode="." horiz-adv-x="310" 
d="M192 124l-21 -124h-125l22 124h124z" />
    <glyph glyph-name="slash" unicode="/" horiz-adv-x="436" 
d="M96 0h-109l384 714h109z" />
    <glyph glyph-name="zero" unicode="0" horiz-adv-x="668" 
d="M566.5 656q61.5 -59 61.5 -190q0 -67 -15.5 -145t-51 -151.5t-92.5 -120.5q-76 -63 -181 -63q-95 0 -157 59t-62 190q0 66 15.5 144t51.5 152t92 121q76 63 182 63q95 0 156.5 -59zM436 150.5q51 80.5 68.5 175t17.5 154.5q0 84 -30.5 117.5t-85.5 33.5q-93 0 -144 -80.5
t-68.5 -175t-17.5 -154.5q0 -85 30.5 -118t85.5 -33q93 0 144 80.5z" />
    <glyph glyph-name="one" unicode="1" horiz-adv-x="382" 
d="M235 0h-100l93 536h-140l12 70h19q61 0 99 28t52 69l88 -2z" />
    <glyph glyph-name="two" unicode="2" horiz-adv-x="602" 
d="M487 0h-476l5 34q13 74 50 126.5t78.5 84t99.5 64.5l107 61q58 34 91.5 74t33.5 95q0 46 -29 68.5t-84 22.5q-61 0 -104 -41.5t-64 -115.5l-100 14q31 110 103.5 168.5t173.5 58.5q54 0 102 -19t78 -57t30 -94q0 -68 -28 -115t-67.5 -75.5t-114.5 -72.5l-97 -57
q-62 -37 -95.5 -72t-38.5 -61h362z" />
    <glyph glyph-name="three" unicode="3" horiz-adv-x="613" 
d="M395 417q36 18 57 49.5t21 70.5q0 45 -29 69t-79 24q-52 0 -93 -33t-59 -92l-101 14q30 94 99 144.5t163 50.5q59 0 105 -21t72 -59t26 -85q0 -67 -36 -116.5t-95 -67.5l-1 -4q46 -15 72 -50t26 -87q0 -75 -36.5 -129t-98 -81.5t-133.5 -27.5q-76 0 -130.5 28t-83.5 77.5
t-28 112.5l104 7q-3 -74 34 -107.5t112 -33.5q38 0 74 19.5t58 54.5t22 78q0 51 -35 75t-98 24h-64l14 78h60q45 0 81 18z" />
    <glyph glyph-name="four" unicode="4" horiz-adv-x="627" 
d="M575 262l-14 -81h-90l-32 -181h-100l31 181h-333l15 88l351 432h159l-77 -439h90zM155 262h230l62 359h-4l-287 -355z" />
    <glyph glyph-name="five" unicode="5" horiz-adv-x="600" 
d="M437 452q46 -25 73 -70t27 -101q0 -85 -35.5 -152t-101 -105t-153.5 -38q-61 0 -109.5 26t-76.5 70.5t-30 97.5l105 7q2 -57 33 -87t86 -30q51 0 91 29t62 76t22 98q0 59 -32 89.5t-84 30.5q-80 0 -149 -55h-97l94 363h406l-15 -89h-325l-47 -182h4q33 25 70 36t83 11
q53 0 99 -25z" />
    <glyph glyph-name="six" unicode="6" horiz-adv-x="631" 
d="M468.5 426.5q44.5 -23.5 71 -67t26.5 -101.5q0 -79 -37.5 -141t-102 -96.5t-140.5 -34.5q-58 0 -102.5 21.5t-72.5 60.5q-44 62 -44 159q0 87 25.5 193.5t70.5 171.5q42 61 98.5 91.5t137.5 30.5q50 0 94.5 -20.5t75 -59t37.5 -90.5l-100 -8q-7 41 -36.5 69.5t-78.5 28.5
q-40 0 -80.5 -23t-74.5 -79t-49 -149q-1 -6 -2 -7h4q39 40 83.5 57t99.5 17q52 0 96.5 -23.5zM379.5 92q39.5 26 62 70t22.5 95q0 53 -32 83t-80 30q-51 0 -93 -26t-66 -68.5t-24 -90.5q0 -55 34.5 -87t88.5 -32q48 0 87.5 26z" />
    <glyph glyph-name="seven" unicode="7" horiz-adv-x="553" 
d="M583 650q-8 -47 -36 -88.5t-83 -105.5q-57 -66 -96.5 -120t-74.5 -131t-53 -173l-6 -33h-106l8 44q20 111 60.5 197.5t85.5 145.5t107 127q7 8 34.5 39t44.5 56l1 4h-370l16 89h477z" />
    <glyph glyph-name="eight" unicode="8" horiz-adv-x="626" 
d="M415 14q66 28 103.5 84t37.5 135q0 42 -23.5 79t-66.5 63l1 4q56 16 91.5 59.5t35.5 107.5q0 50 -28.5 88.5t-75 59t-99.5 20.5q-81 0 -142.5 -28t-94.5 -77t-33 -110q0 -38 23 -72t53 -48l-1 -4q-74 -24 -112 -79t-38 -137q0 -49 30 -88.5t80.5 -62t107.5 -22.5
q85 0 151 28zM254 434q-33 23 -33 67q0 59 45.5 96t110.5 37q50 0 83.5 -23t33.5 -67q0 -59 -45.5 -96t-110.5 -37q-51 0 -84 23zM188 93.5q-36 27.5 -36 78.5q0 47 22.5 84t62 57.5t87.5 20.5q54 0 90 -27.5t36 -78.5q0 -47 -22.5 -84t-62 -57.5t-87.5 -20.5
q-54 0 -90 27.5z" />
    <glyph glyph-name="nine" unicode="9" horiz-adv-x="630" 
d="M192.5 273.5q-44.5 23.5 -71.5 67t-27 101.5q0 79 38 141t102.5 96.5t140.5 34.5q58 0 102.5 -21.5t72.5 -60.5q43 -60 43 -159q0 -88 -25 -194t-70 -171q-43 -61 -99.5 -91.5t-136.5 -30.5q-50 0 -95 20.5t-75.5 59t-37.5 90.5l101 9q7 -41 36.5 -70t78.5 -29
q40 0 80.5 23t74.5 79t49 149l1 7h-4q-38 -40 -82.5 -57t-100.5 -17q-51 0 -95.5 23.5zM281 608q-39 -26 -61.5 -70t-22.5 -95q0 -53 32 -83t80 -30q50 0 92 26t66 68.5t24 90.5q0 55 -34 87t-88 32q-49 0 -88 -26z" />
    <glyph glyph-name="colon" unicode=":" horiz-adv-x="310" 
d="M257 492l-22 -125h-124l21 125h125zM192 124l-21 -124h-124l21 124h124z" />
    <glyph glyph-name="semicolon" unicode=";" horiz-adv-x="309" 
d="M257 492l-22 -125h-124l21 125h125zM26 -141l10 55q54 3 67 86h-56l21 124h124l-17 -102q-29 -162 -149 -163z" />
    <glyph glyph-name="less" unicode="&#x3c;" horiz-adv-x="603" 
d="M572 577l-16 -95l-359 -158v-4l301 -167l-16 -86l-391 216l14 87z" />
    <glyph glyph-name="equal" unicode="=" horiz-adv-x="492" 
d="M65 455h430l-15 -85h-430zM34 281h430l-14 -85h-430z" />
    <glyph glyph-name="greater" unicode="&#x3e;" horiz-adv-x="603" 
d="M52 67l16 95l359 158v4l-301 167l16 86l391 -216l-14 -87z" />
    <glyph glyph-name="question" unicode="?" horiz-adv-x="594" 
d="M199.5 677q72.5 53 175.5 53q58 0 105.5 -19.5t75.5 -56t28 -85.5q0 -79 -34.5 -125.5t-101.5 -87.5q-54 -32 -79 -62.5t-32 -75.5l-2 -13h-98l7 40q11 62 42.5 102.5t90.5 76.5q96 58 96 135q0 40 -28 61t-78 21q-122 0 -183 -144l-95 25q38 102 110.5 155zM333 124
l-22 -124h-124l22 124h124z" />
    <glyph glyph-name="at" unicode="@" horiz-adv-x="1031" 
d="M598.5 70q-22.5 15 -22.5 41q0 4 2 14h-4q-52 -70 -157 -70q-43 0 -77.5 20.5t-54 55.5t-19.5 76q0 74 38 145t105 116.5t149 45.5q36 0 67 -19t42 -50h4l19 51h99l-130 -337q-3 -12 -3 -20q0 -28 41 -28q59 0 111 45t83.5 114.5t31.5 136.5q0 75 -38.5 135.5t-110 95
t-168.5 34.5q-127 0 -239 -69t-179 -181.5t-67 -233.5q0 -90 42.5 -154.5t118 -98t173.5 -33.5q153 0 265 65l26 -49q-61 -38 -134.5 -55.5t-164.5 -17.5q-113 0 -202.5 42t-140 119.5t-50.5 181.5q0 144 76.5 269t205 199t277.5 74q113 0 199 -43.5t132 -117t46 -159.5
q0 -95 -43.5 -177t-118 -130t-161.5 -48q-46 0 -68.5 15zM536 167.5q43 33.5 69.5 84.5t26.5 101q0 82 -77 82q-49 0 -92 -33.5t-69 -85t-26 -102.5q0 -38 19 -59t57 -21q49 0 92 33.5z" />
    <glyph glyph-name="A" unicode="A" 
d="M215 192l-103 -192h-124l400 714h137l163 -714h-115l-40 192h-318zM446 614h-4l-178 -330h250z" />
    <glyph glyph-name="B" unicode="B" horiz-adv-x="700" 
d="M581.5 690.5q42.5 -23.5 64.5 -59t22 -72.5q0 -61 -30.5 -109t-83.5 -69l-1 -4q38 -19 62 -52.5t24 -78.5q0 -117 -73 -181.5t-196 -64.5h-326l126 714h310q59 0 101.5 -23.5zM415 411q66 0 103.5 35t37.5 95q0 39 -26.5 60t-78.5 21h-189l-37 -211h190zM485 132.5
q42 38.5 42 103.5q0 43 -29 66t-86 23h-201l-41 -231h201q72 0 114 38.5z" />
    <glyph glyph-name="C" unicode="C" horiz-adv-x="765" 
d="M631 110.5q-48 -55.5 -120 -91t-159 -35.5q-82 0 -146 34.5t-100 100t-36 153.5q0 123 51.5 228.5t144 167.5t210.5 62q75 0 132 -30t91 -76.5t43 -95.5l-107 -20q-11 58 -52.5 94t-111.5 36q-86 0 -151.5 -52t-101.5 -137t-36 -181q0 -92 45.5 -142t129.5 -50t144 49.5
t92 122.5l110 -20q-24 -62 -72 -117.5z" />
    <glyph glyph-name="D" unicode="D" horiz-adv-x="763" 
d="M588 678.5q65 -35.5 101 -98.5t36 -141q0 -120 -50 -220.5t-142.5 -159.5t-214.5 -59h-274l126 714h269q84 0 149 -35.5zM478 142q67 50 101 126.5t34 154.5q0 99 -51.5 149t-150.5 50h-147l-93 -530h147q93 0 160 50z" />
    <glyph glyph-name="E" unicode="E" horiz-adv-x="658" 
d="M598 413l-17 -90h-370l-40 -228h387l-17 -95h-496l125 714h496l-16 -92h-386l-37 -209h371z" />
    <glyph glyph-name="F" unicode="F" horiz-adv-x="641" 
d="M225 403h371l-16 -90h-370l-55 -313h-110l125 714h496l-16 -92h-386z" />
    <glyph glyph-name="G" unicode="G" horiz-adv-x="774" 
d="M663 0h-89l16 85q-88 -101 -235 -101q-82 0 -147 35.5t-102 101t-37 150.5q0 124 53 229t146.5 167.5t210.5 62.5q69 0 127.5 -26t97.5 -75t51 -115l-110 -9q-15 66 -58.5 99.5t-112.5 33.5q-88 0 -154.5 -52.5t-102.5 -137.5t-36 -180q1 -91 47.5 -141.5t131.5 -50.5
q64 0 117 27.5t87.5 72t45.5 94.5h-195l16 93h296z" />
    <glyph glyph-name="H" unicode="H" horiz-adv-x="763" 
d="M627 0h-110l55 316h-362l-55 -316h-110l125 714h110l-54 -306h362l54 306h110z" />
    <glyph glyph-name="I" unicode="I" horiz-adv-x="292" 
d="M170 714h110l-125 -714h-110z" />
    <glyph glyph-name="J" unicode="J" horiz-adv-x="655" 
d="M458 46.5q-81 -62.5 -198 -62.5q-105 0 -164.5 58.5t-59.5 166.5l1 27q2 19 5 29l105 6q-4 -20 -4 -30q-2 -18 -2 -27q0 -72 33.5 -104t96.5 -32q75 0 120.5 40t60.5 129l82 467h110l-83 -479q-22 -126 -103 -188.5z" />
    <glyph glyph-name="K" unicode="K" horiz-adv-x="709" 
d="M635 0h-122l-192 370l-119 -104l-47 -266h-110l125 714h110l-57 -317l355 317h140l-314 -276z" />
    <glyph glyph-name="L" unicode="L" horiz-adv-x="643" 
d="M170 714h110l-109 -619h391l-17 -95h-500z" />
    <glyph glyph-name="M" unicode="M" horiz-adv-x="885" 
d="M749 0h-106l97 558h-4l-296 -558h-90l-102 558h-4l-97 -558h-102l125 714h155l92 -551h4l285 551h168z" />
    <glyph glyph-name="N" unicode="N" 
d="M523 0l-275 559h-4l-97 -559h-102l125 714h114l271 -551h4l97 551h102l-125 -714h-110z" />
    <glyph glyph-name="O" unicode="O" horiz-adv-x="798" 
d="M625 695.5q64 -34.5 100 -99.5t36 -153q0 -124 -51.5 -229t-144 -167.5t-211.5 -62.5q-83 0 -147.5 34.5t-100.5 99.5t-36 153q0 124 51.5 229.5t144.5 167.5t212 62q83 0 147 -34.5zM511 128q66 52 102 137t36 181q0 92 -46 142t-130 50q-87 0 -153 -52t-102 -137
t-36 -181q0 -92 46 -142t131 -50q86 0 152 52z" />
    <glyph glyph-name="P" unicode="P" horiz-adv-x="702" 
d="M587.5 692q48.5 -22 76 -62t27.5 -93q0 -124 -75 -195t-212 -71h-202l-47 -271h-110l125 714h308q61 0 109.5 -22zM531.5 406q47.5 43 47.5 115q0 49 -33.5 75t-97.5 26h-184l-46 -259h185q81 0 128.5 43z" />
    <glyph glyph-name="Q" unicode="Q" horiz-adv-x="811" 
d="M731.5 267.5q-29.5 -82.5 -83.5 -145.5l85 -149h-126l-41 76q-91 -65 -212 -65q-83 0 -147.5 34.5t-100.5 99.5t-36 153q0 124 51.5 229.5t144.5 167.5t212 62q83 0 147 -34.5t100 -99.5t36 -153q0 -93 -29.5 -175.5zM228 126q46 -50 131 -50q86 0 152 52t102 137t36 181
q0 92 -46 142t-130 50q-87 0 -153 -52t-102 -137t-36 -181q0 -92 46 -142z" />
    <glyph glyph-name="R" unicode="R" horiz-adv-x="726" 
d="M657.5 370.5q-56.5 -66.5 -159.5 -83.5l134 -287h-121l-129 281h-178l-49 -281h-110l125 714h329q61 0 110 -21.5t77 -61.5t28 -92q0 -102 -56.5 -168.5zM555.5 414.5q46.5 41.5 46.5 109.5q0 48 -33.5 73t-98.5 25h-205l-45 -249h206q83 0 129.5 41.5z" />
    <glyph glyph-name="S" unicode="S" horiz-adv-x="683" 
d="M384 641q-41 0 -78.5 -17t-61 -46.5t-23.5 -65.5q0 -34 24 -51t74 -30l118 -28q84 -20 131 -58t47 -119q0 -79 -41.5 -133.5t-111 -81.5t-153.5 -27q-127 0 -200.5 63.5t-78.5 172.5l109 11q4 -158 184 -158q46 0 87.5 17t67 49t25.5 75q0 40 -26.5 58t-86.5 33l-124 32
q-71 18 -114 55.5t-43 109.5q0 69 39.5 121t105.5 79.5t142 27.5q113 0 178 -58t81 -156l-110 -8q-16 133 -161 133z" />
    <glyph glyph-name="T" unicode="T" horiz-adv-x="681" 
d="M458 619l-109 -619h-110l109 619h-240l17 95h589l-17 -95h-239z" />
    <glyph glyph-name="U" unicode="U" horiz-adv-x="757" 
d="M333 -16q-68 0 -124 28t-89.5 79.5t-33.5 120.5q0 28 4 52l80 450h110l-78 -443q-6 -34 -6 -62q0 -69 37 -100t110 -31q89 0 143.5 47t72.5 150l77 439h110l-79 -454q-49 -276 -334 -276z" />
    <glyph glyph-name="V" unicode="V" horiz-adv-x="733" 
d="M387 0h-119l-154 714h115l113 -588h4l307 588h125z" />
    <glyph glyph-name="W" unicode="W" horiz-adv-x="983" 
d="M543 555h-4l-229 -555h-124l-63 714h109l35 -569h4l232 569h126l34 -569h4l233 569h117l-310 -714h-126z" />
    <glyph glyph-name="X" unicode="X" horiz-adv-x="699" 
d="M608 0h-117l-133 284l-228 -284h-133l310 376l-165 338h117l119 -258l207 258h130l-285 -348z" />
    <glyph glyph-name="Y" unicode="Y" horiz-adv-x="699" 
d="M405 267l-48 -267h-110l50 283l-183 431h115l138 -342l245 342h130z" />
    <glyph glyph-name="Z" unicode="Z" horiz-adv-x="686" 
d="M584 95l-16 -95h-543l16 95l488 524h-371l17 95h518l-15 -95l-486 -524h392z" />
    <glyph glyph-name="bracketleft" unicode="[" horiz-adv-x="343" 
d="M263 -50l-15 -83h-205l155 888h205l-14 -83h-107l-127 -722h108z" />
    <glyph glyph-name="backslash" unicode="\" horiz-adv-x="423" 
d="M247 0l-134 714h95l133 -714h-94z" />
    <glyph glyph-name="bracketright" unicode="]" horiz-adv-x="343" 
d="M112 755h205l-155 -888h-205l14 83h107l127 722h-108z" />
    <glyph glyph-name="asciicircum" unicode="^" horiz-adv-x="559" 
d="M343 606h-4l-159 -253h-98l227 348h85l115 -348h-87z" />
    <glyph glyph-name="underscore" unicode="_" horiz-adv-x="543" 
d="M-69 -110h550l-9 -50h-550z" />
    <glyph glyph-name="grave" unicode="`" horiz-adv-x="345" 
d="M330 589h-76l-86 154h109z" />
    <glyph glyph-name="a" unicode="a" horiz-adv-x="563" 
d="M510 85l-15 -86q-16 -4 -53 -4q-34 0 -58 16t-25 48h-4q-34 -38 -75.5 -54.5t-94.5 -16.5q-39 0 -76 18t-59.5 51t-22.5 74q0 96 64.5 137.5t181.5 49.5q66 5 101.5 22t35.5 57q0 59 -89 59q-43 0 -81 -23.5t-58 -67.5l-91 26q29 71 92 110t149 39q91 0 136 -36.5
t45 -96.5q0 -15 -3 -30l-46 -268q-1 -3 -1 -9q0 -20 22 -20q17 0 25 5zM342.5 251.5q-34.5 -6.5 -86.5 -11.5q-53 -5 -88.5 -32.5t-35.5 -71.5q0 -32 22.5 -49.5t57.5 -17.5q57 0 105.5 36.5t61.5 106.5l10 58q-12 -12 -46.5 -18.5z" />
    <glyph glyph-name="b" unicode="b" horiz-adv-x="639" 
d="M496.5 513.5q45.5 -26.5 70.5 -75.5t25 -114q0 -88 -36 -165t-102 -124t-151 -47q-53 0 -95.5 22.5t-57.5 57.5h-4l-12 -68h-97l127 724h102l-45 -258h3q58 74 169 74q58 0 103.5 -26.5zM398.5 108.5q44.5 37.5 67.5 95t22 115.5q0 65 -32 101.5t-90 36.5
q-59 0 -103 -36.5t-67.5 -94t-23.5 -120.5q0 -64 32 -99.5t88 -35.5q62 0 106.5 37.5z" />
    <glyph glyph-name="c" unicode="c" horiz-adv-x="585" 
d="M421 184l102 -19q-30 -71 -94.5 -124t-171.5 -53q-63 0 -110.5 26.5t-74 75.5t-26.5 114q0 89 38 166.5t106.5 123.5t156.5 46q68 0 112.5 -26.5t65.5 -62t27 -66.5l-96 -27q-7 39 -33 69t-81 30q-62 0 -105 -38t-64.5 -97t-21.5 -121q0 -60 29 -95t82 -35q109 0 159 113
z" />
    <glyph glyph-name="d" unicode="d" horiz-adv-x="629" 
d="M427 519q41 -21 58 -53h4l45 258h102l-127 -724h-97l12 68h-4q-28 -38 -72 -59t-103 -21q-58 0 -103 26.5t-70.5 75.5t-25.5 113q0 89 36 166.5t101.5 124t151.5 46.5q51 0 92 -21zM378 109.5q44 38.5 66 96t22 115.5q0 65 -31.5 100.5t-88.5 35.5q-62 0 -106.5 -38.5
t-66.5 -96t-22 -114.5q0 -65 31.5 -101t89.5 -36q62 0 106 38.5z" />
    <glyph glyph-name="e" unicode="e" horiz-adv-x="600" 
d="M256 -12q-62 0 -109.5 26.5t-74 75t-26.5 112.5q0 91 37 168.5t105 123.5t157 46q62 0 109.5 -25.5t74 -73t26.5 -112.5q0 -40 -12 -90h-392q-3 -19 -3 -37q0 -59 29.5 -95t83.5 -36q109 0 162 97l102 -16q-80 -164 -269 -164zM232 416q-46 -41 -63 -99h285q1 8 1 23
q0 52 -29 84.5t-86 32.5q-62 0 -108 -41z" />
    <glyph glyph-name="f" unicode="f" horiz-adv-x="387" 
d="M302.5 637.5q-19.5 -12.5 -25.5 -49.5l-11 -60h116l-14 -77h-115l-80 -451h-102l79 451h-87l13 77h87l13 74q13 70 58.5 102t110.5 32q47 0 82 -11l-14 -81q-19 6 -60 6q-31 0 -50.5 -12.5z" />
    <glyph glyph-name="g" unicode="g" horiz-adv-x="619" 
d="M506 35q-21 -120 -97 -175.5t-186 -55.5q-90 0 -147.5 42t-66.5 127l102 17q1 -54 30.5 -77.5t86.5 -23.5q71 0 117.5 39t60.5 119l8 48h-4q-46 -67 -162 -67q-57 0 -102 25t-70.5 71t-25.5 107q0 83 35.5 154t99.5 113t146 42q51 0 91.5 -21t58.5 -52h4l11 61h97z
M370 140q42 31 65.5 82t23.5 107q0 59 -31.5 93.5t-86.5 34.5q-54 0 -96.5 -31t-66 -81.5t-23.5 -107.5q0 -59 31.5 -93.5t87.5 -34.5q54 0 96 31z" />
    <glyph glyph-name="h" unicode="h" horiz-adv-x="609" 
d="M223 458q37 45 77.5 63.5t95.5 18.5q40 0 76 -16.5t59 -51t23 -83.5q0 -21 -4 -41l-61 -348h-102l56 321q4 23 4 46q0 47 -23.5 67t-70.5 20q-34 0 -68.5 -21.5t-61 -61t-35.5 -91.5l-49 -280h-102l127 724h102l-47 -266h4z" />
    <glyph glyph-name="i" unicode="i" horiz-adv-x="263" 
d="M229 528l-93 -528h-102l92 528h103zM264 724l-20 -111h-102l20 111h102z" />
    <glyph glyph-name="j" unicode="j" horiz-adv-x="262" 
d="M22 -67l104 595h102l-106 -613q-12 -64 -42 -87.5t-98 -23.5q-20 0 -40 4.5t-29 8.5l14 83q4 -3 18.5 -5.5t24.5 -2.5q45 0 52 41zM263 724l-20 -111h-102l20 111h102z" />
    <glyph glyph-name="k" unicode="k" horiz-adv-x="572" 
d="M504 0h-112l-143 260l-75 -62l-35 -198h-102l127 724h102l-71 -402l243 206h137l-249 -205z" />
    <glyph glyph-name="l" unicode="l" horiz-adv-x="269" 
d="M266 724l-127 -724h-102l127 724h102z" />
    <glyph glyph-name="m" unicode="m" horiz-adv-x="918" 
d="M785.5 523.5q34.5 -16.5 56 -50.5t21.5 -83q0 -22 -4 -42l-61 -348h-102l56 321q5 30 5 48q0 46 -21.5 65.5t-63.5 19.5q-51 0 -95 -43t-57 -120l-51 -291h-103l57 321q4 24 4 48q0 46 -21 65.5t-64 19.5q-32 0 -63.5 -19t-55.5 -56t-33 -89l-51 -290h-102l93 528h97
l-13 -71h4q37 45 75.5 64t89.5 19q44 0 84.5 -23t55.5 -64q45 46 87 66.5t103 20.5q38 0 72.5 -16.5z" />
    <glyph glyph-name="n" unicode="n" horiz-adv-x="609" 
d="M219 458q36 45 77 63.5t97 18.5q41 0 78 -16.5t60 -51t23 -83.5q0 -21 -4 -41l-61 -348h-102l56 321q4 23 4 46q0 47 -23.5 67t-70.5 20q-35 0 -69 -19t-59.5 -56t-34.5 -89l-51 -290h-102l93 528h97l-12 -70h4z" />
    <glyph glyph-name="o" unicode="o" horiz-adv-x="616" 
d="M424 33.5q70 45.5 108 123t38 169.5q0 65 -27 113.5t-76.5 74.5t-113.5 26q-92 0 -161.5 -45.5t-107.5 -122.5t-38 -170q0 -65 27 -113.5t76.5 -74.5t113.5 -26q91 0 161 45.5zM435.5 423q30.5 -34 30.5 -97q0 -56 -22 -115t-66.5 -99.5t-109.5 -40.5q-57 0 -87.5 34
t-30.5 97q0 56 22 115t66.5 99.5t109.5 40.5q57 0 87.5 -34z" />
    <glyph glyph-name="p" unicode="p" horiz-adv-x="639" 
d="M211 8q-40 20 -57 53h-4l-43 -245h-102l125 712h97l-12 -68h4q57 80 174 80q58 0 103.5 -26.5t70.5 -75.5t25 -114q0 -88 -36 -165t-102 -124t-151 -47q-52 0 -92 20zM260 418.5q-44 -38.5 -66 -96.5t-22 -116q0 -64 31.5 -99.5t88.5 -35.5q63 0 107 38t66.5 95.5
t22.5 113.5q0 66 -32 102.5t-90 36.5q-62 0 -106 -38.5z" />
    <glyph glyph-name="q" unicode="q" horiz-adv-x="629" 
d="M142 14.5q-45 26.5 -70.5 75.5t-25.5 113q0 89 36 166.5t102 124t151 46.5q54 0 96.5 -22t57.5 -58h4l12 68h97l-125 -712h-102l43 245h-4q-57 -73 -169 -73q-58 0 -103 26.5zM238 418.5q-44 -38.5 -66 -96.5t-22 -116q0 -64 31.5 -99.5t89.5 -35.5q62 0 106 38t66.5 96
t22.5 115q0 65 -32 101t-89 36q-63 0 -107 -38.5z" />
    <glyph glyph-name="r" unicode="r" horiz-adv-x="415" 
d="M213 448h4q59 92 169 92q33 0 51 -5l-17 -98q-28 4 -50 4q-70 0 -118.5 -39.5t-63.5 -123.5l-49 -278h-102l93 528h97z" />
    <glyph glyph-name="s" unicode="s" horiz-adv-x="566" 
d="M390 439q-32 23 -78 23t-80 -23t-34 -59q0 -26 20.5 -38t71.5 -24l51 -12q49 -12 81 -26t52.5 -41.5t20.5 -73.5q0 -56 -32.5 -96t-87.5 -60.5t-121 -20.5q-100 0 -158.5 46.5t-63.5 122.5l94 16q7 -57 41.5 -82.5t95.5 -25.5q50 0 89 25.5t39 66.5q0 25 -25.5 39.5
t-74.5 26.5l-52 13q-45 12 -75 25t-50.5 39.5t-20.5 70.5q0 50 32 88.5t84 59.5t111 21q57 0 102 -21t71 -56.5t29 -76.5l-94 -16q-6 46 -38 69z" />
    <glyph glyph-name="t" unicode="t" horiz-adv-x="383" 
d="M299 86l-15 -87q-8 -4 -29.5 -7.5t-46.5 -3.5q-120 0 -120 94q0 15 3 33l59 336h-87l13 77h87l26 149h103l-26 -149h116l-14 -77h-115l-58 -330q-2 -14 -2 -18q0 -17 9.5 -22.5t32.5 -5.5q33 0 64 11z" />
    <glyph glyph-name="u" unicode="u" horiz-adv-x="610" 
d="M401 70q-36 -45 -77.5 -63.5t-97.5 -18.5q-41 0 -78 17t-60 51t-23 84q0 21 4 40l61 348h102l-56 -321q-5 -30 -5 -46q0 -47 23.5 -67t71.5 -20q35 0 69.5 19t60 56t34.5 89l51 290h102l-93 -528h-97l12 70h-4z" />
    <glyph glyph-name="v" unicode="v" horiz-adv-x="573" 
d="M187 0l-110 528h104l77 -411h4l212 411h116l-287 -528h-116z" />
    <glyph glyph-name="w" unicode="w" horiz-adv-x="869" 
d="M626 0h-117l-52 391h-4l-181 -391h-109l-84 528h102l55 -404h4l179 404h118l48 -404h3l186 404h110z" />
    <glyph glyph-name="x" unicode="x" horiz-adv-x="543" 
d="M465 0h-109l-93 190l-158 -190h-122l236 274l-134 254h108l90 -179l145 179h122l-222 -267z" />
    <glyph glyph-name="y" unicode="y" horiz-adv-x="573" 
d="M303 0q-46 -85 -82 -127t-70 -55.5t-83 -13.5q-29 0 -64 5l16 88q1 0 10.5 -2.5t32.5 -2.5q42 0 67.5 20t55.5 74l11 21l-120 521h104l84 -400h4l205 400h116z" />
    <glyph glyph-name="z" unicode="z" horiz-adv-x="550" 
d="M36 93l345 345h-270l15 90h406l-17 -94l-347 -346h286l-15 -88h-420z" />
    <glyph glyph-name="braceleft" unicode="{" horiz-adv-x="369" 
d="M238 344q-24 -24 -64 -31l-1 -4q29 -6 46.5 -26t17.5 -53q0 -7 -2 -25l-36 -202q-2 -14 -2 -21q0 -15 9 -23.5t31 -8.5h52l-15 -83h-70q-111 0 -111 90q0 14 3 32l36 206q2 7 2 20q0 30 -17 41.5t-48 11.5l12 86q35 0 60.5 17.5t32.5 59.5l36 206q8 46 23 71t44 36t79 11
h73l-14 -83h-48q-51 0 -61 -57l-35 -202q-9 -45 -33 -69z" />
    <glyph glyph-name="bar" unicode="|" horiz-adv-x="352" 
d="M40 -227l180 1026h99l-180 -1026h-99z" />
    <glyph glyph-name="braceright" unicode="}" horiz-adv-x="369" 
d="M213 309l1 4q-30 6 -47.5 26t-17.5 53q0 7 2 25l36 202q2 14 2 21q0 16 -8.5 24t-31.5 8h-52l15 83h70q111 0 111 -90q0 -14 -3 -32l-36 -206q-2 -7 -2 -20q0 -30 17.5 -41.5t47.5 -11.5l-12 -86q-35 0 -60.5 -17.5t-32.5 -59.5l-35 -206q-8 -46 -23.5 -71t-44.5 -36
t-79 -11h-73l14 83h48q30 0 43.5 15.5t17.5 41.5l36 202q15 86 97 100z" />
    <glyph glyph-name="asciitilde" unicode="~" horiz-adv-x="492" 
d="M424 343.5q31 19.5 59 47.5l-18 -102q-32 -26 -59 -38.5t-55 -12.5q-20 0 -35.5 5.5t-38.5 17.5l-64 33q-19 10 -34 15.5t-35 5.5q-27 0 -58 -19.5t-59 -47.5l18 102q61 51 114 51q20 0 36 -5t38 -17l64 -34q21 -11 35.5 -16t33.5 -5q27 0 58 19.5z" />
    <glyph glyph-name="uni00A0" unicode="&#xa0;" horiz-adv-x="168" 
 />
    <glyph glyph-name="exclamdown" unicode="&#xa1;" horiz-adv-x="313" 
d="M249 415h-122l21 119h122zM139 -180h-111l35 192l71 317h77l-38 -317z" />
    <glyph glyph-name="cent" unicode="&#xa2;" horiz-adv-x="585" 
d="M421 184l102 -19q-29 -67 -89 -119t-158 -57l-15 -89h-48l16 89q-83 9 -133 66.5t-50 148.5q0 85 35 160t98.5 122t145.5 53l13 76h48l-13 -76q59 -6 97.5 -32.5t57.5 -59.5t24 -62l-96 -27q-7 36 -29.5 64.5t-68.5 33.5l-67 -383q86 14 130 111zM175 112q24 -34 68 -40
l67 382q-51 -10 -87 -48.5t-54 -93t-18 -111.5q0 -55 24 -89z" />
    <glyph glyph-name="sterling" unicode="&#xa3;" horiz-adv-x="664" 
d="M483.5 599q-32.5 36 -91.5 36q-70 0 -112.5 -43t-42.5 -108q0 -27 9.5 -53.5t21.5 -50t15 -30.5h208l-11 -65h-177q13 -34 13 -66q0 -42 -16 -79q8 -5 39 -26t57 -31.5t49 -10.5q58 0 106 55l23 -86q-29 -31 -59 -43t-63 -12q-49 0 -91.5 22.5t-91.5 61.5
q-40 -84 -145 -84q-44 0 -76 25.5t-32 70.5q0 53 35.5 89t93.5 36q33 0 67 -16q2 11 2 25q0 35 -12 69h-152l11 65h117q-20 36 -30.5 69.5t-10.5 71.5q0 67 32.5 117.5t90.5 78t133 27.5q63 0 114 -24t79.5 -74t24.5 -122h-97q2 69 -30.5 105zM168.5 69.5
q19.5 17.5 30.5 51.5q-26 21 -48 21q-24 0 -40 -17.5t-16 -37.5q0 -15 10 -25t26 -10q18 0 37.5 17.5z" />
    <glyph glyph-name="currency" unicode="&#xa4;" horiz-adv-x="648" 
d="M545 223l68 -68l-63 -59l-66 67q-62 -45 -142 -45q-79 0 -143 45l-66 -67l-63 59l68 68q-46 65 -46 145t46 145l-68 68l63 59l66 -67q64 45 143 45q80 0 142 -45l66 67l63 -59l-68 -68q47 -64 47 -145t-47 -145zM419 227q35 22 55.5 59.5t20.5 81.5t-20.5 81.5
t-55.5 59.5t-77 22t-77.5 -22t-56 -59.5t-20.5 -81.5t20.5 -81.5t56 -59.5t77.5 -22t77 22z" />
    <glyph glyph-name="yen" unicode="&#xa5;" horiz-adv-x="717" 
d="M625 409l-12 -65h-140l-53 -67h182l-12 -64h-189l-38 -213h-102l37 213h-190l11 64h190l1 3l-30 64h-149l10 65h109l-138 292h108l156 -342l264 342h118l-233 -292h100z" />
    <glyph glyph-name="brokenbar" unicode="&#xa6;" horiz-adv-x="352" 
d="M143 362l77 437h99l-77 -437h-99zM40 -227l77 437h99l-77 -437h-99z" />
    <glyph glyph-name="section" unicode="&#xa7;" horiz-adv-x="731" 
d="M600.5 147.5q-35.5 -43.5 -96.5 -63.5q30 -38 30 -91q0 -97 -58.5 -148.5t-170.5 -51.5q-57 0 -104 23t-76 66.5t-32 103.5l100 6q1 -61 35 -90t84 -29q56 0 88 29.5t32 85.5q0 33 -17 50.5t-46 31.5l-167 80q-48 23 -76 56t-28 83q0 62 38.5 102t105.5 58q-34 41 -34 95
q0 56 28.5 98.5t77.5 65t111 22.5q85 0 133 -45.5t62 -127.5l-99 -3q-6 45 -32.5 70.5t-70.5 25.5q-46 0 -75.5 -28t-29.5 -72t48 -70l149 -76q61 -31 93.5 -65t32.5 -89q0 -59 -35.5 -102.5zM509 170q24 31 24 66q0 52 -62 83l-161 78l-19 10q-40 -11 -65 -37.5t-25 -64.5
q0 -26 15 -45t35 -29l154 -76q31 -17 46 -26q34 10 58 41z" />
    <glyph glyph-name="dieresis" unicode="&#xa8;" horiz-adv-x="454" 
d="M261 716l-17 -103h-99l18 103h98zM460 716l-17 -103h-99l18 103h98z" />
    <glyph glyph-name="copyright" unicode="&#xa9;" horiz-adv-x="927" 
d="M293 34q-86 50 -136 136t-50 188q0 101 50 186.5t136 135.5t187 50t187 -50t136 -135.5t50 -186.5q0 -102 -50 -188t-136 -136t-187 -50t-187 50zM634.5 90.5q70.5 41.5 112 112.5t41.5 155q0 83 -41.5 153.5t-112 112t-154.5 41.5t-154.5 -41.5t-112 -112t-41.5 -153.5
q0 -84 41.5 -155t112 -112.5t154.5 -41.5t154.5 41.5zM593 208q-44 -38 -112 -38q-79 0 -127.5 50t-48.5 138q0 86 48.5 136t127.5 50q62 0 105.5 -33t55.5 -79l-83 -12q-9 27 -28.5 43t-49.5 16q-41 0 -66 -30.5t-25 -90.5q0 -62 25 -92.5t66 -30.5q33 0 54 20.5t30 55.5
l83 -9q-11 -56 -55 -94z" />
    <glyph glyph-name="ordfeminine" unicode="&#xaa;" horiz-adv-x="425" 
d="M415 441l-10 -63q-6 -3 -38 -3q-26 0 -43.5 10t-19.5 29h-2q-21 -23 -46.5 -33t-60.5 -10q-41 0 -72 25.5t-31 65.5q0 62 40 88t114 32q44 3 67.5 14t23.5 35q0 33 -51 33q-25 0 -46.5 -14t-33.5 -40l-74 16q19 47 60.5 72.5t101.5 25.5q61 0 92 -24t31 -65q0 -13 -2 -20
l-27 -159v-6q0 -12 12 -12q9 0 15 3zM247 529q-32 -3 -52 -19t-20 -42q0 -19 13 -29t34 -10q32 0 59 21.5t35 62.5l6 33q-12 -11 -75 -17zM3 0l14 82h340l-15 -82h-339z" />
    <glyph glyph-name="guillemotleft" unicode="&#xab;" horiz-adv-x="545" 
d="M139 267l-1 -4l95 -103l-16 -97l-152 157l18 106l206 156l-19 -111zM359 267l-1 -4l95 -103l-16 -97l-152 157l18 106l206 156l-19 -111z" />
    <glyph glyph-name="logicalnot" unicode="&#xac;" horiz-adv-x="493" 
d="M357 144l31 176h-347l14 85h432l-46 -261h-84z" />
    <glyph glyph-name="registered" unicode="&#xae;" horiz-adv-x="927" 
d="M667 680q86 -50 136 -135.5t50 -186.5q0 -102 -50 -188t-136 -136t-187 -50t-187 50t-136 136t-50 188q0 101 50 186.5t136 135.5t187 50t187 -50zM634 90.5q71 41.5 112.5 112.5t41.5 155q0 83 -41.5 153.5t-112.5 112t-154 41.5t-154 -41.5t-112.5 -112t-41.5 -153.5
q0 -84 41.5 -155t112 -112.5t154.5 -41.5q83 0 154 41.5zM620 352.5q-19 -27.5 -55 -39.5l83 -135h-95l-74 128h-67v-128h-82v358h179q61 0 95.5 -30.5t34.5 -84.5q0 -41 -19 -68.5zM493 370q30 0 45.5 13.5t15.5 37.5t-15.5 37.5t-45.5 13.5h-81v-102h81z" />
    <glyph glyph-name="macron" unicode="&#xaf;" horiz-adv-x="448" 
d="M160 701h292l-13 -76h-293z" />
    <glyph glyph-name="degree" unicode="&#xb0;" horiz-adv-x="434" 
d="M194.5 438q-34.5 19 -55 52.5t-20.5 75.5t20.5 76.5t55 53.5t75.5 19t75.5 -19t55 -53.5t20.5 -76.5t-20.5 -75.5t-55 -52.5t-75.5 -19t-75.5 19zM326.5 507q22.5 24 22.5 59q0 36 -22.5 60t-56.5 24t-56.5 -24t-22.5 -60q0 -35 22.5 -59t56.5 -24t56.5 24z" />
    <glyph glyph-name="plusminus" unicode="&#xb1;" horiz-adv-x="493" 
d="M293 283l-32 -183h-88l32 183h-171l15 85h172l31 182h88l-32 -182h172l-16 -85h-171zM415 0h-431l15 86h431z" />
    <glyph glyph-name="twosuperior" unicode="&#xb2;" horiz-adv-x="420" 
d="M55 311q8 48 32.5 81.5t53 54t74.5 46.5l50 27q44 25 64.5 44t20.5 48q0 46 -67 46q-34 0 -61 -22.5t-38 -62.5l-82 7q18 70 69.5 106t122.5 36q59 0 100 -27t41 -77q0 -38 -16.5 -66t-42 -47t-64.5 -40l-69 -39q-70 -38 -76 -63h225l-13 -69h-328z" />
    <glyph glyph-name="threesuperior" unicode="&#xb3;" horiz-adv-x="431" 
d="M328.5 559.5q26.5 20.5 26.5 51.5q0 22 -18.5 34.5t-47.5 12.5q-32 0 -56 -17t-33 -49l-80 8q34 122 177 122q57 0 99.5 -28t42.5 -74q0 -79 -86 -105l-1 -4q27 -6 47 -28t20 -53q0 -70 -49 -107t-136 -37q-44 0 -81.5 15t-59.5 45.5t-20 73.5l86 5q-2 -39 20.5 -56.5
t61.5 -17.5q41 0 66.5 21.5t25.5 57.5q0 50 -78 50h-43l11 59h41q38 0 64.5 20.5z" />
    <glyph glyph-name="acute" unicode="&#xb4;" horiz-adv-x="357" 
d="M140 589l107 154h122l-140 -154h-89z" />
    <glyph glyph-name="paragraph" unicode="&#xb6;" horiz-adv-x="717" 
d="M458 -184l143 816h-119l-143 -816h-90l82 467q-67 0 -120 22t-82.5 62.5t-29.5 93.5q0 78 37.5 135.5t106.5 87.5t161 30h302l-157 -898h-91z" />
    <glyph glyph-name="periodcentered" unicode="&#xb7;" horiz-adv-x="343" 
d="M128.5 264q-21.5 21 -21.5 52q0 30 21.5 51.5t51.5 21.5q31 0 52 -21.5t21 -51.5q0 -31 -21 -52t-52 -21q-30 0 -51.5 21z" />
    <glyph glyph-name="cedilla" unicode="&#xb8;" horiz-adv-x="366" 
d="M58 -159q18 -5 35 -5q24 0 39.5 12.5t15.5 30.5q-1 12 -12 19t-24 7q-21 0 -42 -8l7 60l48 43l42 38l78 5l-47 -43l-43 -40l-1 -4q28 -2 49.5 -22.5t21.5 -50.5q0 -52 -33.5 -79.5t-96.5 -27.5q-21 0 -48.5 6t-45.5 17l25 55q14 -8 32 -13z" />
    <glyph glyph-name="onesuperior" unicode="&#xb9;" horiz-adv-x="306" 
d="M226 294h-82l53 299h-100l10 53h20q40 0 65.5 19t36.5 49h71z" />
    <glyph glyph-name="ordmasculine" unicode="&#xba;" horiz-adv-x="428" 
d="M351 400q46 29 70 78.5t24 108.5q0 63 -40 100t-106 37q-63 0 -109 -29t-70 -78.5t-24 -108.5q0 -63 40 -100t106 -37q63 0 109 29zM344 643.5q17 -18.5 17 -54.5q0 -31 -12 -67.5t-38 -62.5t-65 -26q-32 0 -49.5 19t-17.5 55q0 31 12 67t38.5 62t65.5 26q32 0 49 -18.5z
M5 0l14 82h340l-15 -82h-339z" />
    <glyph glyph-name="guillemotright" unicode="&#xbb;" horiz-adv-x="545" 
d="M188 278l1 4l-94 103l16 97l152 -157l-18 -106l-206 -156l19 111zM408 278l1 4l-94 103l16 97l152 -157l-18 -106l-206 -156l19 111z" />
    <glyph glyph-name="questiondown" unicode="&#xbf;" horiz-adv-x="594" 
d="M262 410l22 124h124l-22 -124h-124zM396 -143q-73 -53 -176 -53q-58 0 -105.5 19.5t-75.5 56t-28 85.5q0 79 34.5 125.5t101.5 87.5q54 32 78.5 62t32.5 76l2 13h98l-7 -40q-11 -62 -42.5 -102.5t-90.5 -76.5q-96 -58 -96 -135q0 -40 28 -61t78 -21q122 0 182 144l96 -25
q-37 -102 -110 -155z" />
    <glyph glyph-name="Agrave" unicode="&#xc0;" 
d="M215 192l-103 -192h-124l400 714h137l163 -714h-115l-40 192h-318zM446 614h-4l-178 -330h250zM503 765h-76l-86 154h109z" />
    <glyph glyph-name="Aacute" unicode="&#xc1;" 
d="M215 192l-103 -192h-124l400 714h137l163 -714h-115l-40 192h-318zM446 614h-4l-178 -330h250zM421 765l107 154h122l-140 -154h-89z" />
    <glyph glyph-name="Acircumflex" unicode="&#xc2;" 
d="M215 192l-103 -192h-124l400 714h137l163 -714h-115l-40 192h-318zM446 614h-4l-178 -330h250zM437 917h88l113 -154h-99l-62 87h-4l-83 -87h-107z" />
    <glyph glyph-name="Atilde" unicode="&#xc3;" 
d="M215 192l-103 -192h-124l400 714h137l163 -714h-115l-40 192h-318zM446 614h-4l-178 -330h250zM543 854q-17 0 -38 17l-18 13q-14 11 -28.5 17.5t-35.5 6.5q-36 0 -67.5 -24.5t-50.5 -82.5l67 -15q16 45 44 45q18 0 38 -16l18 -14q14 -11 28.5 -17.5t34.5 -6.5
q36 0 67.5 24.5t51.5 82.5l-67 15q-16 -45 -44 -45z" />
    <glyph glyph-name="Adieresis" unicode="&#xc4;" 
d="M215 192l-103 -192h-124l400 714h137l163 -714h-115l-40 192h-318zM446 614h-4l-178 -330h250zM437 891l-18 -103h-98l17 103h99zM636 891l-18 -103h-98l18 103h98z" />
    <glyph glyph-name="Aring" unicode="&#xc5;" 
d="M215 192l-103 -192h-124l400 714h137l163 -714h-115l-40 192h-318zM446 614h-4l-178 -330h250zM404 784q-32 31 -32 77t32 77t80 31q46 0 78 -31t32 -77t-32 -77t-78 -31q-48 0 -80 31zM519 823.5q14 14.5 14 37.5t-14 37.5t-35 14.5q-23 0 -37 -14.5t-14 -37.5t14 -37.5
t37 -14.5q21 0 35 14.5z" />
    <glyph glyph-name="AE" unicode="&#xc6;" horiz-adv-x="1139" 
d="M711 413h365l-16 -92h-365l-40 -228h383l-17 -93h-489l36 203h-300l-148 -203h-132l537 714h621l-15 -92h-383zM640 622h-67l-238 -327h249z" />
    <glyph glyph-name="Ccedilla" unicode="&#xc7;" horiz-adv-x="765" 
d="M501 125.5q60 49.5 92 122.5l110 -20q-22 -57 -65.5 -109.5t-107.5 -89t-142 -43.5l-28 -26l-1 -4q28 -2 49.5 -22.5t21.5 -50.5q0 -52 -33.5 -79.5t-95.5 -27.5q-21 0 -49 6t-46 17l25 55q14 -8 32.5 -13t35.5 -5q23 0 38.5 12t15.5 30q0 13 -11 20t-24 7q-22 0 -43 -8
l8 60l32 29q-73 8 -128.5 44.5t-86 98.5t-30.5 143q0 123 51.5 228.5t144 167.5t210.5 62q75 0 132 -30t91 -76.5t43 -95.5l-107 -20q-11 58 -52.5 94t-111.5 36q-86 0 -151.5 -52t-101.5 -137t-36 -181q0 -92 45.5 -142t129.5 -50t144 49.5z" />
    <glyph glyph-name="Egrave" unicode="&#xc8;" horiz-adv-x="658" 
d="M598 413l-17 -90h-370l-40 -228h387l-17 -95h-496l125 714h496l-16 -92h-386l-37 -209h371zM465 765h-76l-86 154h109z" />
    <glyph glyph-name="Eacute" unicode="&#xc9;" horiz-adv-x="658" 
d="M598 413l-17 -90h-370l-40 -228h387l-17 -95h-496l125 714h496l-16 -92h-386l-37 -209h371zM382 765l107 154h122l-140 -154h-89z" />
    <glyph glyph-name="Ecircumflex" unicode="&#xca;" horiz-adv-x="658" 
d="M598 413l-17 -90h-370l-40 -228h387l-17 -95h-496l125 714h496l-16 -92h-386l-37 -209h371zM398 917h88l113 -154h-99l-62 87h-4l-83 -87h-107z" />
    <glyph glyph-name="Edieresis" unicode="&#xcb;" horiz-adv-x="658" 
d="M598 413l-17 -90h-370l-40 -228h387l-17 -95h-496l125 714h496l-16 -92h-386l-37 -209h371zM398 891l-18 -103h-98l17 103h99zM597 891l-18 -103h-98l18 103h98z" />
    <glyph glyph-name="Igrave" unicode="&#xcc;" horiz-adv-x="292" 
d="M170 714h110l-125 -714h-110zM271 765h-76l-86 154h109z" />
    <glyph glyph-name="Iacute" unicode="&#xcd;" horiz-adv-x="292" 
d="M170 714h110l-125 -714h-110zM189 765l107 154h122l-140 -154h-89z" />
    <glyph glyph-name="Icircumflex" unicode="&#xce;" horiz-adv-x="292" 
d="M170 714h110l-125 -714h-110zM205 917h88l113 -154h-99l-62 87h-4l-83 -87h-107z" />
    <glyph glyph-name="Idieresis" unicode="&#xcf;" horiz-adv-x="292" 
d="M170 714h110l-125 -714h-110zM205 891l-18 -103h-98l17 103h99zM404 891l-18 -103h-98l18 103h98z" />
    <glyph glyph-name="Eth" unicode="&#xd0;" horiz-adv-x="762" 
d="M587 678.5q65 -35.5 101 -98.5t36 -141q0 -120 -50 -220.5t-142.5 -159.5t-214.5 -59h-273l55 314h-73l15 87h73l55 313h269q84 0 149 -35.5zM477 142q67 50 101 126.5t34 154.5q0 99 -51.5 149t-150.5 50h-147l-39 -221h155l-15 -87h-155l-39 -222h147q93 0 160 50z" />
    <glyph glyph-name="Ntilde" unicode="&#xd1;" 
d="M523 0l-275 559h-4l-97 -559h-102l125 714h114l271 -551h4l97 551h102l-125 -714h-110zM550 854q-17 0 -38 17l-18 13q-14 11 -28.5 17.5t-35.5 6.5q-36 0 -67.5 -24.5t-50.5 -82.5l67 -15q16 45 44 45q18 0 38 -16l18 -14q14 -11 28.5 -17.5t34.5 -6.5q36 0 67.5 24.5
t51.5 82.5l-67 15q-16 -45 -44 -45z" />
    <glyph glyph-name="Ograve" unicode="&#xd2;" horiz-adv-x="798" 
d="M625 695.5q64 -34.5 100 -99.5t36 -153q0 -124 -51.5 -229t-144 -167.5t-211.5 -62.5q-83 0 -147.5 34.5t-100.5 99.5t-36 153q0 124 51.5 229.5t144.5 167.5t212 62q83 0 147 -34.5zM511 128q66 52 102 137t36 181q0 92 -46 142t-130 50q-87 0 -153 -52t-102 -137
t-36 -181q0 -92 46 -142t131 -50q86 0 152 52zM521 765h-76l-86 154h109z" />
    <glyph glyph-name="Oacute" unicode="&#xd3;" horiz-adv-x="798" 
d="M625 695.5q64 -34.5 100 -99.5t36 -153q0 -124 -51.5 -229t-144 -167.5t-211.5 -62.5q-83 0 -147.5 34.5t-100.5 99.5t-36 153q0 124 51.5 229.5t144.5 167.5t212 62q83 0 147 -34.5zM511 128q66 52 102 137t36 181q0 92 -46 142t-130 50q-87 0 -153 -52t-102 -137
t-36 -181q0 -92 46 -142t131 -50q86 0 152 52zM439 765l107 154h122l-140 -154h-89z" />
    <glyph glyph-name="Ocircumflex" unicode="&#xd4;" horiz-adv-x="798" 
d="M625 695.5q64 -34.5 100 -99.5t36 -153q0 -124 -51.5 -229t-144 -167.5t-211.5 -62.5q-83 0 -147.5 34.5t-100.5 99.5t-36 153q0 124 51.5 229.5t144.5 167.5t212 62q83 0 147 -34.5zM511 128q66 52 102 137t36 181q0 92 -46 142t-130 50q-87 0 -153 -52t-102 -137
t-36 -181q0 -92 46 -142t131 -50q86 0 152 52zM455 917h88l113 -154h-99l-62 87h-4l-83 -87h-107z" />
    <glyph glyph-name="Otilde" unicode="&#xd5;" horiz-adv-x="798" 
d="M625 695.5q64 -34.5 100 -99.5t36 -153q0 -124 -51.5 -229t-144 -167.5t-211.5 -62.5q-83 0 -147.5 34.5t-100.5 99.5t-36 153q0 124 51.5 229.5t144.5 167.5t212 62q83 0 147 -34.5zM511 128q66 52 102 137t36 181q0 92 -46 142t-130 50q-87 0 -153 -52t-102 -137
t-36 -181q0 -92 46 -142t131 -50q86 0 152 52zM561 854q-17 0 -38 17l-18 13q-14 11 -28.5 17.5t-35.5 6.5q-36 0 -67.5 -24.5t-50.5 -82.5l67 -15q16 45 44 45q18 0 38 -16l18 -14q14 -11 28.5 -17.5t34.5 -6.5q36 0 67.5 24.5t51.5 82.5l-67 15q-16 -45 -44 -45z" />
    <glyph glyph-name="Odieresis" unicode="&#xd6;" horiz-adv-x="798" 
d="M625 695.5q64 -34.5 100 -99.5t36 -153q0 -124 -51.5 -229t-144 -167.5t-211.5 -62.5q-83 0 -147.5 34.5t-100.5 99.5t-36 153q0 124 51.5 229.5t144.5 167.5t212 62q83 0 147 -34.5zM511 128q66 52 102 137t36 181q0 92 -46 142t-130 50q-87 0 -153 -52t-102 -137
t-36 -181q0 -92 46 -142t131 -50q86 0 152 52zM455 891l-18 -103h-98l17 103h99zM654 891l-18 -103h-98l18 103h98z" />
    <glyph glyph-name="multiply" unicode="&#xd7;" horiz-adv-x="488" 
d="M436 170l-64 -55l-122 153l-182 -153l-53 62l184 154l-120 149l62 55l122 -151l179 151l52 -62l-180 -152z" />
    <glyph glyph-name="Oslash" unicode="&#xd8;" horiz-adv-x="824" 
d="M774 443q0 -124 -51 -229.5t-144 -167.5t-212 -62q-60 0 -110.5 18.5t-88.5 53.5l-101 -96l-51 55l105 100q-37 66 -37 156q0 124 51.5 229t144 167.5t211.5 62.5q61 0 111.5 -18.5t87.5 -53.5l99 94l51 -56l-103 -98q37 -66 37 -155zM205 195l411 393q-47 50 -130 50
q-87 0 -153 -52t-101.5 -137t-35.5 -181q0 -40 9 -73zM653 518l-411 -392q47 -50 130 -50q87 0 153 52t101.5 137t35.5 181q0 41 -9 72z" />
    <glyph glyph-name="Ugrave" unicode="&#xd9;" horiz-adv-x="757" 
d="M333 -16q-68 0 -124 28t-89.5 79.5t-33.5 120.5q0 28 4 52l80 450h110l-78 -443q-6 -34 -6 -62q0 -69 37 -100t110 -31q89 0 143.5 47t72.5 150l77 439h110l-79 -454q-49 -276 -334 -276zM504 765h-76l-86 154h109z" />
    <glyph glyph-name="Uacute" unicode="&#xda;" horiz-adv-x="757" 
d="M333 -16q-68 0 -124 28t-89.5 79.5t-33.5 120.5q0 28 4 52l80 450h110l-78 -443q-6 -34 -6 -62q0 -69 37 -100t110 -31q89 0 143.5 47t72.5 150l77 439h110l-79 -454q-49 -276 -334 -276zM422 765l107 154h122l-140 -154h-89z" />
    <glyph glyph-name="Ucircumflex" unicode="&#xdb;" horiz-adv-x="757" 
d="M333 -16q-68 0 -124 28t-89.5 79.5t-33.5 120.5q0 28 4 52l80 450h110l-78 -443q-6 -34 -6 -62q0 -69 37 -100t110 -31q89 0 143.5 47t72.5 150l77 439h110l-79 -454q-49 -276 -334 -276zM438 917h88l113 -154h-99l-62 87h-4l-83 -87h-107z" />
    <glyph glyph-name="Udieresis" unicode="&#xdc;" horiz-adv-x="757" 
d="M333 -16q-68 0 -124 28t-89.5 79.5t-33.5 120.5q0 28 4 52l80 450h110l-78 -443q-6 -34 -6 -62q0 -69 37 -100t110 -31q89 0 143.5 47t72.5 150l77 439h110l-79 -454q-49 -276 -334 -276zM438 891l-18 -103h-98l17 103h99zM637 891l-18 -103h-98l18 103h98z" />
    <glyph glyph-name="Yacute" unicode="&#xdd;" horiz-adv-x="699" 
d="M405 267l-48 -267h-110l50 283l-183 431h115l138 -342l245 342h130zM385 765l107 154h122l-140 -154h-89z" />
    <glyph glyph-name="Thorn" unicode="&#xde;" horiz-adv-x="700" 
d="M563.5 562q48.5 -22 76 -62t27.5 -93q0 -124 -75 -195t-212 -71h-200l-25 -141h-110l125 714h110l-23 -130h197q61 0 109.5 -22zM507.5 276q47.5 43 47.5 115q0 49 -33.5 75t-97.5 26h-183l-46 -259h184q81 0 128.5 43z" />
    <glyph glyph-name="germandbls" unicode="&#xdf;" horiz-adv-x="646" 
d="M552 210q20 -24 20 -64q0 -74 -53.5 -116t-147.5 -42q-67 0 -113.5 34t-52.5 86l92 14q9 -57 81 -57q40 0 66 17.5t26 49.5t-47 59l-74 45q-35 21 -48.5 41t-13.5 47q0 31 14.5 52.5t35 34.5t56.5 31q36 17 58.5 31.5t37.5 37t15 56.5q0 33 -25 56.5t-72 23.5
q-63 0 -115.5 -40.5t-65.5 -117.5l-86 -489h-102l87 502q22 121 101 177.5t186 56.5q61 0 105 -22t66.5 -59t22.5 -80q0 -57 -24.5 -94.5t-57 -57t-79.5 -38.5q-33 -13 -47.5 -22t-14.5 -22q0 -14 33 -33l71 -45q45 -29 65 -53z" />
    <glyph glyph-name="agrave" unicode="&#xe0;" horiz-adv-x="563" 
d="M510 85l-15 -86q-16 -4 -53 -4q-34 0 -58 16t-25 48h-4q-34 -38 -75.5 -54.5t-94.5 -16.5q-39 0 -76 18t-59.5 51t-22.5 74q0 96 64.5 137.5t181.5 49.5q66 5 101.5 22t35.5 57q0 59 -89 59q-43 0 -81 -23.5t-58 -67.5l-91 26q29 71 92 110t149 39q91 0 136 -36.5
t45 -96.5q0 -15 -3 -30l-46 -268q-1 -3 -1 -9q0 -20 22 -20q17 0 25 5zM342.5 251.5q-34.5 -6.5 -86.5 -11.5q-53 -5 -88.5 -32.5t-35.5 -71.5q0 -32 22.5 -49.5t57.5 -17.5q57 0 105.5 36.5t61.5 106.5l10 58q-12 -12 -46.5 -18.5zM379 589h-76l-86 154h109z" />
    <glyph glyph-name="aacute" unicode="&#xe1;" horiz-adv-x="563" 
d="M510 85l-15 -86q-16 -4 -53 -4q-34 0 -58 16t-25 48h-4q-34 -38 -75.5 -54.5t-94.5 -16.5q-39 0 -76 18t-59.5 51t-22.5 74q0 96 64.5 137.5t181.5 49.5q66 5 101.5 22t35.5 57q0 59 -89 59q-43 0 -81 -23.5t-58 -67.5l-91 26q29 71 92 110t149 39q91 0 136 -36.5
t45 -96.5q0 -15 -3 -30l-46 -268q-1 -3 -1 -9q0 -20 22 -20q17 0 25 5zM342.5 251.5q-34.5 -6.5 -86.5 -11.5q-53 -5 -88.5 -32.5t-35.5 -71.5q0 -32 22.5 -49.5t57.5 -17.5q57 0 105.5 36.5t61.5 106.5l10 58q-12 -12 -46.5 -18.5zM296 589l107 154h122l-140 -154h-89z" />
    <glyph glyph-name="acircumflex" unicode="&#xe2;" horiz-adv-x="563" 
d="M510 85l-15 -86q-16 -4 -53 -4q-34 0 -58 16t-25 48h-4q-34 -38 -75.5 -54.5t-94.5 -16.5q-39 0 -76 18t-59.5 51t-22.5 74q0 96 64.5 137.5t181.5 49.5q66 5 101.5 22t35.5 57q0 59 -89 59q-43 0 -81 -23.5t-58 -67.5l-91 26q29 71 92 110t149 39q91 0 136 -36.5
t45 -96.5q0 -15 -3 -30l-46 -268q-1 -3 -1 -9q0 -20 22 -20q17 0 25 5zM342.5 251.5q-34.5 -6.5 -86.5 -11.5q-53 -5 -88.5 -32.5t-35.5 -71.5q0 -32 22.5 -49.5t57.5 -17.5q57 0 105.5 36.5t61.5 106.5l10 58q-12 -12 -46.5 -18.5zM312 743h88l113 -154h-99l-62 87h-4
l-83 -87h-107z" />
    <glyph glyph-name="atilde" unicode="&#xe3;" horiz-adv-x="563" 
d="M510 85l-15 -86q-16 -4 -53 -4q-34 0 -58 16t-25 48h-4q-34 -38 -75.5 -54.5t-94.5 -16.5q-39 0 -76 18t-59.5 51t-22.5 74q0 96 64.5 137.5t181.5 49.5q66 5 101.5 22t35.5 57q0 59 -89 59q-43 0 -81 -23.5t-58 -67.5l-91 26q29 71 92 110t149 39q91 0 136 -36.5
t45 -96.5q0 -15 -3 -30l-46 -268q-1 -3 -1 -9q0 -20 22 -20q17 0 25 5zM342.5 251.5q-34.5 -6.5 -86.5 -11.5q-53 -5 -88.5 -32.5t-35.5 -71.5q0 -32 22.5 -49.5t57.5 -17.5q57 0 105.5 36.5t61.5 106.5l10 58q-12 -12 -46.5 -18.5zM420 688q-17 0 -38 17l-18 14
q-14 11 -28.5 17.5t-35.5 6.5q-36 0 -67.5 -24.5t-50.5 -82.5l67 -15q16 45 44 45q17 0 38 -17l18 -14q14 -11 28.5 -17.5t35.5 -6.5q35 0 67 25t51 82l-67 15q-16 -45 -44 -45z" />
    <glyph glyph-name="adieresis" unicode="&#xe4;" horiz-adv-x="563" 
d="M510 85l-15 -86q-16 -4 -53 -4q-34 0 -58 16t-25 48h-4q-34 -38 -75.5 -54.5t-94.5 -16.5q-39 0 -76 18t-59.5 51t-22.5 74q0 96 64.5 137.5t181.5 49.5q66 5 101.5 22t35.5 57q0 59 -89 59q-43 0 -81 -23.5t-58 -67.5l-91 26q29 71 92 110t149 39q91 0 136 -36.5
t45 -96.5q0 -15 -3 -30l-46 -268q-1 -3 -1 -9q0 -20 22 -20q17 0 25 5zM342.5 251.5q-34.5 -6.5 -86.5 -11.5q-53 -5 -88.5 -32.5t-35.5 -71.5q0 -32 22.5 -49.5t57.5 -17.5q57 0 105.5 36.5t61.5 106.5l10 58q-12 -12 -46.5 -18.5zM312 716l-17 -103h-99l18 103h98z
M511 716l-17 -103h-99l18 103h98z" />
    <glyph glyph-name="aring" unicode="&#xe5;" horiz-adv-x="563" 
d="M510 85l-15 -86q-16 -4 -53 -4q-34 0 -58 16t-25 48h-4q-34 -38 -75.5 -54.5t-94.5 -16.5q-39 0 -76 18t-59.5 51t-22.5 74q0 96 64.5 137.5t181.5 49.5q66 5 101.5 22t35.5 57q0 59 -89 59q-43 0 -81 -23.5t-58 -67.5l-91 26q29 71 92 110t149 39q91 0 136 -36.5
t45 -96.5q0 -15 -3 -30l-46 -268q-1 -3 -1 -9q0 -20 22 -20q17 0 25 5zM342.5 251.5q-34.5 -6.5 -86.5 -11.5q-53 -5 -88.5 -32.5t-35.5 -71.5q0 -32 22.5 -49.5t57.5 -17.5q57 0 105.5 36.5t61.5 106.5l10 58q-12 -12 -46.5 -18.5zM281 618.5q-32 31.5 -32 76.5
q0 46 32 77.5t80 31.5q46 0 78 -31.5t32 -77.5q0 -45 -32 -76.5t-78 -31.5q-48 0 -80 31.5zM396 657.5q14 14.5 14 37.5t-14 37.5t-35 14.5q-23 0 -37 -14.5t-14 -37.5t14 -37.5t37 -14.5q21 0 35 14.5z" />
    <glyph glyph-name="ae" unicode="&#xe6;" horiz-adv-x="950" 
d="M498 202q0 -59 29.5 -95t83.5 -36q109 0 162 97l102 -16q-80 -164 -269 -164q-60 0 -107 29.5t-72 82.5q-33 -59 -98 -85.5t-131 -26.5q-77 0 -124 39.5t-47 103.5q0 94 65 136t172 51q90 6 124.5 24.5t34.5 52.5q0 61 -95 61q-44 0 -83 -23t-60 -68l-93 26q30 71 95 110
t153 39q65 0 107 -20.5t59 -57.5q37 37 85.5 57.5t103.5 20.5q62 0 109.5 -25.5t74 -73t26.5 -112.5q0 -40 -12 -90h-392q-3 -19 -3 -37zM582 415.5q-46 -41.5 -62 -98.5h284q1 8 1 23q0 52 -29 84.5t-86 32.5q-62 0 -108 -41.5zM356 254q-34 -6 -91 -11q-64 -5 -98.5 -33
t-34.5 -74q0 -33 20.5 -50t59.5 -17q64 0 115.5 35t64.5 106l11 61q-13 -11 -47 -17z" />
    <glyph glyph-name="ccedilla" unicode="&#xe7;" horiz-adv-x="585" 
d="M421 184l102 -19q-27 -63 -82 -113.5t-146 -61.5l-32 -30l-1 -4q28 -2 49.5 -22.5t21.5 -50.5q0 -52 -33.5 -79.5t-95.5 -27.5q-21 0 -49 6t-46 17l25 55q14 -8 32.5 -13t35.5 -5q23 0 38.5 12t15.5 30q0 13 -11 20t-24 7q-22 0 -43 -8l8 60l36 33q-80 11 -128 68
t-48 146t38 166.5t106.5 123.5t156.5 46q68 0 112.5 -26.5t65.5 -62t27 -66.5l-96 -27q-7 39 -33 69t-81 30q-62 0 -105 -38t-64.5 -97t-21.5 -121q0 -60 29 -95t82 -35q109 0 159 113z" />
    <glyph glyph-name="egrave" unicode="&#xe8;" horiz-adv-x="600" 
d="M256 -12q-62 0 -109.5 26.5t-74 75t-26.5 112.5q0 91 37 168.5t105 123.5t157 46q62 0 109.5 -25.5t74 -73t26.5 -112.5q0 -40 -12 -90h-392q-3 -19 -3 -37q0 -59 29.5 -95t83.5 -36q109 0 162 97l102 -16q-80 -164 -269 -164zM232 416q-46 -41 -63 -99h285q1 8 1 23
q0 52 -29 84.5t-86 32.5q-62 0 -108 -41zM392 589h-76l-86 154h109z" />
    <glyph glyph-name="eacute" unicode="&#xe9;" horiz-adv-x="600" 
d="M256 -12q-62 0 -109.5 26.5t-74 75t-26.5 112.5q0 91 37 168.5t105 123.5t157 46q62 0 109.5 -25.5t74 -73t26.5 -112.5q0 -40 -12 -90h-392q-3 -19 -3 -37q0 -59 29.5 -95t83.5 -36q109 0 162 97l102 -16q-80 -164 -269 -164zM232 416q-46 -41 -63 -99h285q1 8 1 23
q0 52 -29 84.5t-86 32.5q-62 0 -108 -41zM309 589l107 154h122l-140 -154h-89z" />
    <glyph glyph-name="ecircumflex" unicode="&#xea;" horiz-adv-x="600" 
d="M256 -12q-62 0 -109.5 26.5t-74 75t-26.5 112.5q0 91 37 168.5t105 123.5t157 46q62 0 109.5 -25.5t74 -73t26.5 -112.5q0 -40 -12 -90h-392q-3 -19 -3 -37q0 -59 29.5 -95t83.5 -36q109 0 162 97l102 -16q-80 -164 -269 -164zM232 416q-46 -41 -63 -99h285q1 8 1 23
q0 52 -29 84.5t-86 32.5q-62 0 -108 -41zM326 743h88l113 -154h-99l-62 87h-4l-83 -87h-107z" />
    <glyph glyph-name="edieresis" unicode="&#xeb;" horiz-adv-x="600" 
d="M256 -12q-62 0 -109.5 26.5t-74 75t-26.5 112.5q0 91 37 168.5t105 123.5t157 46q62 0 109.5 -25.5t74 -73t26.5 -112.5q0 -40 -12 -90h-392q-3 -19 -3 -37q0 -59 29.5 -95t83.5 -36q109 0 162 97l102 -16q-80 -164 -269 -164zM232 416q-46 -41 -63 -99h285q1 8 1 23
q0 52 -29 84.5t-86 32.5q-62 0 -108 -41zM325 716l-17 -103h-99l18 103h98zM524 716l-17 -103h-99l18 103h98z" />
    <glyph glyph-name="igrave" unicode="&#xec;" horiz-adv-x="263" 
d="M229 528l-93 -528h-102l92 528h103zM227 589h-76l-86 154h109z" />
    <glyph glyph-name="iacute" unicode="&#xed;" horiz-adv-x="263" 
d="M229 528l-93 -528h-102l92 528h103zM144 589l107 154h122l-140 -154h-89z" />
    <glyph glyph-name="icircumflex" unicode="&#xee;" horiz-adv-x="263" 
d="M229 528l-93 -528h-102l92 528h103zM161 743h88l113 -154h-99l-62 87h-4l-83 -87h-107z" />
    <glyph glyph-name="idieresis" unicode="&#xef;" horiz-adv-x="263" 
d="M229 528l-93 -528h-102l92 528h103zM161 716l-17 -103h-99l18 103h98zM360 716l-17 -103h-99l18 103h98z" />
    <glyph glyph-name="eth" unicode="&#xf0;" horiz-adv-x="612" 
d="M546.5 533q26.5 -69 26.5 -146q0 -64 -12 -130q-22 -124 -101.5 -196t-198.5 -72q-62 0 -111.5 26t-78 72.5t-28.5 104.5q0 81 38.5 149t105.5 107.5t149 39.5t135 -53q-13 110 -94 171l-128 -75l-51 60l101 59q-60 24 -137 38l50 73q105 -19 177 -59l141 82l51 -60
l-121 -70q60 -52 86.5 -121zM364 100.5q43 28.5 67.5 76t24.5 102.5q0 57 -32.5 91.5t-89.5 34.5q-52 0 -95 -29t-68 -77t-25 -103q0 -56 32.5 -90t90.5 -34q52 0 95 28.5z" />
    <glyph glyph-name="ntilde" unicode="&#xf1;" horiz-adv-x="609" 
d="M219 458q36 45 77 63.5t97 18.5q41 0 78 -16.5t60 -51t23 -83.5q0 -21 -4 -41l-61 -348h-102l56 321q4 23 4 46q0 47 -23.5 67t-70.5 20q-35 0 -69 -19t-59.5 -56t-34.5 -89l-51 -290h-102l93 528h97l-12 -70h4zM446 688q-17 0 -38 17l-18 14q-14 11 -28.5 17.5
t-35.5 6.5q-36 0 -67.5 -24.5t-50.5 -82.5l67 -15q16 45 44 45q17 0 38 -17l18 -14q14 -11 28.5 -17.5t35.5 -6.5q35 0 67 25t51 82l-67 15q-16 -45 -44 -45z" />
    <glyph glyph-name="ograve" unicode="&#xf2;" horiz-adv-x="616" 
d="M424 33.5q70 45.5 108 123t38 169.5q0 65 -27 113.5t-76.5 74.5t-113.5 26q-92 0 -161.5 -45.5t-107.5 -122.5t-38 -170q0 -65 27 -113.5t76.5 -74.5t113.5 -26q91 0 161 45.5zM435.5 423q30.5 -34 30.5 -97q0 -56 -22 -115t-66.5 -99.5t-109.5 -40.5q-57 0 -87.5 34
t-30.5 97q0 56 22 115t66.5 99.5t109.5 40.5q57 0 87.5 -34zM400 589h-76l-86 154h109z" />
    <glyph glyph-name="oacute" unicode="&#xf3;" horiz-adv-x="616" 
d="M424 33.5q70 45.5 108 123t38 169.5q0 65 -27 113.5t-76.5 74.5t-113.5 26q-92 0 -161.5 -45.5t-107.5 -122.5t-38 -170q0 -65 27 -113.5t76.5 -74.5t113.5 -26q91 0 161 45.5zM435.5 423q30.5 -34 30.5 -97q0 -56 -22 -115t-66.5 -99.5t-109.5 -40.5q-57 0 -87.5 34
t-30.5 97q0 56 22 115t66.5 99.5t109.5 40.5q57 0 87.5 -34zM317 589l107 154h122l-140 -154h-89z" />
    <glyph glyph-name="ocircumflex" unicode="&#xf4;" horiz-adv-x="616" 
d="M424 33.5q70 45.5 108 123t38 169.5q0 65 -27 113.5t-76.5 74.5t-113.5 26q-92 0 -161.5 -45.5t-107.5 -122.5t-38 -170q0 -65 27 -113.5t76.5 -74.5t113.5 -26q91 0 161 45.5zM435.5 423q30.5 -34 30.5 -97q0 -56 -22 -115t-66.5 -99.5t-109.5 -40.5q-57 0 -87.5 34
t-30.5 97q0 56 22 115t66.5 99.5t109.5 40.5q57 0 87.5 -34zM334 743h88l113 -154h-99l-62 87h-4l-83 -87h-107z" />
    <glyph glyph-name="otilde" unicode="&#xf5;" horiz-adv-x="616" 
d="M424 33.5q70 45.5 108 123t38 169.5q0 65 -27 113.5t-76.5 74.5t-113.5 26q-92 0 -161.5 -45.5t-107.5 -122.5t-38 -170q0 -65 27 -113.5t76.5 -74.5t113.5 -26q91 0 161 45.5zM435.5 423q30.5 -34 30.5 -97q0 -56 -22 -115t-66.5 -99.5t-109.5 -40.5q-57 0 -87.5 34
t-30.5 97q0 56 22 115t66.5 99.5t109.5 40.5q57 0 87.5 -34zM441 688q-17 0 -38 17l-18 14q-14 11 -28.5 17.5t-35.5 6.5q-36 0 -67.5 -24.5t-50.5 -82.5l67 -15q16 45 44 45q17 0 38 -17l18 -14q14 -11 28.5 -17.5t35.5 -6.5q35 0 67 25t51 82l-67 15q-16 -45 -44 -45z" />
    <glyph glyph-name="odieresis" unicode="&#xf6;" horiz-adv-x="616" 
d="M424 33.5q70 45.5 108 123t38 169.5q0 65 -27 113.5t-76.5 74.5t-113.5 26q-92 0 -161.5 -45.5t-107.5 -122.5t-38 -170q0 -65 27 -113.5t76.5 -74.5t113.5 -26q91 0 161 45.5zM435.5 423q30.5 -34 30.5 -97q0 -56 -22 -115t-66.5 -99.5t-109.5 -40.5q-57 0 -87.5 34
t-30.5 97q0 56 22 115t66.5 99.5t109.5 40.5q57 0 87.5 -34zM333 716l-17 -103h-99l18 103h98zM532 716l-17 -103h-99l18 103h98z" />
    <glyph glyph-name="divide" unicode="&#xf7;" horiz-adv-x="553" 
d="M274 459q-19 19 -19 45q0 27 19 46t45 19q27 0 46 -19t19 -46q0 -26 -19 -45t-46 -19q-26 0 -45 19zM525 283h-491l15 85h492zM212 101.5q-19 18.5 -19 45.5t19 45.5t45 18.5q27 0 46 -18.5t19 -45.5t-19 -45.5t-46 -18.5q-26 0 -45 18.5z" />
    <glyph glyph-name="oslash" unicode="&#xf8;" horiz-adv-x="621" 
d="M573 326q0 -92 -38 -169.5t-108 -123t-162 -45.5q-89 0 -148 50l-72 -67l-38 41l73 69q-32 53 -32 121q0 92 38 169.5t108 123t162 45.5q94 0 155 -56l61 57l39 -42l-65 -61q27 -49 27 -112zM158 154l283 265q-30 38 -90 38q-65 0 -110 -40.5t-67 -99.5t-22 -115
q0 -27 6 -48zM465 363l-279 -261q31 -31 84 -31q65 0 110 40.5t67 99.5t22 115q0 22 -4 37z" />
    <glyph glyph-name="ugrave" unicode="&#xf9;" horiz-adv-x="610" 
d="M401 70q-36 -45 -77.5 -63.5t-97.5 -18.5q-41 0 -78 17t-60 51t-23 84q0 21 4 40l61 348h102l-56 -321q-5 -30 -5 -46q0 -47 23.5 -67t71.5 -20q35 0 69.5 19t60 56t34.5 89l51 290h102l-93 -528h-97l12 70h-4zM406 589h-76l-86 154h109z" />
    <glyph glyph-name="uacute" unicode="&#xfa;" horiz-adv-x="610" 
d="M401 70q-36 -45 -77.5 -63.5t-97.5 -18.5q-41 0 -78 17t-60 51t-23 84q0 21 4 40l61 348h102l-56 -321q-5 -30 -5 -46q0 -47 23.5 -67t71.5 -20q35 0 69.5 19t60 56t34.5 89l51 290h102l-93 -528h-97l12 70h-4zM323 589l107 154h122l-140 -154h-89z" />
    <glyph glyph-name="ucircumflex" unicode="&#xfb;" horiz-adv-x="610" 
d="M401 70q-36 -45 -77.5 -63.5t-97.5 -18.5q-41 0 -78 17t-60 51t-23 84q0 21 4 40l61 348h102l-56 -321q-5 -30 -5 -46q0 -47 23.5 -67t71.5 -20q35 0 69.5 19t60 56t34.5 89l51 290h102l-93 -528h-97l12 70h-4zM340 743h88l113 -154h-99l-62 87h-4l-83 -87h-107z" />
    <glyph glyph-name="udieresis" unicode="&#xfc;" horiz-adv-x="610" 
d="M401 70q-36 -45 -77.5 -63.5t-97.5 -18.5q-41 0 -78 17t-60 51t-23 84q0 21 4 40l61 348h102l-56 -321q-5 -30 -5 -46q0 -47 23.5 -67t71.5 -20q35 0 69.5 19t60 56t34.5 89l51 290h102l-93 -528h-97l12 70h-4zM339 716l-17 -103h-99l18 103h98zM538 716l-17 -103h-99
l18 103h98z" />
    <glyph glyph-name="yacute" unicode="&#xfd;" horiz-adv-x="573" 
d="M303 0q-46 -85 -82 -127t-70 -55.5t-83 -13.5q-29 0 -64 5l16 88q1 0 10.5 -2.5t32.5 -2.5q42 0 67.5 20t55.5 74l11 21l-120 521h104l84 -400h4l205 400h116zM294 589l107 154h122l-140 -154h-89z" />
    <glyph glyph-name="thorn" unicode="&#xfe;" horiz-adv-x="640" 
d="M212 8q-41 20 -58 53h-4l-43 -245h-102l159 908h102l-45 -258h3q58 74 170 74q58 0 103.5 -26.5t70.5 -75.5t25 -114q0 -88 -36 -165t-102 -124t-151 -47q-51 0 -92 20zM261 418.5q-44 -38.5 -66 -96.5t-22 -116q0 -64 31.5 -99.5t88.5 -35.5q63 0 107 38t66.5 95.5
t22.5 113.5q0 66 -32 102.5t-90 36.5q-62 0 -106 -38.5z" />
    <glyph glyph-name="ydieresis" unicode="&#xff;" horiz-adv-x="573" 
d="M303 0q-46 -85 -82 -127t-70 -55.5t-83 -13.5q-29 0 -64 5l16 88q1 0 10.5 -2.5t32.5 -2.5q42 0 67.5 20t55.5 74l11 21l-120 521h104l84 -400h4l205 400h116zM310 716l-17 -103h-99l18 103h98zM509 716l-17 -103h-99l18 103h98z" />
    <glyph glyph-name="Amacron" unicode="&#x100;" 
d="M215 192l-103 -192h-124l400 714h137l163 -714h-115l-40 192h-318zM446 614h-4l-178 -330h250zM339 877h293l-14 -77h-292z" />
    <glyph glyph-name="amacron" unicode="&#x101;" horiz-adv-x="563" 
d="M510 85l-15 -86q-16 -4 -53 -4q-34 0 -58 16t-25 48h-4q-34 -38 -75.5 -54.5t-94.5 -16.5q-39 0 -76 18t-59.5 51t-22.5 74q0 96 64.5 137.5t181.5 49.5q66 5 101.5 22t35.5 57q0 59 -89 59q-43 0 -81 -23.5t-58 -67.5l-91 26q29 71 92 110t149 39q91 0 136 -36.5
t45 -96.5q0 -15 -3 -30l-46 -268q-1 -3 -1 -9q0 -20 22 -20q17 0 25 5zM342.5 251.5q-34.5 -6.5 -86.5 -11.5q-53 -5 -88.5 -32.5t-35.5 -71.5q0 -32 22.5 -49.5t57.5 -17.5q57 0 105.5 36.5t61.5 106.5l10 58q-12 -12 -46.5 -18.5zM215 701h292l-13 -76h-293z" />
    <glyph glyph-name="Abreve" unicode="&#x102;" 
d="M215 192l-103 -192h-124l400 714h137l163 -714h-115l-40 192h-318zM446 614h-4l-178 -330h250zM597 799.5q-47 -38.5 -122 -38.5q-35 0 -69.5 16.5t-56 47t-21.5 69.5q0 13 3 25h77q-3 -41 20 -61t57 -20q69 0 92 81h78q-11 -81 -58 -119.5z" />
    <glyph glyph-name="abreve" unicode="&#x103;" horiz-adv-x="563" 
d="M510 85l-15 -86q-16 -4 -53 -4q-34 0 -58 16t-25 48h-4q-34 -38 -75.5 -54.5t-94.5 -16.5q-39 0 -76 18t-59.5 51t-22.5 74q0 96 64.5 137.5t181.5 49.5q66 5 101.5 22t35.5 57q0 59 -89 59q-43 0 -81 -23.5t-58 -67.5l-91 26q29 71 92 110t149 39q91 0 136 -36.5
t45 -96.5q0 -15 -3 -30l-46 -268q-1 -3 -1 -9q0 -20 22 -20q17 0 25 5zM342.5 251.5q-34.5 -6.5 -86.5 -11.5q-53 -5 -88.5 -32.5t-35.5 -71.5q0 -32 22.5 -49.5t57.5 -17.5q57 0 105.5 36.5t61.5 106.5l10 58q-12 -12 -46.5 -18.5zM472 623.5q-47 -38.5 -123 -38.5
q-35 0 -69 16.5t-55.5 47t-21.5 69.5q0 12 3 25h77q-3 -41 20 -61t57 -20q69 0 92 81h78q-11 -81 -58 -119.5z" />
    <glyph glyph-name="Aogonek" unicode="&#x104;" horiz-adv-x="770" 
d="M584.5 -150.5q12.5 -7.5 33.5 -7.5q22 0 51 8l-8 -68q-22 -6 -67 -6q-44 0 -76.5 22t-32.5 60q0 44 30 81t82 61h-24l-40 192h-318l-103 -192h-124l400 714h137l163 -714q-61 -34 -88.5 -68t-27.5 -59q0 -16 12.5 -23.5zM446 614h-4l-178 -330h250z" />
    <glyph glyph-name="aogonek" unicode="&#x105;" horiz-adv-x="563" 
d="M408 -68.5q-27 -33.5 -27 -58.5q0 -16 12.5 -23.5t33.5 -7.5q22 0 51 8l-8 -68q-22 -6 -68 -6q-43 0 -75.5 22t-32.5 60q0 45 29.5 82t82.5 60q-47 16 -47 59h-4q-34 -38 -75.5 -54.5t-94.5 -16.5q-39 0 -76 18t-59.5 51t-22.5 74q0 96 64.5 137.5t181.5 49.5
q66 5 101.5 22t35.5 57q0 59 -89 59q-43 0 -81 -23.5t-58 -67.5l-91 26q29 71 92 110t149 39q91 0 136 -36.5t45 -96.5q0 -15 -3 -30l-46 -268q-1 -3 -1 -9q0 -20 22 -20q17 0 25 5l-15 -86q-60 -34 -87 -67.5zM317.5 105.5q48.5 36.5 61.5 106.5l10 58q-12 -12 -46.5 -18.5
t-86.5 -11.5q-53 -5 -88.5 -32.5t-35.5 -71.5q0 -32 22.5 -49.5t57.5 -17.5q57 0 105.5 36.5z" />
    <glyph glyph-name="Cacute" unicode="&#x106;" horiz-adv-x="765" 
d="M631 110.5q-48 -55.5 -120 -91t-159 -35.5q-82 0 -146 34.5t-100 100t-36 153.5q0 123 51.5 228.5t144 167.5t210.5 62q75 0 132 -30t91 -76.5t43 -95.5l-107 -20q-11 58 -52.5 94t-111.5 36q-86 0 -151.5 -52t-101.5 -137t-36 -181q0 -92 45.5 -142t129.5 -50t144 49.5
t92 122.5l110 -20q-24 -62 -72 -117.5zM437 765l107 154h122l-140 -154h-89z" />
    <glyph glyph-name="cacute" unicode="&#x107;" horiz-adv-x="585" 
d="M421 184l102 -19q-30 -71 -94.5 -124t-171.5 -53q-63 0 -110.5 26.5t-74 75.5t-26.5 114q0 89 38 166.5t106.5 123.5t156.5 46q68 0 112.5 -26.5t65.5 -62t27 -66.5l-96 -27q-7 39 -33 69t-81 30q-62 0 -105 -38t-64.5 -97t-21.5 -121q0 -60 29 -95t82 -35q109 0 159 113
zM311 589l107 154h122l-140 -154h-89z" />
    <glyph glyph-name="Ccircumflex" unicode="&#x108;" horiz-adv-x="765" 
d="M631 110.5q-48 -55.5 -120 -91t-159 -35.5q-82 0 -146 34.5t-100 100t-36 153.5q0 123 51.5 228.5t144 167.5t210.5 62q75 0 132 -30t91 -76.5t43 -95.5l-107 -20q-11 58 -52.5 94t-111.5 36q-86 0 -151.5 -52t-101.5 -137t-36 -181q0 -92 45.5 -142t129.5 -50t144 49.5
t92 122.5l110 -20q-24 -62 -72 -117.5zM453 917h88l113 -154h-99l-62 87h-4l-83 -87h-107z" />
    <glyph glyph-name="ccircumflex" unicode="&#x109;" horiz-adv-x="585" 
d="M421 184l102 -19q-30 -71 -94.5 -124t-171.5 -53q-63 0 -110.5 26.5t-74 75.5t-26.5 114q0 89 38 166.5t106.5 123.5t156.5 46q68 0 112.5 -26.5t65.5 -62t27 -66.5l-96 -27q-7 39 -33 69t-81 30q-62 0 -105 -38t-64.5 -97t-21.5 -121q0 -60 29 -95t82 -35q109 0 159 113
zM328 743h88l113 -154h-99l-62 87h-4l-83 -87h-107z" />
    <glyph glyph-name="Cdotaccent" unicode="&#x10a;" horiz-adv-x="765" 
d="M631 110.5q-48 -55.5 -120 -91t-159 -35.5q-82 0 -146 34.5t-100 100t-36 153.5q0 123 51.5 228.5t144 167.5t210.5 62q75 0 132 -30t91 -76.5t43 -95.5l-107 -20q-11 58 -52.5 94t-111.5 36q-86 0 -151.5 -52t-101.5 -137t-36 -181q0 -92 45.5 -142t129.5 -50t144 49.5
t92 122.5l110 -20q-24 -62 -72 -117.5zM557 898l-20 -110h-102l18 110h104z" />
    <glyph glyph-name="cdotaccent" unicode="&#x10b;" horiz-adv-x="585" 
d="M421 184l102 -19q-30 -71 -94.5 -124t-171.5 -53q-63 0 -110.5 26.5t-74 75.5t-26.5 114q0 89 38 166.5t106.5 123.5t156.5 46q68 0 112.5 -26.5t65.5 -62t27 -66.5l-96 -27q-7 39 -33 69t-81 30q-62 0 -105 -38t-64.5 -97t-21.5 -121q0 -60 29 -95t82 -35q109 0 159 113
zM431 724l-20 -111h-102l20 111h102z" />
    <glyph glyph-name="Ccaron" unicode="&#x10c;" horiz-adv-x="765" 
d="M631 110.5q-48 -55.5 -120 -91t-159 -35.5q-82 0 -146 34.5t-100 100t-36 153.5q0 123 51.5 228.5t144 167.5t210.5 62q75 0 132 -30t91 -76.5t43 -95.5l-107 -20q-11 58 -52.5 94t-111.5 36q-86 0 -151.5 -52t-101.5 -137t-36 -181q0 -92 45.5 -142t129.5 -50t144 49.5
t92 122.5l110 -20q-24 -62 -72 -117.5zM525 765h-87l-113 154h98l62 -87h4l83 87h108z" />
    <glyph glyph-name="ccaron" unicode="&#x10d;" horiz-adv-x="585" 
d="M421 184l102 -19q-30 -71 -94.5 -124t-171.5 -53q-63 0 -110.5 26.5t-74 75.5t-26.5 114q0 89 38 166.5t106.5 123.5t156.5 46q68 0 112.5 -26.5t65.5 -62t27 -66.5l-96 -27q-7 39 -33 69t-81 30q-62 0 -105 -38t-64.5 -97t-21.5 -121q0 -60 29 -95t82 -35q109 0 159 113
zM399 589h-87l-113 154h98l62 -87h4l83 87h108z" />
    <glyph glyph-name="Dcaron" unicode="&#x10e;" horiz-adv-x="763" 
d="M588 678.5q65 -35.5 101 -98.5t36 -141q0 -120 -50 -220.5t-142.5 -159.5t-214.5 -59h-274l126 714h269q84 0 149 -35.5zM478 142q67 50 101 126.5t34 154.5q0 99 -51.5 149t-150.5 50h-147l-93 -530h147q93 0 160 50zM479 765h-87l-113 154h98l62 -87h4l83 87h108z" />
    <glyph glyph-name="dcaron" unicode="&#x10f;" horiz-adv-x="745" 
d="M427 519q41 -21 58 -53h4l45 258h102l-127 -724h-97l12 68h-4q-28 -38 -72 -59t-103 -21q-58 0 -103 26.5t-70.5 75.5t-25.5 113q0 89 36 166.5t101.5 124t151.5 46.5q51 0 92 -21zM767.5 535.5q-30.5 -33.5 -89.5 -33.5l8 45q18 1 35 19t22 47h-45l20 111h108l-16 -88
q-12 -67 -42.5 -100.5zM378 109.5q44 38.5 66 96t22 115.5q0 65 -31.5 100.5t-88.5 35.5q-62 0 -106.5 -38.5t-66.5 -96t-22 -114.5q0 -65 31.5 -101t89.5 -36q62 0 106 38.5z" />
    <glyph glyph-name="Dcroat" unicode="&#x110;" horiz-adv-x="762" 
d="M587 678.5q65 -35.5 101 -98.5t36 -141q0 -120 -50 -220.5t-142.5 -159.5t-214.5 -59h-273l55 314h-73l15 87h73l55 313h269q84 0 149 -35.5zM477 142q67 50 101 126.5t34 154.5q0 99 -51.5 149t-150.5 50h-147l-39 -221h155l-15 -87h-155l-39 -222h147q93 0 160 50z" />
    <glyph glyph-name="dcroat" unicode="&#x111;" horiz-adv-x="637" 
d="M614 595l-105 -595h-97l12 68h-4q-28 -38 -72 -59t-103 -21q-58 0 -103 26.5t-70.5 75.5t-25.5 113q0 89 36 166.5t101.5 124t151.5 46.5q51 0 92 -21t58 -53h4l22 129h-103l12 70h104l10 59h102l-10 -59h57l-13 -70h-56zM378 109.5q44 38.5 66 96t22 115.5
q0 65 -31.5 100.5t-88.5 35.5q-62 0 -106.5 -38.5t-66.5 -96t-22 -114.5q0 -65 31.5 -101t89.5 -36q62 0 106 38.5z" />
    <glyph glyph-name="Emacron" unicode="&#x112;" horiz-adv-x="658" 
d="M598 413l-17 -90h-370l-40 -228h387l-17 -95h-496l125 714h496l-16 -92h-386l-37 -209h371zM300 877h293l-14 -77h-292z" />
    <glyph glyph-name="emacron" unicode="&#x113;" horiz-adv-x="600" 
d="M256 -12q-62 0 -109.5 26.5t-74 75t-26.5 112.5q0 91 37 168.5t105 123.5t157 46q62 0 109.5 -25.5t74 -73t26.5 -112.5q0 -40 -12 -90h-392q-3 -19 -3 -37q0 -59 29.5 -95t83.5 -36q109 0 162 97l102 -16q-80 -164 -269 -164zM232 416q-46 -41 -63 -99h285q1 8 1 23
q0 52 -29 84.5t-86 32.5q-62 0 -108 -41zM228 701h292l-13 -76h-293z" />
    <glyph glyph-name="Ebreve" unicode="&#x114;" horiz-adv-x="658" 
d="M598 413l-17 -90h-370l-40 -228h387l-17 -95h-496l125 714h496l-16 -92h-386l-37 -209h371zM558 799.5q-47 -38.5 -122 -38.5q-35 0 -69.5 16.5t-56 47t-21.5 69.5q0 13 3 25h77q-3 -41 20 -61t57 -20q69 0 92 81h78q-11 -81 -58 -119.5z" />
    <glyph glyph-name="ebreve" unicode="&#x115;" horiz-adv-x="600" 
d="M256 -12q-62 0 -109.5 26.5t-74 75t-26.5 112.5q0 91 37 168.5t105 123.5t157 46q62 0 109.5 -25.5t74 -73t26.5 -112.5q0 -40 -12 -90h-392q-3 -19 -3 -37q0 -59 29.5 -95t83.5 -36q109 0 162 97l102 -16q-80 -164 -269 -164zM232 416q-46 -41 -63 -99h285q1 8 1 23
q0 52 -29 84.5t-86 32.5q-62 0 -108 -41zM485 623.5q-47 -38.5 -123 -38.5q-35 0 -69 16.5t-55.5 47t-21.5 69.5q0 12 3 25h77q-3 -41 20 -61t57 -20q69 0 92 81h78q-11 -81 -58 -119.5z" />
    <glyph glyph-name="Edotaccent" unicode="&#x116;" horiz-adv-x="658" 
d="M598 413l-17 -90h-370l-40 -228h387l-17 -95h-496l125 714h496l-16 -92h-386l-37 -209h371zM502 898l-20 -110h-102l18 110h104z" />
    <glyph glyph-name="edotaccent" unicode="&#x117;" horiz-adv-x="600" 
d="M256 -12q-62 0 -109.5 26.5t-74 75t-26.5 112.5q0 91 37 168.5t105 123.5t157 46q62 0 109.5 -25.5t74 -73t26.5 -112.5q0 -40 -12 -90h-392q-3 -19 -3 -37q0 -59 29.5 -95t83.5 -36q109 0 162 97l102 -16q-80 -164 -269 -164zM232 416q-46 -41 -63 -99h285q1 8 1 23
q0 52 -29 84.5t-86 32.5q-62 0 -108 -41zM429 724l-20 -111h-102l20 111h102z" />
    <glyph glyph-name="Eogonek" unicode="&#x118;" horiz-adv-x="670" 
d="M227 413h371l-17 -90h-370l-40 -228h387l-17 -95q-61 -34 -88.5 -68t-27.5 -59q0 -16 13 -23.5t34 -7.5q23 0 50 8l-8 -68q-20 -6 -67 -6q-43 0 -75.5 22t-32.5 60q0 44 29.5 81t81.5 61h-405l125 714h496l-16 -92h-386z" />
    <glyph glyph-name="eogonek" unicode="&#x119;" horiz-adv-x="600" 
d="M148 202q0 -59 29.5 -95t83.5 -36q109 0 162 97l102 -16q-50 -100 -140 -140q-76 -43 -104.5 -78t-28.5 -61q0 -16 12.5 -23.5t33.5 -7.5q22 0 51 8l-8 -68q-22 -6 -68 -6q-43 0 -75.5 22t-32.5 60q0 39 23 72.5t65 57.5q-61 1 -108 27.5t-73 74.5t-26 112q0 91 37 168.5
t105 123.5t157 46q62 0 109.5 -25.5t74 -73t26.5 -112.5q0 -40 -12 -90h-392q-3 -19 -3 -37zM232 416q-46 -41 -63 -99h285q1 8 1 23q0 52 -29 84.5t-86 32.5q-62 0 -108 -41z" />
    <glyph glyph-name="Ecaron" unicode="&#x11a;" horiz-adv-x="658" 
d="M598 413l-17 -90h-370l-40 -228h387l-17 -95h-496l125 714h496l-16 -92h-386l-37 -209h371zM470 765h-87l-113 154h98l62 -87h4l83 87h108z" />
    <glyph glyph-name="ecaron" unicode="&#x11b;" horiz-adv-x="600" 
d="M256 -12q-62 0 -109.5 26.5t-74 75t-26.5 112.5q0 91 37 168.5t105 123.5t157 46q62 0 109.5 -25.5t74 -73t26.5 -112.5q0 -40 -12 -90h-392q-3 -19 -3 -37q0 -59 29.5 -95t83.5 -36q109 0 162 97l102 -16q-80 -164 -269 -164zM232 416q-46 -41 -63 -99h285q1 8 1 23
q0 52 -29 84.5t-86 32.5q-62 0 -108 -41zM397 589h-87l-113 154h98l62 -87h4l83 87h108z" />
    <glyph glyph-name="Gcircumflex" unicode="&#x11c;" horiz-adv-x="774" 
d="M663 0h-89l16 85q-88 -101 -235 -101q-82 0 -147 35.5t-102 101t-37 150.5q0 124 53 229t146.5 167.5t210.5 62.5q69 0 127.5 -26t97.5 -75t51 -115l-110 -9q-15 66 -58.5 99.5t-112.5 33.5q-88 0 -154.5 -52.5t-102.5 -137.5t-36 -180q1 -91 47.5 -141.5t131.5 -50.5
q64 0 117 27.5t87.5 72t45.5 94.5h-195l16 93h296zM457 917h88l113 -154h-99l-62 87h-4l-83 -87h-107z" />
    <glyph glyph-name="gcircumflex" unicode="&#x11d;" horiz-adv-x="619" 
d="M506 35q-21 -120 -97 -175.5t-186 -55.5q-90 0 -147.5 42t-66.5 127l102 17q1 -54 30.5 -77.5t86.5 -23.5q71 0 117.5 39t60.5 119l8 48h-4q-46 -67 -162 -67q-57 0 -102 25t-70.5 71t-25.5 107q0 83 35.5 154t99.5 113t146 42q51 0 91.5 -21t58.5 -52h4l11 61h97z
M370 140q42 31 65.5 82t23.5 107q0 59 -31.5 93.5t-86.5 34.5q-54 0 -96.5 -31t-66 -81.5t-23.5 -107.5q0 -59 31.5 -93.5t87.5 -34.5q54 0 96 31zM331 743h88l113 -154h-99l-62 87h-4l-83 -87h-107z" />
    <glyph glyph-name="Gbreve" unicode="&#x11e;" horiz-adv-x="774" 
d="M663 0h-89l16 85q-88 -101 -235 -101q-82 0 -147 35.5t-102 101t-37 150.5q0 124 53 229t146.5 167.5t210.5 62.5q69 0 127.5 -26t97.5 -75t51 -115l-110 -9q-15 66 -58.5 99.5t-112.5 33.5q-88 0 -154.5 -52.5t-102.5 -137.5t-36 -180q1 -91 47.5 -141.5t131.5 -50.5
q64 0 117 27.5t87.5 72t45.5 94.5h-195l16 93h296zM616 799.5q-47 -38.5 -122 -38.5q-35 0 -69.5 16.5t-56 47t-21.5 69.5q0 13 3 25h77q-3 -41 20 -61t57 -20q69 0 92 81h78q-11 -81 -58 -119.5z" />
    <glyph glyph-name="gbreve" unicode="&#x11f;" horiz-adv-x="619" 
d="M506 35q-21 -120 -97 -175.5t-186 -55.5q-90 0 -147.5 42t-66.5 127l102 17q1 -54 30.5 -77.5t86.5 -23.5q71 0 117.5 39t60.5 119l8 48h-4q-46 -67 -162 -67q-57 0 -102 25t-70.5 71t-25.5 107q0 83 35.5 154t99.5 113t146 42q51 0 91.5 -21t58.5 -52h4l11 61h97z
M370 140q42 31 65.5 82t23.5 107q0 59 -31.5 93.5t-86.5 34.5q-54 0 -96.5 -31t-66 -81.5t-23.5 -107.5q0 -59 31.5 -93.5t87.5 -34.5q54 0 96 31zM490 623.5q-47 -38.5 -123 -38.5q-35 0 -69 16.5t-55.5 47t-21.5 69.5q0 12 3 25h77q-3 -41 20 -61t57 -20q69 0 92 81h78
q-11 -81 -58 -119.5z" />
    <glyph glyph-name="Gdotaccent" unicode="&#x120;" horiz-adv-x="774" 
d="M663 0h-89l16 85q-88 -101 -235 -101q-82 0 -147 35.5t-102 101t-37 150.5q0 124 53 229t146.5 167.5t210.5 62.5q69 0 127.5 -26t97.5 -75t51 -115l-110 -9q-15 66 -58.5 99.5t-112.5 33.5q-88 0 -154.5 -52.5t-102.5 -137.5t-36 -180q1 -91 47.5 -141.5t131.5 -50.5
q64 0 117 27.5t87.5 72t45.5 94.5h-195l16 93h296zM560 898l-20 -110h-102l18 110h104z" />
    <glyph glyph-name="gdotaccent" unicode="&#x121;" horiz-adv-x="619" 
d="M506 35q-21 -120 -97 -175.5t-186 -55.5q-90 0 -147.5 42t-66.5 127l102 17q1 -54 30.5 -77.5t86.5 -23.5q71 0 117.5 39t60.5 119l8 48h-4q-46 -67 -162 -67q-57 0 -102 25t-70.5 71t-25.5 107q0 83 35.5 154t99.5 113t146 42q51 0 91.5 -21t58.5 -52h4l11 61h97z
M370 140q42 31 65.5 82t23.5 107q0 59 -31.5 93.5t-86.5 34.5q-54 0 -96.5 -31t-66 -81.5t-23.5 -107.5q0 -59 31.5 -93.5t87.5 -34.5q54 0 96 31zM434 724l-20 -111h-102l20 111h102z" />
    <glyph glyph-name="Gcommaaccent" unicode="&#x122;" horiz-adv-x="774" 
d="M663 0h-89l16 85q-88 -101 -235 -101q-82 0 -147 35.5t-102 101t-37 150.5q0 124 53 229t146.5 167.5t210.5 62.5q69 0 127.5 -26t97.5 -75t51 -115l-110 -9q-15 66 -58.5 99.5t-112.5 33.5q-88 0 -154.5 -52.5t-102.5 -137.5t-36 -180q1 -91 47.5 -141.5t131.5 -50.5
q64 0 117 27.5t87.5 72t45.5 94.5h-195l16 93h296zM341.5 -249.5q-30.5 -33.5 -89.5 -33.5l8 45q18 1 35 19t22 47h-45l20 111h108l-16 -88q-12 -67 -42.5 -100.5z" />
    <glyph glyph-name="gcommaaccent" unicode="&#x123;" horiz-adv-x="619" 
d="M506 35q-21 -120 -97 -175.5t-186 -55.5q-90 0 -147.5 42t-66.5 127l102 17q1 -54 30.5 -77.5t86.5 -23.5q71 0 117.5 39t60.5 119l8 48h-4q-46 -67 -162 -67q-57 0 -102 25t-70.5 71t-25.5 107q0 83 35.5 154t99.5 113t146 42q51 0 91.5 -21t58.5 -52h4l11 61h97z
M370 140q42 31 65.5 82t23.5 107q0 59 -31.5 93.5t-86.5 34.5q-54 0 -96.5 -31t-66 -81.5t-23.5 -107.5q0 -59 31.5 -93.5t87.5 -34.5q54 0 96 31zM363.5 777.5q30.5 33.5 89.5 33.5l-8 -45q-18 -1 -35 -19t-22 -47h45l-20 -111h-108l16 88q12 67 42.5 100.5z" />
    <glyph glyph-name="Hcircumflex" unicode="&#x124;" horiz-adv-x="763" 
d="M627 0h-110l55 316h-362l-55 -316h-110l125 714h110l-54 -306h362l54 306h110zM441 917h88l113 -154h-99l-62 87h-4l-83 -87h-107z" />
    <glyph glyph-name="hcircumflex" unicode="&#x125;" horiz-adv-x="609" 
d="M223 458q37 45 77.5 63.5t95.5 18.5q40 0 76 -16.5t59 -51t23 -83.5q0 -21 -4 -41l-61 -348h-102l56 321q4 23 4 46q0 47 -23.5 67t-70.5 20q-34 0 -68.5 -21.5t-61 -61t-35.5 -91.5l-49 -280h-102l127 724h102l-47 -266h4zM372 927h88l113 -154h-99l-62 87h-4l-83 -87
h-107z" />
    <glyph glyph-name="Hbar" unicode="&#x126;" horiz-adv-x="759" 
d="M716 514l-91 -514h-110l56 316h-363l-55 -316h-110l90 514h-72l15 85h72l20 115h110l-20 -115h362l20 115h110l-20 -115h70l-14 -85h-70zM244 514l-19 -106h361l19 106h-361z" />
    <glyph glyph-name="hbar" unicode="&#x127;" horiz-adv-x="609" 
d="M472 523.5q36 -16.5 59 -51t23 -83.5q0 -21 -4 -41l-61 -348h-102l56 321q4 23 4 46q0 47 -23.5 67t-70.5 20q-34 0 -68.5 -21.5t-61 -61t-35.5 -91.5l-49 -280h-102l104 595h-57l11 70h58l11 59h102l-11 -59h104l-13 -70h-103l-24 -137h4q37 45 77.5 63.5t95.5 18.5
q40 0 76 -16.5z" />
    <glyph glyph-name="Itilde" unicode="&#x128;" horiz-adv-x="292" 
d="M170 714h110l-125 -714h-110zM311 854q-17 0 -38 17l-18 13q-14 11 -28.5 17.5t-35.5 6.5q-36 0 -67.5 -24.5t-50.5 -82.5l67 -15q16 45 44 45q18 0 38 -16l18 -14q14 -11 28.5 -17.5t34.5 -6.5q36 0 67.5 24.5t51.5 82.5l-67 15q-16 -45 -44 -45z" />
    <glyph glyph-name="itilde" unicode="&#x129;" horiz-adv-x="263" 
d="M229 528l-93 -528h-102l92 528h103zM268 688q-17 0 -38 17l-18 14q-14 11 -28.5 17.5t-35.5 6.5q-36 0 -67.5 -24.5t-50.5 -82.5l67 -15q16 45 44 45q17 0 38 -17l18 -14q14 -11 28.5 -17.5t35.5 -6.5q35 0 67 25t51 82l-67 15q-16 -45 -44 -45z" />
    <glyph glyph-name="Imacron" unicode="&#x12a;" horiz-adv-x="292" 
d="M170 714h110l-125 -714h-110zM106 877h293l-14 -77h-292z" />
    <glyph glyph-name="imacron" unicode="&#x12b;" horiz-adv-x="263" 
d="M229 528l-93 -528h-102l92 528h103zM63 701h292l-13 -76h-293z" />
    <glyph glyph-name="Ibreve" unicode="&#x12c;" horiz-adv-x="292" 
d="M170 714h110l-125 -714h-110zM365 799.5q-47 -38.5 -122 -38.5q-35 0 -69.5 16.5t-56 47t-21.5 69.5q0 13 3 25h77q-3 -41 20 -61t57 -20q69 0 92 81h78q-11 -81 -58 -119.5z" />
    <glyph glyph-name="ibreve" unicode="&#x12d;" horiz-adv-x="263" 
d="M229 528l-93 -528h-102l92 528h103zM321 623.5q-47 -38.5 -123 -38.5q-35 0 -69 16.5t-55.5 47t-21.5 69.5q0 12 3 25h77q-3 -41 20 -61t57 -20q69 0 92 81h78q-11 -81 -58 -119.5z" />
    <glyph glyph-name="Iogonek" unicode="&#x12e;" horiz-adv-x="293" 
d="M76.5 -68q-27.5 -34 -27.5 -59q0 -16 13 -23.5t34 -7.5q23 0 50 8l-7 -68q-22 -6 -68 -6q-43 0 -75.5 22t-32.5 60q0 44 29.5 81t81.5 61h-19l125 714h110l-125 -714q-61 -34 -88.5 -68z" />
    <glyph glyph-name="iogonek" unicode="&#x12f;" horiz-adv-x="264" 
d="M234 613h-102l20 111h102zM220 528l-92 -528q-61 -34 -88.5 -68t-27.5 -59q0 -16 13 -23.5t34 -7.5t50 8l-8 -68q-20 -6 -67 -6q-43 0 -75.5 22t-32.5 60q0 44 29.5 81t81.5 61h-12l92 528h103z" />
    <glyph glyph-name="Idotaccent" unicode="&#x130;" horiz-adv-x="292" 
d="M170 714h110l-125 -714h-110zM309 898l-20 -110h-102l18 110h104z" />
    <glyph glyph-name="idotless" unicode="&#x131;" horiz-adv-x="263" 
d="M229 528l-93 -528h-102l92 528h103z" />
    <glyph glyph-name="IJ" unicode="&#x132;" horiz-adv-x="947" 
d="M170 714h110l-125 -714h-110zM750 46.5q-81 -62.5 -198 -62.5q-105 0 -164.5 58.5t-59.5 166.5l1 27q2 19 5 29l105 6q-4 -20 -4 -30q-2 -18 -2 -27q0 -72 33.5 -104t96.5 -32q75 0 120.5 40t60.5 129l82 467h110l-83 -479q-22 -126 -103 -188.5z" />
    <glyph glyph-name="ij" unicode="&#x133;" horiz-adv-x="525" 
d="M265 724l-20 -111h-103l20 111h103zM526 724l-19 -111h-103l20 111h102zM229 528l-93 -528h-102l92 528h103zM285 -67l104 595h102l-107 -613q-11 -64 -41 -87.5t-98 -23.5q-20 0 -40 4t-30 9l15 83q4 -3 18 -5.5t25 -2.5q45 0 52 41z" />
    <glyph glyph-name="Jcircumflex" unicode="&#x134;" horiz-adv-x="655" 
d="M458 46.5q-81 -62.5 -198 -62.5q-105 0 -164.5 58.5t-59.5 166.5l1 27q2 19 5 29l105 6q-4 -20 -4 -30q-2 -18 -2 -27q0 -72 33.5 -104t96.5 -32q75 0 120.5 40t60.5 129l82 467h110l-83 -479q-22 -126 -103 -188.5zM570 917h88l113 -154h-99l-62 87h-4l-83 -87h-107z
" />
    <glyph glyph-name="jcircumflex" unicode="&#x135;" horiz-adv-x="262" 
d="M22 -67l104 595h102l-106 -613q-12 -64 -42 -87.5t-98 -23.5q-20 0 -40 4.5t-29 8.5l14 83q4 -3 18.5 -5.5t24.5 -2.5q45 0 52 41zM160 743h88l113 -154h-99l-62 87h-4l-83 -87h-107z" />
    <glyph glyph-name="Kcommaaccent" unicode="&#x136;" horiz-adv-x="709" 
d="M635 0h-122l-192 370l-119 -104l-47 -266h-110l125 714h110l-57 -317l355 317h140l-314 -276zM318.5 -249.5q-30.5 -33.5 -89.5 -33.5l8 45q18 1 35 19t22 47h-45l20 111h108l-16 -88q-12 -67 -42.5 -100.5z" />
    <glyph glyph-name="kcommaaccent" unicode="&#x137;" horiz-adv-x="572" 
d="M504 0h-112l-143 260l-75 -62l-35 -198h-102l127 724h102l-71 -402l243 206h137l-249 -205zM250.5 -249.5q-30.5 -33.5 -89.5 -33.5l8 45q18 1 35 19t22 47h-45l20 111h108l-16 -88q-12 -67 -42.5 -100.5z" />
    <glyph glyph-name="kgreenlandic" unicode="&#x138;" horiz-adv-x="572" 
d="M504 0h-112l-143 260l-75 -62l-35 -198h-102l93 528h102l-37 -206l243 206h137l-249 -205z" />
    <glyph glyph-name="Lacute" unicode="&#x139;" horiz-adv-x="643" 
d="M170 714h110l-109 -619h391l-17 -95h-500zM189 765l107 154h122l-140 -154h-89z" />
    <glyph glyph-name="lacute" unicode="&#x13a;" horiz-adv-x="269" 
d="M266 724l-127 -724h-102l127 724h102zM179 775l107 154h122l-140 -154h-89z" />
    <glyph glyph-name="Lcommaaccent" unicode="&#x13b;" horiz-adv-x="643" 
d="M170 714h110l-109 -619h391l-17 -95h-500zM278.5 -249.5q-30.5 -33.5 -89.5 -33.5l8 45q18 1 35 19t22 47h-45l20 111h108l-16 -88q-12 -67 -42.5 -100.5z" />
    <glyph glyph-name="lcommaaccent" unicode="&#x13c;" horiz-adv-x="269" 
d="M266 724l-127 -724h-102l127 724h102zM72.5 -249.5q-30.5 -33.5 -89.5 -33.5l8 45q18 1 35 19t22 47h-45l20 111h108l-16 -88q-12 -67 -42.5 -100.5z" />
    <glyph glyph-name="Lcaron" unicode="&#x13d;" horiz-adv-x="643" 
d="M170 714h110l-109 -619h391l-17 -95h-500zM276 765h-87l-113 154h98l62 -87h4l83 87h108z" />
    <glyph glyph-name="lcaron" unicode="&#x13e;" horiz-adv-x="269" 
d="M266 724l-127 -724h-102l127 724h102zM269 785h-87l-113 154h98l62 -87h4l83 87h108z" />
    <glyph glyph-name="Ldot" unicode="&#x13f;" horiz-adv-x="643" 
d="M170 714h110l-109 -619h391l-17 -95h-500zM404.5 344q-21.5 21 -21.5 52q0 30 21.5 51.5t51.5 21.5q31 0 52 -21.5t21 -51.5q0 -31 -21 -52t-52 -21q-30 0 -51.5 21z" />
    <glyph glyph-name="ldot" unicode="&#x140;" horiz-adv-x="437" 
d="M266 724l-127 -724h-102l127 724h102zM303.5 315.5q-21.5 21.5 -21.5 51.5t21.5 51.5t51.5 21.5q31 0 52.5 -21.5t21.5 -51.5t-21.5 -51.5t-52.5 -21.5q-30 0 -51.5 21.5z" />
    <glyph glyph-name="Lslash" unicode="&#x141;" horiz-adv-x="642" 
d="M544 0h-501l43 244l-79 -45l16 100l80 44l65 371h110l-53 -303l198 109l-17 -98l-198 -111l-38 -216h390z" />
    <glyph glyph-name="lslash" unicode="&#x142;" horiz-adv-x="268" 
d="M268 384l-69 -38l-61 -346h-102l50 283l-68 -39l16 100l69 38l60 342h102l-48 -279l67 38z" />
    <glyph glyph-name="Nacute" unicode="&#x143;" 
d="M523 0l-275 559h-4l-97 -559h-102l125 714h114l271 -551h4l97 551h102l-125 -714h-110zM428 765l107 154h122l-140 -154h-89z" />
    <glyph glyph-name="nacute" unicode="&#x144;" horiz-adv-x="609" 
d="M219 458q36 45 77 63.5t97 18.5q41 0 78 -16.5t60 -51t23 -83.5q0 -21 -4 -41l-61 -348h-102l56 321q4 23 4 46q0 47 -23.5 67t-70.5 20q-35 0 -69 -19t-59.5 -56t-34.5 -89l-51 -290h-102l93 528h97l-12 -70h4zM322 589l107 154h122l-140 -154h-89z" />
    <glyph glyph-name="Ncommaaccent" unicode="&#x145;" 
d="M523 0l-275 559h-4l-97 -559h-102l125 714h114l271 -551h4l97 551h102l-125 -714h-110zM322.5 -249.5q-30.5 -33.5 -89.5 -33.5l8 45q18 1 35 19t22 47h-45l20 111h108l-16 -88q-12 -67 -42.5 -100.5z" />
    <glyph glyph-name="ncommaaccent" unicode="&#x146;" horiz-adv-x="609" 
d="M219 458q36 45 77 63.5t97 18.5q41 0 78 -16.5t60 -51t23 -83.5q0 -21 -4 -41l-61 -348h-102l56 321q4 23 4 46q0 47 -23.5 67t-70.5 20q-35 0 -69 -19t-59.5 -56t-34.5 -89l-51 -290h-102l93 528h97l-12 -70h4zM247.5 -249.5q-30.5 -33.5 -89.5 -33.5l8 45q18 1 35 19
t22 47h-45l20 111h108l-16 -88q-12 -67 -42.5 -100.5z" />
    <glyph glyph-name="Ncaron" unicode="&#x147;" 
d="M523 0l-275 559h-4l-97 -559h-102l125 714h114l271 -551h4l97 551h102l-125 -714h-110zM516 765h-87l-113 154h98l62 -87h4l83 87h108z" />
    <glyph glyph-name="ncaron" unicode="&#x148;" horiz-adv-x="609" 
d="M219 458q36 45 77 63.5t97 18.5q41 0 78 -16.5t60 -51t23 -83.5q0 -21 -4 -41l-61 -348h-102l56 321q4 23 4 46q0 47 -23.5 67t-70.5 20q-35 0 -69 -19t-59.5 -56t-34.5 -89l-51 -290h-102l93 528h97l-12 -70h4zM410 589h-87l-113 154h98l62 -87h4l83 87h108z" />
    <glyph glyph-name="napostrophe" unicode="&#x149;" horiz-adv-x="668" 
d="M131.5 535.5q-30.5 -33.5 -89.5 -33.5l8 45q19 1 35.5 19t21.5 47h-45l20 111h108l-16 -88q-12 -67 -42.5 -100.5zM278 458q36 45 77.5 63.5t97.5 18.5q41 0 77.5 -16.5t59.5 -51t23 -83.5q0 -18 -3 -41l-61 -348h-103l56 321q5 28 5 46q0 47 -23.5 67t-70.5 20
q-35 0 -69.5 -19t-59.5 -56t-35 -89l-51 -290h-102l93 528h97l-12 -70h4z" />
    <glyph glyph-name="Eng" unicode="&#x14a;" 
d="M629 -24q-15 -85 -77 -128.5t-165 -43.5q-56 0 -101.5 23.5t-69.5 63t-20 86.5h106q-3 -36 22 -59.5t73 -23.5q53 0 85.5 27.5t41.5 64.5l4 14l-280 559h-4l-97 -559h-102l125 714h114l272 -544h4l96 544h102z" />
    <glyph glyph-name="eng" unicode="&#x14b;" horiz-adv-x="609" 
d="M471 523.5q37 -16.5 60 -51t23 -83.5q0 -21 -4 -41l-76 -433q-11 -63 -41 -87t-98 -24q-20 0 -40.5 4.5t-29.5 8.5l15 83q4 -3 18 -5.5t24 -2.5q21 0 35 10t18 31l68 388q4 23 4 46q0 47 -23.5 67t-70.5 20q-35 0 -69 -19t-59.5 -56t-34.5 -89l-51 -290h-102l93 528h97
l-12 -70h4q36 45 77 63.5t97 18.5q41 0 78 -16.5z" />
    <glyph glyph-name="Omacron" unicode="&#x14c;" horiz-adv-x="798" 
d="M625 695.5q64 -34.5 100 -99.5t36 -153q0 -124 -51.5 -229t-144 -167.5t-211.5 -62.5q-83 0 -147.5 34.5t-100.5 99.5t-36 153q0 124 51.5 229.5t144.5 167.5t212 62q83 0 147 -34.5zM511 128q66 52 102 137t36 181q0 92 -46 142t-130 50q-87 0 -153 -52t-102 -137
t-36 -181q0 -92 46 -142t131 -50q86 0 152 52zM357 877h293l-14 -77h-292z" />
    <glyph glyph-name="omacron" unicode="&#x14d;" horiz-adv-x="616" 
d="M424 33.5q70 45.5 108 123t38 169.5q0 65 -27 113.5t-76.5 74.5t-113.5 26q-92 0 -161.5 -45.5t-107.5 -122.5t-38 -170q0 -65 27 -113.5t76.5 -74.5t113.5 -26q91 0 161 45.5zM435.5 423q30.5 -34 30.5 -97q0 -56 -22 -115t-66.5 -99.5t-109.5 -40.5q-57 0 -87.5 34
t-30.5 97q0 56 22 115t66.5 99.5t109.5 40.5q57 0 87.5 -34zM236 701h292l-13 -76h-293z" />
    <glyph glyph-name="Obreve" unicode="&#x14e;" horiz-adv-x="798" 
d="M625 695.5q64 -34.5 100 -99.5t36 -153q0 -124 -51.5 -229t-144 -167.5t-211.5 -62.5q-83 0 -147.5 34.5t-100.5 99.5t-36 153q0 124 51.5 229.5t144.5 167.5t212 62q83 0 147 -34.5zM511 128q66 52 102 137t36 181q0 92 -46 142t-130 50q-87 0 -153 -52t-102 -137
t-36 -181q0 -92 46 -142t131 -50q86 0 152 52zM615 799.5q-47 -38.5 -122 -38.5q-35 0 -69.5 16.5t-56 47t-21.5 69.5q0 13 3 25h77q-3 -41 20 -61t57 -20q69 0 92 81h78q-11 -81 -58 -119.5z" />
    <glyph glyph-name="obreve" unicode="&#x14f;" horiz-adv-x="616" 
d="M424 33.5q70 45.5 108 123t38 169.5q0 65 -27 113.5t-76.5 74.5t-113.5 26q-92 0 -161.5 -45.5t-107.5 -122.5t-38 -170q0 -65 27 -113.5t76.5 -74.5t113.5 -26q91 0 161 45.5zM435.5 423q30.5 -34 30.5 -97q0 -56 -22 -115t-66.5 -99.5t-109.5 -40.5q-57 0 -87.5 34
t-30.5 97q0 56 22 115t66.5 99.5t109.5 40.5q57 0 87.5 -34zM493 623.5q-47 -38.5 -123 -38.5q-35 0 -69 16.5t-55.5 47t-21.5 69.5q0 12 3 25h77q-3 -41 20 -61t57 -20q69 0 92 81h78q-11 -81 -58 -119.5z" />
    <glyph glyph-name="Ohungarumlaut" unicode="&#x150;" horiz-adv-x="798" 
d="M625 695.5q64 -34.5 100 -99.5t36 -153q0 -124 -51.5 -229t-144 -167.5t-211.5 -62.5q-83 0 -147.5 34.5t-100.5 99.5t-36 153q0 124 51.5 229.5t144.5 167.5t212 62q83 0 147 -34.5zM511 128q66 52 102 137t36 181q0 92 -46 142t-130 50q-87 0 -153 -52t-102 -137
t-36 -181q0 -92 46 -142t131 -50q86 0 152 52zM371 765l82 154h108l-114 -154h-76zM520 765l82 154h108l-113 -154h-77z" />
    <glyph glyph-name="ohungarumlaut" unicode="&#x151;" horiz-adv-x="616" 
d="M424 33.5q70 45.5 108 123t38 169.5q0 65 -27 113.5t-76.5 74.5t-113.5 26q-92 0 -161.5 -45.5t-107.5 -122.5t-38 -170q0 -65 27 -113.5t76.5 -74.5t113.5 -26q91 0 161 45.5zM435.5 423q30.5 -34 30.5 -97q0 -56 -22 -115t-66.5 -99.5t-109.5 -40.5q-57 0 -87.5 34
t-30.5 97q0 56 22 115t66.5 99.5t109.5 40.5q57 0 87.5 -34zM248 589l82 154h109l-113 -154h-78zM397 589l82 154h109l-112 -154h-79z" />
    <glyph glyph-name="OE" unicode="&#x152;" horiz-adv-x="1181" 
d="M758 413h361l-17 -92h-361l-39 -228h379l-17 -93h-485l15 90h-4q-31 -49 -96.5 -77.5t-139.5 -28.5q-83 0 -147.5 34.5t-100.5 99.5t-36 153q0 124 51.5 229.5t144.5 167.5t212 62q65 0 122 -29.5t85 -76.5h3l16 90h485l-16 -92h-379zM511 128q66 52 102 137t36 181
q0 92 -46 142t-130 50q-87 0 -153 -52t-102 -137t-36 -181q0 -92 46 -142t131 -50q86 0 152 52z" />
    <glyph glyph-name="oe" unicode="&#x153;" horiz-adv-x="1006" 
d="M554 202q0 -59 29.5 -95t83.5 -36q63 0 102 28.5t60 68.5l103 -16q-80 -164 -270 -164q-66 0 -111.5 30.5t-62.5 84.5q-85 -115 -225 -115q-64 0 -113.5 26t-76.5 74.5t-27 113.5q0 93 38 170t107.5 122.5t161.5 45.5q68 0 115.5 -30t65.5 -84q83 114 217 114
q94 0 152.5 -56.5t58.5 -154.5q0 -40 -12 -90h-393q-3 -19 -3 -37zM638.5 415.5q-46.5 -41.5 -62.5 -98.5h284q2 16 2 23q0 52 -29.5 84.5t-86.5 32.5q-61 0 -107.5 -41.5zM377.5 111.5q44.5 40.5 66.5 99.5t22 115q0 63 -30.5 97t-87.5 34q-65 0 -109.5 -40.5t-66.5 -99.5
t-22 -115q0 -63 30.5 -97t87.5 -34q65 0 109.5 40.5z" />
    <glyph glyph-name="Racute" unicode="&#x154;" horiz-adv-x="726" 
d="M657.5 370.5q-56.5 -66.5 -159.5 -83.5l134 -287h-121l-129 281h-178l-49 -281h-110l125 714h329q61 0 110 -21.5t77 -61.5t28 -92q0 -102 -56.5 -168.5zM555.5 414.5q46.5 41.5 46.5 109.5q0 48 -33.5 73t-98.5 25h-205l-45 -249h206q83 0 129.5 41.5zM402 765l107 154
h122l-140 -154h-89z" />
    <glyph glyph-name="racute" unicode="&#x155;" horiz-adv-x="415" 
d="M213 448h4q59 92 169 92q33 0 51 -5l-17 -98q-28 4 -50 4q-70 0 -118.5 -39.5t-63.5 -123.5l-49 -278h-102l93 528h97zM248 589l107 154h122l-140 -154h-89z" />
    <glyph glyph-name="Rcommaaccent" unicode="&#x156;" horiz-adv-x="726" 
d="M657.5 370.5q-56.5 -66.5 -159.5 -83.5l134 -287h-121l-129 281h-178l-49 -281h-110l125 714h329q61 0 110 -21.5t77 -61.5t28 -92q0 -102 -56.5 -168.5zM555.5 414.5q46.5 41.5 46.5 109.5q0 48 -33.5 73t-98.5 25h-205l-45 -249h206q83 0 129.5 41.5zM313.5 -249.5
q-30.5 -33.5 -89.5 -33.5l8 45q18 1 35 19t22 47h-45l20 111h108l-16 -88q-12 -67 -42.5 -100.5z" />
    <glyph glyph-name="rcommaaccent" unicode="&#x157;" horiz-adv-x="415" 
d="M213 448h4q59 92 169 92q33 0 51 -5l-17 -98q-28 4 -50 4q-70 0 -118.5 -39.5t-63.5 -123.5l-49 -278h-102l93 528h97zM72.5 -249.5q-30.5 -33.5 -89.5 -33.5l8 45q18 1 35 19t22 47h-45l20 111h108l-16 -88q-12 -67 -42.5 -100.5z" />
    <glyph glyph-name="Rcaron" unicode="&#x158;" horiz-adv-x="726" 
d="M657.5 370.5q-56.5 -66.5 -159.5 -83.5l134 -287h-121l-129 281h-178l-49 -281h-110l125 714h329q61 0 110 -21.5t77 -61.5t28 -92q0 -102 -56.5 -168.5zM555.5 414.5q46.5 41.5 46.5 109.5q0 48 -33.5 73t-98.5 25h-205l-45 -249h206q83 0 129.5 41.5zM490 765h-87
l-113 154h98l62 -87h4l83 87h108z" />
    <glyph glyph-name="rcaron" unicode="&#x159;" horiz-adv-x="415" 
d="M213 448h4q59 92 169 92q33 0 51 -5l-17 -98q-28 4 -50 4q-70 0 -118.5 -39.5t-63.5 -123.5l-49 -278h-102l93 528h97zM336 589h-87l-113 154h98l62 -87h4l83 87h108z" />
    <glyph glyph-name="Sacute" unicode="&#x15a;" horiz-adv-x="683" 
d="M384 641q-41 0 -78.5 -17t-61 -46.5t-23.5 -65.5q0 -34 24 -51t74 -30l118 -28q84 -20 131 -58t47 -119q0 -79 -41.5 -133.5t-111 -81.5t-153.5 -27q-127 0 -200.5 63.5t-78.5 172.5l109 11q4 -158 184 -158q46 0 87.5 17t67 49t25.5 75q0 40 -26.5 58t-86.5 33l-124 32
q-71 18 -114 55.5t-43 109.5q0 69 39.5 121t105.5 79.5t142 27.5q113 0 178 -58t81 -156l-110 -8q-16 133 -161 133zM357 765l107 154h122l-140 -154h-89z" />
    <glyph glyph-name="sacute" unicode="&#x15b;" horiz-adv-x="566" 
d="M390 439q-32 23 -78 23t-80 -23t-34 -59q0 -26 20.5 -38t71.5 -24l51 -12q49 -12 81 -26t52.5 -41.5t20.5 -73.5q0 -56 -32.5 -96t-87.5 -60.5t-121 -20.5q-100 0 -158.5 46.5t-63.5 122.5l94 16q7 -57 41.5 -82.5t95.5 -25.5q50 0 89 25.5t39 66.5q0 25 -25.5 39.5
t-74.5 26.5l-52 13q-45 12 -75 25t-50.5 39.5t-20.5 70.5q0 50 32 88.5t84 59.5t111 21q57 0 102 -21t71 -56.5t29 -76.5l-94 -16q-6 46 -38 69zM284 589l107 154h122l-140 -154h-89z" />
    <glyph glyph-name="Scircumflex" unicode="&#x15c;" horiz-adv-x="683" 
d="M384 641q-41 0 -78.5 -17t-61 -46.5t-23.5 -65.5q0 -34 24 -51t74 -30l118 -28q84 -20 131 -58t47 -119q0 -79 -41.5 -133.5t-111 -81.5t-153.5 -27q-127 0 -200.5 63.5t-78.5 172.5l109 11q4 -158 184 -158q46 0 87.5 17t67 49t25.5 75q0 40 -26.5 58t-86.5 33l-124 32
q-71 18 -114 55.5t-43 109.5q0 69 39.5 121t105.5 79.5t142 27.5q113 0 178 -58t81 -156l-110 -8q-16 133 -161 133zM373 917h88l113 -154h-99l-62 87h-4l-83 -87h-107z" />
    <glyph glyph-name="scircumflex" unicode="&#x15d;" horiz-adv-x="566" 
d="M390 439q-32 23 -78 23t-80 -23t-34 -59q0 -26 20.5 -38t71.5 -24l51 -12q49 -12 81 -26t52.5 -41.5t20.5 -73.5q0 -56 -32.5 -96t-87.5 -60.5t-121 -20.5q-100 0 -158.5 46.5t-63.5 122.5l94 16q7 -57 41.5 -82.5t95.5 -25.5q50 0 89 25.5t39 66.5q0 25 -25.5 39.5
t-74.5 26.5l-52 13q-45 12 -75 25t-50.5 39.5t-20.5 70.5q0 50 32 88.5t84 59.5t111 21q57 0 102 -21t71 -56.5t29 -76.5l-94 -16q-6 46 -38 69zM300 743h88l113 -154h-99l-62 87h-4l-83 -87h-107z" />
    <glyph glyph-name="Scedilla" unicode="&#x15e;" horiz-adv-x="701" 
d="M586.5 345q47.5 -38 47.5 -119q0 -108 -75.5 -169.5t-193.5 -71.5l-27 -25l-1 -4q28 -2 49.5 -22.5t21.5 -50.5q0 -52 -33.5 -79.5t-95.5 -27.5q-21 0 -49 6t-46 17l25 55q14 -8 32.5 -13t35.5 -5q23 0 38.5 12t15.5 30q0 13 -11 20t-24 7q-22 0 -43 -8l8 60l31 28
q-112 10 -175.5 72t-68.5 163l109 11q4 -158 184 -158q46 0 87.5 17t67.5 49t26 75q0 28 -14 45t-37 26.5t-63 19.5l-124 32q-71 18 -114 55.5t-43 109.5q0 69 39.5 121t105.5 79.5t142 27.5q113 0 178 -58t82 -156l-110 -8q-17 133 -162 133q-41 0 -78.5 -17t-61 -46.5
t-23.5 -65.5q0 -34 24 -51t74 -30l118 -28q84 -20 131.5 -58z" />
    <glyph glyph-name="scedilla" unicode="&#x15f;" horiz-adv-x="566" 
d="M422 280q32 -14 52.5 -41.5t20.5 -73.5q0 -75 -57.5 -120.5t-146.5 -54.5l-32 -30l-1 -4q28 -2 49.5 -22.5t21.5 -50.5q0 -52 -33.5 -79.5t-95.5 -27.5q-21 0 -49 6t-46 17l25 55q14 -8 32.5 -13t35.5 -5q23 0 38.5 12t15.5 30q0 13 -11 20t-24 7q-22 0 -43 -8l8 60
l36 33q-84 8 -132.5 53.5t-53.5 113.5l94 16q7 -57 41.5 -82.5t95.5 -25.5q50 0 89 25.5t39 66.5q0 25 -25.5 39.5t-74.5 26.5l-52 13q-45 12 -75 25t-50.5 39.5t-20.5 70.5q0 50 32 88.5t84 59.5t111 21q57 0 102 -21t71 -56.5t29 -76.5l-94 -16q-6 46 -38 69t-78 23
t-80 -23t-34 -59q0 -26 20.5 -38t71.5 -24l51 -12q49 -12 81 -26z" />
    <glyph glyph-name="Scaron" unicode="&#x160;" horiz-adv-x="683" 
d="M384 641q-41 0 -78.5 -17t-61 -46.5t-23.5 -65.5q0 -34 24 -51t74 -30l118 -28q84 -20 131 -58t47 -119q0 -79 -41.5 -133.5t-111 -81.5t-153.5 -27q-127 0 -200.5 63.5t-78.5 172.5l109 11q4 -158 184 -158q46 0 87.5 17t67 49t25.5 75q0 40 -26.5 58t-86.5 33l-124 32
q-71 18 -114 55.5t-43 109.5q0 69 39.5 121t105.5 79.5t142 27.5q113 0 178 -58t81 -156l-110 -8q-16 133 -161 133zM445 765h-87l-113 154h98l62 -87h4l83 87h108z" />
    <glyph glyph-name="scaron" unicode="&#x161;" horiz-adv-x="566" 
d="M390 439q-32 23 -78 23t-80 -23t-34 -59q0 -26 20.5 -38t71.5 -24l51 -12q49 -12 81 -26t52.5 -41.5t20.5 -73.5q0 -56 -32.5 -96t-87.5 -60.5t-121 -20.5q-100 0 -158.5 46.5t-63.5 122.5l94 16q7 -57 41.5 -82.5t95.5 -25.5q50 0 89 25.5t39 66.5q0 25 -25.5 39.5
t-74.5 26.5l-52 13q-45 12 -75 25t-50.5 39.5t-20.5 70.5q0 50 32 88.5t84 59.5t111 21q57 0 102 -21t71 -56.5t29 -76.5l-94 -16q-6 46 -38 69zM371 589h-87l-113 154h98l62 -87h4l83 87h108z" />
    <glyph glyph-name="Tcedilla" unicode="&#x162;" horiz-adv-x="681" 
d="M697 619h-239l-109 -619h-11l-43 -40l-1 -4q28 -2 49.5 -22.5t21.5 -50.5q0 -52 -33.5 -79.5t-96.5 -27.5q-21 0 -48.5 6t-45.5 17l25 55q14 -8 32 -13t35 -5q24 0 39.5 12t15.5 30q0 13 -11.5 20t-24.5 7q-22 0 -43 -8l8 60l47 43h-25l109 619h-240l17 95h589z" />
    <glyph glyph-name="tcedilla" unicode="&#x163;" horiz-adv-x="383" 
d="M76 528h87l26 149h103l-26 -149h116l-14 -77h-115l-55 -312q-2 -16 -2 -22q0 -20 11 -25.5t38 -5.5l52 2l-12 -88q-5 -1 -26 -1l-26 -1l-37 -33l-4 -5q30 -3 50 -22t20 -51q0 -6 -2 -18q-9 -46 -44.5 -69.5t-83.5 -23.5q-23 0 -49.5 6t-45.5 17l25 55q14 -8 32.5 -13
t35.5 -5q20 0 37 12.5t17 35.5q0 21 -35 21q-22 0 -43 -8l8 60l50 43q-39 5 -57.5 24t-18.5 56q0 17 3 36l59 335h-87z" />
    <glyph glyph-name="Tcaron" unicode="&#x164;" horiz-adv-x="681" 
d="M458 619l-109 -619h-110l109 619h-240l17 95h589l-17 -95h-239zM471 765h-87l-113 154h98l62 -87h4l83 87h108z" />
    <glyph glyph-name="tcaron" unicode="&#x165;" horiz-adv-x="496" 
d="M519.5 535.5q-30.5 -33.5 -90.5 -33.5l8 45q19 1 35.5 19t21.5 47h-45l20 111h108l-16 -88q-11 -67 -41.5 -100.5zM300 86l-16 -87q-8 -4 -29.5 -7.5t-46.5 -3.5q-120 0 -120 94q0 15 3 33l59 336h-87l13 77h87l26 149h103l-26 -149h116l-14 -77h-115l-58 -330
q-2 -14 -2 -18q0 -17 9.5 -22.5t32.5 -5.5q32 0 65 11z" />
    <glyph glyph-name="Tbar" unicode="&#x166;" horiz-adv-x="681" 
d="M419 398h106l-15 -84h-106l-55 -314h-110l55 314h-105l15 84h105l39 221h-240l17 95h589l-17 -95h-239z" />
    <glyph glyph-name="tbar" unicode="&#x167;" horiz-adv-x="383" 
d="M238 370h116l-13 -71h-115l-29 -160q-2 -16 -2 -21q0 -20 11.5 -26t38.5 -6l55 2l-15 -88q-24 -2 -74 -2q-60 0 -91.5 19.5t-31.5 67.5q0 13 3 31l33 183h-87l12 71h87l14 81h-87l13 77h87l26 149h102l-26 -149h117l-14 -77h-115z" />
    <glyph glyph-name="Utilde" unicode="&#x168;" horiz-adv-x="757" 
d="M333 -16q-68 0 -124 28t-89.5 79.5t-33.5 120.5q0 28 4 52l80 450h110l-78 -443q-6 -34 -6 -62q0 -69 37 -100t110 -31q89 0 143.5 47t72.5 150l77 439h110l-79 -454q-49 -276 -334 -276zM544 854q-17 0 -38 17l-18 13q-14 11 -28.5 17.5t-35.5 6.5q-36 0 -67.5 -24.5
t-50.5 -82.5l67 -15q16 45 44 45q18 0 38 -16l18 -14q14 -11 28.5 -17.5t34.5 -6.5q36 0 67.5 24.5t51.5 82.5l-67 15q-16 -45 -44 -45z" />
    <glyph glyph-name="utilde" unicode="&#x169;" horiz-adv-x="610" 
d="M401 70q-36 -45 -77.5 -63.5t-97.5 -18.5q-41 0 -78 17t-60 51t-23 84q0 21 4 40l61 348h102l-56 -321q-5 -30 -5 -46q0 -47 23.5 -67t71.5 -20q35 0 69.5 19t60 56t34.5 89l51 290h102l-93 -528h-97l12 70h-4zM447 688q-17 0 -38 17l-18 14q-14 11 -28.5 17.5t-35.5 6.5
q-36 0 -67.5 -24.5t-50.5 -82.5l67 -15q16 45 44 45q17 0 38 -17l18 -14q14 -11 28.5 -17.5t35.5 -6.5q35 0 67 25t51 82l-67 15q-16 -45 -44 -45z" />
    <glyph glyph-name="Umacron" unicode="&#x16a;" horiz-adv-x="757" 
d="M333 -16q-68 0 -124 28t-89.5 79.5t-33.5 120.5q0 28 4 52l80 450h110l-78 -443q-6 -34 -6 -62q0 -69 37 -100t110 -31q89 0 143.5 47t72.5 150l77 439h110l-79 -454q-49 -276 -334 -276zM340 877h293l-14 -77h-292z" />
    <glyph glyph-name="umacron" unicode="&#x16b;" horiz-adv-x="610" 
d="M401 70q-36 -45 -77.5 -63.5t-97.5 -18.5q-41 0 -78 17t-60 51t-23 84q0 21 4 40l61 348h102l-56 -321q-5 -30 -5 -46q0 -47 23.5 -67t71.5 -20q35 0 69.5 19t60 56t34.5 89l51 290h102l-93 -528h-97l12 70h-4zM242 701h292l-13 -76h-293z" />
    <glyph glyph-name="Ubreve" unicode="&#x16c;" horiz-adv-x="757" 
d="M333 -16q-68 0 -124 28t-89.5 79.5t-33.5 120.5q0 28 4 52l80 450h110l-78 -443q-6 -34 -6 -62q0 -69 37 -100t110 -31q89 0 143.5 47t72.5 150l77 439h110l-79 -454q-49 -276 -334 -276zM598 799.5q-47 -38.5 -122 -38.5q-35 0 -69.5 16.5t-56 47t-21.5 69.5q0 13 3 25
h77q-3 -41 20 -61t57 -20q69 0 92 81h78q-11 -81 -58 -119.5z" />
    <glyph glyph-name="ubreve" unicode="&#x16d;" horiz-adv-x="610" 
d="M401 70q-36 -45 -77.5 -63.5t-97.5 -18.5q-41 0 -78 17t-60 51t-23 84q0 21 4 40l61 348h102l-56 -321q-5 -30 -5 -46q0 -47 23.5 -67t71.5 -20q35 0 69.5 19t60 56t34.5 89l51 290h102l-93 -528h-97l12 70h-4zM499 623.5q-47 -38.5 -123 -38.5q-35 0 -69 16.5t-55.5 47
t-21.5 69.5q0 12 3 25h77q-3 -41 20 -61t57 -20q69 0 92 81h78q-11 -81 -58 -119.5z" />
    <glyph glyph-name="Uring" unicode="&#x16e;" horiz-adv-x="757" 
d="M333 -16q-68 0 -124 28t-89.5 79.5t-33.5 120.5q0 28 4 52l80 450h110l-78 -443q-6 -34 -6 -62q0 -69 37 -100t110 -31q89 0 143.5 47t72.5 150l77 439h110l-79 -454q-49 -276 -334 -276zM405 784q-32 31 -32 77t32 77t80 31q46 0 78 -31t32 -77t-32 -77t-78 -31
q-48 0 -80 31zM520 823.5q14 14.5 14 37.5t-14 37.5t-35 14.5q-23 0 -37 -14.5t-14 -37.5t14 -37.5t37 -14.5q21 0 35 14.5z" />
    <glyph glyph-name="uring" unicode="&#x16f;" horiz-adv-x="610" 
d="M401 70q-36 -45 -77.5 -63.5t-97.5 -18.5q-41 0 -78 17t-60 51t-23 84q0 21 4 40l61 348h102l-56 -321q-5 -30 -5 -46q0 -47 23.5 -67t71.5 -20q35 0 69.5 19t60 56t34.5 89l51 290h102l-93 -528h-97l12 70h-4zM308 618.5q-32 31.5 -32 76.5q0 46 32 77.5t80 31.5
q46 0 78 -31.5t32 -77.5q0 -45 -32 -76.5t-78 -31.5q-48 0 -80 31.5zM423 657.5q14 14.5 14 37.5t-14 37.5t-35 14.5q-23 0 -37 -14.5t-14 -37.5t14 -37.5t37 -14.5q21 0 35 14.5z" />
    <glyph glyph-name="Uhungarumlaut" unicode="&#x170;" horiz-adv-x="757" 
d="M333 -16q-68 0 -124 28t-89.5 79.5t-33.5 120.5q0 28 4 52l80 450h110l-78 -443q-6 -34 -6 -62q0 -69 37 -100t110 -31q89 0 143.5 47t72.5 150l77 439h110l-79 -454q-49 -276 -334 -276zM354 765l82 154h108l-114 -154h-76zM503 765l82 154h108l-113 -154h-77z" />
    <glyph glyph-name="uhungarumlaut" unicode="&#x171;" horiz-adv-x="610" 
d="M401 70q-36 -45 -77.5 -63.5t-97.5 -18.5q-41 0 -78 17t-60 51t-23 84q0 21 4 40l61 348h102l-56 -321q-5 -30 -5 -46q0 -47 23.5 -67t71.5 -20q35 0 69.5 19t60 56t34.5 89l51 290h102l-93 -528h-97l12 70h-4zM254 589l82 154h109l-113 -154h-78zM403 589l82 154h109
l-112 -154h-79z" />
    <glyph glyph-name="Uogonek" unicode="&#x172;" horiz-adv-x="757" 
d="M667 260q-34 -192 -181 -250q-74 -30 -114.5 -65.5t-40.5 -71.5q0 -16 12.5 -23.5t33.5 -7.5q22 0 51 8l-8 -68q-22 -6 -68 -6q-44 0 -76 22t-32 60q0 37 21.5 69.5t59.5 56.5q-66 2 -120.5 30.5t-86.5 79.5t-32 119q0 27 4 51l80 450h110l-78 -443q-6 -34 -6 -62
q0 -69 37 -100t110 -31q89 0 143.5 47t72.5 150l77 439h110z" />
    <glyph glyph-name="uogonek" unicode="&#x173;" horiz-adv-x="621" 
d="M401.5 -68q-27.5 -34 -27.5 -59q0 -16 13 -23.5t34 -7.5q23 0 50 8l-8 -68q-20 -6 -67 -6q-43 0 -75.5 22t-32.5 60q0 44 29.5 81t81.5 61h-6l12 70h-4q-36 -45 -77.5 -63.5t-97.5 -18.5q-41 0 -78 17t-60 51t-23 84q0 21 4 40l61 348h102l-56 -321q-5 -30 -5 -46
q0 -47 23.5 -67t71.5 -20q35 0 69.5 19t60 56t34.5 89l51 290h102l-93 -528q-61 -34 -88.5 -68z" />
    <glyph glyph-name="Wcircumflex" unicode="&#x174;" horiz-adv-x="983" 
d="M543 555h-4l-229 -555h-124l-63 714h109l35 -569h4l232 569h126l34 -569h4l233 569h117l-310 -714h-126zM547 917h88l113 -154h-99l-62 87h-4l-83 -87h-107z" />
    <glyph glyph-name="wcircumflex" unicode="&#x175;" horiz-adv-x="869" 
d="M626 0h-117l-52 391h-4l-181 -391h-109l-84 528h102l55 -404h4l179 404h118l48 -404h3l186 404h110zM460 743h88l113 -154h-99l-62 87h-4l-83 -87h-107z" />
    <glyph glyph-name="Ycircumflex" unicode="&#x176;" horiz-adv-x="699" 
d="M405 267l-48 -267h-110l50 283l-183 431h115l138 -342l245 342h130zM401 917h88l113 -154h-99l-62 87h-4l-83 -87h-107z" />
    <glyph glyph-name="ycircumflex" unicode="&#x177;" horiz-adv-x="573" 
d="M303 0q-46 -85 -82 -127t-70 -55.5t-83 -13.5q-29 0 -64 5l16 88q1 0 10.5 -2.5t32.5 -2.5q42 0 67.5 20t55.5 74l11 21l-120 521h104l84 -400h4l205 400h116zM310 743h88l113 -154h-99l-62 87h-4l-83 -87h-107z" />
    <glyph glyph-name="Ydieresis" unicode="&#x178;" horiz-adv-x="699" 
d="M405 267l-48 -267h-110l50 283l-183 431h115l138 -342l245 342h130zM401 891l-18 -103h-98l17 103h99zM600 891l-18 -103h-98l18 103h98z" />
    <glyph glyph-name="Zacute" unicode="&#x179;" horiz-adv-x="686" 
d="M584 95l-16 -95h-543l16 95l488 524h-371l17 95h518l-15 -95l-486 -524h392zM398 765l107 154h122l-140 -154h-89z" />
    <glyph glyph-name="zacute" unicode="&#x17a;" horiz-adv-x="550" 
d="M36 93l345 345h-270l15 90h406l-17 -94l-347 -346h286l-15 -88h-420zM295 589l107 154h122l-140 -154h-89z" />
    <glyph glyph-name="Zdotaccent" unicode="&#x17b;" horiz-adv-x="686" 
d="M584 95l-16 -95h-543l16 95l488 524h-371l17 95h518l-15 -95l-486 -524h392zM518 898l-20 -110h-102l18 110h104z" />
    <glyph glyph-name="zdotaccent" unicode="&#x17c;" horiz-adv-x="550" 
d="M36 93l345 345h-270l15 90h406l-17 -94l-347 -346h286l-15 -88h-420zM415 724l-20 -111h-102l20 111h102z" />
    <glyph glyph-name="Zcaron" unicode="&#x17d;" horiz-adv-x="686" 
d="M584 95l-16 -95h-543l16 95l488 524h-371l17 95h518l-15 -95l-486 -524h392zM486 765h-87l-113 154h98l62 -87h4l83 87h108z" />
    <glyph glyph-name="zcaron" unicode="&#x17e;" horiz-adv-x="550" 
d="M36 93l345 345h-270l15 90h406l-17 -94l-347 -346h286l-15 -88h-420zM383 589h-87l-113 154h98l62 -87h4l83 87h108z" />
    <glyph glyph-name="florin" unicode="&#x192;" horiz-adv-x="473" 
d="M552 730l-12 -86q-32 5 -69 5q-29 0 -49.5 -12.5t-33.5 -47.5l-46 -132h103l-14 -77h-116l-92 -260q-25 -72 -71.5 -102t-121.5 -30q-29 0 -74 5l12 86q35 -5 70 -5q30 0 50 12t33 47l87 247h-87l14 77h101l51 146q26 72 72 102t120 30q28 0 73 -5z" />
    <glyph glyph-name="Oslashacute" unicode="&#x1fe;" horiz-adv-x="824" 
d="M456 765l107 154h122l-140 -154h-89zM774 443q0 -124 -51 -229.5t-144 -167.5t-212 -62q-60 0 -110.5 18.5t-88.5 53.5l-101 -96l-51 55l105 100q-37 66 -37 156q0 124 51.5 229t144 167.5t211.5 62.5q61 0 111.5 -18.5t87.5 -53.5l99 94l51 -56l-103 -98q37 -66 37 -155
zM205 195l411 393q-47 50 -130 50q-87 0 -153 -52t-101.5 -137t-35.5 -181q0 -40 9 -73zM653 518l-411 -392q47 -50 130 -50q87 0 153 52t101.5 137t35.5 181q0 41 -9 72z" />
    <glyph glyph-name="oslashacute" unicode="&#x1ff;" horiz-adv-x="621" 
d="M303 589l107 154h122l-140 -154h-89zM573 326q0 -92 -38 -169.5t-108 -123t-162 -45.5q-89 0 -148 50l-72 -67l-38 41l73 69q-32 53 -32 121q0 92 38 169.5t108 123t162 45.5q94 0 155 -56l61 57l39 -42l-65 -61q27 -49 27 -112zM158 154l283 265q-30 38 -90 38
q-65 0 -110 -40.5t-67 -99.5t-22 -115q0 -27 6 -48zM465 363l-279 -261q31 -31 84 -31q65 0 110 40.5t67 99.5t22 115q0 22 -4 37z" />
    <glyph glyph-name="Scommaaccent" unicode="&#x218;" horiz-adv-x="683" 
d="M384 641q-41 0 -78.5 -17t-61 -46.5t-23.5 -65.5q0 -34 24 -51t74 -30l118 -28q84 -20 131 -58t47 -119q0 -79 -41.5 -133.5t-111 -81.5t-153.5 -27q-127 0 -200.5 63.5t-78.5 172.5l109 11q4 -158 184 -158q46 0 87.5 17t67 49t25.5 75q0 40 -26.5 58t-86.5 33l-124 32
q-71 18 -114 55.5t-43 109.5q0 69 39.5 121t105.5 79.5t142 27.5q113 0 178 -58t81 -156l-110 -8q-16 133 -161 133zM296.5 -249.5q-30.5 -33.5 -89.5 -33.5l8 45q18 1 35 19t22 47h-45l20 111h108l-16 -88q-12 -67 -42.5 -100.5z" />
    <glyph glyph-name="scommaaccent" unicode="&#x219;" horiz-adv-x="566" 
d="M390 439q-32 23 -78 23t-80 -23t-34 -59q0 -26 20.5 -38t71.5 -24l51 -12q49 -12 81 -26t52.5 -41.5t20.5 -73.5q0 -56 -32.5 -96t-87.5 -60.5t-121 -20.5q-100 0 -158.5 46.5t-63.5 122.5l94 16q7 -57 41.5 -82.5t95.5 -25.5q50 0 89 25.5t39 66.5q0 25 -25.5 39.5
t-74.5 26.5l-52 13q-45 12 -75 25t-50.5 39.5t-20.5 70.5q0 50 32 88.5t84 59.5t111 21q57 0 102 -21t71 -56.5t29 -76.5l-94 -16q-6 46 -38 69zM240.5 -249.5q-30.5 -33.5 -89.5 -33.5l8 45q18 1 35 19t22 47h-45l20 111h108l-16 -88q-12 -67 -42.5 -100.5z" />
    <glyph glyph-name="uni021A" unicode="&#x21a;" horiz-adv-x="681" 
d="M458 619l-109 -619h-110l109 619h-240l17 95h589l-17 -95h-239zM278.5 -249.5q-30.5 -33.5 -89.5 -33.5l8 45q18 1 35 19t22 47h-45l20 111h108l-16 -88q-12 -67 -42.5 -100.5z" />
    <glyph glyph-name="uni021B" unicode="&#x21b;" horiz-adv-x="383" 
d="M299 86l-15 -87q-8 -4 -29.5 -7.5t-46.5 -3.5q-120 0 -120 94q0 15 3 33l59 336h-87l13 77h87l26 149h103l-26 -149h116l-14 -77h-115l-58 -330q-2 -14 -2 -18q0 -17 9.5 -22.5t32.5 -5.5q33 0 64 11zM161.5 -249.5q-30.5 -33.5 -89.5 -33.5l8 45q18 1 35 19t22 47h-45
l20 111h108l-16 -88q-12 -67 -42.5 -100.5z" />
    <glyph glyph-name="jdotless" unicode="&#x237;" horiz-adv-x="262" 
d="M22 -67l104 595h102l-106 -613q-12 -64 -42 -87.5t-98 -23.5q-20 0 -40 4.5t-29 8.5l14 83q4 -3 18.5 -5.5t24.5 -2.5q45 0 52 41z" />
    <glyph glyph-name="uni02BC" unicode="&#x2bc;" horiz-adv-x="264" 
d="M214.5 535.5q-30.5 -33.5 -89.5 -33.5l8 45q18 1 35 19t22 47h-45l20 111h108l-16 -88q-12 -67 -42.5 -100.5z" />
    <glyph glyph-name="circumflex" unicode="&#x2c6;" horiz-adv-x="511" 
d="M294 743h88l113 -154h-99l-62 87h-4l-83 -87h-107z" />
    <glyph glyph-name="caron" unicode="&#x2c7;" horiz-adv-x="511" 
d="M368 589h-87l-113 154h98l62 -87h4l83 87h108z" />
    <glyph glyph-name="breve" unicode="&#x2d8;" horiz-adv-x="480" 
d="M434 623.5q-47 -38.5 -123 -38.5q-35 0 -69 16.5t-55.5 47t-21.5 69.5q0 12 3 25h77q-3 -41 20 -61t57 -20q69 0 92 81h78q-11 -81 -58 -119.5z" />
    <glyph glyph-name="dotaccent" unicode="&#x2d9;" horiz-adv-x="258" 
d="M266 724l-20 -111h-102l20 111h102z" />
    <glyph glyph-name="ring" unicode="&#x2da;" horiz-adv-x="382" 
d="M193 618.5q-32 31.5 -32 76.5q0 46 32 77.5t80 31.5q46 0 78 -31.5t32 -77.5q0 -45 -32 -76.5t-78 -31.5q-48 0 -80 31.5zM308 657.5q14 14.5 14 37.5t-14 37.5t-35 14.5q-23 0 -37 -14.5t-14 -37.5t14 -37.5t37 -14.5q21 0 35 14.5z" />
    <glyph glyph-name="ogonek" unicode="&#x2db;" horiz-adv-x="346" 
d="M196 -150l-7 -68q-22 -6 -68 -6q-43 0 -75 22t-33 60q0 45 31 82.5t84 61.5l87 -2q-61 -34 -88.5 -68t-27.5 -59q0 -16 13 -23.5t34 -7.5q23 0 50 8z" />
    <glyph glyph-name="tilde" unicode="&#x2dc;" horiz-adv-x="491" 
d="M387 688q-17 0 -38 17l-18 14q-14 11 -28.5 17.5t-35.5 6.5q-36 0 -67.5 -24.5t-50.5 -82.5l67 -15q16 45 44 45q17 0 38 -17l18 -14q14 -11 28.5 -17.5t35.5 -6.5q35 0 67 25t51 82l-67 15q-16 -45 -44 -45z" />
    <glyph glyph-name="hungarumlaut" unicode="&#x2dd;" horiz-adv-x="467" 
d="M140 589l82 154h109l-113 -154h-78zM289 589l82 154h109l-112 -154h-79z" />
    <glyph glyph-name="uni0326" unicode="&#x326;" horiz-adv-x="0" 
d="M75.5 -249.5q-30.5 -33.5 -89.5 -33.5l8 45q18 1 35 19t22 47h-45l20 111h108l-16 -88q-12 -67 -42.5 -100.5z" />
    <glyph glyph-name="Wgrave" unicode="&#x1e80;" horiz-adv-x="983" 
d="M543 555h-4l-229 -555h-124l-63 714h109l35 -569h4l232 569h126l34 -569h4l233 569h117l-310 -714h-126zM613 765h-76l-86 154h109z" />
    <glyph glyph-name="wgrave" unicode="&#x1e81;" horiz-adv-x="869" 
d="M626 0h-117l-52 391h-4l-181 -391h-109l-84 528h102l55 -404h4l179 404h118l48 -404h3l186 404h110zM526 589h-76l-86 154h109z" />
    <glyph glyph-name="Wacute" unicode="&#x1e82;" horiz-adv-x="983" 
d="M543 555h-4l-229 -555h-124l-63 714h109l35 -569h4l232 569h126l34 -569h4l233 569h117l-310 -714h-126zM531 765l107 154h122l-140 -154h-89z" />
    <glyph glyph-name="wacute" unicode="&#x1e83;" horiz-adv-x="869" 
d="M626 0h-117l-52 391h-4l-181 -391h-109l-84 528h102l55 -404h4l179 404h118l48 -404h3l186 404h110zM444 589l107 154h122l-140 -154h-89z" />
    <glyph glyph-name="Wdieresis" unicode="&#x1e84;" horiz-adv-x="983" 
d="M543 555h-4l-229 -555h-124l-63 714h109l35 -569h4l232 569h126l34 -569h4l233 569h117l-310 -714h-126zM547 891l-18 -103h-98l17 103h99zM746 891l-18 -103h-98l18 103h98z" />
    <glyph glyph-name="wdieresis" unicode="&#x1e85;" horiz-adv-x="869" 
d="M626 0h-117l-52 391h-4l-181 -391h-109l-84 528h102l55 -404h4l179 404h118l48 -404h3l186 404h110zM460 716l-17 -103h-99l18 103h98zM659 716l-17 -103h-99l18 103h98z" />
    <glyph glyph-name="Ygrave" unicode="&#x1ef2;" horiz-adv-x="699" 
d="M405 267l-48 -267h-110l50 283l-183 431h115l138 -342l245 342h130zM467 765h-76l-86 154h109z" />
    <glyph glyph-name="ygrave" unicode="&#x1ef3;" horiz-adv-x="573" 
d="M303 0q-46 -85 -82 -127t-70 -55.5t-83 -13.5q-29 0 -64 5l16 88q1 0 10.5 -2.5t32.5 -2.5q42 0 67.5 20t55.5 74l11 21l-120 521h104l84 -400h4l205 400h116zM376 589h-76l-86 154h109z" />
    <glyph glyph-name="uni2007" unicode="&#x2007;" horiz-adv-x="336" 
 />
    <glyph glyph-name="uni2008" unicode="&#x2008;" horiz-adv-x="226" 
 />
    <glyph glyph-name="zerowidthspace" unicode="&#x200b;" horiz-adv-x="0" 
 />
    <glyph glyph-name="endash" unicode="&#x2013;" horiz-adv-x="673" 
d="M77 322h538l-17 -93h-537z" />
    <glyph glyph-name="emdash" unicode="&#x2014;" horiz-adv-x="871" 
d="M77 322h736l-17 -93h-735z" />
    <glyph glyph-name="quoteleft" unicode="&#x2018;" horiz-adv-x="299" 
d="M281 714l-10 -55q-27 -1 -43 -22.5t-24 -63.5h57l-22 -124h-124l18 102q29 162 148 163z" />
    <glyph glyph-name="quoteright" unicode="&#x2019;" horiz-adv-x="299" 
d="M120 449l9 55q54 3 67 86h-56l21 124h125l-18 -102q-29 -162 -148 -163z" />
    <glyph glyph-name="quotesinglbase" unicode="&#x201a;" horiz-adv-x="283" 
d="M100.5 -93.5q-33.5 -37.5 -88.5 -38.5l8 45q19 1 35.5 22.5t24.5 64.5h-45l21 118h108l-17 -96q-13 -78 -46.5 -115.5z" />
    <glyph glyph-name="quotedblleft" unicode="&#x201c;" horiz-adv-x="489" 
d="M281 713l-10 -55q-27 -1 -43 -22.5t-24 -63.5h57l-22 -124h-124l18 102q29 162 148 163zM471 713l-10 -55q-53 -3 -66 -86h56l-22 -124h-124l18 102q29 162 148 163z" />
    <glyph glyph-name="quotedblright" unicode="&#x201d;" horiz-adv-x="489" 
d="M310 448l10 55q53 3 66 86h-56l22 124h124l-18 -102q-29 -162 -148 -163zM120 448l9 55q54 3 67 86h-56l21 124h125l-18 -102q-29 -162 -148 -163z" />
    <glyph glyph-name="quotedblbase" unicode="&#x201e;" horiz-adv-x="489" 
d="M206 -141l10 55q54 3 67 86h-56l21 124h125l-18 -102q-29 -162 -149 -163zM16 -141l10 55q54 3 67 86h-57l22 124h124l-17 -102q-29 -162 -149 -163z" />
    <glyph glyph-name="dagger" unicode="&#x2020;" horiz-adv-x="544" 
d="M352 428l-108 -618h-102l108 618h-190l14 86h191l35 200h102l-35 -200h190l-14 -86h-191z" />
    <glyph glyph-name="daggerdbl" unicode="&#x2021;" horiz-adv-x="545" 
d="M294 96h190l-14 -86h-191l-35 -200h-102l35 200h-191l15 86h191l58 332h-190l14 86h191l35 200h102l-35 -200h190l-14 -86h-191z" />
    <glyph glyph-name="bullet" unicode="&#x2022;" horiz-adv-x="584" 
d="M206.5 182.5q-46.5 27.5 -73.5 74t-27 101.5t27 101t73.5 73t100.5 27q55 0 101.5 -27t74 -73t27.5 -101t-27.5 -101.5t-74 -74t-101.5 -27.5q-54 0 -100.5 27.5z" />
    <glyph glyph-name="ellipsis" unicode="&#x2026;" horiz-adv-x="880" 
d="M192 124l-21 -124h-125l22 124h124zM478 124l-22 -124h-124l21 124h125zM763 124l-22 -124h-124l21 124h125z" />
    <glyph glyph-name="perthousand" unicode="&#x2030;" horiz-adv-x="1222" 
d="M300.5 345.5q-33.5 -15.5 -72.5 -15.5q-54 0 -90.5 36t-36.5 102q0 47 16 101t44 87q24 28 57 43.5t72 15.5q54 0 90.5 -36t36.5 -102q0 -48 -15.5 -101.5t-43.5 -86.5q-24 -28 -57.5 -43.5zM226 0h-80l522 701h79zM193 409q13 -16 40 -16q39 0 65 34q18 23 29.5 72.5
t11.5 84.5q0 36 -13.5 52t-40.5 16q-39 0 -65 -34q-17 -24 -28.5 -73.5t-11.5 -83.5q0 -36 13 -52zM673.5 1.5q-33.5 -15.5 -72.5 -15.5q-54 0 -90.5 36t-36.5 102q0 48 15.5 101.5t43.5 86.5q24 28 57.5 43.5t72.5 15.5q53 0 89.5 -36t36.5 -102q0 -47 -15.5 -101
t-43.5 -87q-23 -28 -56.5 -43.5zM1035 1.5q-33 -15.5 -72 -15.5q-54 0 -90.5 36t-36.5 102q0 48 15.5 101.5t43.5 86.5q24 28 57.5 43.5t72.5 15.5q54 0 90.5 -36t36.5 -102q0 -47 -16 -101t-44 -87q-24 -28 -57 -43.5zM565 65.5q13 -16.5 41 -16.5q39 0 65 34
q17 24 28.5 73.5t11.5 83.5q0 36 -13 52t-40 16q-39 0 -65 -34q-18 -23 -29.5 -72.5t-11.5 -84.5t13 -51.5zM927.5 65.5q13.5 -16.5 40.5 -16.5q39 0 65 34q17 24 28.5 73.5t11.5 83.5q0 36 -13 52t-40 16q-39 0 -65 -34q-18 -23 -29.5 -72.5t-11.5 -84.5t13.5 -51.5z" />
    <glyph glyph-name="guilsinglleft" unicode="&#x2039;" horiz-adv-x="325" 
d="M139 267l-1 -4l95 -103l-16 -97l-152 157l18 106l206 156l-19 -111z" />
    <glyph glyph-name="guilsinglright" unicode="&#x203a;" horiz-adv-x="325" 
d="M188 278l1 4l-94 103l16 97l152 -157l-18 -106l-206 -156l19 111z" />
    <glyph glyph-name="zerosuperior" unicode="&#x2070;" horiz-adv-x="437" 
d="M405 684.5q44 -38.5 44 -116.5q0 -63 -18.5 -122.5t-56.5 -101.5q-28 -30 -64.5 -44t-84.5 -14q-63 0 -107.5 38.5t-44.5 116.5q0 64 18 124t57 100q29 30 65 44t85 14q63 0 107 -38.5zM350 477.5q12 54.5 12 93.5q0 50 -19.5 69t-51.5 19q-50 0 -79 -37
q-28 -34 -40 -88.5t-12 -95.5q0 -51 19.5 -69.5t53.5 -18.5q49 0 77 37q28 36 40 90.5z" />
    <glyph glyph-name="foursuperior" unicode="&#x2074;" horiz-adv-x="399" 
d="M399 395h-55l-18 -101h-82l18 101h-215l12 68l226 251h115l-45 -256h56zM272 458l33 184h-4l-160 -181l-1 -3h132z" />
    <glyph glyph-name="fivesuperior" unicode="&#x2075;" horiz-adv-x="392" 
d="M316.5 566.5q30.5 -13.5 51 -40.5t20.5 -65q0 -80 -53 -127.5t-142 -47.5q-62 0 -105.5 32t-45.5 88l86 6q1 -30 19 -46t52 -16q45 0 73.5 30.5t28.5 74.5q0 31 -19.5 47t-51.5 16q-48 0 -86 -32h-79l60 228h278l-12 -67h-209l-26 -97h4q17 16 40 23t55 7
q31 0 61.5 -13.5z" />
    <glyph glyph-name="sixsuperior" unicode="&#x2076;" horiz-adv-x="420" 
d="M343.5 553.5q30.5 -13.5 51 -39.5t20.5 -62q0 -75 -53 -120.5t-136 -45.5q-67 0 -110.5 38t-43.5 108q0 72 22.5 141.5t67.5 105.5q53 43 136 43q52 0 93 -29t47 -78l-83 -7q-4 24 -20 39t-44 15q-43 0 -77.5 -30t-46.5 -103l-1 -4h4q22 23 49 32.5t64 9.5
q30 0 60.5 -13.5zM303 374q29 29 29 69q0 30 -20 47.5t-51 17.5q-45 0 -76 -27.5t-31 -67.5q0 -31 22 -49.5t56 -18.5q42 0 71 29z" />
    <glyph glyph-name="sevensuperior" unicode="&#x2077;" horiz-adv-x="348" 
d="M409 677q-6 -30 -25.5 -57t-55.5 -64q-56 -59 -90 -112t-47 -132l-3 -18h-88l4 24q15 88 58 150t107 125q29 29 44 48l1 4h-239l13 69h328z" />
    <glyph glyph-name="eightsuperior" unicode="&#x2078;" horiz-adv-x="418" 
d="M385 696.5q44 -25.5 44 -76.5q0 -37 -19.5 -61.5t-63.5 -35.5l-1 -4q24 -10 44 -34t20 -56q0 -68 -53 -105.5t-137 -37.5q-64 0 -111 27.5t-47 81.5q0 97 98 124l1 4q-19 8 -36.5 28.5t-17.5 45.5q0 58 50.5 91.5t126.5 33.5q58 0 102 -25.5zM322 561.5q27 19.5 27 50.5
q0 25 -20 38.5t-50 13.5q-39 0 -66.5 -20.5t-27.5 -51.5q0 -24 20.5 -37t51.5 -13q38 0 65 19.5zM296.5 370.5q29.5 23.5 29.5 60.5q0 28 -22.5 43t-55.5 15q-44 0 -73.5 -23.5t-29.5 -61.5q0 -28 22 -42.5t56 -14.5q44 0 73.5 23.5z" />
    <glyph glyph-name="ninesuperior" unicode="&#x2079;" horiz-adv-x="419" 
d="M160.5 454.5q-30.5 13.5 -51 39.5t-20.5 62q0 75 53.5 120.5t136.5 45.5q67 0 110 -38t43 -108q0 -72 -22.5 -141.5t-66.5 -105.5q-53 -43 -136 -43q-52 0 -93.5 29t-47.5 78l83 7q4 -24 20.5 -39t44.5 -15q42 0 76.5 30t46.5 103l1 4h-3q-21 -23 -49 -32.5t-64 -9.5
q-31 0 -61.5 13.5zM201.5 634q-29.5 -29 -29.5 -69q0 -30 20.5 -47.5t51.5 -17.5q44 0 75 27.5t31 67.5q0 31 -22 49.5t-55 18.5q-42 0 -71.5 -29z" />
    <glyph glyph-name="franc" unicode="&#x20a3;" horiz-adv-x="726" 
d="M551 0l-56 157h-86l-28 -157h-89l59 338h-145l-59 -338h-103l123 701h483l-16 -87h-380l-33 -190h346q33 0 62.5 -14.5t47.5 -40t18 -56.5q0 -113 -113 -143l63 -170h-94zM579.5 248q23.5 20 23.5 51q0 22 -15 37t-44 15h-102l-21 -123h98q37 0 60.5 20z" />
    <glyph glyph-name="Euro" unicode="&#x20ac;" horiz-adv-x="703" 
d="M636 692q52 -22 81 -56l-53 -77q-50 70 -159 70q-81 0 -142.5 -49.5t-96.5 -132.5h312l-48 -63h-285q-9 -37 -11 -66h250l-47 -65h-205q4 -87 50 -134t127 -47q51 0 106 28t100 71l-19 -124q-42 -29 -89.5 -45t-113.5 -16q-74 0 -133.5 34.5t-94.5 95t-38 137.5h-81
l47 65h36q3 35 9 66h-71l47 63h41q42 124 138 195.5t228 71.5q63 0 115 -22z" />
    <glyph glyph-name="uni2116" unicode="&#x2116;" horiz-adv-x="1197" 
d="M523 0l-275 559h-4l-97 -559h-102l125 714h114l271 -551h4l97 551h102l-125 -714h-110zM1120 400q46 29 70 78.5t24 108.5q0 63 -40 100t-106 37q-63 0 -109 -29t-70 -78.5t-24 -108.5q0 -63 40 -100t106 -37q63 0 109 29zM1113 643.5q17 -18.5 17 -54.5q0 -31 -12 -67.5
t-38 -62.5t-65 -26q-32 0 -49.5 19t-17.5 55q0 31 12 67t38.5 62t65.5 26q32 0 49 -18.5zM774 0l14 82h340l-15 -82h-339z" />
    <glyph glyph-name="trademark" unicode="&#x2122;" horiz-adv-x="940" 
d="M359 646l-50 -290h-83l51 290h-119l12 68h321l-12 -68h-120zM866 356h-77l45 254h-4l-125 -254h-60l-37 254h-4l-44 -254h-75l62 358h117l28 -234h4l109 234h123z" />
    <glyph glyph-name="Ohm" unicode="&#x2126;" horiz-adv-x="732" 
d="M625 0h-277l25 152q67 17 118 65t78 113.5t27 135.5q0 82 -43 128.5t-120 46.5q-72 0 -129 -42.5t-89 -111t-32 -144.5q0 -74 35 -124.5t99 -68.5l-25 -150h-277l14 86h196l5 31q-62 25 -105 89t-43 149q0 102 46 188t128.5 136.5t185.5 50.5q73 0 132.5 -31t94 -88
t34.5 -133q-1 -81 -31 -154t-87 -127t-136 -79l-5 -32h195z" />
    <glyph glyph-name="partialdiff" unicode="&#x2202;" horiz-adv-x="604" 
d="M423 696.5q61 -33.5 102 -116.5t41 -222q0 -189 -70 -279.5t-192 -90.5q-56 0 -106.5 24.5t-82 74t-31.5 122.5q0 79 33 133.5t86.5 81.5t116.5 27q37 0 73.5 -11t66.5 -35q-16 242 -174 242q-39 0 -77.5 -14t-69.5 -41l-28 77q37 30 85 45.5t100 15.5q66 0 127 -33.5z
M415 132q41 61 46 180q-45 56 -129 56q-62 0 -102.5 -41.5t-40.5 -117.5q0 -65 32 -101.5t84 -36.5q69 0 110 61z" />
    <glyph glyph-name="emptyset" unicode="&#x2205;" horiz-adv-x="910" 
d="M804.5 508.5q32.5 -71.5 32.5 -151.5q0 -99 -49 -183t-133 -133t-183 -49q-107 0 -197 57l-44 -57h-70l69 91q-58 51 -90.5 122t-32.5 152q0 99 49 183t133 133t183 49q107 0 197 -57l43 57h70l-68 -91q58 -51 90.5 -122.5zM201 235.5q25 -57.5 69 -99.5l359 476
q-71 46 -157 46q-81 0 -149 -40.5t-107.5 -109.5t-39.5 -151q0 -64 25 -121.5zM621 96.5q68 40.5 107.5 109.5t39.5 151q0 64 -25.5 121.5t-69.5 99.5l-359 -476q73 -46 158 -46q81 0 149 40.5z" />
    <glyph glyph-name="increment" unicode="&#x2206;" 
d="M-12 0l402 714h138l160 -714h-700zM446 614h-4l-283 -523h392z" />
    <glyph glyph-name="product" unicode="&#x220f;" horiz-adv-x="721" 
d="M580 610h-318l-133 -758h-110l151 862h539l-151 -862h-110z" />
    <glyph glyph-name="summation" unicode="&#x2211;" horiz-adv-x="711" 
d="M80 -148v82l279 350l-265 348v82h514v-104h-351l236 -313l-274 -343h405v-102h-544z" />
    <glyph glyph-name="minus" unicode="&#x2212;" horiz-adv-x="493" 
d="M465 283h-431l15 85h432z" />
    <glyph glyph-name="bulletoperator" unicode="&#x2219;" horiz-adv-x="331" 
d="M123 264.5q-21 21.5 -21 51.5t21 51.5t51 21.5t51.5 -21.5t21.5 -51.5t-21 -51.5t-52 -21.5q-30 0 -51 21.5z" />
    <glyph glyph-name="radical" unicode="&#x221a;" horiz-adv-x="457" 
d="M201 -148l-96 339l-69 -34l-25 52l144 72l99 -342h2l193 762h63l-214 -849h-97z" />
    <glyph glyph-name="infinity" unicode="&#x221e;" horiz-adv-x="797" 
d="M640.5 440.5q34.5 -21.5 53 -57t18.5 -74.5q0 -40 -18.5 -77t-53 -59.5t-80.5 -22.5q-50 0 -90 25t-69 64q-69 -89 -151 -89q-45 0 -79 22.5t-52.5 59.5t-18.5 77q0 39 18.5 74.5t52.5 57t79 21.5q50 0 90 -24.5t69 -62.5q68 87 151 87q46 0 80.5 -21.5zM310 240
q25 20 51 60q-26 46 -51.5 69.5t-57.5 23.5q-38 0 -58.5 -23.5t-20.5 -60.5t21 -63t58 -26q33 0 58 20zM617.5 246q21.5 26 21.5 63t-21 60.5t-59 23.5q-34 0 -59.5 -20t-51.5 -60q28 -46 53.5 -69.5t57.5 -23.5q37 0 58.5 26z" />
    <glyph glyph-name="integral" unicode="&#x222b;" horiz-adv-x="371" 
d="M366 734v-83q-32 6 -67 6q-29 0 -45 -12t-16 -48v-657q0 -136 -148 -136q-46 0 -82 9v83q32 -6 67 -6q28 0 44.5 12t16.5 48v657q0 136 147 136q47 0 83 -9z" />
    <glyph glyph-name="approxequal" unicode="&#x2248;" horiz-adv-x="492" 
d="M441.5 437.5q31.5 18.5 58.5 46.5l-17 -97q-56 -48 -108 -48q-16 0 -32 5.5t-37 15.5l-74 35q-3 2 -16.5 8t-26.5 9.5t-26 3.5q-27 0 -58.5 -18.5t-58.5 -46.5l17 97q56 48 108 48q16 0 32 -5.5t37 -15.5l74 -35q3 -2 16.5 -8t26.5 -9.5t26 -3.5q27 0 58.5 18.5z
M411.5 268.5q31.5 18.5 58.5 46.5l-16 -97q-56 -48 -109 -48q-16 0 -32 5.5t-37 15.5l-73 35q-3 2 -16.5 8t-26.5 9.5t-26 3.5q-27 0 -58.5 -18.5t-58.5 -46.5l16 97q56 48 108 48q26 0 70 -21l73 -35q3 -2 16.5 -8t26.5 -9.5t26 -3.5q27 0 58.5 18.5z" />
    <glyph glyph-name="notequal" unicode="&#x2260;" horiz-adv-x="492" 
d="M257 272h205l-13 -78h-250l-77 -103l-59 35l51 68h-95l12 78h142l83 110h-205l14 78h250l77 103l59 -35l-51 -68h95l-14 -78h-140z" />
    <glyph glyph-name="lessequal" unicode="&#x2264;" horiz-adv-x="604" 
d="M571 576l-14 -86l-352 -135l-1 -4l303 -146l-13 -76l-399 188l14 78zM66 79h419l-14 -79h-419z" />
    <glyph glyph-name="greaterequal" unicode="&#x2265;" horiz-adv-x="604" 
d="M63 129l15 86l351 135l1 4l-302 146l13 76l398 -188l-13 -78zM54 79h420l-14 -79h-419z" />
    <glyph glyph-name="lozenge" unicode="&#x25ca;" horiz-adv-x="575" 
d="M342 -29h-76l-215 388l215 388h76l214 -388zM304 669l-169 -310l169 -310l169 310z" />
    <glyph glyph-name="fi" unicode="&#xfb01;" horiz-adv-x="650" 
d="M302.5 637.5q-19.5 -12.5 -25.5 -49.5l-11 -60h116l-14 -77h-115l-80 -451h-102l79 451h-87l13 77h87l13 74q13 70 58.5 102t110.5 32q47 0 82 -11l-14 -81q-19 6 -60 6q-31 0 -50.5 -12.5zM616 528l-93 -528h-102l92 528h103zM652 724l-20 -111h-102l20 111h102z" />
    <glyph glyph-name="fl" unicode="&#xfb02;" horiz-adv-x="656" 
d="M302.5 637.5q-19.5 -12.5 -25.5 -49.5l-11 -60h116l-14 -77h-115l-80 -451h-102l79 451h-87l13 77h87l13 74q13 70 58.5 102t110.5 32q47 0 82 -11l-14 -81q-19 6 -60 6q-31 0 -50.5 -12.5zM653 724l-127 -724h-102l127 724h102z" />
    <glyph glyph-name="i.loclTRK" horiz-adv-x="263" 
d="M229 528l-93 -528h-102l92 528h103zM264 724l-20 -111h-102l20 111h102z" />
    <glyph glyph-name="f_i" horiz-adv-x="650" 
d="M302.5 637.5q-19.5 -12.5 -25.5 -49.5l-11 -60h116l-14 -77h-115l-80 -451h-102l79 451h-87l13 77h87l13 74q13 70 58.5 102t110.5 32q47 0 82 -11l-14 -81q-19 6 -60 6q-31 0 -50.5 -12.5zM616 528l-93 -528h-102l92 528h103zM652 724l-20 -111h-102l20 111h102z" />
    <glyph glyph-name="f_l" horiz-adv-x="656" 
d="M302.5 637.5q-19.5 -12.5 -25.5 -49.5l-11 -60h116l-14 -77h-115l-80 -451h-102l79 451h-87l13 77h87l13 74q13 70 58.5 102t110.5 32q47 0 82 -11l-14 -81q-19 6 -60 6q-31 0 -50.5 -12.5zM653 724l-127 -724h-102l127 724h102z" />
    <glyph glyph-name="zero.tf" horiz-adv-x="602" 
d="M483 689.5q49 -25.5 79.5 -81t30.5 -141.5q0 -95 -31 -205t-92 -181q-39 -45 -92.5 -70t-119.5 -25q-56 0 -104.5 25.5t-79.5 81t-31 141.5q0 94 31.5 204.5t91.5 181.5q39 45 92.5 70t120.5 25q55 0 104 -25.5zM410 156.5q49 86.5 63 178.5t14 142q0 86 -31 120t-85 34
q-95 0 -144.5 -86.5t-63.5 -179t-14 -141.5q0 -86 31 -120t86 -34q95 0 144 86.5z" />
    <glyph glyph-name="one.tf" horiz-adv-x="601" 
d="M503 0h-438l15 87h169l78 449h-140l13 70h18q61 0 99 28t53 69l87 -2l-108 -614h169z" />
    <glyph glyph-name="two.tf" horiz-adv-x="601" 
d="M495 0h-477l6 34q13 74 49.5 126.5t78.5 84t99 64.5l107 61q58 34 91.5 74t33.5 95q0 46 -29 68.5t-84 22.5q-61 0 -104 -41.5t-64 -115.5l-99 14q30 110 102.5 168.5t173.5 58.5q54 0 102 -19t78.5 -57t30.5 -94q0 -68 -28.5 -115t-67 -75t-114.5 -73l-97 -57
q-63 -37 -96.5 -72t-38.5 -61h362z" />
    <glyph glyph-name="three.tf" horiz-adv-x="599" 
d="M422 417q36 18 57 49.5t21 70.5q0 45 -29.5 69t-79.5 24q-51 0 -92.5 -33t-59.5 -92l-100 14q30 94 99 144.5t162 50.5q59 0 105.5 -21t72.5 -59t26 -85q0 -67 -36 -116.5t-96 -67.5l-1 -4q47 -15 73 -50t26 -87q0 -75 -37 -129t-98 -81.5t-134 -27.5q-75 0 -130 28
t-83.5 77.5t-27.5 112.5l104 7q-3 -74 33.5 -107.5t111.5 -33.5q39 0 74.5 19.5t58 54.5t22.5 78q0 51 -35 75t-98 24h-64l13 78h61q45 0 81 18z" />
    <glyph glyph-name="four.tf" horiz-adv-x="602" 
d="M564 262l-13 -81h-90l-32 -181h-101l31 181h-332l15 88l350 432h160l-78 -439h90zM144 262h230l62 359h-3l-288 -355z" />
    <glyph glyph-name="five.tf" horiz-adv-x="601" 
d="M452.5 452q45.5 -25 72.5 -69.5t27 -101.5q0 -85 -35 -152t-101 -105t-154 -38q-61 0 -109.5 26t-76.5 70.5t-30 97.5l106 7q1 -57 32 -87t86 -30q51 0 91 29t62 76t22 98q0 59 -32 89.5t-84 30.5q-78 0 -149 -55h-97l94 363h407l-16 -89h-324l-48 -182h4q34 25 70.5 36
t82.5 11q54 0 99.5 -25z" />
    <glyph glyph-name="six.tf" horiz-adv-x="601" 
d="M455.5 426.5q44.5 -23.5 71.5 -67t27 -101.5q0 -79 -38 -141t-102.5 -96.5t-140.5 -34.5q-58 0 -102.5 21.5t-72.5 60.5q-44 62 -44 159q0 87 25.5 193.5t70.5 171.5q43 61 99 91.5t137 30.5q50 0 95 -20.5t75 -59t37 -90.5l-100 -8q-7 41 -36.5 69.5t-78.5 28.5
q-40 0 -80.5 -23t-74.5 -79t-49 -149l-1 -7h4q38 40 82.5 57t100.5 17q51 0 95.5 -23.5zM366.5 92q39.5 26 62 70t22.5 95q0 53 -32 83t-80 30q-50 0 -92 -26t-66 -68.5t-24 -90.5q0 -55 34 -87t88 -32q48 0 87.5 26z" />
    <glyph glyph-name="seven.tf" horiz-adv-x="600" 
d="M606 650q-8 -47 -36 -88.5t-83 -105.5q-58 -67 -96.5 -120.5t-73.5 -130.5t-53 -173l-6 -33h-106l8 44q20 111 60.5 197.5t84.5 145t107 127.5q7 8 34.5 39t44.5 56l1 4h-369l16 89h476z" />
    <glyph glyph-name="eight.tf" horiz-adv-x="600" 
d="M409 14q66 28 103.5 84t37.5 135q0 42 -23.5 79t-66.5 63l1 4q56 16 91.5 59.5t35.5 107.5q0 50 -28.5 88.5t-75 59t-99.5 20.5q-81 0 -142.5 -28t-94.5 -77t-33 -110q0 -38 23 -72t53 -48l-1 -4q-74 -24 -112 -79t-38 -137q0 -49 30 -88.5t80.5 -62t107.5 -22.5
q85 0 151 28zM248 434q-33 23 -33 67q0 59 45.5 96t110.5 37q50 0 83.5 -23t33.5 -67q0 -59 -45.5 -96t-110.5 -37q-51 0 -84 23zM182 93.5q-36 27.5 -36 80.5q0 46 22.5 82.5t62 57t87.5 20.5q54 0 90 -27.5t36 -78.5q0 -47 -22.5 -84t-62 -57.5t-87.5 -20.5
q-54 0 -90 27.5z" />
    <glyph glyph-name="nine.tf" horiz-adv-x="600" 
d="M178.5 273.5q-44.5 23.5 -71.5 67t-27 101.5q0 79 38 141t102.5 96.5t140.5 34.5q58 0 102.5 -21.5t72.5 -60.5q44 -62 44 -159q0 -87 -25.5 -193.5t-70.5 -171.5q-43 -61 -99 -91.5t-137 -30.5q-50 0 -95 20.5t-75 59t-37 90.5l100 9q7 -41 36.5 -70t78.5 -29
q40 0 80.5 23t74.5 79t49 149l1 7h-4q-38 -40 -82.5 -57t-100.5 -17q-51 0 -95.5 23.5zM267.5 608q-39.5 -26 -62 -70t-22.5 -95q0 -53 32 -83t80 -30q50 0 92 26t66 68.5t24 90.5q0 55 -34 87t-88 32q-48 0 -87.5 -26z" />
    <glyph glyph-name="caron.alt" horiz-adv-x="289" 
d="M223 536q-31 -34 -90 -34l8 45q18 1 35 19t22 47h-45l19 111h109l-16 -88q-11 -66 -42 -100z" />
    <glyph glyph-name="acute.case" horiz-adv-x="357" 
d="M171 765l107 154h122l-140 -154h-89z" />
    <glyph glyph-name="breve.case" horiz-adv-x="480" 
d="M465 799.5q-47 -38.5 -122 -38.5q-35 0 -69.5 16.5t-56 47t-21.5 69.5q0 13 3 25h77q-3 -41 20 -61t57 -20q69 0 92 81h78q-11 -81 -58 -119.5z" />
    <glyph glyph-name="caron.case" horiz-adv-x="511" 
d="M399 765h-87l-113 154h98l62 -87h4l83 87h108z" />
    <glyph glyph-name="cedilla.case" horiz-adv-x="366" 
d="M58 -159q18 -5 35 -5q24 0 39.5 12.5t15.5 30.5q-1 12 -12 19t-24 7q-21 0 -42 -8l7 60l48 43l42 38l78 5l-47 -43l-43 -40l-1 -4q28 -2 49.5 -22.5t21.5 -50.5q0 -52 -33.5 -79.5t-96.5 -27.5q-21 0 -48.5 6t-45.5 17l25 55q14 -8 32 -13z" />
    <glyph glyph-name="circumflex.case" horiz-adv-x="511" 
d="M325 917h88l113 -154h-99l-62 87h-4l-83 -87h-107z" />
    <glyph glyph-name="dieresis.case" horiz-adv-x="454" 
d="M292 891l-18 -103h-98l17 103h99zM491 891l-18 -103h-98l18 103h98z" />
    <glyph glyph-name="dotaccent.case" horiz-adv-x="259" 
d="M298 898l-20 -110h-102l18 110h104z" />
    <glyph glyph-name="grave.case" horiz-adv-x="345" 
d="M361 765h-76l-86 154h109z" />
    <glyph glyph-name="hungarumlaut.case" horiz-adv-x="467" 
d="M171 765l82 154h108l-114 -154h-76zM320 765l82 154h108l-113 -154h-77z" />
    <glyph glyph-name="macron.case" horiz-adv-x="449" 
d="M191 877h293l-14 -77h-292z" />
    <glyph glyph-name="ogonek.case" horiz-adv-x="346" 
d="M196 -150l-7 -68q-22 -6 -68 -6q-43 0 -75 22t-33 60q0 45 31 82.5t84 61.5l87 -2q-61 -34 -88.5 -68t-27.5 -59q0 -16 13 -23.5t34 -7.5q23 0 50 8z" />
    <glyph glyph-name="ring.case" horiz-adv-x="381" 
d="M222 784q-32 31 -32 77t32 77t80 31q46 0 78 -31t32 -77t-32 -77t-78 -31q-48 0 -80 31zM337 823.5q14 14.5 14 37.5t-14 37.5t-35 14.5q-23 0 -37 -14.5t-14 -37.5t14 -37.5t37 -14.5q21 0 35 14.5z" />
    <glyph glyph-name="tilde.case" horiz-adv-x="491" 
d="M416 854q-17 0 -38 17l-18 13q-14 11 -28.5 17.5t-35.5 6.5q-36 0 -67.5 -24.5t-50.5 -82.5l67 -15q16 45 44 45q18 0 38 -16l18 -14q14 -11 28.5 -17.5t34.5 -6.5q36 0 67.5 24.5t51.5 82.5l-67 15q-16 -45 -44 -45z" />
    <glyph glyph-name="commaaccentcomb.case" horiz-adv-x="263" 
d="M75.5 -249.5q-30.5 -33.5 -89.5 -33.5l8 45q18 1 35 19t22 47h-45l20 111h108l-16 -88q-12 -67 -42.5 -100.5z" />
    </font>
</defs>
</svg>
