<?xml version="1.0" standalone="no"?>
<!DOCTYPE svg PUBLIC "-//W3C//DTD SVG 1.1//EN" "http://www.w3.org/Graphics/SVG/1.1/DTD/svg11.dtd" >
<svg xmlns="http://www.w3.org/2000/svg" xmlns:xlink="http://www.w3.org/1999/xlink" version="1.1">
<metadata>
Created by FontForge 20201107 at Wed May 17 13:48:10 2017
 By 
Oliver Jeschke / ogj type design
</metadata>
<defs>
<font id="SequelSans-MediumBody" horiz-adv-x="616" >
  <font-face 
    font-family="Sequel Sans Medium Body"
    font-weight="315"
    font-stretch="normal"
    units-per-em="1000"
    panose-1="2 11 6 3 5 0 0 2 0 4"
    ascent="800"
    descent="-200"
    x-height="529"
    cap-height="714"
    bbox="-52 -439 1179 1069"
    underline-thickness="50"
    underline-position="-100"
    unicode-range="U+000D-FB02"
  />
<missing-glyph horiz-adv-x="687" 
d="M50 -439v1508h587v-1508h-587zM562 -373v1377h-437v-1377h437zM217 508q45 35 123 35q76 0 124 -35.5t48 -100.5q0 -39 -18 -60t-51 -39q-30 -16 -40 -25.5t-10 -25.5v-3h-114v16q0 37 15 57.5t56 46.5q15 10 22.5 19t7.5 22q0 14 -10.5 23t-30.5 9q-21 0 -33.5 -14.5
t-13.5 -41.5l-127 10q7 72 52 107zM404 216v-123h-135v123h135z" />
    <glyph glyph-name=".notdef" horiz-adv-x="687" 
d="M50 -439v1508h587v-1508h-587zM562 -373v1377h-437v-1377h437zM217 508q45 35 123 35q76 0 124 -35.5t48 -100.5q0 -39 -18 -60t-51 -39q-30 -16 -40 -25.5t-10 -25.5v-3h-114v16q0 37 15 57.5t56 46.5q15 10 22.5 19t7.5 22q0 14 -10.5 23t-30.5 9q-21 0 -33.5 -14.5
t-13.5 -41.5l-127 10q7 72 52 107zM404 216v-123h-135v123h135z" />
    <glyph glyph-name=".null" horiz-adv-x="0" 
 />
    <glyph glyph-name="nonmarkingreturn" unicode="&#xd;" horiz-adv-x="168" 
 />
    <glyph glyph-name="space" unicode=" " horiz-adv-x="251" 
 />
    <glyph glyph-name="exclam" unicode="!" horiz-adv-x="324" 
d="M104 529v185h126v-185l-20 -316h-87zM235 136v-136h-137v136h137z" />
    <glyph glyph-name="quotedbl" unicode="&#x22;" horiz-adv-x="480" 
d="M80 714h111v-273h-111v273zM280 714h111v-273h-111v273z" />
    <glyph glyph-name="numbersign" unicode="#" horiz-adv-x="656" 
d="M470 279h107l-19 -86h-105l-39 -193h-91l39 193h-133l-39 -193h-91l39 193h-105l19 86h104l28 141h-106l19 87h105l39 194h91l-40 -194h134l39 194h90l-39 -194h106l-19 -87h-104zM275 420l-29 -141h134l28 141h-133z" />
    <glyph glyph-name="dollar" unicode="$" horiz-adv-x="624" 
d="M502 41.5q-69 -53.5 -175 -55.5v-97h-48v99q-103 9 -166.5 68t-77.5 161l116 12q13 -125 128 -146v229l-48 13q-52 14 -89 33t-61 57t-24 99q0 58 28.5 102t79 69t114.5 28v76h48v-76q93 -7 150 -60.5t78 -147.5l-117 -9q-19 105 -111 122v-205l47 -12q64 -17 104 -36
t66.5 -60t26.5 -112q0 -98 -69 -151.5zM279 620q-48 -4 -75.5 -32t-27.5 -70q0 -39 24 -58.5t70 -31.5l9 -2v194zM417 111q34 29 34 78q0 47 -27 68.5t-84 37.5l-13 4v-219q56 2 90 31z" />
    <glyph glyph-name="percent" unicode="%" horiz-adv-x="961" 
d="M347.5 663.5q45.5 -51.5 45.5 -150.5t-45.5 -150.5t-122.5 -51.5q-79 0 -123.5 51t-44.5 151t44.5 151t123.5 51q77 0 122.5 -51.5zM321 0h-78l398 701h79zM281.5 412.5q18.5 31.5 18.5 100.5q0 70 -18.5 100.5t-56.5 30.5q-39 0 -57 -30.5t-18 -100.5t18 -101t57 -31
q38 0 56.5 31.5zM859.5 339q44.5 -51 44.5 -151t-44.5 -151t-122.5 -51t-122 51t-44 151t44 151t122 51t122.5 -51zM794 87.5q18 30.5 18 100.5t-18 100.5t-57 30.5t-56.5 -30.5t-17.5 -100.5t17.5 -100.5t56.5 -30.5t57 30.5z" />
    <glyph glyph-name="ampersand" unicode="&#x26;" horiz-adv-x="779" 
d="M532 77q-43 -44 -98 -67t-118 -23q-71 0 -129.5 23.5t-94 69.5t-35.5 112q0 133 150 206l20 9q-44 52 -62 87.5t-18 72.5q0 45 25 82.5t70.5 59t102.5 21.5q58 0 103 -21.5t70.5 -59t25.5 -82.5q0 -54 -34.5 -91.5t-98.5 -72.5l-27 -14l131 -141q18 56 18 119h105
q0 -115 -44 -203l152 -164h-143zM273.5 515.5q13.5 -21.5 49.5 -61.5l22 10q44 21 65 42.5t21 52.5q0 34 -23 59t-63 25t-62.5 -25t-22.5 -59q0 -22 13.5 -43.5zM463 152l-173 186l-17 -9q-98 -54 -98 -133q0 -54 38.5 -84.5t102.5 -30.5q86 0 147 71z" />
    <glyph glyph-name="quotesingle" unicode="'" horiz-adv-x="281" 
d="M80 714h111v-273h-111v273z" />
    <glyph glyph-name="parenleft" unicode="(" horiz-adv-x="359" 
d="M237.5 90q38.5 -98 106.5 -178l-47 -47q-101 89 -159.5 197t-58.5 262q0 153 59 261.5t159 196.5l47 -47q-68 -81 -106.5 -178t-38.5 -233t38.5 -234z" />
    <glyph glyph-name="parenright" unicode=")" horiz-adv-x="359" 
d="M121.5 557q-38.5 97 -106.5 178l47 47q100 -88 159 -196.5t59 -261.5q0 -154 -59 -262.5t-159 -196.5l-47 47q68 80 106.5 178t38.5 234t-38.5 233z" />
    <glyph glyph-name="asterisk" unicode="*" horiz-adv-x="475" 
d="M403 469l-43 -62l-88 65l4 -114h-78l4 114l-87 -65l-43 62l107 67l-107 67l43 62l87 -65l-4 114h78l-4 -114l88 65l43 -62l-107 -67z" />
    <glyph glyph-name="plus" unicode="+" horiz-adv-x="490" 
d="M292 280v-180h-94v180h-169v91h169v179h94v-179h168v-91h-168z" />
    <glyph glyph-name="comma" unicode="," horiz-adv-x="316" 
d="M94 -147v61q29 2 42 22.5t13 63.5h-60v136h138v-105q0 -175 -133 -178z" />
    <glyph glyph-name="hyphen" unicode="-" horiz-adv-x="496" 
d="M95 337h306v-104h-306v104z" />
    <glyph glyph-name="period" unicode="." horiz-adv-x="316" 
d="M227 136v-136h-138v136h138z" />
    <glyph glyph-name="slash" unicode="/" horiz-adv-x="441" 
d="M148 0h-115l259 714h116z" />
    <glyph glyph-name="zero" unicode="0" horiz-adv-x="671" 
d="M534.5 628.5q75.5 -86.5 75.5 -278.5q0 -191 -75.5 -277.5t-198.5 -86.5t-198.5 86.5t-75.5 277.5q0 192 75.5 278.5t198.5 86.5t198.5 -86.5zM446 138q41 58 41 212t-41.5 212.5t-109.5 58.5q-69 0 -110.5 -58.5t-41.5 -212.5t41.5 -212t110.5 -58t110 58z" />
    <glyph glyph-name="one" unicode="1" horiz-adv-x="394" 
d="M298 0h-116v520h-141v80h21q61 0 94.5 28.5t42.5 72.5h99v-701z" />
    <glyph glyph-name="two" unicode="2" horiz-adv-x="607" 
d="M543 0h-490v30q0 75 28 129t66 86.5t92 66.5l91 59q41 26 67.5 57.5t26.5 75.5q0 57 -30.5 86t-88.5 29q-57 0 -92 -39t-42 -109l-117 10q7 74 42 126.5t89.5 79.5t119.5 27q66 0 120.5 -22.5t87 -68t32.5 -113.5q0 -59 -22 -100t-52 -65.5t-77 -53.5l-20 -12l-82 -53
q-52 -34 -77.5 -66.5t-28.5 -57.5h357v-102z" />
    <glyph glyph-name="three" unicode="3" horiz-adv-x="620" 
d="M388 433q35 29 35 79t-33.5 79t-83.5 29t-83.5 -30t-40.5 -86l-116 10q10 94 74 147t166 53q104 0 170 -53.5t66 -147.5q0 -50 -28.5 -87.5t-74.5 -57.5v-4q55 -18 89 -60.5t34 -106.5q0 -104 -71 -157.5t-185 -53.5q-111 0 -181 55t-84 163l120 11q9 -70 47 -102.5
t98 -32.5q58 0 96.5 32t38.5 86q0 59 -39 88.5t-106 29.5h-62v88h62q57 0 92 29z" />
    <glyph glyph-name="four" unicode="4" horiz-adv-x="632" 
d="M582 267v-92h-88v-175h-116v175h-328v100l271 426h173v-434h88zM156 267h222v344h-4l-218 -340v-4z" />
    <glyph glyph-name="five" unicode="5" horiz-adv-x="607" 
d="M429 449.5q54 -27.5 87 -83t33 -134.5t-34 -134.5t-91.5 -83.5t-126.5 -28q-101 0 -167.5 51t-85.5 144l120 12q11 -54 46 -83.5t87 -29.5q56 0 93 39.5t37 112.5t-37.5 112.5t-95.5 39.5q-72 0 -129 -53h-109l31 370h416v-100h-322l-15 -176h4q27 27 61.5 39.5
t81.5 12.5q62 0 116 -27.5z" />
    <glyph glyph-name="six" unicode="6" horiz-adv-x="636" 
d="M455.5 426q53.5 -26 89 -77t35.5 -124q0 -79 -36.5 -133t-93.5 -80t-117 -26q-66 0 -120.5 24t-90.5 73q-30 41 -46 110.5t-16 157.5q0 208 78.5 285.5t193.5 77.5q85 0 148 -44.5t88 -126.5l-115 -14q-13 41 -44 68.5t-77 27.5q-65 0 -110.5 -52.5t-45.5 -184.5v-7h4
q31 36 75 53.5t92 17.5q55 0 108.5 -26zM396 92q30 17 48.5 49.5t18.5 77.5q0 68 -39 106.5t-93 38.5q-38 0 -70.5 -17.5t-51.5 -50.5t-19 -77q0 -43 19 -76t51.5 -50.5t70.5 -17.5q35 0 65 17z" />
    <glyph glyph-name="seven" unicode="7" horiz-adv-x="564" 
d="M527 647q0 -48 -20.5 -90t-65.5 -107q-46 -67 -75 -119.5t-50.5 -129t-21.5 -172.5v-30h-123v35q0 102 26 187.5t61.5 147.5t88.5 137q8 12 27.5 40.5t30.5 49.5v4h-366v101h488v-54z" />
    <glyph glyph-name="eight" unicode="8" horiz-adv-x="632" 
d="M445 8.5q59 22.5 94.5 70t35.5 117.5q0 67 -31.5 112.5t-86.5 66.5v4q47 20 73.5 57t26.5 87q0 63 -34 106t-88.5 64t-118.5 21q-63 0 -118 -21t-88.5 -64t-33.5 -106q0 -50 26.5 -87t72.5 -57v-4q-55 -21 -86 -66.5t-31 -112.5q0 -70 35.5 -117.5t94 -70t128.5 -22.5
t129 22.5zM406 598.5q37 -27.5 37 -79.5t-37 -79.5t-90 -27.5t-90 27.5t-37 79.5t37 79.5t90 27.5t90 -27.5zM414.5 296.5q40.5 -32.5 40.5 -94.5t-40.5 -94.5t-98.5 -32.5t-98.5 32.5t-40.5 94.5t40.5 94.5t98.5 32.5t98.5 -32.5z" />
    <glyph glyph-name="nine" unicode="9" horiz-adv-x="636" 
d="M180.5 274q-53.5 26 -89 77t-35.5 124q0 79 36.5 133t93.5 80t117 26q66 0 120.5 -24t90.5 -73q30 -41 46 -110.5t16 -157.5q0 -208 -78.5 -285.5t-193.5 -77.5q-85 0 -148 44.5t-88 126.5l115 14q13 -41 44 -68.5t77 -27.5q65 0 110.5 52.5t45.5 184.5v7h-4
q-31 -36 -75 -53.5t-92 -17.5q-55 0 -108.5 26zM212 586.5q-39 -38.5 -39 -106.5q0 -45 18.5 -77.5t48.5 -49.5t65 -17q38 0 70.5 17.5t51.5 50.5t19 76q0 44 -19 77t-51.5 50.5t-70.5 17.5q-54 0 -93 -38.5z" />
    <glyph glyph-name="colon" unicode=":" horiz-adv-x="318" 
d="M228 497v-135h-138v135h138zM228 136v-136h-138v136h138z" />
    <glyph glyph-name="semicolon" unicode=";" horiz-adv-x="318" 
d="M228 497v-135h-138v135h138zM95 -147v61q29 2 42 22.5t13 63.5h-60v136h138v-105q0 -175 -133 -178z" />
    <glyph glyph-name="less" unicode="&#x3c;" horiz-adv-x="597" 
d="M513 577v-104l-318 -149v-4l318 -149v-104l-430 205v100z" />
    <glyph glyph-name="equal" unicode="=" horiz-adv-x="489" 
d="M29 460h430v-92h-430v92zM29 283h430v-93h-430v93z" />
    <glyph glyph-name="greater" unicode="&#x3e;" horiz-adv-x="597" 
d="M83 67v104l319 149v4l-319 149v104l430 -205v-100z" />
    <glyph glyph-name="question" unicode="?" horiz-adv-x="600" 
d="M130.5 675q68.5 55 170.5 55q107 0 174.5 -52.5t67.5 -143.5q0 -68 -28 -105.5t-77 -68.5q-47 -31 -65 -61t-18 -79v-7h-111v37q0 62 25 102t81 76q34 22 50.5 46.5t16.5 64.5q0 43 -31.5 68t-84.5 25q-54 0 -91.5 -34t-53.5 -102l-112 21q18 103 86.5 158zM368 136v-136
h-138v136h138z" />
    <glyph glyph-name="at" unicode="@" horiz-adv-x="1027" 
d="M672.5 -136.5q-70.5 -18.5 -148.5 -18.5q-133 0 -239 51t-167 146.5t-61 224.5q0 127 62.5 233.5t169.5 168t234 61.5q129 0 231 -51t159 -136t57 -183q0 -91 -37 -160.5t-101 -107t-143 -37.5q-44 0 -67.5 17.5t-25.5 50.5h-4q-21 -34 -61 -51t-85 -17q-53 0 -93.5 25.5
t-62 67.5t-21.5 91q0 67 27 130t81.5 103.5t133.5 40.5q39 0 70.5 -17.5t48.5 -49.5h4l9 49h106l-69 -328q-2 -10 -2 -13q0 -38 50 -38q42 0 81 30.5t63.5 84.5t24.5 119q0 88 -47 160.5t-132.5 114.5t-198.5 42q-103 0 -192.5 -53.5t-143 -146.5t-53.5 -206
q0 -110 51.5 -190t142.5 -122t205 -42q67 0 129 16t112 47l31 -51q-58 -37 -128.5 -55.5zM546.5 168q32.5 28 49 69t15.5 79q0 53 -23.5 83t-68.5 30t-77.5 -28t-49 -69.5t-15.5 -79.5q0 -53 23.5 -82.5t68.5 -29.5t77.5 28z" />
    <glyph glyph-name="A" unicode="A" horiz-adv-x="778" 
d="M235 183l-66 -183h-135l274 714h163l274 -714h-136l-67 183h-307zM390 603h-4l-115 -319h235z" />
    <glyph glyph-name="B" unicode="B" horiz-adv-x="709" 
d="M576 661.5q58 -52.5 58 -141.5q0 -49 -22.5 -85t-67.5 -54v-4q114 -42 114 -170q0 -96 -60.5 -151.5t-171.5 -55.5h-339v714h326q105 0 163 -52.5zM393 414q56 0 85 26t29 73q0 48 -29 73.5t-85 25.5h-180v-198h180zM498 132q32 28 32 80t-32 80t-93 28h-192v-216h192
q61 0 93 28z" />
    <glyph glyph-name="C" unicode="C" horiz-adv-x="768" 
d="M661.5 113.5q-40.5 -57.5 -107.5 -93.5t-156 -36q-100 0 -177.5 45.5t-120.5 130t-43 198.5q0 113 43 197.5t120.5 129.5t177.5 45q80 0 143.5 -30t104 -77t57.5 -99l-123 -24q-21 56 -67.5 91t-114.5 35q-98 0 -155.5 -70t-57.5 -198q0 -129 57.5 -199.5t155.5 -70.5
q79 0 126.5 46.5t64.5 118.5l126 -17q-13 -65 -53.5 -122.5z" />
    <glyph glyph-name="D" unicode="D" horiz-adv-x="766" 
d="M616 623q93 -91 93 -266t-93 -266t-253 -91h-276v714h276q160 0 253 -91zM520 167q61 64 61 190t-61 190t-174 64h-133v-508h133q113 0 174 64z" />
    <glyph glyph-name="E" unicode="E" horiz-adv-x="661" 
d="M577 418v-101h-364v-211h380v-106h-506v714h506v-103h-380v-193h364z" />
    <glyph glyph-name="F" unicode="F" horiz-adv-x="645" 
d="M213 406h364v-101h-364v-305h-126v714h506v-103h-380v-205z" />
    <glyph glyph-name="G" unicode="G" horiz-adv-x="780" 
d="M621 0v85q-35 -48 -90 -74.5t-129 -26.5q-101 0 -179 46.5t-122 131.5t-44 196q0 110 44 194.5t122 131t179 46.5q113 0 197 -58.5t119 -158.5l-127 -15q-25 62 -73 95t-116 33q-65 0 -114 -32t-76 -92.5t-27 -143.5q0 -127 59 -198.5t158 -71.5q58 0 103 24.5t70 65
t28 88.5h-188v101h303v-367h-97z" />
    <glyph glyph-name="H" unicode="H" horiz-adv-x="769" 
d="M683 0h-126v310h-344v-310h-126v714h126v-300h344v300h126v-714z" />
    <glyph glyph-name="I" unicode="I" horiz-adv-x="300" 
d="M87 714h126v-714h-126v714z" />
    <glyph glyph-name="J" unicode="J" horiz-adv-x="661" 
d="M502.5 47q-72.5 -63 -193.5 -63q-113 0 -184.5 64t-84.5 185q-1 7 -1 20q0 9 1 13l119 11l-1 -15l1 -15q9 -83 47 -120t103 -37q70 0 104.5 37t34.5 120v467h127v-476q0 -128 -72.5 -191z" />
    <glyph glyph-name="K" unicode="K" horiz-adv-x="721" 
d="M214 258v-258h-126v714h126v-312l290 312h149l-255 -271l298 -443h-152l-236 357z" />
    <glyph glyph-name="L" unicode="L" horiz-adv-x="647" 
d="M87 714h126v-606h385v-108h-511v714z" />
    <glyph glyph-name="M" unicode="M" horiz-adv-x="894" 
d="M808 0h-121v545h-4l-189 -545h-97l-190 545h-4v-545h-116v714h184l175 -528h4l174 528h184v-714z" />
    <glyph glyph-name="N" unicode="N" horiz-adv-x="774" 
d="M551 0l-344 540h-4v-540h-116v714h141l340 -531h4v531h116v-714h-137z" />
    <glyph glyph-name="O" unicode="O" horiz-adv-x="801" 
d="M580.5 685q77.5 -45 120.5 -129.5t43 -198.5t-43 -198.5t-120.5 -129.5t-179.5 -45t-180 45t-121 129.5t-43 198.5t43 198.5t121 129.5t180 45t179.5 -45zM558 158.5q58 70.5 58 198.5t-58 198.5t-157 70.5t-157.5 -70.5t-58.5 -198.5t58.5 -198.5t157.5 -70.5t157 70.5z
" />
    <glyph glyph-name="P" unicode="P" horiz-adv-x="707" 
d="M590.5 653.5q65.5 -60.5 65.5 -164.5t-65.5 -164.5t-185.5 -60.5h-192v-264h-126v714h318q120 0 185.5 -60.5zM491.5 399q36.5 32 36.5 90t-36.5 90t-105.5 32h-173v-244h173q69 0 105.5 32z" />
    <glyph glyph-name="Q" unicode="Q" horiz-adv-x="812" 
d="M595 42q-79 -58 -194 -58q-102 0 -180 45t-121 129.5t-43 198.5t43 198.5t121 129.5t180 45t179.5 -45t120.5 -129.5t43 -198.5q0 -69 -16.5 -128t-48.5 -103l115 -154h-149zM558 158.5q58 70.5 58 198.5t-58 198.5t-157 70.5t-157.5 -70.5t-58.5 -198.5t58.5 -198.5
t157.5 -70.5t157 70.5z" />
    <glyph glyph-name="R" unicode="R" horiz-adv-x="732" 
d="M378 273h-165v-273h-126v714h338q120 0 186 -59t66 -161q0 -81 -42 -136t-121 -75l176 -283h-147zM408 376q69 0 105 30.5t36 87.5q0 56 -36.5 86.5t-104.5 30.5h-195v-235h195z" />
    <glyph glyph-name="S" unicode="S" horiz-adv-x="686" 
d="M434 600q-43 32 -109 32q-63 0 -100.5 -28.5t-37.5 -74.5q0 -39 27 -58.5t81 -31.5l120 -28q73 -19 116 -37.5t72.5 -61t29.5 -116.5q0 -69 -38 -117t-102 -71.5t-144 -23.5q-132 0 -214 61t-100 175l125 13q10 -79 61.5 -114.5t129.5 -35.5q68 0 110.5 29.5t42.5 79.5
q0 33 -15 53t-41 30.5t-70 21.5l-125 32q-58 14 -99 34t-67.5 59t-26.5 102t35 109.5t95.5 71.5t136.5 25q117 0 190 -55.5t98 -158.5l-125 -10q-13 62 -56 94z" />
    <glyph glyph-name="T" unicode="T" horiz-adv-x="685" 
d="M405 606v-606h-126v606h-236v108h598v-108h-236z" />
    <glyph glyph-name="U" unicode="U" horiz-adv-x="763" 
d="M639 110q-38 -63 -105 -94.5t-152 -31.5t-152 31.5t-105 94.5t-38 153v451h126v-439q0 -97 42.5 -141t126.5 -44t126.5 44t42.5 141v439h126v-451q0 -90 -38 -153z" />
    <glyph glyph-name="V" unicode="V" horiz-adv-x="742" 
d="M442 0h-141l-267 714h136l200 -574h4l200 574h135z" />
    <glyph glyph-name="W" unicode="W" horiz-adv-x="989" 
d="M497 540h-4l-124 -540h-149l-178 714h130l123 -555h4l124 555h141l124 -555h4l124 555h131l-180 -714h-145z" />
    <glyph glyph-name="X" unicode="X" horiz-adv-x="710" 
d="M352 275l-170 -275h-140l241 369l-223 345h144l152 -250l155 250h138l-224 -342l242 -372h-144z" />
    <glyph glyph-name="Y" unicode="Y" horiz-adv-x="711" 
d="M418 278v-278h-126v277l-258 437h138l184 -330l185 330h136z" />
    <glyph glyph-name="Z" unicode="Z" horiz-adv-x="687" 
d="M619 108v-108h-553v108l397 498h-373v108h530v-108l-395 -498h394z" />
    <glyph glyph-name="bracketleft" unicode="[" horiz-adv-x="355" 
d="M331 -43v-93h-222v891h222v-93h-111v-705h111z" />
    <glyph glyph-name="backslash" unicode="\" horiz-adv-x="441" 
d="M293 0l-260 714h116l259 -714h-115z" />
    <glyph glyph-name="bracketright" unicode="]" horiz-adv-x="355" 
d="M24 755h222v-891h-222v93h111v705h-111v93z" />
    <glyph glyph-name="asciicircum" unicode="^" horiz-adv-x="560" 
d="M282 596h-4l-113 -243h-102l167 348h100l167 -348h-102z" />
    <glyph glyph-name="underscore" unicode="_" horiz-adv-x="544" 
d="M-2 -110h549v-50h-549v50z" />
    <glyph glyph-name="grave" unicode="`" horiz-adv-x="358" 
d="M289 589h-91l-119 157h129z" />
    <glyph glyph-name="a" unicode="a" horiz-adv-x="568" 
d="M546 92v-92q-20 -6 -58 -6q-41 0 -66.5 15t-34.5 48h-4q-25 -34 -70.5 -51.5t-95.5 -17.5q-47 0 -86.5 19t-63 55t-23.5 83q0 82 53 120.5t162 50.5q71 8 96.5 21.5t25.5 39.5q0 73 -96 73q-40 0 -71 -21t-43 -63l-108 21q17 72 77.5 113t147.5 41q108 0 159 -45t51 -120
v-257q0 -18 6.5 -24.5t18.5 -6.5t23 4zM338.5 247.5q-31.5 -7.5 -79.5 -13.5q-43 -6 -69 -27t-26 -59q0 -34 21 -53.5t58 -19.5q33 0 65 14.5t52.5 44t20.5 73.5v59q-11 -11 -42.5 -18.5z" />
    <glyph glyph-name="b" unicode="b" horiz-adv-x="643" 
d="M481 506.5q54 -34.5 84 -97t30 -145.5q0 -82 -30.5 -144.5t-84 -97t-122.5 -34.5q-55 0 -98 21t-65 59h-4v-68h-112v724h117v-256h4q22 34 63.5 53.5t95.5 19.5q68 0 122 -34.5zM437.5 129q38.5 49 38.5 135t-38.5 135t-105.5 49q-66 0 -104.5 -49t-38.5 -135t38.5 -135
t104.5 -49q67 0 105.5 49z" />
    <glyph glyph-name="c" unicode="c" horiz-adv-x="591" 
d="M390.5 112.5q29.5 32.5 40.5 76.5l119 -16q-20 -74 -79.5 -129.5t-167.5 -55.5q-77 0 -135 34t-89.5 96.5t-31.5 145.5t31.5 146t89.5 97t135 34q104 0 160.5 -50t76.5 -107l-111 -32q-34 97 -126 97q-63 0 -99.5 -49t-36.5 -136t36.5 -135.5t99.5 -48.5q58 0 87.5 32.5z
" />
    <glyph glyph-name="d" unicode="d" horiz-adv-x="633" 
d="M379.5 521.5q41.5 -19.5 62.5 -53.5h4v256h117v-724h-111v68h-4q-22 -38 -65 -59t-98 -21q-69 0 -123 34.5t-84.5 97t-30.5 144.5q0 83 30.5 145.5t84.5 97t122 34.5q54 0 95.5 -19.5zM414.5 129q38.5 49 38.5 135t-38.5 135t-103.5 49q-67 0 -105.5 -49t-38.5 -135
t38.5 -135t105.5 -49q65 0 103.5 49z" />
    <glyph glyph-name="e" unicode="e" horiz-adv-x="604" 
d="M471 37q-60 -49 -169 -49q-76 0 -134 34.5t-89.5 96.5t-31.5 144q0 84 31 146.5t88.5 97t135.5 34.5q75 0 132.5 -32t90 -93.5t32.5 -146.5q0 -10 -2 -32h-389q2 -71 39 -115.5t97 -44.5q57 0 88 27.5t43 63.5l119 -13q-21 -69 -81 -118zM208.5 414.5
q-34.5 -37.5 -40.5 -93.5h268q-5 56 -39.5 93.5t-94.5 37.5q-59 0 -93.5 -37.5z" />
    <glyph glyph-name="f" unicode="f" horiz-adv-x="393" 
d="M247.5 630q-16.5 -12 -16.5 -46v-55h113v-84h-113v-445h-117v445h-86v84h86v67q0 75 41.5 107.5t117.5 32.5q52 0 84 -10v-90q-24 6 -63 6q-30 0 -46.5 -12z" />
    <glyph glyph-name="g" unicode="g" horiz-adv-x="624" 
d="M555 38q0 -121 -69.5 -177.5t-183.5 -56.5q-93 0 -158.5 41.5t-89.5 128.5l114 19q14 -51 47.5 -74t86.5 -23q136 0 136 147v51h-4q-22 -31 -61.5 -48.5t-92.5 -17.5q-67 0 -120 32t-82.5 90t-29.5 134t29.5 134.5t82.5 90.5t121 32q54 0 95 -19t63 -55h4v62h112v-491z
M407.5 163.5q37.5 45.5 37.5 120.5q0 74 -37.5 119t-100.5 45q-64 0 -102 -45t-38 -119q0 -75 38 -120.5t102 -45.5q63 0 100.5 45.5z" />
    <glyph glyph-name="h" unicode="h" 
d="M200 459q60 82 163 82q49 0 91 -20.5t67.5 -64t25.5 -107.5v-349h-117v317q0 68 -27.5 97.5t-82.5 29.5q-32 0 -60.5 -20t-46 -57t-17.5 -86v-281h-117v724h117v-265h4z" />
    <glyph glyph-name="i" unicode="i" horiz-adv-x="269" 
d="M193 529v-529h-117v529h117zM193 724v-115h-117v115h117z" />
    <glyph glyph-name="j" unicode="j" horiz-adv-x="269" 
d="M65 -89q11 8 11 29v589h117v-605q0 -67 -32 -93.5t-97 -26.5q-21 0 -43.5 4t-31.5 8v94q17 -7 45 -7q20 0 31 8zM193 724v-115h-117v115h117z" />
    <glyph glyph-name="k" unicode="k" horiz-adv-x="585" 
d="M196 0h-117v724h117v-405l205 210h142l-203 -203l226 -326h-138l-169 249l-63 -61v-188z" />
    <glyph glyph-name="l" unicode="l" horiz-adv-x="276" 
d="M196 724v-724h-117v724h117z" />
    <glyph glyph-name="m" unicode="m" horiz-adv-x="929" 
d="M808 492.5q51 -48.5 51 -143.5v-349h-117v317q0 68 -25.5 97.5t-75.5 29.5q-47 0 -80 -41t-33 -114v-289h-117v317q0 68 -25.5 97.5t-75.5 29.5q-47 0 -80.5 -41t-33.5 -114v-289h-117v529h112v-71h4q58 83 156 83q49 0 90 -22t63 -65q36 43 78 65t100 22q75 0 126 -48.5
z" />
    <glyph glyph-name="n" unicode="n" 
d="M195 459q57 82 165 82q79 0 133 -48.5t54 -143.5v-349h-117v317q0 68 -27.5 97.5t-82.5 29.5q-33 0 -61 -18t-45.5 -53t-17.5 -84v-289h-117v529h112v-70h4z" />
    <glyph glyph-name="o" unicode="o" horiz-adv-x="618" 
d="M447.5 507q59.5 -34 91.5 -97t32 -146t-32 -145.5t-91.5 -96.5t-138.5 -34t-138.5 34t-91.5 96.5t-32 145.5t32 146t91.5 97t138.5 34t138.5 -34zM413 128.5q38 48.5 38 135.5t-38 136t-104 49t-104 -49t-38 -136t38 -135.5t104 -48.5t104 48.5z" />
    <glyph glyph-name="p" unicode="p" horiz-adv-x="643" 
d="M263.5 7q-40.5 19 -63.5 54h-4v-245h-117v713h112v-68h4q22 39 65 59.5t98 20.5q69 0 122.5 -34.5t84 -97t30.5 -145.5q0 -82 -30.5 -144.5t-84 -97t-121.5 -34.5q-55 0 -95.5 19zM227.5 399q-38.5 -49 -38.5 -135t38.5 -135t104.5 -49q67 0 105.5 49t38.5 135t-38.5 135
t-105.5 49q-66 0 -104.5 -49z" />
    <glyph glyph-name="q" unicode="q" horiz-adv-x="633" 
d="M162 22.5q-54 34.5 -84.5 97t-30.5 144.5q0 83 30.5 145.5t84.5 97t123 34.5q55 0 97.5 -20.5t65.5 -59.5h4v68h111v-713h-117v245h-4q-22 -35 -63 -54t-95 -19q-68 0 -122 34.5zM205.5 399q-38.5 -49 -38.5 -135t38.5 -135t105.5 -49q65 0 103.5 49t38.5 135t-38.5 135
t-103.5 49q-67 0 -105.5 -49z" />
    <glyph glyph-name="r" unicode="r" horiz-adv-x="420" 
d="M191 449h4q22 41 62.5 66.5t94.5 25.5q24 0 44 -5v-112q-28 4 -54 4q-146 0 -146 -152v-276h-117v529h112v-80z" />
    <glyph glyph-name="s" unicode="s" horiz-adv-x="568" 
d="M359 434q-32 22 -75 22q-44 0 -70 -18.5t-26 -52.5q0 -29 24.5 -42t74.5 -21l53 -9q85 -15 132.5 -48t47.5 -111q0 -80 -64 -123t-167 -43q-100 0 -164 45t-78 120l108 20q11 -52 46 -77t90 -25q49 0 79.5 21.5t30.5 57.5q0 31 -26.5 46t-79.5 23l-55 10q-77 12 -124 45
t-47 109q0 46 28 82t77.5 56t110.5 20q58 0 106 -20t78.5 -55t38.5 -77l-107 -19q-10 42 -42 64z" />
    <glyph glyph-name="t" unicode="t" horiz-adv-x="390" 
d="M339 94v-94q-10 -4 -35 -8t-47 -4q-75 0 -109 28.5t-34 100.5v328h-86v84h86v148h117v-148h113v-84h-113v-313q0 -28 11.5 -37t40.5 -9q37 0 56 8z" />
    <glyph glyph-name="u" unicode="u" 
d="M431 70q-56 -82 -165 -82q-79 0 -133 48t-54 143v350h117v-317q0 -68 27.5 -98t82.5 -30q32 0 60.5 18t46 53t17.5 84v290h117v-529h-112v70h-4z" />
    <glyph glyph-name="v" unicode="v" horiz-adv-x="584" 
d="M223 0l-195 529h128l134 -397h4l137 397h125l-197 -529h-136z" />
    <glyph glyph-name="w" unicode="w" horiz-adv-x="887" 
d="M685 0h-131l-111 379h-4l-110 -379h-126l-172 529h128l110 -391h4l106 391h133l106 -391h4l110 391h124z" />
    <glyph glyph-name="x" unicode="x" horiz-adv-x="556" 
d="M277 185l-119 -185h-130l179 267l-171 262h134l109 -178l109 178h130l-170 -260l180 -269h-136z" />
    <glyph glyph-name="y" unicode="y" horiz-adv-x="584" 
d="M359 0q-31 -83 -62 -125.5t-64 -56.5t-80 -14q-32 0 -72 5v100q30 -6 54 -6q39 0 58 17.5t40 67.5l7 18l-212 523h127l141 -385h4l131 385h125z" />
    <glyph glyph-name="z" unicode="z" horiz-adv-x="551" 
d="M61 101l284 329h-270v99h416v-102l-285 -329h285v-98h-430v101z" />
    <glyph glyph-name="braceleft" unicode="{" horiz-adv-x="379" 
d="M171 312v-4q85 -18 85 -106v-191q0 -25 10 -39.5t39 -14.5h49v-93h-79q-69 0 -100 28t-31 93v200q0 43 -21 59.5t-58 16.5v97q36 0 57.5 16.5t21.5 59.5v201q0 64 31 92t100 28h79v-93h-49q-29 0 -39 -14t-10 -40v-191q0 -89 -85 -105z" />
    <glyph glyph-name="bar" unicode="|" horiz-adv-x="361" 
d="M123 -227v1026h115v-1026h-115z" />
    <glyph glyph-name="braceright" unicode="}" horiz-adv-x="379" 
d="M112.5 648q-9.5 14 -38.5 14h-50v93h80q69 0 100 -28t31 -92v-201q0 -43 21.5 -59.5t57.5 -16.5v-97q-37 0 -58 -16.5t-21 -59.5v-200q0 -65 -31 -93t-100 -28h-80v93h50q29 0 38.5 14.5t9.5 39.5v191q0 88 86 106v4q-86 16 -86 105v191q0 26 -9.5 40z" />
    <glyph glyph-name="asciitilde" unicode="~" horiz-adv-x="489" 
d="M409 345.5q28 18.5 50 46.5v-106q-51 -51 -105 -51q-21 0 -38 5t-42 17l-70 34q-22 11 -37.5 16t-32.5 5q-27 0 -55 -18.5t-50 -46.5v106q51 51 105 51q22 0 39 -5t41 -17l70 -34q22 -11 37.5 -16t32.5 -5q27 0 55 18.5z" />
    <glyph glyph-name="uni00A0" unicode="&#xa0;" horiz-adv-x="168" 
 />
    <glyph glyph-name="exclamdown" unicode="&#xa1;" horiz-adv-x="321" 
d="M232 404h-134v130h134v-130zM228 -180h-126v185l19 316h88l19 -316v-185z" />
    <glyph glyph-name="cent" unicode="&#xa2;" horiz-adv-x="590" 
d="M476.5 48q-54.5 -53 -150.5 -59v-89h-47v89q-107 8 -169.5 82.5t-62.5 192.5q0 119 62.5 193.5t169.5 82.5v75h47v-75q93 -7 144.5 -54.5t69.5 -101.5l-111 -32q-11 33 -35 60.5t-68 34.5v-366q79 12 105 105l118 -16q-18 -69 -72.5 -122zM197 138.5q30 -47.5 82 -56.5
v365q-52 -9 -82 -57t-30 -126t30 -125.5z" />
    <glyph glyph-name="sterling" unicode="&#xa3;" horiz-adv-x="673" 
d="M507 -14q-49 0 -96 21.5t-102 60.5q-18 -40 -54 -61t-83 -21q-57 0 -92 30t-35 85t33 84.5t82 29.5q29 0 66 -14q-3 41 -28 84h-147v70h107q-29 42 -45 80.5t-16 80.5q0 63 32 108t85 67.5t115 22.5q105 0 175 -55.5t83 -169.5h-112q-9 64 -47 99t-91 35
q-58 0 -89.5 -31.5t-31.5 -85.5q0 -32 14.5 -62t31.5 -55.5t22 -33.5h195v-70h-159q23 -43 23 -85q0 -31 -6 -48q57 -36 88 -51.5t63 -15.5q57 0 97 54l39 -95q-43 -58 -117 -58zM204.5 73q14.5 16 19.5 49q-33 23 -52 23q-18 0 -30 -12t-12 -33q0 -19 12 -31t31 -12
q17 0 31.5 16z" />
    <glyph glyph-name="currency" unicode="&#xa4;" horiz-adv-x="639" 
d="M524 224l68 -69l-65 -59l-66 66q-63 -44 -141 -44q-79 0 -142 44l-66 -66l-65 59l69 69q-46 63 -46 144t46 144l-69 69l65 59l66 -66q63 44 142 44q78 0 141 -44l66 66l65 -59l-68 -69q46 -63 46 -144t-46 -144zM393.5 232q33.5 21 53.5 57t20 79t-20 79t-53.5 57
t-73.5 21t-74 -21t-53.5 -57t-19.5 -79t19.5 -79t53.5 -57t74 -21t73.5 21z" />
    <glyph glyph-name="yen" unicode="&#xa5;" horiz-adv-x="727" 
d="M611 274v-68h-189v-206h-117v206h-191v68h190l-41 65h-149v69h105l-185 293h128l202 -330l203 330h126l-186 -293h104v-69h-149l-40 -65h189z" />
    <glyph glyph-name="brokenbar" unicode="&#xa6;" horiz-adv-x="361" 
d="M123 362v437h115v-437h-115zM123 -227v437h115v-437h-115z" />
    <glyph glyph-name="section" unicode="&#xa7;" horiz-adv-x="736" 
d="M622.5 144q-27.5 -37 -75.5 -55q44 -47 44 -122q0 -89 -61.5 -132.5t-157.5 -43.5q-103 0 -165.5 49.5t-70.5 143.5l116 11q4 -63 37 -88.5t82 -25.5q101 0 101 83q0 41 -19 61t-54 36l-178 78q-66 28 -100 65t-34 102q0 51 30.5 86.5t82.5 51.5q-46 46 -46 116
q0 80 58.5 124.5t149.5 44.5q94 0 149.5 -44.5t66.5 -127.5l-113 -8q-13 91 -103 91q-41 0 -65 -20.5t-24 -56.5q0 -52 57 -76l161 -75q56 -25 88.5 -46t51.5 -53t19 -80q0 -52 -27.5 -89zM474 139q27 8 41.5 31.5t14.5 52.5q0 60 -72 90l-170 75q-14 7 -17 8
q-33 -8 -49.5 -29t-16.5 -50t17.5 -50.5t40.5 -31.5l168 -76q15 -6 43 -20z" />
    <glyph glyph-name="dieresis" unicode="&#xa8;" horiz-adv-x="461" 
d="M188 717v-108h-109v108h109zM392 717v-108h-109v108h109z" />
    <glyph glyph-name="copyright" unicode="&#xa9;" horiz-adv-x="919" 
d="M273 34q-86 50 -136 136t-50 188q0 101 50 186.5t136 135.5t187 50t187 -50t136 -135.5t50 -186.5q0 -102 -50 -188t-136 -136t-187 -50t-187 50zM613 93q70 41 111 111t41 154q0 83 -41 152.5t-111 110.5t-153 41t-153 -41t-111 -110.5t-41 -152.5q0 -84 41 -154
t111 -111t153 -41t153 41zM574 208q-45 -38 -113 -38q-79 0 -128 50t-49 138q0 86 49 136t128 50q64 0 107.5 -33.5t55.5 -81.5l-87 -12q-9 27 -28 42.5t-48 15.5q-39 0 -63.5 -29t-24.5 -88q0 -61 24.5 -90t63.5 -29q32 0 52.5 19.5t27.5 53.5l89 -9q-11 -57 -56 -95z" />
    <glyph glyph-name="ordfeminine" unicode="&#xaa;" horiz-adv-x="430" 
d="M389 446v-67q-9 -4 -41 -4q-30 0 -47 9t-24 30h-4q-16 -21 -44.5 -32t-60.5 -11q-49 0 -82.5 27.5t-33.5 72.5q0 51 34 75.5t104 34.5q47 6 63.5 14t16.5 23q0 42 -55 42q-24 0 -42 -12.5t-25 -37.5l-83 12q10 48 51 74.5t101 26.5q73 0 108.5 -29t35.5 -79v-152
q0 -11 3.5 -15t11.5 -4q10 0 13 2zM247.5 534.5q-15.5 -3.5 -47.5 -8.5q-26 -4 -41.5 -16.5t-15.5 -33.5q0 -20 13 -31t35 -11q30 0 54.5 19.5t24.5 56.5v35q-7 -7 -22.5 -10.5zM50 0v89h344v-89h-344z" />
    <glyph glyph-name="guillemotleft" unicode="&#xab;" horiz-adv-x="545" 
d="M252 372l-106 -97v-4l106 -97v-119l-179 155v125l179 155v-118zM474 372l-106 -97v-4l106 -97v-119l-179 155v125l179 155v-118z" />
    <glyph glyph-name="logicalnot" unicode="&#xac;" horiz-adv-x="490" 
d="M367 143v174h-338v92h431v-266h-93z" />
    <glyph glyph-name="registered" unicode="&#xae;" horiz-adv-x="919" 
d="M647 680q86 -50 136 -135.5t50 -186.5q0 -102 -50 -188t-136 -136t-187 -50t-187 50t-136 136t-50 188q0 101 50 186.5t136 135.5t187 50t187 -50zM613 93q70 41 111 111.5t41 153.5q0 82 -41 152t-111 111t-153 41t-153 -41t-111 -111t-41 -152q0 -83 41 -153.5
t111 -111.5t153 -41t153 41zM602 352q-19 -28 -54 -40l82 -134h-100l-72 125h-63v-125h-87v358h181q62 0 97 -31t35 -85q0 -40 -19 -68zM472 371q29 0 44 12.5t15 36.5q0 23 -15 36t-44 13h-77v-98h77z" />
    <glyph glyph-name="macron" unicode="&#xaf;" horiz-adv-x="447" 
d="M79 707h299v-83h-299v83z" />
    <glyph glyph-name="degree" unicode="&#xb0;" horiz-adv-x="429" 
d="M139 437q-35 19 -55.5 53t-20.5 76t20.5 76.5t55.5 53.5t76 19t75.5 -19t55 -53.5t20.5 -76.5t-20.5 -76t-55 -53t-75.5 -19t-76 19zM270 508.5q22 23.5 22 57.5t-22 57.5t-55 23.5t-55.5 -23.5t-22.5 -57.5t22.5 -57.5t55.5 -23.5t55 23.5z" />
    <glyph glyph-name="plusminus" unicode="&#xb1;" horiz-adv-x="490" 
d="M292 283v-176h-94v176h-169v92h169v175h94v-175h168v-92h-168zM460 0h-431v92h431v-92z" />
    <glyph glyph-name="twosuperior" unicode="&#xb2;" horiz-adv-x="427" 
d="M44 310q0 46 18.5 79t44 54t69.5 48l44 27q36 23 52.5 38.5t16.5 37.5q0 28 -18 43t-52 15q-35 0 -56.5 -20.5t-25.5 -58.5l-91 4q5 70 53.5 107.5t120.5 37.5q73 0 118.5 -32.5t45.5 -93.5q0 -37 -17.5 -63t-36 -39t-65.5 -41l-44 -26q-61 -38 -64 -58h224v-75h-337v16z
" />
    <glyph glyph-name="threesuperior" unicode="&#xb3;" horiz-adv-x="434" 
d="M271.5 556.5q20.5 15.5 20.5 41.5q0 25 -20 39.5t-50 14.5q-31 0 -51 -15.5t-24 -45.5l-90 6q5 59 49.5 92t115.5 33q72 0 117 -32t45 -88q0 -31 -19 -53t-51 -33v-4q36 -9 58.5 -33.5t22.5 -62.5q0 -66 -47.5 -98t-125.5 -32q-77 0 -125 33.5t-55 100.5l93 7
q8 -71 87 -71q34 0 56.5 16.5t22.5 44.5q0 31 -22.5 46t-62.5 15h-42v63h42q35 0 55.5 15.5z" />
    <glyph glyph-name="acute" unicode="&#xb4;" horiz-adv-x="358" 
d="M79 589l81 157h129l-119 -157h-91z" />
    <glyph glyph-name="paragraph" unicode="&#xb6;" horiz-adv-x="707" 
d="M524 -184v811h-113v-811h-97v470q-127 0 -197 57.5t-70 156.5t70 156.5t197 57.5h307v-898h-97z" />
    <glyph glyph-name="periodcentered" unicode="&#xb7;" horiz-adv-x="328" 
d="M106.5 258.5q-23.5 23.5 -23.5 57.5q0 33 23.5 57t57.5 24t57.5 -24t23.5 -57q0 -34 -23.5 -57.5t-57.5 -23.5t-57.5 23.5z" />
    <glyph glyph-name="cedilla" unicode="&#xb8;" horiz-adv-x="374" 
d="M175 -164q17 0 30 9t13 28q0 31 -43 31q-17 0 -40 -7v60l39 43l37 38l79 5l-40 -43l-32 -35v-5q39 -4 63 -26t24 -62q0 -48 -34 -73t-90 -25q-24 0 -52.5 6t-49.5 17l19 59q40 -20 77 -20z" />
    <glyph glyph-name="onesuperior" unicode="&#xb9;" horiz-adv-x="310" 
d="M227 294h-90v290h-99v59h20q41 0 63.5 20t29.5 51h76v-420z" />
    <glyph glyph-name="ordmasculine" unicode="&#xba;" horiz-adv-x="430" 
d="M347.5 675.5q46.5 -47.5 46.5 -128.5t-46.5 -128.5t-126.5 -47.5q-79 0 -125 47.5t-46 128.5t46 128.5t125 47.5q80 0 126.5 -47.5zM281 466q22 28 22 81q0 54 -22 82t-60 28t-59 -28t-21 -82q0 -53 21.5 -81t58.5 -28q38 0 60 28zM50 0v89h344v-89h-344z" />
    <glyph glyph-name="guillemotright" unicode="&#xbb;" horiz-adv-x="545" 
d="M71 55v119l106 97v4l-106 97v118l179 -155v-125zM293 55v119l106 97v4l-106 97v118l179 -155v-125z" />
    <glyph glyph-name="questiondown" unicode="&#xbf;" horiz-adv-x="600" 
d="M232 398v136h138v-136h-138zM469.5 -141q-68.5 -55 -170.5 -55q-70 0 -125 23.5t-86 67.5t-31 104q0 69 28 106.5t77 68.5q47 31 65 61t18 79v7h110v-37q0 -62 -25 -102t-80 -76q-34 -22 -50.5 -46.5t-16.5 -64.5q0 -43 31 -68t84 -25q55 0 92.5 34t52.5 102l113 -22
q-18 -102 -86.5 -157z" />
    <glyph glyph-name="Agrave" unicode="&#xc0;" horiz-adv-x="778" 
d="M235 183l-66 -183h-135l274 714h163l274 -714h-136l-67 183h-307zM390 603h-4l-115 -319h235zM435 766h-91l-119 157h129z" />
    <glyph glyph-name="Aacute" unicode="&#xc1;" horiz-adv-x="778" 
d="M235 183l-66 -183h-135l274 714h163l274 -714h-136l-67 183h-307zM390 603h-4l-115 -319h235zM344 766l81 157h129l-119 -157h-91z" />
    <glyph glyph-name="Acircumflex" unicode="&#xc2;" horiz-adv-x="778" 
d="M235 183l-66 -183h-135l274 714h163l274 -714h-136l-67 183h-307zM390 603h-4l-115 -319h235zM388 849l-68 -86h-117l135 157h103l135 -157h-117l-67 86h-4z" />
    <glyph glyph-name="Atilde" unicode="&#xc3;" horiz-adv-x="778" 
d="M235 183l-66 -183h-135l274 714h163l274 -714h-136l-67 183h-307zM390 603h-4l-115 -319h235zM455 859q-15 0 -40 17l-23 15q-18 11 -31 17t-30 6q-45 0 -75 -28t-39 -86l70 -14q9 44 38 44q15 0 39 -16l24 -16q17 -11 30 -16.5t30 -5.5q45 0 75 27.5t39 85.5l-70 14
q-8 -44 -37 -44z" />
    <glyph glyph-name="Adieresis" unicode="&#xc4;" horiz-adv-x="778" 
d="M235 183l-66 -183h-135l274 714h163l274 -714h-136l-67 183h-307zM390 603h-4l-115 -319h235zM342 894v-108h-109v108h109zM546 894v-108h-109v108h109z" />
    <glyph glyph-name="Aring" unicode="&#xc5;" horiz-adv-x="778" 
d="M235 183l-66 -183h-135l274 714h163l274 -714h-136l-67 183h-307zM390 603h-4l-115 -319h235zM308 784q-33 32 -33 79t33 79t82 32q47 0 80 -32t33 -79q0 -46 -33 -78.5t-80 -32.5q-49 0 -82 32zM425 825.5q14 14.5 14 37.5t-14 37.5t-35 14.5q-23 0 -37 -14.5t-14 -37.5
t14 -37.5t37 -14.5q21 0 35 14.5z" />
    <glyph glyph-name="AE" unicode="&#xc6;" horiz-adv-x="1142" 
d="M700 418h356v-103h-356v-209h374v-106h-496v197h-294l-109 -197h-141l413 714h627v-105h-374v-191zM578 609h-65l-173 -312h238v312z" />
    <glyph glyph-name="Ccedilla" unicode="&#xc7;" horiz-adv-x="774" 
d="M419 -40q39 -4 62.5 -26t23.5 -62q0 -48 -34 -73t-90 -25q-24 0 -52.5 6t-48.5 17l18 59q42 -20 77 -20q17 0 30.5 9.5t13.5 27.5q0 31 -44 31q-17 0 -40 -7v60l27 29q-91 8 -159.5 55t-106.5 128.5t-38 188.5q0 113 43 197.5t120.5 129.5t177.5 45q80 0 143 -30
t103.5 -77t58.5 -99l-123 -24q-21 55 -68 90.5t-114 35.5q-98 0 -155.5 -70t-57.5 -198q0 -129 57.5 -199.5t155.5 -70.5q79 0 127.5 46.5t66.5 118.5l127 -17q-13 -60 -49.5 -114t-95.5 -91t-137 -45l-19 -21v-5z" />
    <glyph glyph-name="Egrave" unicode="&#xc8;" horiz-adv-x="661" 
d="M577 418v-101h-364v-211h380v-106h-506v714h506v-103h-380v-193h364zM386 766h-91l-119 157h129z" />
    <glyph glyph-name="Eacute" unicode="&#xc9;" horiz-adv-x="661" 
d="M577 418v-101h-364v-211h380v-106h-506v714h506v-103h-380v-193h364zM294 766l81 157h129l-119 -157h-91z" />
    <glyph glyph-name="Ecircumflex" unicode="&#xca;" horiz-adv-x="661" 
d="M577 418v-101h-364v-211h380v-106h-506v714h506v-103h-380v-193h364zM339 849l-68 -86h-117l135 157h103l135 -157h-117l-67 86h-4z" />
    <glyph glyph-name="Edieresis" unicode="&#xcb;" horiz-adv-x="661" 
d="M577 418v-101h-364v-211h380v-106h-506v714h506v-103h-380v-193h364zM293 894v-108h-109v108h109zM497 894v-108h-109v108h109z" />
    <glyph glyph-name="Igrave" unicode="&#xcc;" horiz-adv-x="300" 
d="M87 714h126v-714h-126v714zM195 766h-91l-119 157h129z" />
    <glyph glyph-name="Iacute" unicode="&#xcd;" horiz-adv-x="300" 
d="M87 714h126v-714h-126v714zM104 766l81 157h129l-119 -157h-91z" />
    <glyph glyph-name="Icircumflex" unicode="&#xce;" horiz-adv-x="300" 
d="M87 714h126v-714h-126v714zM148 849l-68 -86h-117l135 157h103l135 -157h-117l-67 86h-4z" />
    <glyph glyph-name="Idieresis" unicode="&#xcf;" horiz-adv-x="300" 
d="M87 714h126v-714h-126v714zM102 894v-108h-109v108h109zM306 894v-108h-109v108h109z" />
    <glyph glyph-name="Eth" unicode="&#xd0;" horiz-adv-x="765" 
d="M615 623q93 -91 93 -266t-93 -266t-253 -91h-276v310h-70v95h70v309h276q160 0 253 -91zM519 167q61 64 61 190t-61 190t-174 64h-133v-206h152v-95h-152v-207h133q113 0 174 64z" />
    <glyph glyph-name="Ntilde" unicode="&#xd1;" horiz-adv-x="774" 
d="M551 0l-344 540h-4v-540h-116v714h141l340 -531h4v531h116v-714h-137zM453 859q-15 0 -40 17l-23 15q-18 11 -31 17t-30 6q-45 0 -75 -28t-39 -86l70 -14q9 44 38 44q15 0 39 -16l24 -16q17 -11 30 -16.5t30 -5.5q45 0 75 27.5t39 85.5l-70 14q-8 -44 -37 -44z" />
    <glyph glyph-name="Ograve" unicode="&#xd2;" horiz-adv-x="801" 
d="M580.5 685q77.5 -45 120.5 -129.5t43 -198.5t-43 -198.5t-120.5 -129.5t-179.5 -45t-180 45t-121 129.5t-43 198.5t43 198.5t121 129.5t180 45t179.5 -45zM558 158.5q58 70.5 58 198.5t-58 198.5t-157 70.5t-157.5 -70.5t-58.5 -198.5t58.5 -198.5t157.5 -70.5t157 70.5z
M446 766h-91l-119 157h129z" />
    <glyph glyph-name="Oacute" unicode="&#xd3;" horiz-adv-x="801" 
d="M580.5 685q77.5 -45 120.5 -129.5t43 -198.5t-43 -198.5t-120.5 -129.5t-179.5 -45t-180 45t-121 129.5t-43 198.5t43 198.5t121 129.5t180 45t179.5 -45zM558 158.5q58 70.5 58 198.5t-58 198.5t-157 70.5t-157.5 -70.5t-58.5 -198.5t58.5 -198.5t157.5 -70.5t157 70.5z
M355 766l81 157h129l-119 -157h-91z" />
    <glyph glyph-name="Ocircumflex" unicode="&#xd4;" horiz-adv-x="801" 
d="M580.5 685q77.5 -45 120.5 -129.5t43 -198.5t-43 -198.5t-120.5 -129.5t-179.5 -45t-180 45t-121 129.5t-43 198.5t43 198.5t121 129.5t180 45t179.5 -45zM558 158.5q58 70.5 58 198.5t-58 198.5t-157 70.5t-157.5 -70.5t-58.5 -198.5t58.5 -198.5t157.5 -70.5t157 70.5z
M399 849l-68 -86h-117l135 157h103l135 -157h-117l-67 86h-4z" />
    <glyph glyph-name="Otilde" unicode="&#xd5;" horiz-adv-x="801" 
d="M580.5 685q77.5 -45 120.5 -129.5t43 -198.5t-43 -198.5t-120.5 -129.5t-179.5 -45t-180 45t-121 129.5t-43 198.5t43 198.5t121 129.5t180 45t179.5 -45zM558 158.5q58 70.5 58 198.5t-58 198.5t-157 70.5t-157.5 -70.5t-58.5 -198.5t58.5 -198.5t157.5 -70.5t157 70.5z
M466 859q-15 0 -40 17l-23 15q-18 11 -31 17t-30 6q-45 0 -75 -28t-39 -86l70 -14q9 44 38 44q15 0 39 -16l24 -16q17 -11 30 -16.5t30 -5.5q45 0 75 27.5t39 85.5l-70 14q-8 -44 -37 -44z" />
    <glyph glyph-name="Odieresis" unicode="&#xd6;" horiz-adv-x="801" 
d="M580.5 685q77.5 -45 120.5 -129.5t43 -198.5t-43 -198.5t-120.5 -129.5t-179.5 -45t-180 45t-121 129.5t-43 198.5t43 198.5t121 129.5t180 45t179.5 -45zM558 158.5q58 70.5 58 198.5t-58 198.5t-157 70.5t-157.5 -70.5t-58.5 -198.5t58.5 -198.5t157.5 -70.5t157 70.5z
M353 894v-108h-109v108h109zM557 894v-108h-109v108h109z" />
    <glyph glyph-name="multiply" unicode="&#xd7;" horiz-adv-x="490" 
d="M310 326l150 -149l-65 -63l-151 147l-149 -147l-66 63l151 149l-148 147l65 63l147 -145l150 145l65 -63z" />
    <glyph glyph-name="Oslash" unicode="&#xd8;" horiz-adv-x="823" 
d="M744 357q0 -114 -43 -198.5t-120.5 -129.5t-179.5 -45q-119 0 -204 60l-73 -84l-58 54l73 85q-40 48 -61 113.5t-21 144.5q0 114 43 198.5t121 129.5t180 45q65 0 121 -19t100 -55l84 96l58 -55l-87 -101q67 -95 67 -239zM221 193l325 375q-55 58 -145 58
q-99 0 -157.5 -70.5t-58.5 -198.5q0 -98 36 -164zM591 498l-319 -368q53 -42 129 -42q99 0 157 70.5t58 198.5q0 80 -25 141z" />
    <glyph glyph-name="Ugrave" unicode="&#xd9;" horiz-adv-x="763" 
d="M639 110q-38 -63 -105 -94.5t-152 -31.5t-152 31.5t-105 94.5t-38 153v451h126v-439q0 -97 42.5 -141t126.5 -44t126.5 44t42.5 141v439h126v-451q0 -90 -38 -153zM427 766h-91l-119 157h129z" />
    <glyph glyph-name="Uacute" unicode="&#xda;" horiz-adv-x="763" 
d="M639 110q-38 -63 -105 -94.5t-152 -31.5t-152 31.5t-105 94.5t-38 153v451h126v-439q0 -97 42.5 -141t126.5 -44t126.5 44t42.5 141v439h126v-451q0 -90 -38 -153zM336 766l81 157h129l-119 -157h-91z" />
    <glyph glyph-name="Ucircumflex" unicode="&#xdb;" horiz-adv-x="763" 
d="M639 110q-38 -63 -105 -94.5t-152 -31.5t-152 31.5t-105 94.5t-38 153v451h126v-439q0 -97 42.5 -141t126.5 -44t126.5 44t42.5 141v439h126v-451q0 -90 -38 -153zM380 849l-68 -86h-117l135 157h103l135 -157h-117l-67 86h-4z" />
    <glyph glyph-name="Udieresis" unicode="&#xdc;" horiz-adv-x="763" 
d="M639 110q-38 -63 -105 -94.5t-152 -31.5t-152 31.5t-105 94.5t-38 153v451h126v-439q0 -97 42.5 -141t126.5 -44t126.5 44t42.5 141v439h126v-451q0 -90 -38 -153zM334 894v-108h-109v108h109zM538 894v-108h-109v108h109z" />
    <glyph glyph-name="Yacute" unicode="&#xdd;" horiz-adv-x="711" 
d="M418 278v-278h-126v277l-258 437h138l184 -330l185 330h136zM311 766l81 157h129l-119 -157h-91z" />
    <glyph glyph-name="Thorn" unicode="&#xde;" horiz-adv-x="707" 
d="M590.5 526q65.5 -61 65.5 -165t-65.5 -164.5t-185.5 -60.5h-192v-136h-126v714h126v-127h192q120 0 185.5 -61zM491.5 271q36.5 32 36.5 90t-36.5 90t-105.5 32h-173v-244h173q69 0 105.5 32z" />
    <glyph glyph-name="germandbls" unicode="&#xdf;" horiz-adv-x="655" 
d="M562 233q21 -16 33.5 -40.5t12.5 -61.5q0 -71 -51 -107t-136 -36q-74 0 -121 32t-62 88l102 17q9 -27 30 -41t51 -14q35 0 53 14t18 39q0 21 -13.5 34.5t-42.5 29.5l-76 42q-45 25 -62.5 49t-17.5 54q0 43 22 65.5t65 44.5q28 15 44.5 26t27.5 29.5t11 45.5
q0 38 -29.5 66.5t-80.5 28.5q-60 0 -101.5 -37.5t-41.5 -111.5v-489h-118v499q0 84 37 137t95 76.5t125 23.5q73 0 125.5 -27t79.5 -71t27 -95q0 -45 -19 -74.5t-44.5 -45.5t-63.5 -32q-28 -12 -40.5 -20.5t-12.5 -19.5q0 -15 35 -34l80 -46q38 -22 59 -38z" />
    <glyph glyph-name="agrave" unicode="&#xe0;" horiz-adv-x="568" 
d="M546 92v-92q-20 -6 -58 -6q-41 0 -66.5 15t-34.5 48h-4q-25 -34 -70.5 -51.5t-95.5 -17.5q-47 0 -86.5 19t-63 55t-23.5 83q0 82 53 120.5t162 50.5q71 8 96.5 21.5t25.5 39.5q0 73 -96 73q-40 0 -71 -21t-43 -63l-108 21q17 72 77.5 113t147.5 41q108 0 159 -45t51 -120
v-257q0 -18 6.5 -24.5t18.5 -6.5t23 4zM338.5 247.5q-31.5 -7.5 -79.5 -13.5q-43 -6 -69 -27t-26 -59q0 -34 21 -53.5t58 -19.5q33 0 65 14.5t52.5 44t20.5 73.5v59q-11 -11 -42.5 -18.5zM333 589h-91l-119 157h129z" />
    <glyph glyph-name="aacute" unicode="&#xe1;" horiz-adv-x="568" 
d="M546 92v-92q-20 -6 -58 -6q-41 0 -66.5 15t-34.5 48h-4q-25 -34 -70.5 -51.5t-95.5 -17.5q-47 0 -86.5 19t-63 55t-23.5 83q0 82 53 120.5t162 50.5q71 8 96.5 21.5t25.5 39.5q0 73 -96 73q-40 0 -71 -21t-43 -63l-108 21q17 72 77.5 113t147.5 41q108 0 159 -45t51 -120
v-257q0 -18 6.5 -24.5t18.5 -6.5t23 4zM338.5 247.5q-31.5 -7.5 -79.5 -13.5q-43 -6 -69 -27t-26 -59q0 -34 21 -53.5t58 -19.5q33 0 65 14.5t52.5 44t20.5 73.5v59q-11 -11 -42.5 -18.5zM242 589l81 157h129l-119 -157h-91z" />
    <glyph glyph-name="acircumflex" unicode="&#xe2;" horiz-adv-x="568" 
d="M546 92v-92q-20 -6 -58 -6q-41 0 -66.5 15t-34.5 48h-4q-25 -34 -70.5 -51.5t-95.5 -17.5q-47 0 -86.5 19t-63 55t-23.5 83q0 82 53 120.5t162 50.5q71 8 96.5 21.5t25.5 39.5q0 73 -96 73q-40 0 -71 -21t-43 -63l-108 21q17 72 77.5 113t147.5 41q108 0 159 -45t51 -120
v-257q0 -18 6.5 -24.5t18.5 -6.5t23 4zM338.5 247.5q-31.5 -7.5 -79.5 -13.5q-43 -6 -69 -27t-26 -59q0 -34 21 -53.5t58 -19.5q33 0 65 14.5t52.5 44t20.5 73.5v59q-11 -11 -42.5 -18.5zM286 676l-68 -87h-117l135 157h103l135 -157h-117l-67 87h-4z" />
    <glyph glyph-name="atilde" unicode="&#xe3;" horiz-adv-x="568" 
d="M546 92v-92q-20 -6 -58 -6q-41 0 -66.5 15t-34.5 48h-4q-25 -34 -70.5 -51.5t-95.5 -17.5q-47 0 -86.5 19t-63 55t-23.5 83q0 82 53 120.5t162 50.5q71 8 96.5 21.5t25.5 39.5q0 73 -96 73q-40 0 -71 -21t-43 -63l-108 21q17 72 77.5 113t147.5 41q108 0 159 -45t51 -120
v-257q0 -18 6.5 -24.5t18.5 -6.5t23 4zM338.5 247.5q-31.5 -7.5 -79.5 -13.5q-43 -6 -69 -27t-26 -59q0 -34 21 -53.5t58 -19.5q33 0 65 14.5t52.5 44t20.5 73.5v59q-11 -11 -42.5 -18.5zM353 693q-9 0 -19.5 5.5t-20.5 11.5l-23 15q-18 11 -31 17t-30 6q-45 0 -75 -27.5
t-39 -85.5l70 -14q9 44 38 44q9 0 17.5 -4t21.5 -13l24 -15q16 -11 29.5 -17t30.5 -6q45 0 75 27.5t39 86.5l-70 13q-8 -44 -37 -44z" />
    <glyph glyph-name="adieresis" unicode="&#xe4;" horiz-adv-x="568" 
d="M546 92v-92q-20 -6 -58 -6q-41 0 -66.5 15t-34.5 48h-4q-25 -34 -70.5 -51.5t-95.5 -17.5q-47 0 -86.5 19t-63 55t-23.5 83q0 82 53 120.5t162 50.5q71 8 96.5 21.5t25.5 39.5q0 73 -96 73q-40 0 -71 -21t-43 -63l-108 21q17 72 77.5 113t147.5 41q108 0 159 -45t51 -120
v-257q0 -18 6.5 -24.5t18.5 -6.5t23 4zM338.5 247.5q-31.5 -7.5 -79.5 -13.5q-43 -6 -69 -27t-26 -59q0 -34 21 -53.5t58 -19.5q33 0 65 14.5t52.5 44t20.5 73.5v59q-11 -11 -42.5 -18.5zM240 717v-108h-109v108h109zM444 717v-108h-109v108h109z" />
    <glyph glyph-name="aring" unicode="&#xe5;" horiz-adv-x="568" 
d="M546 92v-92q-20 -6 -58 -6q-41 0 -66.5 15t-34.5 48h-4q-25 -34 -70.5 -51.5t-95.5 -17.5q-47 0 -86.5 19t-63 55t-23.5 83q0 82 53 120.5t162 50.5q71 8 96.5 21.5t25.5 39.5q0 73 -96 73q-40 0 -71 -21t-43 -63l-108 21q17 72 77.5 113t147.5 41q108 0 159 -45t51 -120
v-257q0 -18 6.5 -24.5t18.5 -6.5t23 4zM338.5 247.5q-31.5 -7.5 -79.5 -13.5q-43 -6 -69 -27t-26 -59q0 -34 21 -53.5t58 -19.5q33 0 65 14.5t52.5 44t20.5 73.5v59q-11 -11 -42.5 -18.5zM206 619q-33 32 -33 79t33 79t82 32q47 0 80 -32.5t33 -78.5t-33 -78.5t-80 -32.5
q-49 0 -82 32zM323 660.5q14 14.5 14 37.5t-14 37.5t-35 14.5q-23 0 -37 -14.5t-14 -37.5t14 -37.5t37 -14.5q21 0 35 14.5z" />
    <glyph glyph-name="ae" unicode="&#xe6;" horiz-adv-x="951" 
d="M782 509q58 -32 90 -93.5t32 -146.5q0 -21 -1 -32h-389q2 -71 39 -115.5t97 -44.5q57 0 88 27.5t43 63.5l119 -13q-21 -69 -81 -118t-169 -49q-64 0 -115 28t-82 79q-28 -54 -86.5 -80.5t-131.5 -26.5q-84 0 -137.5 42.5t-53.5 114.5q0 82 55.5 121t167.5 50
q74 8 101 21.5t27 39.5q0 73 -103 73q-41 0 -74 -21t-46 -63l-108 21q18 72 80 113t152 41q132 0 186 -69q63 69 167 69q75 0 133 -32zM743.5 414.5q-34.5 37.5 -94.5 37.5q-59 0 -93 -37.5t-40 -93.5h268q-6 56 -40.5 93.5zM350 248.5q-33 -7.5 -84 -13.5q-44 -6 -73 -27.5
t-29 -59.5q0 -35 22.5 -54t61.5 -19q35 0 69 14t56 43.5t22 74.5v60q-12 -11 -45 -18.5z" />
    <glyph glyph-name="ccedilla" unicode="&#xe7;" horiz-adv-x="592" 
d="M325 -40q39 -4 62.5 -26t23.5 -62q0 -48 -33.5 -73t-89.5 -25q-25 0 -53.5 6t-48.5 17l19 59q40 -20 77 -20q17 0 30 9t13 28q0 31 -43 31q-18 0 -41 -7v60l30 32q-103 11 -163.5 84.5t-60.5 190.5q0 83 31.5 146t89.5 97t135 34q104 0 160.5 -50t76.5 -107l-111 -32
q-34 97 -126 97q-63 0 -99.5 -49t-36.5 -136t36.5 -135.5t99.5 -48.5q58 0 87.5 32.5t40.5 76.5l119 -16q-17 -65 -66 -117.5t-135 -64.5l-24 -26v-5z" />
    <glyph glyph-name="egrave" unicode="&#xe8;" horiz-adv-x="604" 
d="M471 37q-60 -49 -169 -49q-76 0 -134 34.5t-89.5 96.5t-31.5 144q0 84 31 146.5t88.5 97t135.5 34.5q75 0 132.5 -32t90 -93.5t32.5 -146.5q0 -10 -2 -32h-389q2 -71 39 -115.5t97 -44.5q57 0 88 27.5t43 63.5l119 -13q-21 -69 -81 -118zM208.5 414.5
q-34.5 -37.5 -40.5 -93.5h268q-5 56 -39.5 93.5t-94.5 37.5q-59 0 -93.5 -37.5zM347 589h-91l-119 157h129z" />
    <glyph glyph-name="eacute" unicode="&#xe9;" horiz-adv-x="604" 
d="M471 37q-60 -49 -169 -49q-76 0 -134 34.5t-89.5 96.5t-31.5 144q0 84 31 146.5t88.5 97t135.5 34.5q75 0 132.5 -32t90 -93.5t32.5 -146.5q0 -10 -2 -32h-389q2 -71 39 -115.5t97 -44.5q57 0 88 27.5t43 63.5l119 -13q-21 -69 -81 -118zM208.5 414.5
q-34.5 -37.5 -40.5 -93.5h268q-5 56 -39.5 93.5t-94.5 37.5q-59 0 -93.5 -37.5zM256 589l81 157h129l-119 -157h-91z" />
    <glyph glyph-name="ecircumflex" unicode="&#xea;" horiz-adv-x="604" 
d="M471 37q-60 -49 -169 -49q-76 0 -134 34.5t-89.5 96.5t-31.5 144q0 84 31 146.5t88.5 97t135.5 34.5q75 0 132.5 -32t90 -93.5t32.5 -146.5q0 -10 -2 -32h-389q2 -71 39 -115.5t97 -44.5q57 0 88 27.5t43 63.5l119 -13q-21 -69 -81 -118zM208.5 414.5
q-34.5 -37.5 -40.5 -93.5h268q-5 56 -39.5 93.5t-94.5 37.5q-59 0 -93.5 -37.5zM300 676l-68 -87h-117l135 157h103l135 -157h-117l-67 87h-4z" />
    <glyph glyph-name="edieresis" unicode="&#xeb;" horiz-adv-x="604" 
d="M471 37q-60 -49 -169 -49q-76 0 -134 34.5t-89.5 96.5t-31.5 144q0 84 31 146.5t88.5 97t135.5 34.5q75 0 132.5 -32t90 -93.5t32.5 -146.5q0 -10 -2 -32h-389q2 -71 39 -115.5t97 -44.5q57 0 88 27.5t43 63.5l119 -13q-21 -69 -81 -118zM208.5 414.5
q-34.5 -37.5 -40.5 -93.5h268q-5 56 -39.5 93.5t-94.5 37.5q-59 0 -93.5 -37.5zM254 717v-108h-109v108h109zM458 717v-108h-109v108h109z" />
    <glyph glyph-name="igrave" unicode="&#xec;" horiz-adv-x="269" 
d="M193 529v-529h-117v529h117zM180 589h-91l-119 157h129z" />
    <glyph glyph-name="iacute" unicode="&#xed;" horiz-adv-x="269" 
d="M193 529v-529h-117v529h117zM89 589l81 157h129l-119 -157h-91z" />
    <glyph glyph-name="icircumflex" unicode="&#xee;" horiz-adv-x="269" 
d="M193 529v-529h-117v529h117zM133 676l-68 -87h-117l135 157h103l135 -157h-117l-67 87h-4z" />
    <glyph glyph-name="idieresis" unicode="&#xef;" horiz-adv-x="269" 
d="M193 529v-529h-117v529h117zM87 717v-108h-109v108h109zM291 717v-108h-109v108h109z" />
    <glyph glyph-name="eth" unicode="&#xf0;" horiz-adv-x="620" 
d="M534 492.5q38 -99.5 38 -228.5q0 -84 -32.5 -146t-91.5 -95.5t-138 -33.5q-78 0 -137.5 32t-92.5 88.5t-33 127.5q0 72 32.5 129.5t91.5 89.5t133 32q72 0 127 -46q-32 100 -120 160l-114 -74l-59 59l90 58q-62 25 -141 38l42 81q114 -19 194 -57l125 80l59 -59l-105 -67
q94 -69 132 -168.5zM413 123q39 44 39 114q0 71 -39 116t-103 45q-65 0 -104.5 -45t-39.5 -116q0 -70 39.5 -114t104.5 -44q64 0 103 44z" />
    <glyph glyph-name="ntilde" unicode="&#xf1;" 
d="M195 459q57 82 165 82q79 0 133 -48.5t54 -143.5v-349h-117v317q0 68 -27.5 97.5t-82.5 29.5q-33 0 -61 -18t-45.5 -53t-17.5 -84v-289h-117v529h112v-70h4zM378 693q-9 0 -19.5 5.5t-20.5 11.5l-23 15q-18 11 -31 17t-30 6q-45 0 -75 -27.5t-39 -85.5l70 -14q9 44 38 44
q9 0 17.5 -4t21.5 -13l24 -15q16 -11 29.5 -17t30.5 -6q45 0 75 27.5t39 86.5l-70 13q-8 -44 -37 -44z" />
    <glyph glyph-name="ograve" unicode="&#xf2;" horiz-adv-x="618" 
d="M447.5 507q59.5 -34 91.5 -97t32 -146t-32 -145.5t-91.5 -96.5t-138.5 -34t-138.5 34t-91.5 96.5t-32 145.5t32 146t91.5 97t138.5 34t138.5 -34zM413 128.5q38 48.5 38 135.5t-38 136t-104 49t-104 -49t-38 -136t38 -135.5t104 -48.5t104 48.5zM355 589h-91l-119 157
h129z" />
    <glyph glyph-name="oacute" unicode="&#xf3;" horiz-adv-x="618" 
d="M447.5 507q59.5 -34 91.5 -97t32 -146t-32 -145.5t-91.5 -96.5t-138.5 -34t-138.5 34t-91.5 96.5t-32 145.5t32 146t91.5 97t138.5 34t138.5 -34zM413 128.5q38 48.5 38 135.5t-38 136t-104 49t-104 -49t-38 -136t38 -135.5t104 -48.5t104 48.5zM264 589l81 157h129
l-119 -157h-91z" />
    <glyph glyph-name="ocircumflex" unicode="&#xf4;" horiz-adv-x="618" 
d="M447.5 507q59.5 -34 91.5 -97t32 -146t-32 -145.5t-91.5 -96.5t-138.5 -34t-138.5 34t-91.5 96.5t-32 145.5t32 146t91.5 97t138.5 34t138.5 -34zM413 128.5q38 48.5 38 135.5t-38 136t-104 49t-104 -49t-38 -136t38 -135.5t104 -48.5t104 48.5zM308 676l-68 -87h-117
l135 157h103l135 -157h-117l-67 87h-4z" />
    <glyph glyph-name="otilde" unicode="&#xf5;" horiz-adv-x="618" 
d="M447.5 507q59.5 -34 91.5 -97t32 -146t-32 -145.5t-91.5 -96.5t-138.5 -34t-138.5 34t-91.5 96.5t-32 145.5t32 146t91.5 97t138.5 34t138.5 -34zM413 128.5q38 48.5 38 135.5t-38 136t-104 49t-104 -49t-38 -136t38 -135.5t104 -48.5t104 48.5zM375 693q-9 0 -19.5 5.5
t-20.5 11.5l-23 15q-18 11 -31 17t-30 6q-45 0 -75 -27.5t-39 -85.5l70 -14q9 44 38 44q9 0 17.5 -4t21.5 -13l24 -15q16 -11 29.5 -17t30.5 -6q45 0 75 27.5t39 86.5l-70 13q-8 -44 -37 -44z" />
    <glyph glyph-name="odieresis" unicode="&#xf6;" horiz-adv-x="618" 
d="M447.5 507q59.5 -34 91.5 -97t32 -146t-32 -145.5t-91.5 -96.5t-138.5 -34t-138.5 34t-91.5 96.5t-32 145.5t32 146t91.5 97t138.5 34t138.5 -34zM413 128.5q38 48.5 38 135.5t-38 136t-104 49t-104 -49t-38 -136t38 -135.5t104 -48.5t104 48.5zM262 717v-108h-109v108
h109zM466 717v-108h-109v108h109z" />
    <glyph glyph-name="divide" unicode="&#xf7;" horiz-adv-x="550" 
d="M227 460q-20 20 -20 48q0 29 20 49t48 20t48 -20t20 -49q0 -28 -19.5 -48t-48.5 -20q-28 0 -48 20zM520 280h-491v91h491v-91zM227 94q-20 20 -20 49q0 28 20 48t48 20t48 -20t20 -48q0 -29 -20 -49t-48 -20t-48 20z" />
    <glyph glyph-name="oslash" unicode="&#xf8;" horiz-adv-x="621" 
d="M572 264q0 -83 -32 -145.5t-91 -96.5t-138 -34q-94 0 -158 46l-56 -64l-44 40l57 64q-61 74 -61 190q0 83 32 146t91 97t139 34q98 0 165 -53l48 53l44 -40l-50 -56v0q54 -71 54 -181zM206.5 400q-38.5 -49 -38.5 -136q0 -59 19 -103l220 248q-37 40 -96 40
q-66 0 -104.5 -49zM415 128.5q38 48.5 38 135.5q0 54 -15 91l-216 -243q35 -32 89 -32q66 0 104 48.5z" />
    <glyph glyph-name="ugrave" unicode="&#xf9;" 
d="M431 70q-56 -82 -165 -82q-79 0 -133 48t-54 143v350h117v-317q0 -68 27.5 -98t82.5 -30q32 0 60.5 18t46 53t17.5 84v290h117v-529h-112v70h-4zM358 589h-91l-119 157h129z" />
    <glyph glyph-name="uacute" unicode="&#xfa;" 
d="M431 70q-56 -82 -165 -82q-79 0 -133 48t-54 143v350h117v-317q0 -68 27.5 -98t82.5 -30q32 0 60.5 18t46 53t17.5 84v290h117v-529h-112v70h-4zM267 589l81 157h129l-119 -157h-91z" />
    <glyph glyph-name="ucircumflex" unicode="&#xfb;" 
d="M431 70q-56 -82 -165 -82q-79 0 -133 48t-54 143v350h117v-317q0 -68 27.5 -98t82.5 -30q32 0 60.5 18t46 53t17.5 84v290h117v-529h-112v70h-4zM311 676l-68 -87h-117l135 157h103l135 -157h-117l-67 87h-4z" />
    <glyph glyph-name="udieresis" unicode="&#xfc;" 
d="M431 70q-56 -82 -165 -82q-79 0 -133 48t-54 143v350h117v-317q0 -68 27.5 -98t82.5 -30q32 0 60.5 18t46 53t17.5 84v290h117v-529h-112v70h-4zM265 717v-108h-109v108h109zM469 717v-108h-109v108h109z" />
    <glyph glyph-name="yacute" unicode="&#xfd;" horiz-adv-x="584" 
d="M359 0q-31 -83 -62 -125.5t-64 -56.5t-80 -14q-32 0 -72 5v100q30 -6 54 -6q39 0 58 17.5t40 67.5l7 18l-212 523h127l141 -385h4l131 385h125zM247 589l81 157h129l-119 -157h-91z" />
    <glyph glyph-name="thorn" unicode="&#xfe;" horiz-adv-x="643" 
d="M481 506.5q54 -34.5 84 -97t30 -145.5q0 -82 -30.5 -144.5t-84 -97t-121.5 -34.5q-55 0 -95.5 19t-63.5 54h-4v-245h-117v908h117v-256h4q23 35 63.5 54t95.5 19q68 0 122 -34.5zM437.5 129q38.5 49 38.5 135t-38.5 135t-105.5 49q-66 0 -104.5 -49t-38.5 -135t38.5 -135
t104.5 -49q67 0 105.5 49z" />
    <glyph glyph-name="ydieresis" unicode="&#xff;" horiz-adv-x="584" 
d="M359 0q-31 -83 -62 -125.5t-64 -56.5t-80 -14q-32 0 -72 5v100q30 -6 54 -6q39 0 58 17.5t40 67.5l7 18l-212 523h127l141 -385h4l131 385h125zM245 717v-108h-109v108h109zM449 717v-108h-109v108h109z" />
    <glyph glyph-name="Amacron" unicode="&#x100;" horiz-adv-x="778" 
d="M235 183l-66 -183h-135l274 714h163l274 -714h-136l-67 183h-307zM390 603h-4l-115 -319h235zM240 881h299v-82h-299v82z" />
    <glyph glyph-name="amacron" unicode="&#x101;" horiz-adv-x="568" 
d="M546 92v-92q-20 -6 -58 -6q-41 0 -66.5 15t-34.5 48h-4q-25 -34 -70.5 -51.5t-95.5 -17.5q-47 0 -86.5 19t-63 55t-23.5 83q0 82 53 120.5t162 50.5q71 8 96.5 21.5t25.5 39.5q0 73 -96 73q-40 0 -71 -21t-43 -63l-108 21q17 72 77.5 113t147.5 41q108 0 159 -45t51 -120
v-257q0 -18 6.5 -24.5t18.5 -6.5t23 4zM338.5 247.5q-31.5 -7.5 -79.5 -13.5q-43 -6 -69 -27t-26 -59q0 -34 21 -53.5t58 -19.5q33 0 65 14.5t52.5 44t20.5 73.5v59q-11 -11 -42.5 -18.5zM138 707h299v-83h-299v83z" />
    <glyph glyph-name="Abreve" unicode="&#x102;" horiz-adv-x="778" 
d="M235 183l-66 -183h-135l274 714h163l274 -714h-136l-67 183h-307zM390 603h-4l-115 -319h235zM534.5 836.5q-23.5 -36.5 -62 -56t-82.5 -19.5q-45 0 -84 19.5t-62 56t-23 85.5h85q4 -39 28.5 -59t55.5 -20q30 0 54.5 20.5t28.5 58.5h85q0 -49 -23.5 -85.5z" />
    <glyph glyph-name="abreve" unicode="&#x103;" horiz-adv-x="568" 
d="M546 92v-92q-20 -6 -58 -6q-41 0 -66.5 15t-34.5 48h-4q-25 -34 -70.5 -51.5t-95.5 -17.5q-47 0 -86.5 19t-63 55t-23.5 83q0 82 53 120.5t162 50.5q71 8 96.5 21.5t25.5 39.5q0 73 -96 73q-40 0 -71 -21t-43 -63l-108 21q17 72 77.5 113t147.5 41q108 0 159 -45t51 -120
v-257q0 -18 6.5 -24.5t18.5 -6.5t23 4zM338.5 247.5q-31.5 -7.5 -79.5 -13.5q-43 -6 -69 -27t-26 -59q0 -34 21 -53.5t58 -19.5q33 0 65 14.5t52.5 44t20.5 73.5v59q-11 -11 -42.5 -18.5zM432.5 660.5q-23.5 -36.5 -62 -56t-82.5 -19.5q-45 0 -84 19.5t-62 56t-23 85.5h85
q4 -38 28.5 -58t55.5 -20q30 0 54.5 20t28.5 58h85q0 -49 -23.5 -85.5z" />
    <glyph glyph-name="Aogonek" unicode="&#x104;" horiz-adv-x="779" 
d="M759 -146v-73q-25 -7 -70 -7q-58 0 -92.5 26t-34.5 73q0 39 24.5 73t65.5 54h-43l-67 183h-307l-66 -183h-135l274 714h163l274 -714q-91 -54 -91 -113q0 -21 15.5 -31t39.5 -10q27 0 50 8zM390 603h-4l-115 -319h235z" />
    <glyph glyph-name="aogonek" unicode="&#x105;" horiz-adv-x="568" 
d="M559 -146v-73q-25 -7 -70 -7q-58 0 -92.5 26t-34.5 73q0 38 24 71.5t63 53.5q-49 11 -62 59h-4q-25 -34 -70.5 -51.5t-95.5 -17.5q-47 0 -86.5 19t-63 55t-23.5 83q0 82 53 120.5t162 50.5q71 8 96.5 21.5t25.5 39.5q0 73 -96 73q-40 0 -71 -21t-43 -63l-108 21
q17 72 77.5 113t147.5 41q108 0 159 -45t51 -120v-257q0 -18 6.5 -24.5t18.5 -6.5t23 4v-92q-91 -54 -91 -113q0 -21 15 -31t39 -10q27 0 50 8zM338.5 247.5q-31.5 -7.5 -79.5 -13.5q-43 -6 -69 -27t-26 -59q0 -34 21 -53.5t58 -19.5q33 0 65 14.5t52.5 44t20.5 73.5v59
q-11 -11 -42.5 -18.5z" />
    <glyph glyph-name="Cacute" unicode="&#x106;" horiz-adv-x="768" 
d="M661.5 113.5q-40.5 -57.5 -107.5 -93.5t-156 -36q-100 0 -177.5 45.5t-120.5 130t-43 198.5q0 113 43 197.5t120.5 129.5t177.5 45q80 0 143.5 -30t104 -77t57.5 -99l-123 -24q-21 56 -67.5 91t-114.5 35q-98 0 -155.5 -70t-57.5 -198q0 -129 57.5 -199.5t155.5 -70.5
q79 0 126.5 46.5t64.5 118.5l126 -17q-13 -65 -53.5 -122.5zM352 766l81 157h129l-119 -157h-91z" />
    <glyph glyph-name="cacute" unicode="&#x107;" horiz-adv-x="591" 
d="M390.5 112.5q29.5 32.5 40.5 76.5l119 -16q-20 -74 -79.5 -129.5t-167.5 -55.5q-77 0 -135 34t-89.5 96.5t-31.5 145.5t31.5 146t89.5 97t135 34q104 0 160.5 -50t76.5 -107l-111 -32q-34 97 -126 97q-63 0 -99.5 -49t-36.5 -136t36.5 -135.5t99.5 -48.5q58 0 87.5 32.5z
M257 589l81 157h129l-119 -157h-91z" />
    <glyph glyph-name="Ccircumflex" unicode="&#x108;" horiz-adv-x="768" 
d="M661.5 113.5q-40.5 -57.5 -107.5 -93.5t-156 -36q-100 0 -177.5 45.5t-120.5 130t-43 198.5q0 113 43 197.5t120.5 129.5t177.5 45q80 0 143.5 -30t104 -77t57.5 -99l-123 -24q-21 56 -67.5 91t-114.5 35q-98 0 -155.5 -70t-57.5 -198q0 -129 57.5 -199.5t155.5 -70.5
q79 0 126.5 46.5t64.5 118.5l126 -17q-13 -65 -53.5 -122.5zM396 849l-68 -86h-117l135 157h103l135 -157h-117l-67 86h-4z" />
    <glyph glyph-name="ccircumflex" unicode="&#x109;" horiz-adv-x="591" 
d="M390.5 112.5q29.5 32.5 40.5 76.5l119 -16q-20 -74 -79.5 -129.5t-167.5 -55.5q-77 0 -135 34t-89.5 96.5t-31.5 145.5t31.5 146t89.5 97t135 34q104 0 160.5 -50t76.5 -107l-111 -32q-34 97 -126 97q-63 0 -99.5 -49t-36.5 -136t36.5 -135.5t99.5 -48.5q58 0 87.5 32.5z
M301 676l-68 -87h-117l135 157h103l135 -157h-117l-67 87h-4z" />
    <glyph glyph-name="Cdotaccent" unicode="&#x10a;" horiz-adv-x="768" 
d="M661.5 113.5q-40.5 -57.5 -107.5 -93.5t-156 -36q-100 0 -177.5 45.5t-120.5 130t-43 198.5q0 113 43 197.5t120.5 129.5t177.5 45q80 0 143.5 -30t104 -77t57.5 -99l-123 -24q-21 56 -67.5 91t-114.5 35q-98 0 -155.5 -70t-57.5 -198q0 -129 57.5 -199.5t155.5 -70.5
q79 0 126.5 46.5t64.5 118.5l126 -17q-13 -65 -53.5 -122.5zM456 901v-115h-117v115h117z" />
    <glyph glyph-name="cdotaccent" unicode="&#x10b;" horiz-adv-x="591" 
d="M390.5 112.5q29.5 32.5 40.5 76.5l119 -16q-20 -74 -79.5 -129.5t-167.5 -55.5q-77 0 -135 34t-89.5 96.5t-31.5 145.5t31.5 146t89.5 97t135 34q104 0 160.5 -50t76.5 -107l-111 -32q-34 97 -126 97q-63 0 -99.5 -49t-36.5 -136t36.5 -135.5t99.5 -48.5q58 0 87.5 32.5z
M361 724v-115h-117v115h117z" />
    <glyph glyph-name="Ccaron" unicode="&#x10c;" horiz-adv-x="768" 
d="M661.5 113.5q-40.5 -57.5 -107.5 -93.5t-156 -36q-100 0 -177.5 45.5t-120.5 130t-43 198.5q0 113 43 197.5t120.5 129.5t177.5 45q80 0 143.5 -30t104 -77t57.5 -99l-123 -24q-21 56 -67.5 91t-114.5 35q-98 0 -155.5 -70t-57.5 -198q0 -129 57.5 -199.5t155.5 -70.5
q79 0 126.5 46.5t64.5 118.5l126 -17q-13 -65 -53.5 -122.5zM449 764h-103l-135 158h117l68 -87h4l67 87h117z" />
    <glyph glyph-name="ccaron" unicode="&#x10d;" horiz-adv-x="591" 
d="M390.5 112.5q29.5 32.5 40.5 76.5l119 -16q-20 -74 -79.5 -129.5t-167.5 -55.5q-77 0 -135 34t-89.5 96.5t-31.5 145.5t31.5 146t89.5 97t135 34q104 0 160.5 -50t76.5 -107l-111 -32q-34 97 -126 97q-63 0 -99.5 -49t-36.5 -136t36.5 -135.5t99.5 -48.5q58 0 87.5 32.5z
M354 589h-103l-135 157h117l68 -87h4l67 87h117z" />
    <glyph glyph-name="Dcaron" unicode="&#x10e;" horiz-adv-x="766" 
d="M616 623q93 -91 93 -266t-93 -266t-253 -91h-276v714h276q160 0 253 -91zM520 167q61 64 61 190t-61 190t-174 64h-133v-508h133q113 0 174 64zM402 764h-103l-135 158h117l68 -87h4l67 87h117z" />
    <glyph glyph-name="dcaron" unicode="&#x10f;" horiz-adv-x="760" 
d="M379.5 521.5q41.5 -19.5 62.5 -53.5h4v256h117v-724h-111v68h-4q-22 -38 -65 -59t-98 -21q-69 0 -123 34.5t-84.5 97t-30.5 144.5q0 83 30.5 145.5t84.5 97t122 34.5q54 0 95.5 -19.5zM730 531.5q-30 -38.5 -87 -39.5v52q20 1 33.5 18t13.5 47h-47v115h117v-85
q0 -69 -30 -107.5zM414.5 129q38.5 49 38.5 135t-38.5 135t-103.5 49q-67 0 -105.5 -49t-38.5 -135t38.5 -135t105.5 -49q65 0 103.5 49z" />
    <glyph glyph-name="Dcroat" unicode="&#x110;" horiz-adv-x="765" 
d="M615 623q93 -91 93 -266t-93 -266t-253 -91h-276v310h-70v95h70v309h276q160 0 253 -91zM519 167q61 64 61 190t-61 190t-174 64h-133v-206h152v-95h-152v-207h133q113 0 174 64z" />
    <glyph glyph-name="dcroat" unicode="&#x111;" horiz-adv-x="642" 
d="M618 591h-55v-591h-111v68h-4q-22 -38 -65 -59t-98 -21q-69 0 -123 34.5t-84.5 97t-30.5 144.5q0 83 30.5 145.5t84.5 97t122 34.5q54 0 95.5 -19.5t62.5 -53.5h4v123h-100v76h100v57h117v-57h55v-76zM414.5 129q38.5 49 38.5 135t-38.5 135t-103.5 49q-67 0 -105.5 -49
t-38.5 -135t38.5 -135t105.5 -49q65 0 103.5 49z" />
    <glyph glyph-name="Emacron" unicode="&#x112;" horiz-adv-x="661" 
d="M577 418v-101h-364v-211h380v-106h-506v714h506v-103h-380v-193h364zM190 881h299v-82h-299v82z" />
    <glyph glyph-name="emacron" unicode="&#x113;" horiz-adv-x="604" 
d="M471 37q-60 -49 -169 -49q-76 0 -134 34.5t-89.5 96.5t-31.5 144q0 84 31 146.5t88.5 97t135.5 34.5q75 0 132.5 -32t90 -93.5t32.5 -146.5q0 -10 -2 -32h-389q2 -71 39 -115.5t97 -44.5q57 0 88 27.5t43 63.5l119 -13q-21 -69 -81 -118zM208.5 414.5
q-34.5 -37.5 -40.5 -93.5h268q-5 56 -39.5 93.5t-94.5 37.5q-59 0 -93.5 -37.5zM152 707h299v-83h-299v83z" />
    <glyph glyph-name="Ebreve" unicode="&#x114;" horiz-adv-x="661" 
d="M577 418v-101h-364v-211h380v-106h-506v714h506v-103h-380v-193h364zM485.5 836.5q-23.5 -36.5 -62 -56t-82.5 -19.5q-45 0 -84 19.5t-62 56t-23 85.5h85q4 -39 28.5 -59t55.5 -20q30 0 54.5 20.5t28.5 58.5h85q0 -49 -23.5 -85.5z" />
    <glyph glyph-name="ebreve" unicode="&#x115;" horiz-adv-x="604" 
d="M471 37q-60 -49 -169 -49q-76 0 -134 34.5t-89.5 96.5t-31.5 144q0 84 31 146.5t88.5 97t135.5 34.5q75 0 132.5 -32t90 -93.5t32.5 -146.5q0 -10 -2 -32h-389q2 -71 39 -115.5t97 -44.5q57 0 88 27.5t43 63.5l119 -13q-21 -69 -81 -118zM208.5 414.5
q-34.5 -37.5 -40.5 -93.5h268q-5 56 -39.5 93.5t-94.5 37.5q-59 0 -93.5 -37.5zM446.5 660.5q-23.5 -36.5 -62 -56t-82.5 -19.5q-45 0 -84 19.5t-62 56t-23 85.5h85q4 -38 28.5 -58t55.5 -20q30 0 54.5 20t28.5 58h85q0 -49 -23.5 -85.5z" />
    <glyph glyph-name="Edotaccent" unicode="&#x116;" horiz-adv-x="661" 
d="M577 418v-101h-364v-211h380v-106h-506v714h506v-103h-380v-193h364zM398 901v-115h-117v115h117z" />
    <glyph glyph-name="edotaccent" unicode="&#x117;" horiz-adv-x="604" 
d="M471 37q-60 -49 -169 -49q-76 0 -134 34.5t-89.5 96.5t-31.5 144q0 84 31 146.5t88.5 97t135.5 34.5q75 0 132.5 -32t90 -93.5t32.5 -146.5q0 -10 -2 -32h-389q2 -71 39 -115.5t97 -44.5q57 0 88 27.5t43 63.5l119 -13q-21 -69 -81 -118zM208.5 414.5
q-34.5 -37.5 -40.5 -93.5h268q-5 56 -39.5 93.5t-94.5 37.5q-59 0 -93.5 -37.5zM360 724v-115h-117v115h117z" />
    <glyph glyph-name="Eogonek" unicode="&#x118;" horiz-adv-x="676" 
d="M608 -146v-73q-25 -7 -70 -7q-58 0 -92.5 26t-34.5 73q0 39 24.5 73t65.5 54h-413v714h506v-103h-380v-193h364v-101h-364v-211h380v-106q-91 -54 -91 -113q0 -21 15.5 -31t39.5 -10q27 0 50 8z" />
    <glyph glyph-name="eogonek" unicode="&#x119;" horiz-adv-x="605" 
d="M434.5 509q57.5 -32 90 -93.5t32.5 -146.5q0 -10 -2 -32h-389q2 -71 39 -115.5t97 -44.5q57 0 88 27.5t43 63.5l119 -13q-26 -84 -97 -129q-63 -38 -96.5 -69.5t-33.5 -69.5q0 -20 15.5 -30.5t39.5 -10.5q27 0 50 8v-73q-25 -7 -70 -7q-58 0 -92.5 26t-34.5 73
q0 34 18.5 64t50.5 51q-77 0 -134.5 34.5t-89 96.5t-31.5 144q0 84 31 146.5t88.5 97t135.5 34.5q75 0 132.5 -32zM396.5 414.5q-34.5 37.5 -94.5 37.5q-59 0 -93.5 -37.5t-40.5 -93.5h268q-5 56 -39.5 93.5z" />
    <glyph glyph-name="Ecaron" unicode="&#x11a;" horiz-adv-x="661" 
d="M577 418v-101h-364v-211h380v-106h-506v714h506v-103h-380v-193h364zM392 764h-103l-135 158h117l68 -87h4l67 87h117z" />
    <glyph glyph-name="ecaron" unicode="&#x11b;" horiz-adv-x="604" 
d="M471 37q-60 -49 -169 -49q-76 0 -134 34.5t-89.5 96.5t-31.5 144q0 84 31 146.5t88.5 97t135.5 34.5q75 0 132.5 -32t90 -93.5t32.5 -146.5q0 -10 -2 -32h-389q2 -71 39 -115.5t97 -44.5q57 0 88 27.5t43 63.5l119 -13q-21 -69 -81 -118zM208.5 414.5
q-34.5 -37.5 -40.5 -93.5h268q-5 56 -39.5 93.5t-94.5 37.5q-59 0 -93.5 -37.5zM353 589h-103l-135 157h117l68 -87h4l67 87h117z" />
    <glyph glyph-name="Gcircumflex" unicode="&#x11c;" horiz-adv-x="780" 
d="M621 0v85q-35 -48 -90 -74.5t-129 -26.5q-101 0 -179 46.5t-122 131.5t-44 196q0 110 44 194.5t122 131t179 46.5q113 0 197 -58.5t119 -158.5l-127 -15q-25 62 -73 95t-116 33q-65 0 -114 -32t-76 -92.5t-27 -143.5q0 -127 59 -198.5t158 -71.5q58 0 103 24.5t70 65
t28 88.5h-188v101h303v-367h-97zM400 849l-68 -86h-117l135 157h103l135 -157h-117l-67 86h-4z" />
    <glyph glyph-name="gcircumflex" unicode="&#x11d;" horiz-adv-x="624" 
d="M555 38q0 -121 -69.5 -177.5t-183.5 -56.5q-93 0 -158.5 41.5t-89.5 128.5l114 19q14 -51 47.5 -74t86.5 -23q136 0 136 147v51h-4q-22 -31 -61.5 -48.5t-92.5 -17.5q-67 0 -120 32t-82.5 90t-29.5 134t29.5 134.5t82.5 90.5t121 32q54 0 95 -19t63 -55h4v62h112v-491z
M407.5 163.5q37.5 45.5 37.5 120.5q0 74 -37.5 119t-100.5 45q-64 0 -102 -45t-38 -119q0 -75 38 -120.5t102 -45.5q63 0 100.5 45.5zM300 676l-68 -87h-117l135 157h103l135 -157h-117l-67 87h-4z" />
    <glyph glyph-name="Gbreve" unicode="&#x11e;" horiz-adv-x="780" 
d="M621 0v85q-35 -48 -90 -74.5t-129 -26.5q-101 0 -179 46.5t-122 131.5t-44 196q0 110 44 194.5t122 131t179 46.5q113 0 197 -58.5t119 -158.5l-127 -15q-25 62 -73 95t-116 33q-65 0 -114 -32t-76 -92.5t-27 -143.5q0 -127 59 -198.5t158 -71.5q58 0 103 24.5t70 65
t28 88.5h-188v101h303v-367h-97zM546.5 836.5q-23.5 -36.5 -62 -56t-82.5 -19.5q-45 0 -84 19.5t-62 56t-23 85.5h85q4 -39 28.5 -59t55.5 -20q30 0 54.5 20.5t28.5 58.5h85q0 -49 -23.5 -85.5z" />
    <glyph glyph-name="gbreve" unicode="&#x11f;" horiz-adv-x="624" 
d="M555 38q0 -121 -69.5 -177.5t-183.5 -56.5q-93 0 -158.5 41.5t-89.5 128.5l114 19q14 -51 47.5 -74t86.5 -23q136 0 136 147v51h-4q-22 -31 -61.5 -48.5t-92.5 -17.5q-67 0 -120 32t-82.5 90t-29.5 134t29.5 134.5t82.5 90.5t121 32q54 0 95 -19t63 -55h4v62h112v-491z
M407.5 163.5q37.5 45.5 37.5 120.5q0 74 -37.5 119t-100.5 45q-64 0 -102 -45t-38 -119q0 -75 38 -120.5t102 -45.5q63 0 100.5 45.5zM446.5 660.5q-23.5 -36.5 -62 -56t-82.5 -19.5q-45 0 -84 19.5t-62 56t-23 85.5h85q4 -38 28.5 -58t55.5 -20q30 0 54.5 20t28.5 58h85
q0 -49 -23.5 -85.5z" />
    <glyph glyph-name="Gdotaccent" unicode="&#x120;" horiz-adv-x="780" 
d="M621 0v85q-35 -48 -90 -74.5t-129 -26.5q-101 0 -179 46.5t-122 131.5t-44 196q0 110 44 194.5t122 131t179 46.5q113 0 197 -58.5t119 -158.5l-127 -15q-25 62 -73 95t-116 33q-65 0 -114 -32t-76 -92.5t-27 -143.5q0 -127 59 -198.5t158 -71.5q58 0 103 24.5t70 65
t28 88.5h-188v101h303v-367h-97zM460 901v-115h-117v115h117z" />
    <glyph glyph-name="gdotaccent" unicode="&#x121;" horiz-adv-x="624" 
d="M555 38q0 -121 -69.5 -177.5t-183.5 -56.5q-93 0 -158.5 41.5t-89.5 128.5l114 19q14 -51 47.5 -74t86.5 -23q136 0 136 147v51h-4q-22 -31 -61.5 -48.5t-92.5 -17.5q-67 0 -120 32t-82.5 90t-29.5 134t29.5 134.5t82.5 90.5t121 32q54 0 95 -19t63 -55h4v62h112v-491z
M407.5 163.5q37.5 45.5 37.5 120.5q0 74 -37.5 119t-100.5 45q-64 0 -102 -45t-38 -119q0 -75 38 -120.5t102 -45.5q63 0 100.5 45.5zM360 724v-115h-117v115h117z" />
    <glyph glyph-name="Gcommaaccent" unicode="&#x122;" horiz-adv-x="780" 
d="M621 0v85q-35 -48 -90 -74.5t-129 -26.5q-101 0 -179 46.5t-122 131.5t-44 196q0 110 44 194.5t122 131t179 46.5q113 0 197 -58.5t119 -158.5l-127 -15q-25 62 -73 95t-116 33q-65 0 -114 -32t-76 -92.5t-27 -143.5q0 -127 59 -198.5t158 -71.5q58 0 103 24.5t70 65
t28 88.5h-188v101h303v-367h-97zM431 -252.5q-30 -38.5 -88 -39.5v51q20 1 33.5 18.5t13.5 47.5h-47v115h118v-86q0 -68 -30 -106.5z" />
    <glyph glyph-name="gcommaaccent" unicode="&#x123;" horiz-adv-x="624" 
d="M555 38q0 -121 -69.5 -177.5t-183.5 -56.5q-93 0 -158.5 41.5t-89.5 128.5l114 19q14 -51 47.5 -74t86.5 -23q136 0 136 147v51h-4q-22 -31 -61.5 -48.5t-92.5 -17.5q-67 0 -120 32t-82.5 90t-29.5 134t29.5 134.5t82.5 90.5t121 32q54 0 95 -19t63 -55h4v62h112v-491z
M407.5 163.5q37.5 45.5 37.5 120.5q0 74 -37.5 119t-100.5 45q-64 0 -102 -45t-38 -119q0 -75 38 -120.5t102 -45.5q63 0 100.5 45.5zM273 781.5q30 38.5 88 39.5v-51q-20 -1 -33.5 -18.5t-13.5 -47.5h47v-115h-118v86q0 68 30 106.5z" />
    <glyph glyph-name="Hcircumflex" unicode="&#x124;" horiz-adv-x="769" 
d="M683 0h-126v310h-344v-310h-126v714h126v-300h344v300h126v-714zM386 849l-68 -86h-117l135 157h103l135 -157h-117l-67 86h-4z" />
    <glyph glyph-name="hcircumflex" unicode="&#x125;" 
d="M200 459q60 82 163 82q49 0 91 -20.5t67.5 -64t25.5 -107.5v-349h-117v317q0 68 -27.5 97.5t-82.5 29.5q-32 0 -60.5 -20t-46 -57t-17.5 -86v-281h-117v724h117v-265h4zM311 859l-68 -86h-117l135 157h103l135 -157h-117l-67 86h-4z" />
    <glyph glyph-name="Hbar" unicode="&#x126;" horiz-adv-x="766" 
d="M682 512v-512h-126v310h-344v-310h-126v512h-70v90h70v112h126v-112h344v112h126v-112h68v-90h-68zM212 512v-98h344v98h-344z" />
    <glyph glyph-name="hbar" unicode="&#x127;" 
d="M454 520.5q42 -20.5 67.5 -64t25.5 -107.5v-349h-117v317q0 68 -27.5 97.5t-82.5 29.5q-32 0 -60.5 -20t-46 -57t-17.5 -86v-281h-117v591h-54v76h54v57h117v-57h101v-76h-101v-132h4q59 82 163 82q49 0 91 -20.5z" />
    <glyph glyph-name="Itilde" unicode="&#x128;" horiz-adv-x="300" 
d="M87 714h126v-714h-126v714zM215 859q-15 0 -40 17l-23 15q-18 11 -31 17t-30 6q-45 0 -75 -28t-39 -86l70 -14q9 44 38 44q15 0 39 -16l24 -16q17 -11 30 -16.5t30 -5.5q45 0 75 27.5t39 85.5l-70 14q-8 -44 -37 -44z" />
    <glyph glyph-name="itilde" unicode="&#x129;" horiz-adv-x="269" 
d="M193 529v-529h-117v529h117zM200 693q-9 0 -19.5 5.5t-20.5 11.5l-23 15q-18 11 -31 17t-30 6q-45 0 -75 -27.5t-39 -85.5l70 -14q9 44 38 44q9 0 17.5 -4t21.5 -13l24 -15q16 -11 29.5 -17t30.5 -6q45 0 75 27.5t39 86.5l-70 13q-8 -44 -37 -44z" />
    <glyph glyph-name="Imacron" unicode="&#x12a;" horiz-adv-x="300" 
d="M87 714h126v-714h-126v714zM0 881h299v-82h-299v82z" />
    <glyph glyph-name="imacron" unicode="&#x12b;" horiz-adv-x="269" 
d="M193 529v-529h-117v529h117zM-15 707h299v-83h-299v83z" />
    <glyph glyph-name="Ibreve" unicode="&#x12c;" horiz-adv-x="300" 
d="M87 714h126v-714h-126v714zM294.5 836.5q-23.5 -36.5 -62 -56t-82.5 -19.5q-45 0 -84 19.5t-62 56t-23 85.5h85q4 -39 28.5 -59t55.5 -20q30 0 54.5 20.5t28.5 58.5h85q0 -49 -23.5 -85.5z" />
    <glyph glyph-name="ibreve" unicode="&#x12d;" horiz-adv-x="269" 
d="M193 529v-529h-117v529h117zM279.5 660.5q-23.5 -36.5 -62 -56t-82.5 -19.5q-45 0 -84 19.5t-62 56t-23 85.5h85q4 -38 28.5 -58t55.5 -20q30 0 54.5 20t28.5 58h85q0 -49 -23.5 -85.5z" />
    <glyph glyph-name="Iogonek" unicode="&#x12e;" horiz-adv-x="301" 
d="M126 -113q0 -21 15.5 -31t39.5 -10q26 0 50 7v-72q-25 -7 -70 -7q-58 0 -92.5 26t-34.5 73q0 39 24.5 73t65.5 54h-33v714h126v-714q-91 -54 -91 -113z" />
    <glyph glyph-name="iogonek" unicode="&#x12f;" horiz-adv-x="268" 
d="M62 609v115h117v-115h-117zM123 -226q-58 0 -92.5 26t-34.5 73q0 39 24.5 73t65.5 54h-24v529h117v-529q-91 -54 -91 -113q0 -21 15.5 -31t39.5 -10q26 0 50 7v-72q-25 -7 -70 -7z" />
    <glyph glyph-name="Idotaccent" unicode="&#x130;" horiz-adv-x="300" 
d="M87 714h126v-714h-126v714zM208 901v-115h-117v115h117z" />
    <glyph glyph-name="dotlessi" unicode="&#x131;" horiz-adv-x="269" 
d="M193 529v-529h-117v529h117z" />
    <glyph glyph-name="IJ" unicode="&#x132;" horiz-adv-x="961" 
d="M87 714h126v-714h-126v714zM802.5 47q-72.5 -63 -193.5 -63q-113 0 -184.5 64t-84.5 185q-1 7 -1 20q0 9 1 13l119 11l-1 -15l1 -15q9 -83 47 -120t103 -37q70 0 104.5 37t34.5 120v467h127v-476q0 -128 -72.5 -191z" />
    <glyph glyph-name="ij" unicode="&#x133;" horiz-adv-x="538" 
d="M193 724v-115h-117v115h117zM462 724v-115h-117v115h117zM193 529v-529h-117v529h117zM334 -89q11 8 11 29v589h117v-605q0 -67 -32 -93.5t-97 -26.5q-21 0 -43.5 4t-31.5 8v94q18 -7 45 -7q20 0 31 8z" />
    <glyph glyph-name="Jcircumflex" unicode="&#x134;" horiz-adv-x="661" 
d="M502.5 47q-72.5 -63 -193.5 -63q-113 0 -184.5 64t-84.5 185q-1 7 -1 20q0 9 1 13l119 11l-1 -15l1 -15q9 -83 47 -120t103 -37q70 0 104.5 37t34.5 120v467h127v-476q0 -128 -72.5 -191zM510 849l-68 -86h-117l135 157h103l135 -157h-117l-67 86h-4z" />
    <glyph glyph-name="jcircumflex" unicode="&#x135;" horiz-adv-x="269" 
d="M65 -89q11 8 11 29v589h117v-605q0 -67 -32 -93.5t-97 -26.5q-21 0 -43.5 4t-31.5 8v94q17 -7 45 -7q20 0 31 8zM133 676l-68 -87h-117l135 157h103l135 -157h-117l-67 87h-4z" />
    <glyph glyph-name="Kcommaaccent" unicode="&#x136;" horiz-adv-x="721" 
d="M214 258v-258h-126v714h126v-312l290 312h149l-255 -271l298 -443h-152l-236 357zM407 -252.5q-30 -38.5 -88 -39.5v51q20 1 33.5 18.5t13.5 47.5h-47v115h118v-86q0 -68 -30 -106.5z" />
    <glyph glyph-name="kcommaaccent" unicode="&#x137;" horiz-adv-x="585" 
d="M196 0h-117v724h117v-405l205 210h142l-203 -203l226 -326h-138l-169 249l-63 -61v-188zM341 -252.5q-30 -38.5 -88 -39.5v51q20 1 33.5 18.5t13.5 47.5h-47v115h118v-86q0 -68 -30 -106.5z" />
    <glyph glyph-name="kgreenlandic" unicode="&#x138;" horiz-adv-x="585" 
d="M196 0h-117v529h117v-210l205 210h142l-203 -203l226 -326h-138l-169 249l-63 -61v-188z" />
    <glyph glyph-name="Lacute" unicode="&#x139;" horiz-adv-x="647" 
d="M87 714h126v-606h385v-108h-511v714zM104 766l81 157h129l-119 -157h-91z" />
    <glyph glyph-name="lacute" unicode="&#x13a;" horiz-adv-x="276" 
d="M196 724v-724h-117v724h117zM92 776l81 157h129l-119 -157h-91z" />
    <glyph glyph-name="Lcommaaccent" unicode="&#x13b;" horiz-adv-x="647" 
d="M87 714h126v-606h385v-108h-511v714zM371 -252.5q-30 -38.5 -88 -39.5v51q20 1 33.5 18.5t13.5 47.5h-47v115h118v-86q0 -68 -30 -106.5z" />
    <glyph glyph-name="lcommaaccent" unicode="&#x13c;" horiz-adv-x="276" 
d="M196 724v-724h-117v724h117zM166 -252.5q-30 -38.5 -88 -39.5v51q20 1 33.5 18.5t13.5 47.5h-47v115h118v-86q0 -68 -30 -106.5z" />
    <glyph glyph-name="Lcaron" unicode="&#x13d;" horiz-adv-x="647" 
d="M87 714h126v-606h385v-108h-511v714zM201 764h-103l-135 158h117l68 -87h4l67 87h117z" />
    <glyph glyph-name="lcaron" unicode="&#x13e;" horiz-adv-x="276" 
d="M196 724v-724h-117v724h117zM189 784h-103l-135 157h117l68 -87h4l67 87h117z" />
    <glyph glyph-name="Ldot" unicode="&#x13f;" horiz-adv-x="647" 
d="M87 714h126v-606h385v-108h-511v714zM384.115 341.14q-23.1943 23.1943 -23.1943 56.752q0 32.5713 23.1943 56.2588q23.1943 23.6885 56.7529 23.6885q33.5576 0 56.752 -23.6885q23.1943 -23.6875 23.1943 -56.2588q0 -33.5576 -23.1943 -56.752t-56.752 -23.1943
q-33.5586 0 -56.7529 23.1943z" />
    <glyph glyph-name="ldot" unicode="&#x140;" horiz-adv-x="453" 
d="M196 724v-724h-117v724h117zM293 310q-23 23 -23 56t23 56.5t56 23.5t56.5 -24t23.5 -56q0 -33 -23.5 -56t-56.5 -23t-56 23z" />
    <glyph glyph-name="Lslash" unicode="&#x141;" horiz-adv-x="646" 
d="M597 0h-511v236l-70 -43v106l70 42v373h126v-297l174 105v-104l-174 -105v-205h385v-108z" />
    <glyph glyph-name="lslash" unicode="&#x142;" horiz-adv-x="280" 
d="M259 384l-60 -37v-347h-118v276l-60 -37v105l60 37v343h118v-272l60 36v-104z" />
    <glyph glyph-name="Nacute" unicode="&#x143;" horiz-adv-x="774" 
d="M551 0l-344 540h-4v-540h-116v714h141l340 -531h4v531h116v-714h-137zM342 766l81 157h129l-119 -157h-91z" />
    <glyph glyph-name="nacute" unicode="&#x144;" 
d="M195 459q57 82 165 82q79 0 133 -48.5t54 -143.5v-349h-117v317q0 68 -27.5 97.5t-82.5 29.5q-33 0 -61 -18t-45.5 -53t-17.5 -84v-289h-117v529h112v-70h4zM267 589l81 157h129l-119 -157h-91z" />
    <glyph glyph-name="Ncommaaccent" unicode="&#x145;" horiz-adv-x="774" 
d="M551 0l-344 540h-4v-540h-116v714h141l340 -531h4v531h116v-714h-137zM416 -252.5q-30 -38.5 -88 -39.5v51q20 1 33.5 18.5t13.5 47.5h-47v115h118v-86q0 -68 -30 -106.5z" />
    <glyph glyph-name="ncommaaccent" unicode="&#x146;" 
d="M195 459q57 82 165 82q79 0 133 -48.5t54 -143.5v-349h-117v317q0 68 -27.5 97.5t-82.5 29.5q-33 0 -61 -18t-45.5 -53t-17.5 -84v-289h-117v529h112v-70h4zM342 -252.5q-30 -38.5 -88 -39.5v51q20 1 33.5 18.5t13.5 47.5h-47v115h118v-86q0 -68 -30 -106.5z" />
    <glyph glyph-name="Ncaron" unicode="&#x147;" horiz-adv-x="774" 
d="M551 0l-344 540h-4v-540h-116v714h141l340 -531h4v531h116v-714h-137zM439 764h-103l-135 158h117l68 -87h4l67 87h117z" />
    <glyph glyph-name="ncaron" unicode="&#x148;" 
d="M195 459q57 82 165 82q79 0 133 -48.5t54 -143.5v-349h-117v317q0 68 -27.5 97.5t-82.5 29.5q-33 0 -61 -18t-45.5 -53t-17.5 -84v-289h-117v529h112v-70h4zM364 589h-103l-135 157h117l68 -87h4l67 87h117z" />
    <glyph glyph-name="napostrophe" unicode="&#x149;" horiz-adv-x="674" 
d="M87.5 531.5q-29.5 -38.5 -87.5 -39.5v52q20 1 33.5 18t13.5 47h-47v115h117v-85q0 -69 -29.5 -107.5zM253 459q57 82 165 82q79 0 132.5 -48.5t53.5 -143.5v-349h-117v318q0 68 -27.5 98t-82.5 30q-32 0 -60.5 -18t-45.5 -53t-17 -84v-291h-117v529h112v-70h4z" />
    <glyph glyph-name="Eng" unicode="&#x14a;" horiz-adv-x="774" 
d="M688 -21q0 -84 -61 -129.5t-158 -45.5q-64 0 -114 22.5t-77.5 62t-28.5 89.5l118 1q3 -33 30 -55.5t72 -22.5q49 0 74.5 24.5t25.5 59.5v15l-362 540h-4v-540h-116v714h137l344 -513h4v513h116v-735z" />
    <glyph glyph-name="eng" unicode="&#x14b;" 
d="M493 492.5q54 -48.5 54 -143.5v-425q0 -67 -32 -93.5t-98 -26.5q-21 0 -43 4t-31 8v94q7 -3 20 -5t25 -2q20 0 31 8t11 29v377q0 68 -27.5 97.5t-82.5 29.5q-33 0 -61 -18t-45.5 -53t-17.5 -84v-289h-117v529h112v-70h4q57 82 165 82q79 0 133 -48.5z" />
    <glyph glyph-name="Omacron" unicode="&#x14c;" horiz-adv-x="801" 
d="M580.5 685q77.5 -45 120.5 -129.5t43 -198.5t-43 -198.5t-120.5 -129.5t-179.5 -45t-180 45t-121 129.5t-43 198.5t43 198.5t121 129.5t180 45t179.5 -45zM558 158.5q58 70.5 58 198.5t-58 198.5t-157 70.5t-157.5 -70.5t-58.5 -198.5t58.5 -198.5t157.5 -70.5t157 70.5z
M251 881h299v-82h-299v82z" />
    <glyph glyph-name="omacron" unicode="&#x14d;" horiz-adv-x="618" 
d="M447.5 507q59.5 -34 91.5 -97t32 -146t-32 -145.5t-91.5 -96.5t-138.5 -34t-138.5 34t-91.5 96.5t-32 145.5t32 146t91.5 97t138.5 34t138.5 -34zM413 128.5q38 48.5 38 135.5t-38 136t-104 49t-104 -49t-38 -136t38 -135.5t104 -48.5t104 48.5zM160 707h299v-83h-299v83
z" />
    <glyph glyph-name="Obreve" unicode="&#x14e;" horiz-adv-x="801" 
d="M580.5 685q77.5 -45 120.5 -129.5t43 -198.5t-43 -198.5t-120.5 -129.5t-179.5 -45t-180 45t-121 129.5t-43 198.5t43 198.5t121 129.5t180 45t179.5 -45zM558 158.5q58 70.5 58 198.5t-58 198.5t-157 70.5t-157.5 -70.5t-58.5 -198.5t58.5 -198.5t157.5 -70.5t157 70.5z
M545.5 836.5q-23.5 -36.5 -62 -56t-82.5 -19.5q-45 0 -84 19.5t-62 56t-23 85.5h85q4 -39 28.5 -59t55.5 -20q30 0 54.5 20.5t28.5 58.5h85q0 -49 -23.5 -85.5z" />
    <glyph glyph-name="obreve" unicode="&#x14f;" horiz-adv-x="618" 
d="M447.5 507q59.5 -34 91.5 -97t32 -146t-32 -145.5t-91.5 -96.5t-138.5 -34t-138.5 34t-91.5 96.5t-32 145.5t32 146t91.5 97t138.5 34t138.5 -34zM413 128.5q38 48.5 38 135.5t-38 136t-104 49t-104 -49t-38 -136t38 -135.5t104 -48.5t104 48.5zM454.5 660.5
q-23.5 -36.5 -62 -56t-82.5 -19.5q-45 0 -84 19.5t-62 56t-23 85.5h85q4 -38 28.5 -58t55.5 -20q30 0 54.5 20t28.5 58h85q0 -49 -23.5 -85.5z" />
    <glyph glyph-name="Ohungarumlaut" unicode="&#x150;" horiz-adv-x="801" 
d="M580.5 685q77.5 -45 120.5 -129.5t43 -198.5t-43 -198.5t-120.5 -129.5t-179.5 -45t-180 45t-121 129.5t-43 198.5t43 198.5t121 129.5t180 45t179.5 -45zM558 158.5q58 70.5 58 198.5t-58 198.5t-157 70.5t-157.5 -70.5t-58.5 -198.5t58.5 -198.5t157.5 -70.5t157 70.5z
M440 766l56 157h113l-89 -157h-80zM281 766l57 157h112l-88 -157h-81z" />
    <glyph glyph-name="ohungarumlaut" unicode="&#x151;" horiz-adv-x="618" 
d="M447.5 507q59.5 -34 91.5 -97t32 -146t-32 -145.5t-91.5 -96.5t-138.5 -34t-138.5 34t-91.5 96.5t-32 145.5t32 146t91.5 97t138.5 34t138.5 -34zM413 128.5q38 48.5 38 135.5t-38 136t-104 49t-104 -49t-38 -136t38 -135.5t104 -48.5t104 48.5zM349 589l56 157h113
l-89 -157h-80zM190 589l57 157h112l-88 -157h-81z" />
    <glyph glyph-name="OE" unicode="&#x152;" horiz-adv-x="1173" 
d="M738 418h350v-103h-350v-209h368v-106h-489v86h-4q-77 -102 -228 -102q-96 0 -170.5 45t-116 129.5t-41.5 198.5t41.5 198.5t116 129.5t170.5 45q151 0 228 -102h4v86h489v-105h-368v-191zM558.5 158.5q58.5 70.5 58.5 198.5t-58.5 198.5t-157.5 70.5t-157.5 -70.5
t-58.5 -198.5t58.5 -198.5t157.5 -70.5t157.5 70.5z" />
    <glyph glyph-name="oe" unicode="&#x153;" horiz-adv-x="1007" 
d="M874.5 37q-59.5 -49 -168.5 -49q-67 0 -116 26.5t-79 75.5q-30 -49 -81.5 -75.5t-120.5 -26.5q-79 0 -138.5 34t-91.5 96.5t-32 145.5t32 146t91.5 97t138.5 34q68 0 119 -26.5t82 -75.5q30 49 79 75.5t116 26.5q75 0 132.5 -32t90 -93.5t32.5 -146.5l-1 -32h-389
q2 -70 39 -115t97 -45q57 0 87.5 27.5t42.5 63.5l119 -13q-21 -69 -80.5 -118zM799.5 414.5q-34.5 37.5 -94.5 37.5q-59 0 -93.5 -37.5t-40.5 -93.5h269q-6 56 -40.5 93.5zM413 128.5q38 48.5 38 135.5t-38 136t-104 49t-104 -49t-38 -136t38 -135.5t104 -48.5t104 48.5z
" />
    <glyph glyph-name="Racute" unicode="&#x154;" horiz-adv-x="732" 
d="M378 273h-165v-273h-126v714h338q120 0 186 -59t66 -161q0 -81 -42 -136t-121 -75l176 -283h-147zM408 376q69 0 105 30.5t36 87.5q0 56 -36.5 86.5t-104.5 30.5h-195v-235h195zM314 766l81 157h129l-119 -157h-91z" />
    <glyph glyph-name="racute" unicode="&#x155;" horiz-adv-x="420" 
d="M191 449h4q22 41 62.5 66.5t94.5 25.5q24 0 44 -5v-112q-28 4 -54 4q-146 0 -146 -152v-276h-117v529h112v-80zM192 589l81 157h129l-119 -157h-91z" />
    <glyph glyph-name="Rcommaaccent" unicode="&#x156;" horiz-adv-x="732" 
d="M378 273h-165v-273h-126v714h338q120 0 186 -59t66 -161q0 -81 -42 -136t-121 -75l176 -283h-147zM408 376q69 0 105 30.5t36 87.5q0 56 -36.5 86.5t-104.5 30.5h-195v-235h195zM407 -252.5q-30 -38.5 -88 -39.5v51q20 1 33.5 18.5t13.5 47.5h-47v115h118v-86
q0 -68 -30 -106.5z" />
    <glyph glyph-name="rcommaaccent" unicode="&#x157;" horiz-adv-x="420" 
d="M191 449h4q22 41 62.5 66.5t94.5 25.5q24 0 44 -5v-112q-28 4 -54 4q-146 0 -146 -152v-276h-117v529h112v-80zM166 -252.5q-30 -38.5 -88 -39.5v51q20 1 33.5 18.5t13.5 47.5h-47v115h118v-86q0 -68 -30 -106.5z" />
    <glyph glyph-name="Rcaron" unicode="&#x158;" horiz-adv-x="732" 
d="M378 273h-165v-273h-126v714h338q120 0 186 -59t66 -161q0 -81 -42 -136t-121 -75l176 -283h-147zM408 376q69 0 105 30.5t36 87.5q0 56 -36.5 86.5t-104.5 30.5h-195v-235h195zM411 764h-103l-135 158h117l68 -87h4l67 87h117z" />
    <glyph glyph-name="rcaron" unicode="&#x159;" horiz-adv-x="420" 
d="M191 449h4q22 41 62.5 66.5t94.5 25.5q24 0 44 -5v-112q-28 4 -54 4q-146 0 -146 -152v-276h-117v529h112v-80zM289 589h-103l-135 157h117l68 -87h4l67 87h117z" />
    <glyph glyph-name="Sacute" unicode="&#x15a;" horiz-adv-x="686" 
d="M434 600q-43 32 -109 32q-63 0 -100.5 -28.5t-37.5 -74.5q0 -39 27 -58.5t81 -31.5l120 -28q73 -19 116 -37.5t72.5 -61t29.5 -116.5q0 -69 -38 -117t-102 -71.5t-144 -23.5q-132 0 -214 61t-100 175l125 13q10 -79 61.5 -114.5t129.5 -35.5q68 0 110.5 29.5t42.5 79.5
q0 33 -15 53t-41 30.5t-70 21.5l-125 32q-58 14 -99 34t-67.5 59t-26.5 102t35 109.5t95.5 71.5t136.5 25q117 0 190 -55.5t98 -158.5l-125 -10q-13 62 -56 94zM281 766l81 157h129l-119 -157h-91z" />
    <glyph glyph-name="sacute" unicode="&#x15b;" horiz-adv-x="568" 
d="M359 434q-32 22 -75 22q-44 0 -70 -18.5t-26 -52.5q0 -29 24.5 -42t74.5 -21l53 -9q85 -15 132.5 -48t47.5 -111q0 -80 -64 -123t-167 -43q-100 0 -164 45t-78 120l108 20q11 -52 46 -77t90 -25q49 0 79.5 21.5t30.5 57.5q0 31 -26.5 46t-79.5 23l-55 10q-77 12 -124 45
t-47 109q0 46 28 82t77.5 56t110.5 20q58 0 106 -20t78.5 -55t38.5 -77l-107 -19q-10 42 -42 64zM239 589l81 157h129l-119 -157h-91z" />
    <glyph glyph-name="Scircumflex" unicode="&#x15c;" horiz-adv-x="686" 
d="M434 600q-43 32 -109 32q-63 0 -100.5 -28.5t-37.5 -74.5q0 -39 27 -58.5t81 -31.5l120 -28q73 -19 116 -37.5t72.5 -61t29.5 -116.5q0 -69 -38 -117t-102 -71.5t-144 -23.5q-132 0 -214 61t-100 175l125 13q10 -79 61.5 -114.5t129.5 -35.5q68 0 110.5 29.5t42.5 79.5
q0 33 -15 53t-41 30.5t-70 21.5l-125 32q-58 14 -99 34t-67.5 59t-26.5 102t35 109.5t95.5 71.5t136.5 25q117 0 190 -55.5t98 -158.5l-125 -10q-13 62 -56 94zM325 849l-68 -86h-117l135 157h103l135 -157h-117l-67 86h-4z" />
    <glyph glyph-name="scircumflex" unicode="&#x15d;" horiz-adv-x="568" 
d="M359 434q-32 22 -75 22q-44 0 -70 -18.5t-26 -52.5q0 -29 24.5 -42t74.5 -21l53 -9q85 -15 132.5 -48t47.5 -111q0 -80 -64 -123t-167 -43q-100 0 -164 45t-78 120l108 20q11 -52 46 -77t90 -25q49 0 79.5 21.5t30.5 57.5q0 31 -26.5 46t-79.5 23l-55 10q-77 12 -124 45
t-47 109q0 46 28 82t77.5 56t110.5 20q58 0 106 -20t78.5 -55t38.5 -77l-107 -19q-10 42 -42 64zM283 676l-68 -87h-117l135 157h103l135 -157h-117l-67 87h-4z" />
    <glyph glyph-name="Scedilla" unicode="&#x15e;" horiz-adv-x="704" 
d="M384 -40q39 -4 62.5 -26t23.5 -62q0 -48 -33.5 -73t-89.5 -25q-25 0 -53.5 6t-48.5 17l19 59q40 -20 77 -20q17 0 30 9t13 28q0 31 -43 31q-18 0 -41 -7v60l26 28q-115 9 -186 69.5t-87 165.5l125 13q9 -79 61 -114.5t130 -35.5q68 0 110.5 29.5t42.5 79.5q0 33 -15 53
t-41 30.5t-70 21.5l-125 32q-58 14 -99 34t-67.5 59t-26.5 102t34.5 109.5t95.5 71.5t137 25q118 0 190 -55t97 -159l-124 -10q-13 62 -56 94t-109 32q-63 0 -101 -28.5t-38 -74.5q0 -39 27.5 -58.5t81.5 -31.5l120 -28q70 -17 114 -36.5t73.5 -62t29.5 -116.5
q0 -95 -69 -149t-179 -62l-18 -20v-5z" />
    <glyph glyph-name="scedilla" unicode="&#x15f;" horiz-adv-x="569" 
d="M306 -40q39 -4 62.5 -26t23.5 -62q0 -48 -33.5 -73t-89.5 -25q-25 0 -53.5 6t-48.5 17l19 59q40 -20 77 -20q17 0 30 9t13 28q0 31 -43 31q-17 0 -41 -7v60l30 33q-85 8 -139 51.5t-66 111.5l109 20q11 -52 46 -77t90 -25q49 0 79 21.5t30 57.5q0 31 -26.5 46t-79.5 23
l-54 10q-78 12 -124.5 45t-46.5 109q0 46 28 82t77 56t111 20q58 0 106 -20.5t79 -55t38 -76.5l-108 -19q-9 42 -41 64t-75 22q-44 0 -70 -18.5t-26 -52.5q0 -29 24.5 -42t74.5 -21l52 -9q86 -15 133.5 -48t47.5 -111q0 -72 -52.5 -114t-139.5 -50l-23 -25v-5z" />
    <glyph glyph-name="Scaron" unicode="&#x160;" horiz-adv-x="686" 
d="M434 600q-43 32 -109 32q-63 0 -100.5 -28.5t-37.5 -74.5q0 -39 27 -58.5t81 -31.5l120 -28q73 -19 116 -37.5t72.5 -61t29.5 -116.5q0 -69 -38 -117t-102 -71.5t-144 -23.5q-132 0 -214 61t-100 175l125 13q10 -79 61.5 -114.5t129.5 -35.5q68 0 110.5 29.5t42.5 79.5
q0 33 -15 53t-41 30.5t-70 21.5l-125 32q-58 14 -99 34t-67.5 59t-26.5 102t35 109.5t95.5 71.5t136.5 25q117 0 190 -55.5t98 -158.5l-125 -10q-13 62 -56 94zM378 764h-103l-135 158h117l68 -87h4l67 87h117z" />
    <glyph glyph-name="scaron" unicode="&#x161;" horiz-adv-x="568" 
d="M359 434q-32 22 -75 22q-44 0 -70 -18.5t-26 -52.5q0 -29 24.5 -42t74.5 -21l53 -9q85 -15 132.5 -48t47.5 -111q0 -80 -64 -123t-167 -43q-100 0 -164 45t-78 120l108 20q11 -52 46 -77t90 -25q49 0 79.5 21.5t30.5 57.5q0 31 -26.5 46t-79.5 23l-55 10q-77 12 -124 45
t-47 109q0 46 28 82t77.5 56t110.5 20q58 0 106 -20t78.5 -55t38.5 -77l-107 -19q-10 42 -42 64zM336 589h-103l-135 157h117l68 -87h4l67 87h117z" />
    <glyph glyph-name="Tcedilla" unicode="&#x162;" horiz-adv-x="706" 
d="M367 -40q39 -4 62.5 -26t23.5 -62q0 -48 -34 -73t-90 -25q-24 0 -52.5 6t-49.5 17l19 59q42 -20 77 -20q17 0 30.5 9.5t13.5 27.5q0 31 -44 31q-17 0 -40 -7v60l40 43h-33v606h-246v108h618v-108h-246v-606h-18l-31 -35v-5z" />
    <glyph glyph-name="tcedilla" unicode="&#x163;" horiz-adv-x="394" 
d="M28 529h86v148h117v-148h113v-84h-113v-296q0 -34 13 -43.5t47 -9.5t48 1v-97q-5 -1 -30 -1l-26 -1l-30 -33v-5q39 -4 62.5 -26t23.5 -62q0 -48 -33.5 -73t-89.5 -25q-24 0 -52.5 6t-49.5 17l19 59q40 -20 77 -20q17 0 30 9t13 28q0 31 -43 31q-17 0 -41 -7v60l40 43
q-50 6 -72.5 33t-22.5 85v327h-86v84z" />
    <glyph glyph-name="Tcaron" unicode="&#x164;" horiz-adv-x="685" 
d="M405 606v-606h-126v606h-236v108h598v-108h-236zM394 764h-103l-135 158h117l68 -87h4l67 87h117z" />
    <glyph glyph-name="tcaron" unicode="&#x165;" horiz-adv-x="514" 
d="M484 531.5q-30 -38.5 -88 -39.5v52q21 1 34 17.5t13 47.5h-47v115h118v-85q0 -69 -30 -107.5zM339 94v-94q-10 -4 -35 -8t-47 -4q-75 0 -109 28.5t-34 100.5v328h-86v84h86v148h117v-148h113v-84h-113v-313q0 -28 11.5 -37t40.5 -9q37 0 56 8z" />
    <glyph glyph-name="Tbar" unicode="&#x166;" horiz-adv-x="705" 
d="M519 397v-91h-104v-306h-126v306h-103v91h103v209h-246v108h618v-108h-246v-209h104z" />
    <glyph glyph-name="tbar" unicode="&#x167;" horiz-adv-x="390" 
d="M231 368h113v-76h-113v-143q0 -34 13 -43.5t47 -9.5t48 1v-97q-24 -2 -82 -2q-52 0 -82.5 10t-45.5 36t-15 74v174h-86v76h86v77h-86v84h86v148h117v-148h113v-84h-113v-77z" />
    <glyph glyph-name="Utilde" unicode="&#x168;" horiz-adv-x="763" 
d="M639 110q-38 -63 -105 -94.5t-152 -31.5t-152 31.5t-105 94.5t-38 153v451h126v-439q0 -97 42.5 -141t126.5 -44t126.5 44t42.5 141v439h126v-451q0 -90 -38 -153zM447 859q-15 0 -40 17l-23 15q-18 11 -31 17t-30 6q-45 0 -75 -28t-39 -86l70 -14q9 44 38 44
q15 0 39 -16l24 -16q17 -11 30 -16.5t30 -5.5q45 0 75 27.5t39 85.5l-70 14q-8 -44 -37 -44z" />
    <glyph glyph-name="utilde" unicode="&#x169;" 
d="M431 70q-56 -82 -165 -82q-79 0 -133 48t-54 143v350h117v-317q0 -68 27.5 -98t82.5 -30q32 0 60.5 18t46 53t17.5 84v290h117v-529h-112v70h-4zM378 693q-9 0 -19.5 5.5t-20.5 11.5l-23 15q-18 11 -31 17t-30 6q-45 0 -75 -27.5t-39 -85.5l70 -14q9 44 38 44
q9 0 17.5 -4t21.5 -13l24 -15q16 -11 29.5 -17t30.5 -6q45 0 75 27.5t39 86.5l-70 13q-8 -44 -37 -44z" />
    <glyph glyph-name="Umacron" unicode="&#x16a;" horiz-adv-x="763" 
d="M639 110q-38 -63 -105 -94.5t-152 -31.5t-152 31.5t-105 94.5t-38 153v451h126v-439q0 -97 42.5 -141t126.5 -44t126.5 44t42.5 141v439h126v-451q0 -90 -38 -153zM232 881h299v-82h-299v82z" />
    <glyph glyph-name="umacron" unicode="&#x16b;" 
d="M431 70q-56 -82 -165 -82q-79 0 -133 48t-54 143v350h117v-317q0 -68 27.5 -98t82.5 -30q32 0 60.5 18t46 53t17.5 84v290h117v-529h-112v70h-4zM163 707h299v-83h-299v83z" />
    <glyph glyph-name="Ubreve" unicode="&#x16c;" horiz-adv-x="763" 
d="M639 110q-38 -63 -105 -94.5t-152 -31.5t-152 31.5t-105 94.5t-38 153v451h126v-439q0 -97 42.5 -141t126.5 -44t126.5 44t42.5 141v439h126v-451q0 -90 -38 -153zM526.5 836.5q-23.5 -36.5 -62 -56t-82.5 -19.5q-45 0 -84 19.5t-62 56t-23 85.5h85q4 -39 28.5 -59
t55.5 -20q30 0 54.5 20.5t28.5 58.5h85q0 -49 -23.5 -85.5z" />
    <glyph glyph-name="ubreve" unicode="&#x16d;" 
d="M431 70q-56 -82 -165 -82q-79 0 -133 48t-54 143v350h117v-317q0 -68 27.5 -98t82.5 -30q32 0 60.5 18t46 53t17.5 84v290h117v-529h-112v70h-4zM457.5 660.5q-23.5 -36.5 -62 -56t-82.5 -19.5q-45 0 -84 19.5t-62 56t-23 85.5h85q4 -38 28.5 -58t55.5 -20q30 0 54.5 20
t28.5 58h85q0 -49 -23.5 -85.5z" />
    <glyph glyph-name="Uring" unicode="&#x16e;" horiz-adv-x="763" 
d="M639 110q-38 -63 -105 -94.5t-152 -31.5t-152 31.5t-105 94.5t-38 153v451h126v-439q0 -97 42.5 -141t126.5 -44t126.5 44t42.5 141v439h126v-451q0 -90 -38 -153zM301 784q-33 32 -33 79t33 79t82 32q47 0 80 -32t33 -79q0 -46 -33 -78.5t-80 -32.5q-49 0 -82 32z
M418 825.5q14 14.5 14 37.5t-14 37.5t-35 14.5q-23 0 -37 -14.5t-14 -37.5t14 -37.5t37 -14.5q21 0 35 14.5z" />
    <glyph glyph-name="uring" unicode="&#x16f;" 
d="M431 70q-56 -82 -165 -82q-79 0 -133 48t-54 143v350h117v-317q0 -68 27.5 -98t82.5 -30q32 0 60.5 18t46 53t17.5 84v290h117v-529h-112v70h-4zM232 619q-33 32 -33 79t33 79t82 32q47 0 80 -32.5t33 -78.5t-33 -78.5t-80 -32.5q-49 0 -82 32zM349 660.5
q14 14.5 14 37.5t-14 37.5t-35 14.5q-23 0 -37 -14.5t-14 -37.5t14 -37.5t37 -14.5q21 0 35 14.5z" />
    <glyph glyph-name="Uhungarumlaut" unicode="&#x170;" horiz-adv-x="763" 
d="M639 110q-38 -63 -105 -94.5t-152 -31.5t-152 31.5t-105 94.5t-38 153v451h126v-439q0 -97 42.5 -141t126.5 -44t126.5 44t42.5 141v439h126v-451q0 -90 -38 -153zM421 766l56 157h113l-89 -157h-80zM262 766l57 157h112l-88 -157h-81z" />
    <glyph glyph-name="uhungarumlaut" unicode="&#x171;" 
d="M431 70q-56 -82 -165 -82q-79 0 -133 48t-54 143v350h117v-317q0 -68 27.5 -98t82.5 -30q32 0 60.5 18t46 53t17.5 84v290h117v-529h-112v70h-4zM352 589l56 157h113l-89 -157h-80zM193 589l57 157h112l-88 -157h-81z" />
    <glyph glyph-name="Uogonek" unicode="&#x172;" horiz-adv-x="764" 
d="M677 263q0 -92 -39.5 -155.5t-110.5 -95.5q-53 -23 -87.5 -56t-34.5 -69q0 -20 16 -30.5t39 -10.5q27 0 50 8v-73q-25 -7 -70 -7q-58 0 -92.5 26t-34.5 73q0 32 17.5 61t46.5 50q-84 1 -149.5 33t-102.5 94.5t-37 151.5v451h126v-439q0 -97 42.5 -141t126.5 -44
q83 0 125.5 44t42.5 141v439h126v-451z" />
    <glyph glyph-name="uogonek" unicode="&#x173;" horiz-adv-x="631" 
d="M457 -113q0 -21 15 -31t39 -10q26 0 50 7v-72q-25 -7 -70 -7q-58 0 -92.5 26t-34.5 73q0 39 25 73t65 54h-18v70h-4q-56 -82 -165 -82q-80 0 -133.5 48t-53.5 143v350h117v-317q0 -68 27.5 -98t82.5 -30q32 0 60.5 18t45.5 53t17 84v290h118v-529q-91 -54 -91 -113z" />
    <glyph glyph-name="Wcircumflex" unicode="&#x174;" horiz-adv-x="989" 
d="M497 540h-4l-124 -540h-149l-178 714h130l123 -555h4l124 555h141l124 -555h4l124 555h131l-180 -714h-145zM492 849l-68 -86h-117l135 157h103l135 -157h-117l-67 86h-4z" />
    <glyph glyph-name="wcircumflex" unicode="&#x175;" horiz-adv-x="887" 
d="M685 0h-131l-111 379h-4l-110 -379h-126l-172 529h128l110 -391h4l106 391h133l106 -391h4l110 391h124zM444 676l-68 -87h-117l135 157h103l135 -157h-117l-67 87h-4z" />
    <glyph glyph-name="Ycircumflex" unicode="&#x176;" horiz-adv-x="711" 
d="M418 278v-278h-126v277l-258 437h138l184 -330l185 330h136zM355 849l-68 -86h-117l135 157h103l135 -157h-117l-67 86h-4z" />
    <glyph glyph-name="ycircumflex" unicode="&#x177;" horiz-adv-x="584" 
d="M359 0q-31 -83 -62 -125.5t-64 -56.5t-80 -14q-32 0 -72 5v100q30 -6 54 -6q39 0 58 17.5t40 67.5l7 18l-212 523h127l141 -385h4l131 385h125zM291 676l-68 -87h-117l135 157h103l135 -157h-117l-67 87h-4z" />
    <glyph glyph-name="Ydieresis" unicode="&#x178;" horiz-adv-x="711" 
d="M418 278v-278h-126v277l-258 437h138l184 -330l185 330h136zM309 894v-108h-109v108h109zM513 894v-108h-109v108h109z" />
    <glyph glyph-name="Zacute" unicode="&#x179;" horiz-adv-x="687" 
d="M619 108v-108h-553v108l397 498h-373v108h530v-108l-395 -498h394zM309 766l81 157h129l-119 -157h-91z" />
    <glyph glyph-name="zacute" unicode="&#x17a;" horiz-adv-x="551" 
d="M61 101l284 329h-270v99h416v-102l-285 -329h285v-98h-430v101zM238 589l81 157h129l-119 -157h-91z" />
    <glyph glyph-name="Zdotaccent" unicode="&#x17b;" horiz-adv-x="687" 
d="M619 108v-108h-553v108l397 498h-373v108h530v-108l-395 -498h394zM413 901v-115h-117v115h117z" />
    <glyph glyph-name="zdotaccent" unicode="&#x17c;" horiz-adv-x="551" 
d="M61 101l284 329h-270v99h416v-102l-285 -329h285v-98h-430v101zM342 724v-115h-117v115h117z" />
    <glyph glyph-name="Zcaron" unicode="&#x17d;" horiz-adv-x="687" 
d="M619 108v-108h-553v108l397 498h-373v108h530v-108l-395 -498h394zM406 764h-103l-135 158h117l68 -87h4l67 87h117z" />
    <glyph glyph-name="zcaron" unicode="&#x17e;" horiz-adv-x="551" 
d="M61 101l284 329h-270v99h416v-102l-285 -329h285v-98h-430v101zM335 589h-103l-135 157h117l68 -87h4l67 87h117z" />
    <glyph glyph-name="florin" unicode="&#x192;" horiz-adv-x="480" 
d="M361.5 629.5q-18.5 -11.5 -23.5 -45.5l-22 -128h105v-84h-120l-44 -246q-14 -74 -61 -106t-122 -32q-26 0 -74 5v93q35 -5 71 -5q29 0 47 11.5t24 45.5l42 234h-89v84h104l24 140q13 75 60 107t123 32q26 0 74 -5v-93q-40 4 -72 4q-28 0 -46.5 -11.5z" />
    <glyph glyph-name="Oslashacute" unicode="&#x1fe;" horiz-adv-x="824" 
d="M377 766l82 157h128l-118 -157h-92zM745 357q0 -114 -43 -198.5t-121 -129.5t-180 -45q-118 0 -203 60l-73 -84l-58 54l73 85q-40 48 -61 113.5t-21 144.5q0 114 43 198.5t120.5 129.5t179.5 45q133 0 222 -74l83 96l59 -55l-88 -101q68 -96 68 -239zM222 193l325 375
q-56 58 -146 58q-99 0 -157 -70.5t-58 -198.5q0 -98 36 -164zM592 498l-319 -368q51 -42 128 -42q99 0 157 70.5t58 198.5q0 83 -24 141z" />
    <glyph glyph-name="oslashacute" unicode="&#x1ff;" horiz-adv-x="621" 
d="M287 589l81 157h129l-119 -157h-91zM572 264q0 -83 -32 -145.5t-91 -96.5t-138 -34q-94 0 -158 46l-56 -64l-44 40l57 64q-61 74 -61 190q0 83 32 146t91 97t139 34q98 0 165 -53l48 53l44 -40l-50 -56v0q54 -71 54 -181zM206.5 400q-38.5 -49 -38.5 -136q0 -59 19 -103
l220 248q-37 40 -96 40q-66 0 -104.5 -49zM415 128.5q38 48.5 38 135.5q0 54 -15 91l-216 -243q35 -32 89 -32q66 0 104 48.5z" />
    <glyph glyph-name="Scommaaccent" unicode="&#x218;" horiz-adv-x="686" 
d="M434 600q-43 32 -109 32q-63 0 -100.5 -28.5t-37.5 -74.5q0 -39 27 -58.5t81 -31.5l120 -28q73 -19 116 -37.5t72.5 -61t29.5 -116.5q0 -69 -38 -117t-102 -71.5t-144 -23.5q-132 0 -214 61t-100 175l125 13q10 -79 61.5 -114.5t129.5 -35.5q68 0 110.5 29.5t42.5 79.5
q0 33 -15 53t-41 30.5t-70 21.5l-125 32q-58 14 -99 34t-67.5 59t-26.5 102t35 109.5t95.5 71.5t136.5 25q117 0 190 -55.5t98 -158.5l-125 -10q-13 62 -56 94zM378 -252.5q-30 -38.5 -88 -39.5v51q20 1 33.5 18.5t13.5 47.5h-47v115h118v-86q0 -68 -30 -106.5z" />
    <glyph glyph-name="scommaaccent" unicode="&#x219;" horiz-adv-x="568" 
d="M359 434q-32 22 -75 22q-44 0 -70 -18.5t-26 -52.5q0 -29 24.5 -42t74.5 -21l53 -9q85 -15 132.5 -48t47.5 -111q0 -80 -64 -123t-167 -43q-100 0 -164 45t-78 120l108 20q11 -52 46 -77t90 -25q49 0 79.5 21.5t30.5 57.5q0 31 -26.5 46t-79.5 23l-55 10q-77 12 -124 45
t-47 109q0 46 28 82t77.5 56t110.5 20q58 0 106 -20t78.5 -55t38.5 -77l-107 -19q-10 42 -42 64zM318 -252.5q-30 -38.5 -88 -39.5v51q20 1 33.5 18.5t13.5 47.5h-47v115h118v-86q0 -68 -30 -106.5z" />
    <glyph glyph-name="uni021A" unicode="&#x21a;" horiz-adv-x="685" 
d="M405 606v-606h-126v606h-236v108h598v-108h-236zM371 -252.5q-30 -38.5 -88 -39.5v51q20 1 33.5 18.5t13.5 47.5h-47v115h118v-86q0 -68 -30 -106.5z" />
    <glyph glyph-name="uni021B" unicode="&#x21b;" horiz-adv-x="390" 
d="M339 94v-94q-10 -4 -35 -8t-47 -4q-75 0 -109 28.5t-34 100.5v328h-86v84h86v148h117v-148h113v-84h-113v-313q0 -28 11.5 -37t40.5 -9q37 0 56 8zM256 -252.5q-30 -38.5 -88 -39.5v51q20 1 33.5 18.5t13.5 47.5h-47v115h118v-86q0 -68 -30 -106.5z" />
    <glyph glyph-name="dotlessj" unicode="&#x237;" horiz-adv-x="269" 
d="M65 -89q11 8 11 29v589h117v-605q0 -67 -32 -93.5t-97 -26.5q-21 0 -43.5 4t-31.5 8v94q17 -7 45 -7q20 0 31 8z" />
    <glyph glyph-name="uni02BC" unicode="&#x2bc;" horiz-adv-x="266" 
d="M167 531.5q-30 -38.5 -88 -39.5v52q20 1 33.5 18t13.5 47h-47v115h118v-85q0 -69 -30 -107.5z" />
    <glyph glyph-name="circumflex" unicode="&#x2c6;" horiz-adv-x="521" 
d="M264 676l-68 -87h-117l135 157h103l135 -157h-117l-67 87h-4z" />
    <glyph glyph-name="caron" unicode="&#x2c7;" horiz-adv-x="521" 
d="M317 589h-103l-135 157h117l68 -87h4l67 87h117z" />
    <glyph glyph-name="breve" unicode="&#x2d8;" horiz-adv-x="485" 
d="M392.5 660.5q-23.5 -36.5 -62 -56t-82.5 -19.5q-45 0 -84 19.5t-62 56t-23 85.5h85q4 -38 28.5 -58t55.5 -20q30 0 54.5 20t28.5 58h85q0 -49 -23.5 -85.5z" />
    <glyph glyph-name="dotaccent" unicode="&#x2d9;" horiz-adv-x="266" 
d="M196 724v-115h-117v115h117z" />
    <glyph glyph-name="ring" unicode="&#x2da;" horiz-adv-x="376" 
d="M112 619q-33 32 -33 79t33 79t82 32q47 0 80 -32.5t33 -78.5t-33 -78.5t-80 -32.5q-49 0 -82 32zM229 660.5q14 14.5 14 37.5t-14 37.5t-35 14.5q-23 0 -37 -14.5t-14 -37.5t14 -37.5t37 -14.5q21 0 35 14.5z" />
    <glyph glyph-name="ogonek" unicode="&#x2db;" horiz-adv-x="345" 
d="M276 -146v-73q-25 -7 -70 -7q-58 0 -92.5 26t-34.5 73q0 39 25.5 73.5t66.5 54.5h94q-94 -55 -94 -114q0 -20 15.5 -30.5t39.5 -10.5q27 0 50 8z" />
    <glyph glyph-name="tilde" unicode="&#x2dc;" horiz-adv-x="493" 
d="M317 693q-9 0 -19.5 5.5t-20.5 11.5l-23 15q-18 11 -31 17t-30 6q-45 0 -75 -27.5t-39 -85.5l70 -14q9 44 38 44q9 0 17.5 -4t21.5 -13l24 -15q16 -11 29.5 -17t30.5 -6q45 0 75 27.5t39 86.5l-70 13q-8 -44 -37 -44z" />
    <glyph glyph-name="hungarumlaut" unicode="&#x2dd;" horiz-adv-x="476" 
d="M238 589l56 157h113l-89 -157h-80zM79 589l57 157h112l-88 -157h-81z" />
    <glyph glyph-name="uni0326" unicode="&#x326;" horiz-adv-x="0" 
d="M167 -252.5q-30 -38.5 -88 -39.5v51q20 1 33.5 18.5t13.5 47.5h-47v115h118v-86q0 -68 -30 -106.5z" />
    <glyph glyph-name="Wgrave" unicode="&#x1e80;" horiz-adv-x="989" 
d="M497 540h-4l-124 -540h-149l-178 714h130l123 -555h4l124 555h141l124 -555h4l124 555h131l-180 -714h-145zM539 766h-91l-119 157h129z" />
    <glyph glyph-name="wgrave" unicode="&#x1e81;" horiz-adv-x="887" 
d="M685 0h-131l-111 379h-4l-110 -379h-126l-172 529h128l110 -391h4l106 391h133l106 -391h4l110 391h124zM491 589h-91l-119 157h129z" />
    <glyph glyph-name="Wacute" unicode="&#x1e82;" horiz-adv-x="989" 
d="M497 540h-4l-124 -540h-149l-178 714h130l123 -555h4l124 555h141l124 -555h4l124 555h131l-180 -714h-145zM448 766l81 157h129l-119 -157h-91z" />
    <glyph glyph-name="wacute" unicode="&#x1e83;" horiz-adv-x="887" 
d="M685 0h-131l-111 379h-4l-110 -379h-126l-172 529h128l110 -391h4l106 391h133l106 -391h4l110 391h124zM400 589l81 157h129l-119 -157h-91z" />
    <glyph glyph-name="Wdieresis" unicode="&#x1e84;" horiz-adv-x="989" 
d="M497 540h-4l-124 -540h-149l-178 714h130l123 -555h4l124 555h141l124 -555h4l124 555h131l-180 -714h-145zM446 894v-108h-109v108h109zM650 894v-108h-109v108h109z" />
    <glyph glyph-name="wdieresis" unicode="&#x1e85;" horiz-adv-x="887" 
d="M685 0h-131l-111 379h-4l-110 -379h-126l-172 529h128l110 -391h4l106 391h133l106 -391h4l110 391h124zM398 717v-108h-109v108h109zM602 717v-108h-109v108h109z" />
    <glyph glyph-name="Ygrave" unicode="&#x1ef2;" horiz-adv-x="711" 
d="M418 278v-278h-126v277l-258 437h138l184 -330l185 330h136zM402 766h-91l-119 157h129z" />
    <glyph glyph-name="ygrave" unicode="&#x1ef3;" horiz-adv-x="584" 
d="M359 0q-31 -83 -62 -125.5t-64 -56.5t-80 -14q-32 0 -72 5v100q30 -6 54 -6q39 0 58 17.5t40 67.5l7 18l-212 523h127l141 -385h4l131 385h125zM338 589h-91l-119 157h129z" />
    <glyph glyph-name="uni2007" unicode="&#x2007;" horiz-adv-x="336" 
 />
    <glyph glyph-name="uni2008" unicode="&#x2008;" horiz-adv-x="239" 
 />
    <glyph glyph-name="zerowidthspace" unicode="&#x200b;" horiz-adv-x="0" 
 />
    <glyph glyph-name="endash" unicode="&#x2013;" horiz-adv-x="665" 
d="M64 327h537v-104h-537v104z" />
    <glyph glyph-name="emdash" unicode="&#x2014;" horiz-adv-x="863" 
d="M64 327h735v-104h-735v104z" />
    <glyph glyph-name="quoteleft" unicode="&#x2018;" horiz-adv-x="304" 
d="M112.5 667q32.5 46 98.5 47v-61q-29 -1 -42 -22t-13 -64h59v-135h-135v104q0 85 32.5 131z" />
    <glyph glyph-name="quoteright" unicode="&#x2019;" horiz-adv-x="304" 
d="M85 432v61q29 2 42 22.5t13 63.5h-60v135h135v-105q0 -174 -130 -177z" />
    <glyph glyph-name="quotesinglbase" unicode="&#x201a;" horiz-adv-x="304" 
d="M85 -147v61q29 2 42 22.5t13 63.5h-60v135h135v-104q0 -175 -130 -178z" />
    <glyph glyph-name="quotedblleft" unicode="&#x201c;" horiz-adv-x="504" 
d="M112.5 667q32.5 46 98.5 47v-61q-29 -1 -42 -22t-13 -64h59v-135h-135v104q0 85 32.5 131zM410 714v-61q-28 -1 -41.5 -22t-13.5 -64h60v-135h-135v104q0 175 130 178z" />
    <glyph glyph-name="quotedblright" unicode="&#x201d;" horiz-adv-x="504" 
d="M85 432v61q29 2 42 22.5t13 63.5h-60v135h135v-105q0 -174 -130 -177zM382.5 479q-32.5 -46 -98.5 -47v61q29 2 42.5 22.5t13.5 63.5h-60v135h135v-105q0 -84 -32.5 -130z" />
    <glyph glyph-name="quotedblbase" unicode="&#x201e;" horiz-adv-x="504" 
d="M382.5 -100q-32.5 -46 -98.5 -47v61q29 2 42.5 22.5t13.5 63.5h-60v135h135v-104q0 -85 -32.5 -131zM183 -100q-32 -46 -98 -47v61q29 2 42 22.5t13 63.5h-60v135h135v-104q0 -85 -32 -131z" />
    <glyph glyph-name="dagger" unicode="&#x2020;" horiz-adv-x="553" 
d="M335 419v-607h-117v607h-189v97h189v198h117v-198h189v-97h-189z" />
    <glyph glyph-name="daggerdbl" unicode="&#x2021;" horiz-adv-x="553" 
d="M335 107h189v-97h-189v-198h-117v198h-189v97h189v312h-189v97h189v198h117v-198h189v-97h-189v-312z" />
    <glyph glyph-name="bullet" unicode="&#x2022;" horiz-adv-x="570" 
d="M183.5 182.5q-46.5 27.5 -73.5 74t-27 101.5t27 101t73.5 73t100.5 27q55 0 101.5 -27t74 -73t27.5 -101t-27.5 -101.5t-74 -74t-101.5 -27.5q-54 0 -100.5 27.5z" />
    <glyph glyph-name="ellipsis" unicode="&#x2026;" horiz-adv-x="897" 
d="M227 136v-136h-138v136h138zM517 136v-136h-138v136h138zM807 136v-136h-138v136h138z" />
    <glyph glyph-name="perthousand" unicode="&#x2030;" horiz-adv-x="1236" 
d="M325 666q41 -49 41 -144q0 -96 -41 -144.5t-113 -48.5q-73 0 -114 48.5t-41 144.5q0 95 41.5 144t113.5 49t113 -49zM274 0h-78l397 701h79zM265 424.5q17 29.5 17 97.5t-17 97.5t-53 29.5t-53 -29.5t-17 -97.5t17 -97.5t53 -29.5t53 29.5zM769 323q41 -49 41 -145
q0 -95 -41 -143.5t-114 -48.5q-72 0 -113.5 48.5t-41.5 143.5q0 96 41.5 145t113.5 49q73 0 114 -49zM1137.5 323q41.5 -49 41.5 -145q0 -95 -41.5 -143.5t-113.5 -48.5q-73 0 -114 48.5t-41 143.5q0 96 41 145t114 49q72 0 113.5 -49zM708 80.5q17 29.5 17 97.5
q0 69 -16.5 98t-53.5 29q-36 0 -52.5 -29t-16.5 -98q0 -67 16.5 -97t52.5 -30t53 29.5zM1076 81q17 30 17 97q0 68 -17 97.5t-52 29.5q-37 0 -53.5 -29t-16.5 -98q0 -68 17 -97.5t53 -29.5q35 0 52 30z" />
    <glyph glyph-name="guilsinglleft" unicode="&#x2039;" horiz-adv-x="322" 
d="M252 372l-106 -97v-4l106 -97v-119l-179 155v125l179 155v-118z" />
    <glyph glyph-name="guilsinglright" unicode="&#x203a;" horiz-adv-x="322" 
d="M71 55v119l106 97v4l-106 97v118l179 -155v-125z" />
    <glyph glyph-name="zerosuperior" unicode="&#x2070;" horiz-adv-x="439" 
d="M355.5 669q50.5 -53 50.5 -166q0 -112 -50.5 -164.5t-136.5 -52.5t-136 52.5t-50 164.5q0 113 50 166t136 53t136.5 -53zM284.5 385.5q24.5 30.5 24.5 117.5q0 88 -24.5 118.5t-65.5 30.5t-65.5 -30.5t-24.5 -118.5q0 -87 24.5 -117.5t65.5 -30.5t65.5 30.5z" />
    <glyph glyph-name="foursuperior" unicode="&#x2074;" horiz-adv-x="406" 
d="M385 390h-56v-96h-90v96h-216v77l185 247h121v-256h56v-68zM239 458v178h-4l-128 -174v-4h132z" />
    <glyph glyph-name="fivesuperior" unicode="&#x2075;" horiz-adv-x="395" 
d="M282 565q36 -16 58.5 -49t22.5 -82q0 -73 -49.5 -110.5t-124.5 -37.5q-70 0 -115.5 30.5t-57.5 88.5l93 10q5 -28 26 -43.5t54 -15.5q35 0 57 20t22 58t-22.5 58.5t-58.5 20.5q-43 0 -76 -31h-86l21 232h286v-73h-212l-9 -92h4q34 32 92 32q39 0 75 -16z" />
    <glyph glyph-name="sixsuperior" unicode="&#x2076;" horiz-adv-x="421" 
d="M306.5 552q35.5 -16 58.5 -46.5t23 -73.5q0 -49 -25 -81.5t-63.5 -48.5t-80.5 -16q-97 0 -143 56q-43 50 -43 163q0 121 55 169t129 48q58 0 103.5 -28t60.5 -78l-90 -9q-9 22 -28.5 36t-46.5 14q-37 0 -64.5 -31t-27.5 -91v-5h4q18 18 46.5 28t59.5 10q37 0 72.5 -16z
M274 371.5q24 20.5 24 57.5q0 36 -24 56t-58 20q-37 0 -61.5 -20.5t-24.5 -55.5q0 -36 24.5 -57t61.5 -21q34 0 58 20.5z" />
    <glyph glyph-name="sevensuperior" unicode="&#x2077;" horiz-adv-x="356" 
d="M345 676q0 -32 -14 -57.5t-46 -67.5q-30 -39 -48.5 -69t-32 -73t-13.5 -98v-17h-98v22q0 60 17.5 110.5t41.5 86.5t58 77q27 33 34 45v4h-235v75h336v-38z" />
    <glyph glyph-name="eightsuperior" unicode="&#x2078;" horiz-adv-x="422" 
d="M329.5 693q47.5 -29 47.5 -86q0 -30 -17.5 -51.5t-48.5 -33.5v-4q36 -13 57 -40t21 -66q0 -63 -50 -94.5t-128 -31.5t-128 31.5t-50 94.5q0 39 20.5 66t56.5 40v4q-30 12 -47.5 33.5t-17.5 51.5q0 57 47.5 86t118.5 29t118.5 -29zM266 557.5q22 15.5 22 43.5t-22.5 43.5
t-54.5 15.5q-33 0 -55.5 -15.5t-22.5 -43.5t22.5 -43.5t55.5 -15.5t55 15.5zM272 368.5q25 17.5 25 50.5t-25 50.5t-61 17.5q-37 0 -61.5 -17.5t-24.5 -50.5t24.5 -50.5t61.5 -17.5q36 0 61 17.5z" />
    <glyph glyph-name="ninesuperior" unicode="&#x2079;" horiz-adv-x="421" 
d="M114.5 456q-35.5 16 -58.5 46.5t-23 73.5q0 49 25 81.5t63.5 48.5t80.5 16q97 0 143 -56q43 -50 43 -163q0 -121 -55 -169t-128 -48q-58 0 -103.5 28t-60.5 78l89 9q9 -22 28.5 -36t46.5 -14q37 0 64.5 31t27.5 91v5h-4q-18 -18 -46.5 -28t-59.5 -10q-37 0 -72.5 16z
M147 636.5q-24 -20.5 -24 -57.5q0 -36 24.5 -56t58.5 -20q36 0 60.5 20.5t24.5 55.5q0 36 -24.5 57t-60.5 21q-35 0 -59 -20.5z" />
    <glyph glyph-name="franc" unicode="&#x20a3;" horiz-adv-x="748" 
d="M602 0l-82 153h-76v-153h-101v328h-139v-328h-117v701h495v-98h-378v-179h347q70 0 112 -37.5t42 -96.5q0 -43 -22.5 -75t-62.5 -47l95 -168h-113zM585.5 246q17.5 16 17.5 42q0 25 -17.5 40.5t-48.5 15.5h-93v-114h93q31 0 48.5 16z" />
    <glyph glyph-name="Euro" unicode="&#x20ac;" horiz-adv-x="709" 
d="M548 105.5q48 21.5 87 63.5v-126q-82 -57 -192 -57q-123 0 -207.5 71t-109.5 195h-82l38 68h35l-1 32l1 30h-74l37 66h46q26 123 113 194.5t209 71.5q126 0 212 -75l-53 -93q-65 71 -165 71q-73 0 -124.5 -44t-70.5 -125h303l-38 -66h-275q-1 -10 -1 -30q0 -22 1 -32h241
l-38 -68h-193q20 -81 73 -124.5t130 -43.5q50 0 98 21.5z" />
    <glyph glyph-name="uni2116" unicode="&#x2116;" horiz-adv-x="1204" 
d="M551 0l-344 540h-4v-540h-116v714h141l340 -531h4v531h116v-714h-137zM1121.5 675.5q46.5 -47.5 46.5 -128.5t-46.5 -128.5t-126.5 -47.5q-79 0 -125 47.5t-46 128.5t46 128.5t125 47.5q80 0 126.5 -47.5zM1055 466q22 28 22 81q0 54 -22 82t-60 28t-59 -28t-21 -82
q0 -53 21.5 -81t58.5 -28q38 0 60 28zM824 0v89h344v-89h-344z" />
    <glyph glyph-name="trademark" unicode="&#x2122;" horiz-adv-x="940" 
d="M292 642v-286h-87v286h-118v72h323v-72h-118zM854 356h-81v250h-4l-78 -250h-62l-79 250h-4v-250h-79v358h128l64 -226h4l65 226h126v-358z" />
    <glyph glyph-name="Ohm" unicode="&#x2126;" horiz-adv-x="738" 
d="M681 0h-283v162q73 21 116.5 85t43.5 154q0 70 -24 121.5t-67 79t-99 27.5q-55 0 -98 -27.5t-67 -79t-24 -121.5q0 -90 44 -154t118 -85v-162h-284v96h196v30q-86 30 -139.5 107t-53.5 185q0 93 40.5 164t111 109.5t156.5 38.5q88 0 159 -38.5t111.5 -109.5t40.5 -164
q0 -109 -54 -185t-140 -105v-32h196v-96z" />
    <glyph glyph-name="partialdiff" unicode="&#x2202;" horiz-adv-x="614" 
d="M410 696.5q63 -33.5 105 -116.5t42 -222q0 -189 -71 -279.5t-199 -90.5q-60 0 -112.5 24.5t-85 74.5t-32.5 123q0 81 33.5 135.5t88 80.5t117.5 26q82 0 138 -44q-17 228 -168 228q-40 0 -79.5 -14.5t-71.5 -41.5l-31 87q38 31 88 47t106 16q69 0 132 -33.5zM392 139.5
q38 59.5 43 170.5q-42 52 -121 52q-60 0 -99 -39t-39 -113q0 -61 31.5 -95.5t80.5 -34.5q66 0 104 59.5z" />
    <glyph glyph-name="emptyset" unicode="&#x2205;" horiz-adv-x="903" 
d="M784.5 508q32.5 -71 32.5 -151q0 -99 -49 -183t-133 -133t-183 -49q-105 0 -195 56l-43 -56h-75l70 92q-57 51 -89.5 122t-32.5 151q0 99 49 183t133 133t183 49q105 0 195 -56l43 56h75l-70 -93q57 -50 89.5 -121zM184 238q24 -56 67 -98l355 470q-72 45 -154 45
q-80 0 -147 -40t-106 -108.5t-39 -149.5q0 -63 24 -119zM599 99q67 40 106 108.5t39 149.5q0 63 -24 119t-67 97l-355 -469q70 -45 154 -45q80 0 147 40z" />
    <glyph glyph-name="increment" unicode="&#x2206;" horiz-adv-x="783" 
d="M34 0l277 714h162l277 -714h-716zM391 603h-4l-184 -501h372z" />
    <glyph glyph-name="product" unicode="&#x220f;" horiz-adv-x="726" 
d="M516 600h-305v-748h-124v862h553v-862h-124v748z" />
    <glyph glyph-name="summation" unicode="&#x2211;" horiz-adv-x="711" 
d="M87 -148v91l276 341l-262 339v91h527v-114h-347l233 -303l-271 -332h400v-113h-556z" />
    <glyph glyph-name="minus" unicode="&#x2212;" horiz-adv-x="490" 
d="M460 280h-431v91h431v-91z" />
    <glyph glyph-name="bulletoperator" unicode="&#x2219;" horiz-adv-x="338" 
d="M112.5 260q-23.5 23 -23.5 57q0 32 23.5 56t56.5 24t56.5 -24t23.5 -56q0 -34 -23.5 -57t-56.5 -23t-56.5 23z" />
    <glyph glyph-name="radical" unicode="&#x221a;" horiz-adv-x="546" 
d="M210 -148l-96 338l-68 -35l-26 54l149 75l98 -337h2l190 754h68l-214 -849h-103z" />
    <glyph glyph-name="infinity" unicode="&#x221e;" horiz-adv-x="798" 
d="M636 442q35 -22 54 -57.5t19 -75.5q0 -41 -19 -78.5t-54 -60.5t-81 -23q-92 0 -161 89q-69 -89 -152 -89q-46 0 -80.5 23t-53.5 60.5t-19 78.5q0 40 19 75.5t53.5 57.5t80.5 22q50 0 90.5 -24t69.5 -62q69 86 153 86q46 0 81 -22zM612 245.5q21 25.5 21 63.5
q0 37 -20.5 60t-58.5 23q-35 0 -60 -19.5t-51 -59.5q28 -47 53.5 -70t57.5 -23q37 0 58 25.5zM302.5 240q25.5 20 50.5 60q-26 46 -51.5 69t-57.5 23q-38 0 -58.5 -23t-20.5 -60q0 -38 21 -63.5t58 -25.5q33 0 58.5 20z" />
    <glyph glyph-name="integral" unicode="&#x222b;" horiz-adv-x="389" 
d="M379 734v-90q-32 6 -65 6q-29 0 -45 -12.5t-16 -46.5v-647q0 -75 -41.5 -107.5t-116.5 -32.5q-47 0 -85 9v90q40 -5 65 -5q29 0 45 12t16 46v647q0 75 41.5 107.5t117.5 32.5q46 0 84 -9z" />
    <glyph glyph-name="approxequal" unicode="&#x2248;" horiz-adv-x="489" 
d="M409 441.5q28 18.5 50 45.5v-98q-51 -51 -105 -51q-13 0 -27 5t-27 10t-17 7l-79 34q-4 2 -18.5 8.5t-27 9.5t-24.5 3q-27 0 -55 -18.5t-50 -46.5v98q51 51 105 51q15 0 31 -5.5t41 -15.5l78 -35q4 -2 18.5 -8t27 -9t24.5 -3q27 0 55 18.5zM409 269.5q28 18.5 50 46.5
v-99q-51 -50 -105 -50q-14 0 -30 5.5t-41 15.5l-79 34q-4 2 -18.5 8.5t-27 9.5t-24.5 3q-27 0 -55 -18.5t-50 -46.5v99q51 50 105 50q15 0 31 -5.5t41 -15.5l78 -34q6 -3 20 -9t26 -9t24 -3q27 0 55 18.5z" />
    <glyph glyph-name="notequal" unicode="&#x2260;" horiz-adv-x="489" 
d="M256 272h203v-80h-251v0l-58 -103l-65 37l38 66h-94v80h141l63 109h-204v81h251l59 102l66 -36l-39 -66h93v-81h-140z" />
    <glyph glyph-name="lessequal" unicode="&#x2264;" horiz-adv-x="597" 
d="M513 488l-327 -131v-4l327 -133v-88l-430 180v86l430 178v-88zM513 82v-82h-419v82h419z" />
    <glyph glyph-name="greaterequal" unicode="&#x2265;" horiz-adv-x="597" 
d="M83 132v88l328 133v4l-328 131v88l430 -178v-86zM83 82h420v-82h-420v82z" />
    <glyph glyph-name="lozenge" unicode="&#x25ca;" horiz-adv-x="581" 
d="M332 -29h-82l-216 388l216 388h82l216 -388zM292 664l-167 -305l167 -305l166 305z" />
    <glyph glyph-name="fi" unicode="&#xfb01;" horiz-adv-x="662" 
d="M247.5 630q-16.5 -12 -16.5 -46v-55h113v-84h-113v-445h-117v445h-86v84h86v67q0 75 41.5 107.5t117.5 32.5q52 0 84 -10v-90q-24 6 -63 6q-30 0 -46.5 -12zM586 724v-115h-117v115h117zM586 529v-529h-117v529h117z" />
    <glyph glyph-name="fl" unicode="&#xfb02;" horiz-adv-x="669" 
d="M247.5 630q-16.5 -12 -16.5 -46v-55h113v-84h-113v-445h-117v445h-86v84h86v67q0 75 41.5 107.5t117.5 32.5q52 0 84 -10v-90q-24 6 -63 6q-30 0 -46.5 -12zM589 724v-724h-117v724h117z" />
    <glyph glyph-name="i.loclTRK" horiz-adv-x="269" 
d="M193 529v-529h-117v529h117zM193 724v-115h-117v115h117z" />
    <glyph glyph-name="f_i" horiz-adv-x="662" 
d="M247.5 630q-16.5 -12 -16.5 -46v-55h113v-84h-113v-445h-117v445h-86v84h86v67q0 75 41.5 107.5t117.5 32.5q52 0 84 -10v-90q-24 6 -63 6q-30 0 -46.5 -12zM586 724v-115h-117v115h117zM586 529v-529h-117v529h117z" />
    <glyph glyph-name="f_l" horiz-adv-x="669" 
d="M247.5 630q-16.5 -12 -16.5 -46v-55h113v-84h-113v-445h-117v445h-86v84h86v67q0 75 41.5 107.5t117.5 32.5q52 0 84 -10v-90q-24 6 -63 6q-30 0 -46.5 -12zM589 724v-724h-117v724h117z" />
    <glyph glyph-name="zero.tf" horiz-adv-x="600" 
d="M495 628.5q73 -86.5 73 -278.5t-73 -278t-193 -86q-121 0 -194 86t-73 278t73 278.5t194 86.5q120 0 193 -86.5zM407 138q39 58 39 212q0 155 -39 213t-105 58t-105 -58t-39 -213q0 -154 39 -212t105 -58t105 58z" />
    <glyph glyph-name="one.tf" horiz-adv-x="600" 
d="M554 0h-453v98h168v422h-141v80h21q61 0 95 28.5t42 72.5h100v-603h168v-98z" />
    <glyph glyph-name="two.tf" horiz-adv-x="600" 
d="M547 0h-490v30q0 75 27.5 129t65.5 86.5t92 66.5l92 59q41 26 67.5 57.5t26.5 75.5q0 57 -30.5 86t-88.5 29t-93 -38.5t-42 -109.5l-116 10q6 74 41.5 126.5t90 79.5t119.5 27q66 0 120.5 -22.5t87 -68t32.5 -113.5q0 -59 -22 -100t-52.5 -66t-77.5 -53l-20 -12l-82 -53
q-52 -34 -77.5 -66.5t-27.5 -57.5h357v-102z" />
    <glyph glyph-name="three.tf" horiz-adv-x="600" 
d="M407.5 433q34.5 29 34.5 79t-33 79t-83 29q-51 0 -84.5 -30t-40.5 -86l-116 10q10 94 74.5 147t166.5 53q104 0 169.5 -53.5t65.5 -147.5q0 -50 -28.5 -87.5t-74.5 -57.5v-4q56 -18 90 -60.5t34 -106.5q0 -104 -71.5 -157.5t-185.5 -53.5q-111 0 -180.5 55t-83.5 163
l119 11q9 -70 47.5 -102.5t97.5 -32.5t97 32t38 86q0 59 -38.5 88.5t-105.5 29.5h-63v88h63q57 0 91.5 29z" />
    <glyph glyph-name="four.tf" horiz-adv-x="600" 
d="M569 267v-92h-88v-175h-117v175h-328v100l272 426h173v-434h88zM143 267h221v344h-4l-217 -340v-4z" />
    <glyph glyph-name="five.tf" horiz-adv-x="600" 
d="M439 449.5q54 -27.5 87 -83t33 -134.5t-34 -134.5t-91 -83.5t-126 -28q-102 0 -168.5 51t-85.5 144l120 12q11 -54 46 -83.5t88 -29.5q56 0 93 39.5t37 112.5t-38 112.5t-96 39.5q-73 0 -128 -53h-110l32 370h415v-100h-322l-15 -176h4q27 27 61.5 39.5t81.5 12.5
q62 0 116 -27.5z" />
    <glyph glyph-name="six.tf" horiz-adv-x="600" 
d="M439.5 426q53.5 -26 89 -77t35.5 -124q0 -79 -37 -133t-93.5 -80t-116.5 -26q-66 0 -120.5 24t-90.5 73q-31 41 -47 110t-16 158q0 208 79 285.5t194 77.5q84 0 147.5 -44.5t88.5 -126.5l-116 -14q-12 41 -43 68.5t-77 27.5q-66 0 -111.5 -52.5t-45.5 -184.5v-7h4
q31 36 75 53.5t93 17.5q55 0 108.5 -26zM380 92q30 17 48.5 49.5t18.5 77.5q0 68 -39 106.5t-93 38.5q-60 0 -100.5 -39.5t-40.5 -105.5q0 -65 40.5 -104.5t100.5 -39.5q35 0 65 17z" />
    <glyph glyph-name="seven.tf" horiz-adv-x="600" 
d="M544 647q0 -48 -20.5 -90t-65.5 -107t-75 -118.5t-51 -130t-21 -172.5v-30h-123v35q0 102 26 187.5t61 146.5t88 138q4 6 25 36t34 54v4h-366v101h488v-54z" />
    <glyph glyph-name="eight.tf" horiz-adv-x="600" 
d="M435 8.5q59 22.5 94.5 70t35.5 117.5q0 67 -31.5 112.5t-86.5 66.5v4q47 20 73.5 57t26.5 87q0 63 -34 106t-88.5 64t-118.5 21q-63 0 -118 -21t-88.5 -64t-33.5 -106q0 -50 26.5 -87t72.5 -57v-4q-55 -21 -86 -66.5t-31 -112.5q0 -70 35.5 -117.5t94 -70t128.5 -22.5
t129 22.5zM396 598.5q37 -27.5 37 -79.5t-37 -79.5t-90 -27.5t-90 27.5t-37 79.5t37 79.5t90 27.5t90 -27.5zM404.5 296.5q40.5 -32.5 40.5 -94.5t-40.5 -94.5t-98.5 -32.5t-98.5 32.5t-40.5 94.5t40.5 94.5t98.5 32.5t98.5 -32.5z" />
    <glyph glyph-name="nine.tf" horiz-adv-x="600" 
d="M163.5 273q-53.5 26 -89 77t-35.5 124q0 79 36.5 133t93.5 80t117 26q66 0 120.5 -24t90.5 -73q30 -41 46 -110.5t16 -157.5q0 -208 -78.5 -285.5t-193.5 -77.5q-85 0 -148 44.5t-88 126.5l115 14q13 -41 44 -68.5t77 -27.5q65 0 110.5 52.5t45.5 184.5v7h-4
q-31 -36 -75 -53.5t-92 -17.5q-55 0 -108.5 26zM223 607q-30 -17 -48.5 -49.5t-18.5 -77.5q0 -68 39 -106.5t93 -38.5q38 0 70.5 17.5t51.5 50.5t19 77q0 43 -19 76t-51.5 50.5t-70.5 17.5q-35 0 -65 -17z" />
    <glyph glyph-name="caron.alt" horiz-adv-x="290" 
d="M174.5 531.5q-29.5 -38.5 -87.5 -39.5v52q20 1 33.5 18t13.5 47h-47v115h117v-85q0 -69 -29.5 -107.5z" />
    <glyph glyph-name="acute.case" horiz-adv-x="358" 
d="M79 766l81 157h129l-119 -157h-91z" />
    <glyph glyph-name="breve.case" horiz-adv-x="485" 
d="M392.5 836.5q-23.5 -36.5 -62 -56t-82.5 -19.5q-45 0 -84 19.5t-62 56t-23 85.5h85q4 -39 28.5 -59t55.5 -20q30 0 54.5 20.5t28.5 58.5h85q0 -49 -23.5 -85.5z" />
    <glyph glyph-name="caron.case" horiz-adv-x="521" 
d="M317 764h-103l-135 158h117l68 -87h4l67 87h117z" />
    <glyph glyph-name="cedilla.case" horiz-adv-x="374" 
d="M175 -164q17 0 30 9t13 28q0 31 -43 31q-17 0 -40 -7v60l39 43l37 38l79 5l-40 -43l-32 -35v-5q39 -4 63 -26t24 -62q0 -48 -34 -73t-90 -25q-24 0 -52.5 6t-49.5 17l19 59q40 -20 77 -20z" />
    <glyph glyph-name="circumflex.case" horiz-adv-x="521" 
d="M264 849l-68 -86h-117l135 157h103l135 -157h-117l-67 86h-4z" />
    <glyph glyph-name="dieresis.case" horiz-adv-x="461" 
d="M188 894v-108h-109v108h109zM392 894v-108h-109v108h109z" />
    <glyph glyph-name="dotaccent.case" horiz-adv-x="266" 
d="M196 901v-115h-117v115h117z" />
    <glyph glyph-name="grave.case" horiz-adv-x="358" 
d="M289 766h-91l-119 157h129z" />
    <glyph glyph-name="hungarumlaut.case" horiz-adv-x="476" 
d="M238 766l56 157h113l-89 -157h-80zM79 766l57 157h112l-88 -157h-81z" />
    <glyph glyph-name="macron.case" horiz-adv-x="447" 
d="M79 881h299v-82h-299v82z" />
    <glyph glyph-name="ogonek.case" horiz-adv-x="345" 
d="M276 -146v-73q-25 -7 -70 -7q-58 0 -92.5 26t-34.5 73q0 39 25.5 73.5t66.5 54.5h94q-94 -55 -94 -114q0 -20 15.5 -30.5t39.5 -10.5q27 0 50 8z" />
    <glyph glyph-name="ring.case" horiz-adv-x="376" 
d="M112 784q-33 32 -33 79t33 79t82 32q47 0 80 -32t33 -79q0 -46 -33 -78.5t-80 -32.5q-49 0 -82 32zM229 825.5q14 14.5 14 37.5t-14 37.5t-35 14.5q-23 0 -37 -14.5t-14 -37.5t14 -37.5t37 -14.5q21 0 35 14.5z" />
    <glyph glyph-name="tilde.case" horiz-adv-x="493" 
d="M317 859q-15 0 -40 17l-23 15q-18 11 -31 17t-30 6q-45 0 -75 -28t-39 -86l70 -14q9 44 38 44q15 0 39 -16l24 -16q17 -11 30 -16.5t30 -5.5q45 0 75 27.5t39 85.5l-70 14q-8 -44 -37 -44z" />
    <glyph glyph-name="uni0326.case" horiz-adv-x="0" 
d="M167 -252.5q-30 -38.5 -88 -39.5v51q20 1 33.5 18.5t13.5 47.5h-47v115h118v-86q0 -68 -30 -106.5z" />
    </font>
</defs>
</svg>
